<svg xmlns="http://www.w3.org/2000/svg" viewBox="0 0 751.37 1334"><defs><style>.cls-1{isolation:isolate;}.cls-13,.cls-2,.cls-3,.cls-34,.cls-44,.cls-5{fill:#fff;}.cls-2{mix-blend-mode:screen;}.cls-3{stroke:#01b8af;opacity:0.2;}.cls-27,.cls-3,.cls-30,.cls-40,.cls-41{stroke-miterlimit:10;}.cls-3,.cls-30{stroke-width:3px;}.cls-4{fill:#01b8af;}.cls-5{font-size:37.38px;font-family:CerebriSans-Medium, Cerebri Sans;}.cls-6{letter-spacing:-0.08em;}.cls-7{letter-spacing:-0.01em;}.cls-8{letter-spacing:-0.07em;}.cls-9{letter-spacing:0em;}.cls-10{letter-spacing:-0.02em;}.cls-11{letter-spacing:0.01em;}.cls-12{letter-spacing:-0.02em;}.cls-13,.cls-34{font-size:30px;}.cls-13{font-family:GothamBold, Gotham Bold;letter-spacing:0.13em;}.cls-14{font-size:25px;}.cls-14,.cls-17,.cls-31{fill:#e4eaec;}.cls-14,.cls-18,.cls-31{font-family:CircularStd-Book, Circular Std;}.cls-15{letter-spacing:-0.01em;}.cls-16,.cls-27,.cls-30,.cls-40,.cls-41{fill:none;}.cls-18,.cls-31{font-size:20px;}.cls-18{fill:#828183;}.cls-19{letter-spacing:-0.01em;}.cls-20{letter-spacing:0em;}.cls-21{letter-spacing:0em;}.cls-22{fill:#f6f6f6;opacity:0.9;}.cls-23,.cls-45{fill:#010101;}.cls-23{opacity:0.3;}.cls-24{fill:#fbb729;}.cls-25{fill:#eb3591;}.cls-26{fill:#05b5ae;}.cls-27{stroke:#595a5c;stroke-linecap:round;stroke-width:5px;}.cls-28{fill:#ed3393;}.cls-29{letter-spacing:0.01em;}.cls-30{stroke:#e4eaec;}.cls-32{letter-spacing:-0.04em;}.cls-33{letter-spacing:-0.02em;}.cls-34{font-family:CerebriSans-SemiBold, Cerebri Sans;font-weight:700;}.cls-35{letter-spacing:-0.12em;}.cls-36{letter-spacing:0em;}.cls-37{letter-spacing:0em;}.cls-38{letter-spacing:0.03em;}.cls-39{letter-spacing:-0.01em;}.cls-40,.cls-41{stroke:#ed3393;stroke-width:7px;}.cls-41{stroke-dasharray:13.01 13.01;}.cls-42{fill:#fdb82c;}.cls-43{fill:#595a5c;}.cls-44{opacity:0;}.cls-45{opacity:0.1;}</style></defs><title>crowd_transit</title><g class="cls-1"><g id="Layer_2" data-name="Layer 2"><g id="Layer_1-2" data-name="Layer 1"><rect class="cls-2" width="750" height="1334"/><line class="cls-3" x1="750.96" y1="948.8" x2="0.96" y2="948.8"/><path class="cls-4" d="M335.23,325.12H442.75a.12.12,0,0,1,.12.12V503.6a0,0,0,0,1,0,0H335.23a28.1,28.1,0,0,1-28.1-28.1V353.22A28.1,28.1,0,0,1,335.23,325.12Z" transform="translate(789.36 39.36) rotate(90)"/><rect class="cls-4" y="129.34" width="750" height="119.95"/><text class="cls-5" transform="translate(142.18 201.9)"><tspan class="cls-6">T</tspan><tspan x="15.97" y="0">od</tspan><tspan class="cls-7" x="61.63" y="0">a</tspan><tspan x="81.56" y="0">y</tspan><tspan class="cls-8" x="100.88" y="0">’</tspan><tspan x="109.13" y="0">s commu</tspan><tspan class="cls-9" x="267.07" y="0">t</tspan><tspan x="280.59" y="0">e </tspan><tspan class="cls-10" x="312.74" y="0">ov</tspan><tspan x="352.91" y="0">e</tspan><tspan class="cls-11" x="374.04" y="0">r</tspan><tspan x="387.86" y="0">vi</tspan><tspan class="cls-12" x="417.44" y="0">e</tspan><tspan x="437.83" y="0">w</tspan></text><text class="cls-13" transform="translate(233.67 74.84)">GUI OVERVIEW</text><text class="cls-14" transform="translate(331.57 374.21)">9:<tspan class="cls-15" x="21.77" y="0">0</tspan><tspan x="37" y="0">0am</tspan></text><rect class="cls-16" x="1.37" width="750" height="1334"/><path class="cls-17" d="M381.15,445.06l-5.85-9.75-4.12,11.52L363,459.26h0c-1.33,2.26-2.88,3.68-5.08,3.07a3.9,3.9,0,0,1-2.7-5.22l8.33-13.81,3.63-13.24a7.77,7.77,0,0,0-.54-3.18,8.73,8.73,0,0,1-.23-4.34l2.16-12.39-5.36,4.66-2.2,9.4c-.34,2-1.41,3.43-3.24,3.45a3.15,3.15,0,0,1-3.16-3.31h0l2.83-11.68a4.22,4.22,0,0,1,1.65-3l11.73-8.41a10.51,10.51,0,0,1,11.27,2.11l5.7,11.39,6.44,4.91c1.38,1.49,1.56,3.57.2,4.84-1.16,1.09-3.39.35-4.5-.79l-5.59-4.26c-1.1-.66-3.64-5.94-3.64-5.94L379,424.63a2.85,2.85,0,0,0,.41,2.25L388.21,441l2.45,16.16h0c.58,2.65-.6,4.55-2.64,5.08a3.8,3.8,0,0,1-4.69-2.85Z"/><ellipse class="cls-17" cx="380.26" cy="393.47" rx="6.15" ry="6.38" transform="translate(-64.65 74.92) rotate(-10.38)"/><line class="cls-3" x1="750.96" y1="345.3" x2="0.96" y2="345.3"/><line class="cls-3" x1="750.96" y1="546.8" x2="0.96" y2="546.8"/><line class="cls-3" x1="750.96" y1="748.3" x2="0.96" y2="748.3"/><text class="cls-18" transform="translate(24.26 341.55)">N<tspan class="cls-19" x="15.26" y="0">o</tspan><tspan class="cls-20" x="26.5" y="0">w</tspan></text><text class="cls-18" transform="translate(8.76 744.61)">9:30 am</text><text class="cls-18" transform="translate(11.42 543.08)">9:15 am</text><text class="cls-18" transform="translate(9.21 945.83)">9:45 am</text><text class="cls-18" transform="translate(298.73 1271.04)"><tspan class="cls-21">F</tspan><tspan x="10.92" y="0">inal Destination</tspan></text><rect class="cls-22" x="0.23" y="0.84" width="750" height="128"/><rect class="cls-23" x="0.23" y="128.84" width="750" height="1"/><path class="cls-24" d="M356.48,113.53a4.29,4.29,0,0,1-4.29-4.29v-34a15.17,15.17,0,1,0-30.35,0V104.8h5.27a6.19,6.19,0,0,0,6.18-6.18v-18a4.29,4.29,0,0,1,8.58,0v18a14.77,14.77,0,0,1-14.76,14.75h-9.55a4.29,4.29,0,0,1-4.29-4.29V75.29a23.75,23.75,0,0,1,47.5,0v34A4.29,4.29,0,0,1,356.48,113.53Z"/><path class="cls-25" d="M394.68,113.53a23.78,23.78,0,0,1-23.75-23.75v-34a4.29,4.29,0,0,1,8.58,0v34a15.17,15.17,0,1,0,30.35,0V56a4.29,4.29,0,0,1,8.58,0v33.8A23.78,23.78,0,0,1,394.68,113.53Z"/><path class="cls-26" d="M432.9,113.76a4.29,4.29,0,0,1-4.29-4.29V55.59a4.29,4.29,0,0,1,8.58,0v53.88A4.29,4.29,0,0,1,432.9,113.76Z"/><line class="cls-27" x1="707.7" y1="69.2" x2="670.28" y2="69.2"/><line class="cls-27" x1="707.7" y1="82.53" x2="670.28" y2="82.53"/><line class="cls-27" x1="707.7" y1="95.87" x2="670.28" y2="95.87"/><path class="cls-28" d="M153.67,774.45H565.84a30.49,30.49,0,0,1,30.49,30.49v117.5a30.49,30.49,0,0,1-30.49,30.49H153.67a0,0,0,0,1,0,0V774.45A0,0,0,0,1,153.67,774.45Z" transform="translate(1238.69 488.69) rotate(90)"/><path class="cls-4" d="M283.2,1062.83H436.31a30.49,30.49,0,0,1,30.49,30.49v117.5a30.49,30.49,0,0,1-30.49,30.49H283.2a0,0,0,0,1,0,0V1062.83a0,0,0,0,1,0,0Z" transform="translate(1527.07 777.07) rotate(90)"/><text class="cls-14" transform="translate(334.71 670.04)">9:<tspan class="cls-29" x="21.77" y="0">1</tspan><tspan x="30.72" y="0">0am</tspan></text><text class="cls-14" transform="translate(333.71 1048.53)">9:<tspan class="cls-15" x="21.77" y="0">4</tspan><tspan x="36" y="0">7am</tspan></text><text class="cls-14" transform="translate(333.16 1228.25)">9:55am</text><circle class="cls-30" cx="375" cy="847.74" r="39.85"/><polygon class="cls-17" points="403.88 826.07 346.04 826.07 346.04 839.73 367.58 839.73 367.58 875.39 382.3 875.39 382.3 839.73 403.88 839.73 403.88 826.07"/><path class="cls-17" d="M381.15,1172.35l-5.85-9.75-4.12,11.52L363,1186.54h0c-1.33,2.26-2.88,3.68-5.08,3.07a3.9,3.9,0,0,1-2.7-5.22l8.33-13.81,3.63-13.24a7.77,7.77,0,0,0-.54-3.18,8.73,8.73,0,0,1-.23-4.34l2.16-12.39-5.36,4.66-2.2,9.4c-.34,2-1.41,3.43-3.24,3.45a3.15,3.15,0,0,1-3.16-3.31h0l2.83-11.68a4.22,4.22,0,0,1,1.65-3l11.73-8.41a10.51,10.51,0,0,1,11.27,2.11l5.7,11.39,6.44,4.91c1.38,1.49,1.56,3.57.2,4.84-1.16,1.09-3.39.35-4.5-.79l-5.59-4.26c-1.1-.66-3.64-5.94-3.64-5.94L379,1151.91a2.85,2.85,0,0,0,.41,2.25l8.79,14.09,2.45,16.16h0c.58,2.65-.6,4.55-2.64,5.08a3.8,3.8,0,0,1-4.69-2.85Z"/><ellipse class="cls-17" cx="380.26" cy="1120.75" rx="6.15" ry="6.38" transform="translate(-195.64 86.82) rotate(-10.38)"/><text class="cls-31" transform="translate(308.6 693.48)"><tspan class="cls-32">K</tspan><tspan x="12.66" y="0">endall </tspan><tspan class="cls-19" x="72.12" y="0">S</tspan><tspan x="83.78" y="0">qua</tspan><tspan class="cls-21" x="117.18" y="0">r</tspan><tspan x="124.42" y="0">e </tspan></text><text class="cls-31" transform="translate(342.27 1021.45)">Al<tspan class="cls-21" x="19.02" y="0">e</tspan><tspan x="29.76" y="0">wi</tspan><tspan class="cls-33" x="50.68" y="0">f</tspan><tspan x="57.14" y="0">e</tspan></text><rect class="cls-28" y="1174.62" width="750" height="159.38"/><text class="cls-34" transform="translate(58.5 1239.35)"><tspan class="cls-35">Y</tspan><tspan x="14.81" y="0">our cur</tspan><tspan class="cls-36" x="116.31" y="0">r</tspan><tspan x="127.15" y="0">ent commu</tspan><tspan class="cls-37" x="287.55" y="0">t</tspan><tspan x="298.65" y="0">e has s</tspan><tspan class="cls-33" x="395.98" y="0">ev</tspan><tspan x="427.76" y="0">e</tspan><tspan class="cls-36" x="444.87" y="0">r</tspan><tspan x="455.71" y="0">e anomalies. </tspan><tspan x="82.98" y="44.85">Click on the ale</tspan><tspan class="cls-38" x="305.99" y="44.85">r</tspan><tspan x="317.81" y="44.85">ts </tspan><tspan class="cls-37" x="352.1" y="44.85">t</tspan><tspan x="363.21" y="44.85">o learn mo</tspan><tspan class="cls-36" x="513.52" y="44.85">r</tspan><tspan class="cls-39" x="524.36" y="44.85">e</tspan><tspan x="541.07" y="44.85">.</tspan></text><line class="cls-40" x1="376.17" y1="487.26" x2="376.17" y2="493.26"/><line class="cls-41" x1="376.17" y1="506.27" x2="376.17" y2="629.86"/><line class="cls-40" x1="376.17" y1="636.36" x2="376.17" y2="642.36"/><path class="cls-42" d="M644.06,608.08H510.73V546.14H621.58a8.68,8.68,0,0,1,7.75,4.77l22.48,44.57A8.68,8.68,0,0,1,644.06,608.08Z"/><path class="cls-28" d="M652,595.89c-.06-.13-.12-.27-.19-.4l-22.48-44.57a8.68,8.68,0,0,0-7.75-4.77H510.73v42.11H628.48Z"/><path class="cls-4" d="M510.14,613H655.81a2.36,2.36,0,0,1,2.36,2.36v.11a2.36,2.36,0,0,1-2.36,2.36H510.14a0,0,0,0,1,0,0V613A0,0,0,0,1,510.14,613Z"/><path class="cls-42" d="M528.47,577.11H510.73V556h17.74a3.4,3.4,0,0,1,3.39,3.39v14.35A3.4,3.4,0,0,1,528.47,577.11Z"/><path class="cls-42" d="M606.61,556h25.28l10.66,21.12H606.61a3.4,3.4,0,0,1-3.39-3.39V559.37A3.4,3.4,0,0,1,606.61,556Z"/><path class="cls-42" d="M572.32,577.11H542.79a4.78,4.78,0,0,1-4.78-4.78V560.76a4.78,4.78,0,0,1,4.78-4.78h29.53a4.61,4.61,0,0,1,4.6,4.6v11.93A4.61,4.61,0,0,1,572.32,577.11Z"/><path class="cls-4" d="M510.73,591.86H588a1.72,1.72,0,0,1,1.72,1.72V595a1.72,1.72,0,0,1-1.72,1.72H510.73a0,0,0,0,1,0,0v-4.82a0,0,0,0,1,0,0Z"/><path class="cls-42" d="M491.83,569.16a6.24,6.24,0,0,1-5.4-9.36l26.67-46.19a6.24,6.24,0,0,1,10.81,0l26.67,46.19a6.24,6.24,0,0,1-5.4,9.36Z"/><path class="cls-43" d="M518.5,513.48a3.19,3.19,0,0,1,2.81,1.62L548,561.3a3.25,3.25,0,0,1-2.81,4.87H491.83A3.25,3.25,0,0,1,489,561.3l26.67-46.19a3.19,3.19,0,0,1,2.81-1.62m0-6a9.15,9.15,0,0,0-8,4.62l-26.67,46.19a9.23,9.23,0,0,0,8,13.85h53.34a9.23,9.23,0,0,0,8-13.85l-26.67-46.19a9.15,9.15,0,0,0-8-4.62Z"/><rect class="cls-43" x="505.03" y="538.15" width="26.94" height="3.36" rx="1.59" ry="1.59" transform="translate(1058.32 21.33) rotate(90)"/><circle class="cls-43" cx="518.5" cy="558.37" r="2.46"/><g id="Page_Controls_-_Standard_Dark" data-name="Page Controls - Standard Dark"><rect id="Page_Controls_Frame" data-name="Page Controls Frame" class="cls-44" x="0.7" y="1143.98" width="750" height="30"/><g id="Page_Controls_Group" data-name="Page Controls Group"><rect id="Page_Controls_Frame-2" data-name="Page Controls Frame" class="cls-16" x="0.7" y="1143.98" width="750" height="30"/><circle id="Page_Control_-_Inactive" data-name="Page Control - Inactive" class="cls-45" cx="407" cy="1158.98" r="7"/><circle id="Page_Control_-_Inactive-2" data-name="Page Control - Inactive" class="cls-45" cx="375" cy="1158.98" r="7"/><circle id="Page_Control_-_Active" data-name="Page Control - Active" class="cls-43" cx="343" cy="1158.98" r="7"/></g></g><rect class="cls-23" x="1.37" y="1174.12" width="750" height="1"/><path class="cls-42" d="M532.38,824.89s7.17-2.93,8.68,32.16H513.81s-3.82-34.29,6.11-32.22Z"/><path class="cls-4" d="M580.21,824.89s7.17-2.93,8.68,32.16H561.65s-3.82-34.29,6.11-32.22Z"/><path class="cls-42" d="M629.06,824.89s7.17-2.93,8.68,32.16H610.49s-3.82-34.29,6.11-32.22Z"/><circle class="cls-4" cx="524.52" cy="817.61" r="10.71"/><circle class="cls-42" cx="573.76" cy="817.61" r="10.71"/><circle class="cls-4" cx="620.48" cy="817.61" r="10.71"/><path class="cls-28" d="M602.14,845s7.17-2.93,8.68,32.16H583.58s-3.82-34.29,6.11-32.22Z"/><path class="cls-28" d="M561.12,845s7.17-2.93,8.68,32.16H542.56s-3.82-34.29,6.11-32.22Z"/><path class="cls-42" d="M537.41,867.15s7.17-2.93,8.68,32.16H518.85S515,865,525,867.09Z"/><path class="cls-4" d="M580.21,872.19s7.17-2.93,8.68,32.16H561.65s-3.82-34.29,6.11-32.22Z"/><path class="cls-42" d="M626.54,867.15s7.17-2.93,8.68,32.16H608s-3.82-34.29,6.11-32.22Z"/><circle class="cls-4" cx="529.56" cy="859.87" r="10.71"/><circle class="cls-42" cx="573.76" cy="864.91" r="10.71"/><circle class="cls-4" cx="617.96" cy="859.87" r="10.71"/><circle class="cls-42" cx="553.49" cy="836.36" r="10.71"/><circle class="cls-42" cx="594.34" cy="836.36" r="10.71"/><path class="cls-42" d="M510.5,841.1a5.06,5.06,0,0,1-4.38-7.58l21.61-37.42a5.06,5.06,0,0,1,8.76,0l21.61,37.42a5.06,5.06,0,0,1-4.38,7.58Z"/><path class="cls-43" d="M532.11,796a2.59,2.59,0,0,1,2.28,1.32L556,834.73a2.63,2.63,0,0,1-2.28,3.95H510.5a2.63,2.63,0,0,1-2.28-3.95l21.61-37.42a2.59,2.59,0,0,1,2.28-1.32m0-4.85a7.41,7.41,0,0,0-6.48,3.74L504,832.3a7.48,7.48,0,0,0,6.48,11.22h43.21a7.48,7.48,0,0,0,6.48-11.22l-21.61-37.42a7.41,7.41,0,0,0-6.48-3.74Z"/><rect class="cls-43" x="521.19" y="815.97" width="21.83" height="2.72" rx="1.29" ry="1.29" transform="translate(1349.44 285.22) rotate(90)"/><circle class="cls-43" cx="532.11" cy="832.36" r="1.99"/></g></g></g></svg>