<svg xmlns="http://www.w3.org/2000/svg" viewBox="0 0 752 1334"><defs><style>.cls-1{isolation:isolate;}.cls-2{mix-blend-mode:screen;}.cls-3{fill:#fff;}.cls-4{opacity:0.2;}.cls-5{fill:#01b8af;}.cls-6{fill:#e4eaec;}.cls-7{fill:none;}.cls-8{fill:#828183;}.cls-9{opacity:0.9;}.cls-10{fill:#f6f6f6;}.cls-11{opacity:0.3;}.cls-12{fill:#010101;}.cls-13{fill:#fbb729;}.cls-14{fill:#eb3591;}.cls-15{fill:#05b5ae;}.cls-16{opacity:0;}.cls-17{opacity:0.1;}.cls-18{fill:#595a5c;}</style></defs><title>None</title><g class="cls-1"><g id="Layer_2" data-name="Layer 2"><g id="Layer_1-2" data-name="Layer 1"><g class="cls-2"><rect class="cls-3" x="0.64" width="750" height="1334"/></g><g class="cls-4"><line class="cls-3" x1="751.6" y1="948.8" x2="1.6" y2="948.8"/><rect class="cls-5" x="1.6" y="947.29" width="750" height="3"/></g><rect class="cls-5" x="295.74" y="337.14" width="159.79" height="178.48" rx="30.49" ry="30.49" transform="matrix(0, 1, -1, 0, 802.01, 50.74)"/><path class="cls-5" d="M154.31,614.32H566.47A30.49,30.49,0,0,1,597,644.81v117.5a30.49,30.49,0,0,1-30.49,30.49H154.31a0,0,0,0,1,0,0V614.32a0,0,0,0,1,0,0Z" transform="translate(1079.2 327.93) rotate(90)"/><path class="cls-5" d="M283.84,902.7H436.94a30.49,30.49,0,0,1,30.49,30.49v117.5a30.49,30.49,0,0,1-30.49,30.49H283.84a0,0,0,0,1,0,0V902.7A0,0,0,0,1,283.84,902.7Z" transform="translate(1367.58 616.31) rotate(90)"/><rect class="cls-5" x="0.64" y="1174.62" width="750" height="159.38"/><rect class="cls-5" x="0.64" y="126.75" width="750" height="122.54"/><path class="cls-3" d="M160.9,179.76h-6.42V201.9h-4.34V179.76h-6.44v-3.89H160.9Z"/><path class="cls-3" d="M164.92,201.09a8.43,8.43,0,0,1-3.44-3.31,10.91,10.91,0,0,1,0-10.11,8.44,8.44,0,0,1,3.43-3.31,11.33,11.33,0,0,1,10,0,8.45,8.45,0,0,1,3.43,3.31,9.91,9.91,0,0,1,1.24,5,10,10,0,0,1-1.24,5.08,8.36,8.36,0,0,1-3.44,3.31,10.61,10.61,0,0,1-5,1.15A10.5,10.5,0,0,1,164.92,201.09Zm7.78-3a5.27,5.27,0,0,0,2-2.16,7.62,7.62,0,0,0,0-6.43,5.29,5.29,0,0,0-2-2.15,5.37,5.37,0,0,0-2.85-.77,5.19,5.19,0,0,0-2.8.77,5.28,5.28,0,0,0-1.93,2.15,7.71,7.71,0,0,0,0,6.43,5.26,5.26,0,0,0,1.93,2.16,5.19,5.19,0,0,0,2.8.77A5.36,5.36,0,0,0,172.71,198.09Z"/><path class="cls-3" d="M201.47,173.87v28h-4l-.11-2.92a5.91,5.91,0,0,1-2.46,2.45,7.5,7.5,0,0,1-3.66.89,8.38,8.38,0,0,1-7.54-4.53,11.46,11.46,0,0,1,0-10.08,8.39,8.39,0,0,1,7.54-4.52,7.6,7.6,0,0,1,3.59.85,5.9,5.9,0,0,1,2.45,2.33l0-12.5ZM194.91,198a5.34,5.34,0,0,0,2-2.14,6.67,6.67,0,0,0,.71-3.11,6.56,6.56,0,0,0-.72-3.1,5.43,5.43,0,0,0-2-2.14,5.11,5.11,0,0,0-2.74-.77,5.28,5.28,0,0,0-2.75.74,5.21,5.21,0,0,0-2,2.11,7.31,7.31,0,0,0,0,6.33,5.21,5.21,0,0,0,2,2.11,5.29,5.29,0,0,0,2.75.74A5.14,5.14,0,0,0,194.91,198Z"/><path class="cls-3" d="M208.89,201.73a4.45,4.45,0,0,1-2-1.64,4.93,4.93,0,0,1-.77-2.84,4.78,4.78,0,0,1,.91-3,5.79,5.79,0,0,1,2.43-1.79,18.9,18.9,0,0,1,3.69-1l2.77-.51a2.51,2.51,0,0,0,1.3-.58,1.45,1.45,0,0,0,.4-1.08,2.61,2.61,0,0,0-1-2.29,4.36,4.36,0,0,0-2.57-.72,4.3,4.3,0,0,0-2.65.78,3.4,3.4,0,0,0-1.24,2.45l-3.78-.69q.93-5.55,7.92-5.55a9,9,0,0,1,5.29,1.46q2.08,1.46,2.08,5v7.12a4.32,4.32,0,0,0,.16,1.35,1.15,1.15,0,0,0,.54.67,2.19,2.19,0,0,0,1,.2h.29v2.87h-2a4.61,4.61,0,0,1-2.49-.58,2.89,2.89,0,0,1-1.23-1.84h-.2a6,6,0,0,1-2.6,2.1,8.62,8.62,0,0,1-3.39.67A7.46,7.46,0,0,1,208.89,201.73Zm6.4-3.29a4.43,4.43,0,0,0,1.83-1.6,4.75,4.75,0,0,0,.73-2.71v-.89l-4.31.88A6.12,6.12,0,0,0,211,195a1.94,1.94,0,0,0-.83,1.66,2,2,0,0,0,.79,1.71,3.45,3.45,0,0,0,2.05.57A5.28,5.28,0,0,0,215.29,198.43Z"/><path class="cls-3" d="M243.37,183.54l-11,27h-4.29L232,201.3l-7.35-17.76h4.62l4.76,13.14L239,183.54Z"/><path class="cls-3" d="M246.1,185.5l2.26-11.62h4.34l-3.58,11.63Z"/><path class="cls-3" d="M255.9,200.94a5.45,5.45,0,0,1-2.52-3.79l3.56-1a3.8,3.8,0,0,0,1.44,2.31,4.43,4.43,0,0,0,2.66.78,4.27,4.27,0,0,0,2.21-.54,2.06,2.06,0,0,0,.42-3,3.51,3.51,0,0,0-1.27-.83q-.77-.31-2.18-.71-.93-.25-1.7-.51a12.56,12.56,0,0,1-2.41-1A4.74,4.74,0,0,1,254.5,191a4.43,4.43,0,0,1-.64-2.47,4.84,4.84,0,0,1,.89-3,5.3,5.3,0,0,1,2.45-1.78,9.88,9.88,0,0,1,3.5-.58,8.57,8.57,0,0,1,4.64,1.19,5.18,5.18,0,0,1,2.34,3.63l-3.32.79a3.3,3.3,0,0,0-1.32-2,4.52,4.52,0,0,0-4.45-.14,1.72,1.72,0,0,0-.87,1.58,1.59,1.59,0,0,0,.49,1.21,3.45,3.45,0,0,0,1.23.73q.74.27,2.09.61l.67.18a18.9,18.9,0,0,1,3,1.06,5.46,5.46,0,0,1,2.11,1.72,4.81,4.81,0,0,1,.85,2.95,5.05,5.05,0,0,1-1,3.18,5.46,5.46,0,0,1-2.58,1.82,10.92,10.92,0,0,1-3.62.57A9.45,9.45,0,0,1,255.9,200.94Z"/><path class="cls-3" d="M286.68,201a8.52,8.52,0,0,1-3.38-3.36,10.74,10.74,0,0,1,0-10,8.54,8.54,0,0,1,3.38-3.35,10,10,0,0,1,4.9-1.19,10.23,10.23,0,0,1,4,.75,7.87,7.87,0,0,1,3,2.19,8.3,8.3,0,0,1,1.72,3.47l-3.91.51a4.9,4.9,0,0,0-1.8-2.63,5.06,5.06,0,0,0-3-.91,5,5,0,0,0-2.73.77,5.19,5.19,0,0,0-1.87,2.15,8,8,0,0,0,0,6.42,5.19,5.19,0,0,0,1.87,2.15,5,5,0,0,0,2.73.77,5.1,5.1,0,0,0,3-.9,4.85,4.85,0,0,0,1.8-2.62l3.91.49a8.26,8.26,0,0,1-1.73,3.46,8.08,8.08,0,0,1-3,2.21,10.69,10.69,0,0,1-8.84-.43Z"/><path class="cls-3" d="M307.67,201.09a8.43,8.43,0,0,1-3.44-3.31,10.91,10.91,0,0,1,0-10.11,8.44,8.44,0,0,1,3.43-3.31,11.33,11.33,0,0,1,10,0,8.45,8.45,0,0,1,3.43,3.31,9.91,9.91,0,0,1,1.24,5,10,10,0,0,1-1.24,5.08,8.36,8.36,0,0,1-3.44,3.31,10.61,10.61,0,0,1-5,1.15A10.5,10.5,0,0,1,307.67,201.09Zm7.78-3a5.27,5.27,0,0,0,2-2.16,7.62,7.62,0,0,0,0-6.43,5.29,5.29,0,0,0-2-2.15,5.37,5.37,0,0,0-2.85-.77,5.19,5.19,0,0,0-2.8.77,5.28,5.28,0,0,0-1.93,2.15,7.71,7.71,0,0,0,0,6.43,5.26,5.26,0,0,0,1.93,2.16,5.19,5.19,0,0,0,2.8.77A5.36,5.36,0,0,0,315.45,198.09Z"/><path class="cls-3" d="M350.28,183.87a4.93,4.93,0,0,1,2.16,2,6.19,6.19,0,0,1,.77,3.17V201.9H349V190.2a3.61,3.61,0,0,0-.91-2.67,3.14,3.14,0,0,0-2.3-.9,3.44,3.44,0,0,0-2.64,1.09,4.78,4.78,0,0,0-1,3.35V201.9h-4.27V190.29a3.74,3.74,0,0,0-.92-2.74,3.16,3.16,0,0,0-2.34-.93,3.42,3.42,0,0,0-2.65,1.12,5.07,5.07,0,0,0-1,3.49V201.9h-4.18V183.54h4.18v2.26a5.94,5.94,0,0,1,2.2-1.93,6.47,6.47,0,0,1,3-.68,7,7,0,0,1,3.29.74,4.86,4.86,0,0,1,2.12,2.13,5.94,5.94,0,0,1,2.31-2.13,6.88,6.88,0,0,1,3.2-.73A7.4,7.4,0,0,1,350.28,183.87Z"/><path class="cls-3" d="M382.37,183.87a4.93,4.93,0,0,1,2.16,2,6.19,6.19,0,0,1,.77,3.17V201.9h-4.22V190.2a3.61,3.61,0,0,0-.91-2.67,3.14,3.14,0,0,0-2.3-.9,3.44,3.44,0,0,0-2.64,1.09,4.78,4.78,0,0,0-1,3.35V201.9h-4.27V190.29a3.74,3.74,0,0,0-.92-2.74,3.16,3.16,0,0,0-2.34-.93,3.42,3.42,0,0,0-2.65,1.12,5.07,5.07,0,0,0-1,3.49V201.9h-4.18V183.54H363v2.26a5.94,5.94,0,0,1,2.2-1.93,6.47,6.47,0,0,1,3-.68,7,7,0,0,1,3.29.74,4.86,4.86,0,0,1,2.12,2.13,5.94,5.94,0,0,1,2.31-2.13,6.88,6.88,0,0,1,3.2-.73A7.4,7.4,0,0,1,382.37,183.87Z"/><path class="cls-3" d="M406.9,183.54V201.9h-4l-.11-2.3a6.13,6.13,0,0,1-2.38,2,7.59,7.59,0,0,1-3.28.68,6.79,6.79,0,0,1-4.85-1.65,6.15,6.15,0,0,1-1.75-4.7V183.54h4.23V195a3.77,3.77,0,0,0,1,2.89,3.7,3.7,0,0,0,2.62.94,4.26,4.26,0,0,0,3.09-1.16,4.82,4.82,0,0,0,1.21-3.57V183.54Z"/><path class="cls-3" d="M415.33,200.5a5.4,5.4,0,0,1-1.39-4v-9.71h-3.67v-3.29h1.26a2.87,2.87,0,0,0,2.16-.7,3.55,3.55,0,0,0,.67-2.46v-2.85h3.83v6h4v3.29h-4v9.27a2.63,2.63,0,0,0,.63,1.91,2.27,2.27,0,0,0,1.71.65h1.66v3.25h-3A5.19,5.19,0,0,1,415.33,200.5Z"/><path class="cls-3" d="M443,193.47H429a6.2,6.2,0,0,0,.8,3,4.72,4.72,0,0,0,1.9,1.82,5.61,5.61,0,0,0,2.61.6,5,5,0,0,0,2.73-.75,4.72,4.72,0,0,0,1.82-2.14l3.83.66a8.07,8.07,0,0,1-3.18,4.12,9.12,9.12,0,0,1-5.17,1.48,10.44,10.44,0,0,1-5-1.13,8,8,0,0,1-3.32-3.28,11.56,11.56,0,0,1,0-10.22,8.15,8.15,0,0,1,3.31-3.29,10,10,0,0,1,4.84-1.14,9.77,9.77,0,0,1,4.56,1,7.35,7.35,0,0,1,3.1,3.09,10.56,10.56,0,0,1,1.13,5.12Zm-12-6.18a4.84,4.84,0,0,0-1.74,3h9.62a4.42,4.42,0,0,0-1.46-3,4.67,4.67,0,0,0-3.1-1A5.36,5.36,0,0,0,430.95,187.29Z"/><path class="cls-3" d="M461.7,201.09a8.43,8.43,0,0,1-3.44-3.31,10.91,10.91,0,0,1,0-10.11,8.44,8.44,0,0,1,3.43-3.31,11.33,11.33,0,0,1,10,0,8.45,8.45,0,0,1,3.43,3.31,9.91,9.91,0,0,1,1.24,5,10,10,0,0,1-1.24,5.08,8.36,8.36,0,0,1-3.44,3.31,10.61,10.61,0,0,1-5,1.15A10.5,10.5,0,0,1,461.7,201.09Zm7.78-3a5.27,5.27,0,0,0,2-2.16,7.62,7.62,0,0,0,0-6.43,5.29,5.29,0,0,0-2-2.15,5.37,5.37,0,0,0-2.85-.77,5.19,5.19,0,0,0-2.8.77,5.28,5.28,0,0,0-1.93,2.15,7.71,7.71,0,0,0,0,6.43,5.26,5.26,0,0,0,1.93,2.16,5.19,5.19,0,0,0,2.8.77A5.36,5.36,0,0,0,469.48,198.09Z"/><path class="cls-3" d="M496.2,183.54l-7.65,18.36h-3.63l-7.59-18.36h4.45l4.95,13.54,5-13.54Z"/><path class="cls-3" d="M515.31,193.47h-14a6.2,6.2,0,0,0,.8,3,4.72,4.72,0,0,0,1.9,1.82,5.61,5.61,0,0,0,2.61.6,5,5,0,0,0,2.73-.75A4.72,4.72,0,0,0,511.2,196l3.83.66a8.07,8.07,0,0,1-3.18,4.12,9.12,9.12,0,0,1-5.17,1.48,10.44,10.44,0,0,1-5-1.13,8,8,0,0,1-3.32-3.28,11.56,11.56,0,0,1,0-10.22,8.15,8.15,0,0,1,3.31-3.29,10,10,0,0,1,4.84-1.14,9.77,9.77,0,0,1,4.56,1,7.35,7.35,0,0,1,3.1,3.09,10.56,10.56,0,0,1,1.13,5.12Zm-12-6.18a4.84,4.84,0,0,0-1.74,3h9.62a4.42,4.42,0,0,0-1.46-3,4.67,4.67,0,0,0-3.1-1A5.36,5.36,0,0,0,503.27,187.29Z"/><path class="cls-3" d="M525.22,185a6.82,6.82,0,0,1,2.08-1.19,7.18,7.18,0,0,1,2.49-.44v3.83a6.47,6.47,0,0,0-4.33,1.23q-1.41,1.23-1.41,4.13v9.36h-4.22V183.54h4.05v3.08A5.27,5.27,0,0,1,525.22,185Z"/><path class="cls-3" d="M549.81,183.54l-7.65,18.36h-3.63l-7.59-18.36h4.45l4.95,13.54,5-13.54Z"/><path class="cls-3" d="M553.92,179.69a2.54,2.54,0,0,1-.95-.94,2.56,2.56,0,0,1,0-2.57,2.6,2.6,0,0,1,2.24-1.29,2.48,2.48,0,0,1,1.27.35,2.65,2.65,0,0,1,.95.94,2.51,2.51,0,0,1,0,2.57,2.64,2.64,0,0,1-.95.94,2.47,2.47,0,0,1-1.27.35A2.55,2.55,0,0,1,553.92,179.69Zm-.86,3.85h4.22V201.9h-4.22Z"/><path class="cls-3" d="M579.84,193.47h-14a6.2,6.2,0,0,0,.8,3,4.72,4.72,0,0,0,1.9,1.82,5.61,5.61,0,0,0,2.61.6,5,5,0,0,0,2.73-.75,4.72,4.72,0,0,0,1.82-2.14l3.83.66a8.07,8.07,0,0,1-3.18,4.12,9.12,9.12,0,0,1-5.17,1.48,10.44,10.44,0,0,1-5-1.13,8,8,0,0,1-3.32-3.28,11.56,11.56,0,0,1,0-10.22,8.15,8.15,0,0,1,3.31-3.29,10,10,0,0,1,4.84-1.14,9.77,9.77,0,0,1,4.56,1,7.35,7.35,0,0,1,3.1,3.09,10.56,10.56,0,0,1,1.13,5.12Zm-12-6.18a4.84,4.84,0,0,0-1.74,3h9.62a4.42,4.42,0,0,0-1.46-3,4.67,4.67,0,0,0-3.1-1A5.36,5.36,0,0,0,567.8,187.29Z"/><path class="cls-3" d="M610.75,183.54l-6.39,18.38h-3.85l-4.62-13.12-4.62,13.12h-3.91l-6.26-18.38h4.34l4.16,13,4.64-13h3.25l4.64,13,4.23-13Z"/><path class="cls-3" d="M246.94,75.2a12,12,0,0,1-4.49-.81A10.34,10.34,0,0,1,239,72.13a10.15,10.15,0,0,1-2.26-3.42,11.3,11.3,0,0,1-.81-4.32v-.06a10.73,10.73,0,0,1,6.6-10,11.14,11.14,0,0,1,4.41-.86,15.49,15.49,0,0,1,2.57.2,12.27,12.27,0,0,1,2.14.55,10,10,0,0,1,1.86.9,14,14,0,0,1,1.68,1.23l-2.91,3.51A12,12,0,0,0,251,59a7.93,7.93,0,0,0-1.25-.66,7.41,7.41,0,0,0-1.4-.42,8.46,8.46,0,0,0-1.65-.15,5.37,5.37,0,0,0-2.36.53,6.34,6.34,0,0,0-1.92,1.41,6.51,6.51,0,0,0-1.29,2.07,6.9,6.9,0,0,0-.46,2.54v.06a7.39,7.39,0,0,0,.46,2.66,6.31,6.31,0,0,0,1.32,2.12,6,6,0,0,0,2,1.4,6.43,6.43,0,0,0,2.57.5,7.27,7.27,0,0,0,4.35-1.27v-3h-4.65v-4h9.12v9.12a15.38,15.38,0,0,1-3.85,2.35A12.68,12.68,0,0,1,246.94,75.2Z"/><path class="cls-3" d="M272.86,75.17a9.2,9.2,0,0,1-6.66-2.34q-2.43-2.34-2.43-7v-12h4.62V65.71a5.56,5.56,0,0,0,1.2,3.88,4.3,4.3,0,0,0,3.33,1.31,4.38,4.38,0,0,0,3.33-1.26,5.29,5.29,0,0,0,1.2-3.78v-12h4.62V65.68a12.18,12.18,0,0,1-.65,4.17,7.85,7.85,0,0,1-1.84,3,7.53,7.53,0,0,1-2.91,1.77A11.73,11.73,0,0,1,272.86,75.17Z"/><path class="cls-3" d="M290.74,53.83h4.62v21h-4.62Z"/><path class="cls-3" d="M327.31,75.2a11.44,11.44,0,0,1-4.47-.86A11.13,11.13,0,0,1,319.31,72,10.34,10.34,0,0,1,317,68.61a10.77,10.77,0,0,1-.83-4.22v-.06a10.61,10.61,0,0,1,.84-4.21,10.74,10.74,0,0,1,5.87-5.79,12.15,12.15,0,0,1,9,0,11.14,11.14,0,0,1,3.53,2.31,10.35,10.35,0,0,1,2.31,3.42,10.79,10.79,0,0,1,.83,4.22v.06a10.61,10.61,0,0,1-.84,4.21,10.74,10.74,0,0,1-5.87,5.79A11.56,11.56,0,0,1,327.31,75.2Zm.06-4.26a6.3,6.3,0,0,0,2.55-.51,5.82,5.82,0,0,0,2-1.41,6.64,6.64,0,0,0,1.29-2.08,6.89,6.89,0,0,0,.46-2.54v-.06a7,7,0,0,0-.46-2.55,6.29,6.29,0,0,0-3.35-3.53,6.16,6.16,0,0,0-2.55-.52,6.28,6.28,0,0,0-2.56.51,5.85,5.85,0,0,0-2,1.41,6.65,6.65,0,0,0-1.29,2.08,6.87,6.87,0,0,0-.46,2.54v.06a7,7,0,0,0,.46,2.55,6.33,6.33,0,0,0,3.33,3.53A6.13,6.13,0,0,0,327.37,70.93Z"/><path class="cls-3" d="M344.56,53.83h5.1l5.49,14.79,5.49-14.79h5L357.13,75H353Z"/><path class="cls-3" d="M372.6,53.83h15.81v4.11H377.17v4.26h9.9v4.11h-9.9v4.41h11.4v4.11h-16Z"/><path class="cls-3" d="M396.45,53.83h9.6A8.29,8.29,0,0,1,412.18,56a6.49,6.49,0,0,1,1.8,4.8v.06A6.58,6.58,0,0,1,412.73,65a7.21,7.21,0,0,1-3.25,2.36l5.13,7.5h-5.4l-4.5-6.72h-3.63v6.72h-4.62Zm9.3,10.2a3.84,3.84,0,0,0,2.63-.81,2.74,2.74,0,0,0,.92-2.16V61a2.68,2.68,0,0,0-1-2.25,4.24,4.24,0,0,0-2.67-.75h-4.59v6Z"/><path class="cls-3" d="M420.09,53.83h5.1l5.49,14.79,5.49-14.79h5L432.66,75h-4.08Z"/><path class="cls-3" d="M448.35,53.83H453v21h-4.62Z"/><path class="cls-3" d="M462,53.83h15.81v4.11H466.53v4.26h9.9v4.11h-9.9v4.41h11.4v4.11H462Z"/><path class="cls-3" d="M484.2,53.83h4.95l4.35,14.22,4.71-14.28h4l4.71,14.28,4.35-14.22h4.83L508.89,75h-4l-4.74-13.74L495.39,75h-4Z"/><path class="cls-3" d="M128.65,1229.32v10h-3.82v-10l-6.93-11h4.25l4.58,7.6,4.6-7.6h4.22Z"/><path class="cls-3" d="M137.26,1238.72a6.8,6.8,0,0,1-2.82-2.68,8.82,8.82,0,0,1,0-8.21,6.78,6.78,0,0,1,2.81-2.67,9.52,9.52,0,0,1,8.21,0,6.79,6.79,0,0,1,2.8,2.67,8.8,8.8,0,0,1,0,8.21,6.81,6.81,0,0,1-2.81,2.68,9.46,9.46,0,0,1-8.18,0Zm6.29-2.61a4,4,0,0,0,1.54-1.69,5.5,5.5,0,0,0,.55-2.51,5.41,5.41,0,0,0-.56-2.5,4.09,4.09,0,0,0-1.54-1.68,4.23,4.23,0,0,0-2.24-.59,4,4,0,0,0-3.7,2.28,5.47,5.47,0,0,0-.55,2.5,5.57,5.57,0,0,0,.54,2.51,4,4,0,0,0,1.51,1.69,4.12,4.12,0,0,0,2.2.59A4.29,4.29,0,0,0,143.55,1236.11Z"/><path class="cls-3" d="M166,1224.51v14.84H162.5l-.1-1.83a4.9,4.9,0,0,1-1.94,1.58,6.37,6.37,0,0,1-2.69.55,5.55,5.55,0,0,1-4-1.34,5,5,0,0,1-1.41-3.8v-10H156v9.2a2.87,2.87,0,0,0,.8,2.23,2.93,2.93,0,0,0,2.06.73,3.4,3.4,0,0,0,2.45-.91,3.81,3.81,0,0,0,1-2.84v-8.41Z"/><path class="cls-3" d="M175.21,1225.65a6,6,0,0,1,1.7-1,5.75,5.75,0,0,1,2-.36v3.31a7.14,7.14,0,0,0-2.6.4,2.91,2.91,0,0,0-1.53,1.33,5.22,5.22,0,0,0-.51,2.51v7.46H170.6v-14.84h3.52v2.43A4.14,4.14,0,0,1,175.21,1225.65Z"/><path class="cls-3" d="M192.87,1238.67a7,7,0,0,1-2.77-2.72,8.64,8.64,0,0,1,0-8.06,6.92,6.92,0,0,1,2.77-2.71,8.29,8.29,0,0,1,4-1,8.41,8.41,0,0,1,3.27.62,6.35,6.35,0,0,1,2.47,1.81,6.72,6.72,0,0,1,1.38,2.85l-3.38.41a3.71,3.71,0,0,0-1.38-2.07,4,4,0,0,0-2.39-.7,3.88,3.88,0,0,0-2.12.59,3.94,3.94,0,0,0-1.46,1.68,6.3,6.3,0,0,0,0,5,3.94,3.94,0,0,0,1.46,1.68,3.88,3.88,0,0,0,2.13.59,4,4,0,0,0,2.38-.7,3.7,3.7,0,0,0,1.38-2.07l3.38.41a6.64,6.64,0,0,1-1.39,2.86,6.53,6.53,0,0,1-2.48,1.82,8.8,8.8,0,0,1-7.26-.34Z"/><path class="cls-3" d="M220.55,1224.51v14.84h-3.47l-.1-1.83a4.9,4.9,0,0,1-1.94,1.58,6.37,6.37,0,0,1-2.69.55,5.55,5.55,0,0,1-4-1.34,5,5,0,0,1-1.41-3.8v-10h3.66v9.2a2.87,2.87,0,0,0,.8,2.23,2.93,2.93,0,0,0,2.06.73,3.4,3.4,0,0,0,2.45-.91,3.81,3.81,0,0,0,1-2.84v-8.41Z"/><path class="cls-3" d="M229.79,1225.65a6,6,0,0,1,1.7-1,5.75,5.75,0,0,1,2-.36v3.31a7.14,7.14,0,0,0-2.6.4,2.91,2.91,0,0,0-1.53,1.33,5.22,5.22,0,0,0-.51,2.51v7.46h-3.68v-14.84h3.52v2.43A4.14,4.14,0,0,1,229.79,1225.65Z"/><path class="cls-3" d="M240.75,1225.65a6,6,0,0,1,1.7-1,5.75,5.75,0,0,1,2-.36v3.31a7.14,7.14,0,0,0-2.6.4,2.91,2.91,0,0,0-1.53,1.33,5.22,5.22,0,0,0-.51,2.51v7.46h-3.68v-14.84h3.52v2.43A4.14,4.14,0,0,1,240.75,1225.65Z"/><path class="cls-3" d="M260.57,1232.6H249.38a4.8,4.8,0,0,0,.64,2.26,3.62,3.62,0,0,0,1.47,1.39,4.41,4.41,0,0,0,2,.46,3.92,3.92,0,0,0,2.12-.57,3.65,3.65,0,0,0,1.4-1.64l3.34.54a6.65,6.65,0,0,1-1.49,2.47,6.75,6.75,0,0,1-2.37,1.58,7.92,7.92,0,0,1-3,.55,8.67,8.67,0,0,1-4.08-.92,6.42,6.42,0,0,1-2.71-2.66,9.32,9.32,0,0,1,0-8.27,6.6,6.6,0,0,1,2.7-2.67,8.27,8.27,0,0,1,4-.92,8.14,8.14,0,0,1,3.73.82,5.92,5.92,0,0,1,2.54,2.5,8.66,8.66,0,0,1,.94,4.17Zm-9.74-4.93a4,4,0,0,0-1.33,2.48H257a3.34,3.34,0,0,0-3.56-3.31A4,4,0,0,0,250.83,1227.67Z"/><path class="cls-3" d="M276.26,1225.56a5,5,0,0,1,1.42,3.8v10H274v-9.2a2.87,2.87,0,0,0-.8-2.24,2.94,2.94,0,0,0-2-.72,3.42,3.42,0,0,0-2.45.91,3.79,3.79,0,0,0-1,2.84v8.41h-3.66v-14.84h3.66v1.71a5,5,0,0,1,1.93-1.49,6.35,6.35,0,0,1,2.62-.52A5.55,5.55,0,0,1,276.26,1225.56Z"/><path class="cls-3" d="M284.1,1238.19a4.48,4.48,0,0,1-1.14-3.27v-7.57H280v-2.83h1a2.35,2.35,0,0,0,1.77-.59,3,3,0,0,0,.56-2.07v-2.18h3.32v4.83h3.16v2.83h-3.16v7.18a2.11,2.11,0,0,0,.48,1.52,1.77,1.77,0,0,0,1.35.51h1.33v2.81H287.3A4.29,4.29,0,0,1,284.1,1238.19Z"/><path class="cls-3" d="M304.53,1238.67a7,7,0,0,1-2.77-2.72,8.64,8.64,0,0,1,0-8.06,6.91,6.91,0,0,1,2.77-2.71,8.29,8.29,0,0,1,4-1,8.41,8.41,0,0,1,3.27.62,6.35,6.35,0,0,1,2.47,1.81,6.72,6.72,0,0,1,1.38,2.85l-3.38.41a3.71,3.71,0,0,0-1.38-2.07,4,4,0,0,0-2.39-.7,3.88,3.88,0,0,0-2.12.59,4,4,0,0,0-1.46,1.68,6.3,6.3,0,0,0,0,5,4,4,0,0,0,1.46,1.68,3.88,3.88,0,0,0,2.12.59,4,4,0,0,0,2.38-.7,3.7,3.7,0,0,0,1.38-2.07l3.38.41a6.64,6.64,0,0,1-1.39,2.86,6.54,6.54,0,0,1-2.48,1.82,8.8,8.8,0,0,1-7.26-.34Z"/><path class="cls-3" d="M321.54,1238.72a6.8,6.8,0,0,1-2.82-2.68,8.82,8.82,0,0,1,0-8.21,6.78,6.78,0,0,1,2.81-2.67,9.52,9.52,0,0,1,8.21,0,6.79,6.79,0,0,1,2.8,2.67,8.8,8.8,0,0,1,0,8.21,6.81,6.81,0,0,1-2.81,2.68,9.46,9.46,0,0,1-8.18,0Zm6.29-2.61a4,4,0,0,0,1.54-1.69,5.5,5.5,0,0,0,.55-2.51,5.41,5.41,0,0,0-.56-2.5,4.09,4.09,0,0,0-1.54-1.68,4.23,4.23,0,0,0-2.24-.59,4,4,0,0,0-3.7,2.28,5.47,5.47,0,0,0-.55,2.5,5.57,5.57,0,0,0,.54,2.51,4,4,0,0,0,1.51,1.69,4.12,4.12,0,0,0,2.2.59A4.29,4.29,0,0,0,327.83,1236.11Z"/><path class="cls-3" d="M356.43,1224.76a4,4,0,0,1,1.77,1.6,5,5,0,0,1,.63,2.57v10.42h-3.66v-9.4a2.76,2.76,0,0,0-.71-2.06,2.47,2.47,0,0,0-1.79-.7,2.76,2.76,0,0,0-2.1.86,3.78,3.78,0,0,0-.81,2.67v8.63H346V1230a2.88,2.88,0,0,0-.71-2.12,2.49,2.49,0,0,0-1.84-.71,2.7,2.7,0,0,0-2.09.89,4.06,4.06,0,0,0-.81,2.8v8.47h-3.65v-14.84h3.65v1.79a4.81,4.81,0,0,1,1.79-1.55,5.39,5.39,0,0,1,2.42-.53,5.87,5.87,0,0,1,2.71.59,3.84,3.84,0,0,1,1.71,1.7,4.88,4.88,0,0,1,1.9-1.71,5.73,5.73,0,0,1,2.61-.58A6.2,6.2,0,0,1,356.43,1224.76Z"/><path class="cls-3" d="M382.68,1224.76a4,4,0,0,1,1.77,1.6,5,5,0,0,1,.63,2.57v10.42h-3.66v-9.4a2.76,2.76,0,0,0-.71-2.06,2.47,2.47,0,0,0-1.79-.7,2.76,2.76,0,0,0-2.1.86,3.78,3.78,0,0,0-.81,2.67v8.63h-3.71V1230a2.88,2.88,0,0,0-.71-2.12,2.49,2.49,0,0,0-1.84-.71,2.7,2.7,0,0,0-2.09.89,4.06,4.06,0,0,0-.81,2.8v8.47H363.2v-14.84h3.65v1.79a4.81,4.81,0,0,1,1.79-1.55,5.39,5.39,0,0,1,2.42-.53,5.87,5.87,0,0,1,2.71.59,3.84,3.84,0,0,1,1.71,1.7,4.88,4.88,0,0,1,1.9-1.71,5.73,5.73,0,0,1,2.61-.58A6.2,6.2,0,0,1,382.68,1224.76Z"/><path class="cls-3" d="M402.75,1224.51v14.84h-3.47l-.1-1.83a4.9,4.9,0,0,1-1.94,1.58,6.37,6.37,0,0,1-2.69.55,5.55,5.55,0,0,1-4-1.34,5,5,0,0,1-1.41-3.8v-10h3.66v9.2a2.87,2.87,0,0,0,.8,2.23,2.93,2.93,0,0,0,2.06.73,3.4,3.4,0,0,0,2.45-.91,3.81,3.81,0,0,0,1-2.84v-8.41Z"/><path class="cls-3" d="M409.44,1238.19a4.48,4.48,0,0,1-1.14-3.27v-7.57h-2.94v-2.83h1a2.35,2.35,0,0,0,1.77-.59,3,3,0,0,0,.56-2.07v-2.18H412v4.83h3.16v2.83H412v7.18a2.11,2.11,0,0,0,.48,1.52,1.77,1.77,0,0,0,1.35.51h1.33v2.81h-2.52A4.3,4.3,0,0,1,409.44,1238.19Z"/><path class="cls-3" d="M432.08,1232.6H420.88a4.8,4.8,0,0,0,.64,2.26,3.62,3.62,0,0,0,1.47,1.39,4.41,4.41,0,0,0,2,.46,3.92,3.92,0,0,0,2.12-.57,3.65,3.65,0,0,0,1.4-1.64l3.34.54a6.65,6.65,0,0,1-1.49,2.47,6.75,6.75,0,0,1-2.37,1.58,7.92,7.92,0,0,1-3,.55,8.67,8.67,0,0,1-4.08-.92,6.42,6.42,0,0,1-2.71-2.66,9.32,9.32,0,0,1,0-8.27,6.6,6.6,0,0,1,2.7-2.67,8.27,8.27,0,0,1,4-.92,8.14,8.14,0,0,1,3.73.82,5.92,5.92,0,0,1,2.54,2.5,8.66,8.66,0,0,1,.94,4.17Zm-9.74-4.93a4,4,0,0,0-1.33,2.48h7.5a3.34,3.34,0,0,0-3.56-3.31A4,4,0,0,0,422.33,1227.67Z"/><path class="cls-3" d="M456.59,1225.62a5.56,5.56,0,0,1,1.38,4.08v9.65h-3.66v-9a3.15,3.15,0,0,0-.79-2.39,2.91,2.91,0,0,0-2.08-.75,3.43,3.43,0,0,0-2.41.89,3.74,3.74,0,0,0-1,2.86v8.41h-3.66v-22.5H448v9.49a5.21,5.21,0,0,1,2-1.57,6.42,6.42,0,0,1,2.72-.56A5.17,5.17,0,0,1,456.59,1225.62Z"/><path class="cls-3" d="M474.39,1239v.4h-3.47l-.35-1.67a4.92,4.92,0,0,1-2.09,1.47,7.44,7.44,0,0,1-2.67.49,6,6,0,0,1-2.29-.42,3.61,3.61,0,0,1-1.65-1.34,4.1,4.1,0,0,1-.63-2.36,4,4,0,0,1,.67-2.4,4.43,4.43,0,0,1,1.83-1.46,14.25,14.25,0,0,1,2.91-.89l2.47-.51a2.34,2.34,0,0,0,1.07-.45,1,1,0,0,0,.32-.79,1.86,1.86,0,0,0-.79-1.68,4,4,0,0,0-4,.06,2.6,2.6,0,0,0-1,1.82l-3.25-.62a4.87,4.87,0,0,1,2.07-3.29,8,8,0,0,1,4.45-1.08,7.51,7.51,0,0,1,4.34,1.17q1.71,1.17,1.71,4.12v5.67A13.71,13.71,0,0,0,474.39,1239Zm-3.71-6.65-3.4.78a5,5,0,0,0-1.93.74,1.81,1.81,0,0,0,0,2.7,2.62,2.62,0,0,0,1.58.44,4.38,4.38,0,0,0,1.76-.37,3.31,3.31,0,0,0,2-3.2Z"/><path class="cls-3" d="M479.23,1238.59a4.43,4.43,0,0,1-2.06-3.08l3.09-.88a3,3,0,0,0,1.13,1.81,3.47,3.47,0,0,0,2.06.59,3.32,3.32,0,0,0,1.7-.4,1.4,1.4,0,0,0,.69-1.31,1.39,1.39,0,0,0-.39-1,2.77,2.77,0,0,0-1-.63q-.62-.23-1.73-.56-.94-.26-1.49-.45a10,10,0,0,1-1.89-.83,3.51,3.51,0,0,1-1.79-3.24,4,4,0,0,1,.73-2.43,4.31,4.31,0,0,1,2-1.46,8.21,8.21,0,0,1,2.89-.48,7.08,7.08,0,0,1,3.81,1,4.23,4.23,0,0,1,1.92,3l-2.86.66a2.63,2.63,0,0,0-1-1.58,3.2,3.2,0,0,0-1.82-.5,3.11,3.11,0,0,0-1.62.4,1.28,1.28,0,0,0-.66,1.17,1.19,1.19,0,0,0,.39.92,2.72,2.72,0,0,0,1,.56q.59.21,1.65.47l.6.16a13.92,13.92,0,0,1,2.45.87,4.51,4.51,0,0,1,1.7,1.42,4,4,0,0,1,.68,2.4,4.12,4.12,0,0,1-.8,2.61,4.5,4.5,0,0,1-2.13,1.49,9.08,9.08,0,0,1-3,.46A7.81,7.81,0,0,1,479.23,1238.59Z"/><path class="cls-3" d="M521,1224.76a4,4,0,0,1,1.77,1.6,5,5,0,0,1,.63,2.57v10.42h-3.66v-9.4a2.76,2.76,0,0,0-.71-2.06,2.46,2.46,0,0,0-1.79-.7,2.77,2.77,0,0,0-2.1.86,3.78,3.78,0,0,0-.81,2.67v8.63h-3.71V1230a2.88,2.88,0,0,0-.71-2.12,2.49,2.49,0,0,0-1.84-.71,2.71,2.71,0,0,0-2.09.89,4.06,4.06,0,0,0-.81,2.8v8.47h-3.65v-14.84h3.65v1.79a4.8,4.8,0,0,1,1.79-1.55,5.4,5.4,0,0,1,2.43-.53,5.86,5.86,0,0,1,2.71.59,3.85,3.85,0,0,1,1.71,1.7,4.88,4.88,0,0,1,1.9-1.71,5.74,5.74,0,0,1,2.62-.58A6.19,6.19,0,0,1,521,1224.76Z"/><path class="cls-3" d="M530.37,1238.72a6.8,6.8,0,0,1-2.82-2.68,8.82,8.82,0,0,1,0-8.21,6.78,6.78,0,0,1,2.81-2.67,9.52,9.52,0,0,1,8.21,0,6.79,6.79,0,0,1,2.8,2.67,8.8,8.8,0,0,1,0,8.21,6.81,6.81,0,0,1-2.81,2.68,9.46,9.46,0,0,1-8.18,0Zm6.29-2.61a4,4,0,0,0,1.54-1.69,5.5,5.5,0,0,0,.55-2.51,5.41,5.41,0,0,0-.56-2.5,4.09,4.09,0,0,0-1.54-1.68,4.23,4.23,0,0,0-2.24-.59,4,4,0,0,0-3.7,2.28,5.47,5.47,0,0,0-.55,2.5,5.57,5.57,0,0,0,.54,2.51,4,4,0,0,0,1.51,1.69,4.12,4.12,0,0,0,2.2.59A4.29,4.29,0,0,0,536.66,1236.11Z"/><path class="cls-3" d="M560.09,1216.85v22.5h-3.47l-.1-2.23a4.53,4.53,0,0,1-1.94,1.88,6.17,6.17,0,0,1-2.91.68,7,7,0,0,1-3.57-.94,6.76,6.76,0,0,1-2.56-2.7,9.27,9.27,0,0,1,0-8.17,6.8,6.8,0,0,1,2.57-2.7,6.93,6.93,0,0,1,3.55-.94,6.27,6.27,0,0,1,2.83.64,4.47,4.47,0,0,1,1.94,1.78v-9.79ZM554.64,1236a4.15,4.15,0,0,0,1.52-1.65,5.56,5.56,0,0,0,0-4.85,4.16,4.16,0,0,0-1.52-1.65,4,4,0,0,0-2.15-.59,4.16,4.16,0,0,0-2.15.57,4,4,0,0,0-1.52,1.63,5.75,5.75,0,0,0,0,4.94,4,4,0,0,0,1.52,1.63,4.16,4.16,0,0,0,2.15.57A4,4,0,0,0,554.64,1236Z"/><path class="cls-3" d="M578.33,1232.6H567.13a4.8,4.8,0,0,0,.64,2.26,3.62,3.62,0,0,0,1.47,1.39,4.41,4.41,0,0,0,2,.46,3.92,3.92,0,0,0,2.12-.57,3.65,3.65,0,0,0,1.4-1.64l3.34.54a6.65,6.65,0,0,1-1.49,2.47,6.75,6.75,0,0,1-2.37,1.58,7.92,7.92,0,0,1-3,.55,8.67,8.67,0,0,1-4.08-.92,6.42,6.42,0,0,1-2.71-2.66,9.32,9.32,0,0,1,0-8.27,6.6,6.6,0,0,1,2.7-2.67,8.27,8.27,0,0,1,4-.92,8.14,8.14,0,0,1,3.73.82,5.92,5.92,0,0,1,2.54,2.5,8.66,8.66,0,0,1,.94,4.17Zm-9.74-4.93a4,4,0,0,0-1.33,2.48h7.5a3.34,3.34,0,0,0-3.56-3.31A4,4,0,0,0,568.58,1227.67Z"/><path class="cls-3" d="M586.45,1225.65a6,6,0,0,1,1.7-1,5.75,5.75,0,0,1,2-.36v3.31a7.14,7.14,0,0,0-2.6.4,2.91,2.91,0,0,0-1.53,1.33,5.22,5.22,0,0,0-.51,2.51v7.46h-3.68v-14.84h3.52v2.43A4.14,4.14,0,0,1,586.45,1225.65Z"/><path class="cls-3" d="M604.77,1239v.4h-3.47l-.35-1.67a4.92,4.92,0,0,1-2.09,1.47,7.44,7.44,0,0,1-2.67.49,6,6,0,0,1-2.29-.42,3.61,3.61,0,0,1-1.65-1.34,4.1,4.1,0,0,1-.63-2.36,4,4,0,0,1,.67-2.4,4.43,4.43,0,0,1,1.83-1.46,14.25,14.25,0,0,1,2.91-.89l2.47-.51a2.34,2.34,0,0,0,1.07-.45,1,1,0,0,0,.32-.79,1.86,1.86,0,0,0-.79-1.68,4,4,0,0,0-4,.06,2.6,2.6,0,0,0-1,1.82l-3.25-.62a4.87,4.87,0,0,1,2.07-3.29,8,8,0,0,1,4.45-1.08,7.51,7.51,0,0,1,4.34,1.17q1.71,1.17,1.71,4.12v5.67A13.71,13.71,0,0,0,604.77,1239Zm-3.71-6.65-3.4.78a5,5,0,0,0-1.93.74,1.81,1.81,0,0,0,0,2.7,2.62,2.62,0,0,0,1.58.44,4.38,4.38,0,0,0,1.76-.37,3.31,3.31,0,0,0,2-3.2Z"/><path class="cls-3" d="M610.65,1238.19a4.48,4.48,0,0,1-1.14-3.27v-7.57h-2.94v-2.83h1a2.35,2.35,0,0,0,1.77-.59,3,3,0,0,0,.56-2.07v-2.18h3.33v4.83h3.16v2.83h-3.16v7.18a2.11,2.11,0,0,0,.48,1.52,1.77,1.77,0,0,0,1.35.51h1.33v2.81h-2.52A4.3,4.3,0,0,1,610.65,1238.19Z"/><path class="cls-3" d="M633.29,1232.6H622.1a4.8,4.8,0,0,0,.64,2.26,3.62,3.62,0,0,0,1.47,1.39,4.41,4.41,0,0,0,2,.46,3.92,3.92,0,0,0,2.12-.57,3.65,3.65,0,0,0,1.4-1.64l3.34.54a6.65,6.65,0,0,1-1.49,2.47,6.75,6.75,0,0,1-2.37,1.58,7.92,7.92,0,0,1-3,.55,8.67,8.67,0,0,1-4.08-.92,6.42,6.42,0,0,1-2.71-2.66,9.32,9.32,0,0,1,0-8.27,6.6,6.6,0,0,1,2.7-2.67,8.27,8.27,0,0,1,4-.92,8.14,8.14,0,0,1,3.73.82,5.92,5.92,0,0,1,2.54,2.5,8.66,8.66,0,0,1,.94,4.17Zm-9.74-4.93a4,4,0,0,0-1.33,2.48h7.5a3.34,3.34,0,0,0-3.56-3.31A4,4,0,0,0,623.54,1227.67Z"/><path class="cls-3" d="M76.07,1283.81v.4H72.6l-.35-1.67a4.92,4.92,0,0,1-2.09,1.47,7.44,7.44,0,0,1-2.67.49,6,6,0,0,1-2.29-.42,3.61,3.61,0,0,1-1.65-1.34,4.1,4.1,0,0,1-.63-2.36,4,4,0,0,1,.67-2.4,4.43,4.43,0,0,1,1.83-1.46,14.25,14.25,0,0,1,2.91-.89l2.47-.51a2.34,2.34,0,0,0,1.07-.45,1,1,0,0,0,.32-.79,1.86,1.86,0,0,0-.79-1.68,4,4,0,0,0-4,.06,2.6,2.6,0,0,0-1,1.82l-3.25-.62a4.87,4.87,0,0,1,2.07-3.29,8,8,0,0,1,4.45-1.08,7.51,7.51,0,0,1,4.34,1.17q1.71,1.17,1.71,4.12V1280A13.71,13.71,0,0,0,76.07,1283.81Zm-3.71-6.65-3.4.78a5,5,0,0,0-1.93.74,1.81,1.81,0,0,0,0,2.7,2.62,2.62,0,0,0,1.58.44,4.38,4.38,0,0,0,1.76-.37,3.31,3.31,0,0,0,2-3.2Z"/><path class="cls-3" d="M92.25,1270.41a5,5,0,0,1,1.42,3.8v10H90V1275a2.87,2.87,0,0,0-.8-2.24,2.94,2.94,0,0,0-2-.72,3.42,3.42,0,0,0-2.45.91,3.79,3.79,0,0,0-1,2.84v8.41H80.07v-14.84h3.66v1.71a5,5,0,0,1,1.93-1.49,6.35,6.35,0,0,1,2.62-.52A5.55,5.55,0,0,1,92.25,1270.41Z"/><path class="cls-3" d="M100.64,1283.57a6.8,6.8,0,0,1-2.82-2.68,8.82,8.82,0,0,1,0-8.21,6.78,6.78,0,0,1,2.81-2.67,9.52,9.52,0,0,1,8.21,0,6.79,6.79,0,0,1,2.8,2.67,8.8,8.8,0,0,1,0,8.21,6.81,6.81,0,0,1-2.81,2.68,9.46,9.46,0,0,1-8.18,0Zm6.29-2.61a4,4,0,0,0,1.54-1.69,5.5,5.5,0,0,0,.55-2.51,5.41,5.41,0,0,0-.56-2.5,4.09,4.09,0,0,0-1.54-1.68,4.23,4.23,0,0,0-2.24-.59,4,4,0,0,0-3.7,2.28,5.47,5.47,0,0,0-.55,2.5,5.57,5.57,0,0,0,.54,2.51,4,4,0,0,0,1.51,1.69,4.12,4.12,0,0,0,2.2.59A4.29,4.29,0,0,0,106.93,1281Z"/><path class="cls-3" d="M135.53,1269.61a4,4,0,0,1,1.77,1.6,5,5,0,0,1,.63,2.57v10.42h-3.66v-9.4a2.76,2.76,0,0,0-.71-2.06,2.47,2.47,0,0,0-1.79-.7,2.76,2.76,0,0,0-2.1.86,3.78,3.78,0,0,0-.81,2.67v8.63h-3.71v-9.33a2.88,2.88,0,0,0-.71-2.12,2.49,2.49,0,0,0-1.84-.71,2.7,2.7,0,0,0-2.09.89,4.06,4.06,0,0,0-.81,2.8v8.47h-3.65v-14.84h3.65v1.79a4.81,4.81,0,0,1,1.79-1.55,5.39,5.39,0,0,1,2.42-.53,5.87,5.87,0,0,1,2.71.59,3.84,3.84,0,0,1,1.71,1.7,4.88,4.88,0,0,1,1.9-1.71,5.73,5.73,0,0,1,2.61-.58A6.2,6.2,0,0,1,135.53,1269.61Z"/><path class="cls-3" d="M154.38,1283.81v.4h-3.47l-.35-1.67a4.92,4.92,0,0,1-2.09,1.47,7.44,7.44,0,0,1-2.67.49,6,6,0,0,1-2.29-.42,3.61,3.61,0,0,1-1.65-1.34,4.1,4.1,0,0,1-.63-2.36,4,4,0,0,1,.67-2.4,4.43,4.43,0,0,1,1.83-1.46,14.25,14.25,0,0,1,2.91-.89l2.47-.51a2.34,2.34,0,0,0,1.07-.45,1,1,0,0,0,.32-.79,1.86,1.86,0,0,0-.79-1.68,4,4,0,0,0-4,.06,2.6,2.6,0,0,0-1,1.82l-3.25-.62a4.87,4.87,0,0,1,2.07-3.29,8,8,0,0,1,4.45-1.08,7.51,7.51,0,0,1,4.34,1.17q1.71,1.17,1.71,4.12V1280A13.71,13.71,0,0,0,154.38,1283.81Zm-3.71-6.65-3.4.78a5,5,0,0,0-1.93.74,1.81,1.81,0,0,0,0,2.7,2.62,2.62,0,0,0,1.58.44,4.38,4.38,0,0,0,1.76-.37,3.31,3.31,0,0,0,2-3.2Z"/><path class="cls-3" d="M158.38,1261.7h3.69v22.5h-3.69Z"/><path class="cls-3" d="M167.49,1266.44a2.22,2.22,0,0,1-.8-.8,2.14,2.14,0,0,1,0-2.19,2.23,2.23,0,0,1,.8-.79,2.14,2.14,0,0,1,1.09-.29,2.1,2.1,0,0,1,1.08.29,2.26,2.26,0,0,1,.8.79,2.16,2.16,0,0,1,0,2.19,2.22,2.22,0,0,1-.81.8,2.11,2.11,0,0,1-1.08.29A2.14,2.14,0,0,1,167.49,1266.44Zm-.78,2.93h3.68v14.84H166.7Z"/><path class="cls-3" d="M188.6,1277.45H177.41a4.82,4.82,0,0,0,.64,2.26,3.64,3.64,0,0,0,1.47,1.39,4.41,4.41,0,0,0,2,.46,3.92,3.92,0,0,0,2.12-.57,3.65,3.65,0,0,0,1.4-1.64l3.34.54a6.65,6.65,0,0,1-1.49,2.47,6.75,6.75,0,0,1-2.37,1.58,7.92,7.92,0,0,1-3,.55,8.67,8.67,0,0,1-4.08-.92,6.43,6.43,0,0,1-2.71-2.66,9.33,9.33,0,0,1,0-8.27,6.61,6.61,0,0,1,2.7-2.67,8.27,8.27,0,0,1,4-.92,8.14,8.14,0,0,1,3.73.82,5.92,5.92,0,0,1,2.54,2.5,8.66,8.66,0,0,1,.94,4.17Zm-9.74-4.93a4,4,0,0,0-1.33,2.48H185a3.34,3.34,0,0,0-3.56-3.31A4,4,0,0,0,178.86,1272.52Z"/><path class="cls-3" d="M193,1283.44a4.44,4.44,0,0,1-2.07-3.08l3.09-.88a3,3,0,0,0,1.13,1.81,3.47,3.47,0,0,0,2.07.59,3.32,3.32,0,0,0,1.7-.4,1.4,1.4,0,0,0,.69-1.31,1.38,1.38,0,0,0-.39-1,2.74,2.74,0,0,0-1-.63q-.62-.23-1.73-.56-.94-.26-1.49-.45a10,10,0,0,1-1.89-.83,3.51,3.51,0,0,1-1.79-3.24A4,4,0,0,1,192,1271a4.32,4.32,0,0,1,2-1.46,8.2,8.2,0,0,1,2.88-.48,7.08,7.08,0,0,1,3.81,1,4.23,4.23,0,0,1,1.92,3l-2.86.66a2.63,2.63,0,0,0-1-1.58,3.2,3.2,0,0,0-1.82-.5,3.11,3.11,0,0,0-1.63.4,1.28,1.28,0,0,0-.66,1.17,1.19,1.19,0,0,0,.39.92,2.74,2.74,0,0,0,1,.56c.39.14.95.29,1.65.47l.6.16a13.86,13.86,0,0,1,2.45.87,4.49,4.49,0,0,1,1.7,1.42,4,4,0,0,1,.68,2.4,4.11,4.11,0,0,1-.8,2.61,4.49,4.49,0,0,1-2.13,1.49,9.07,9.07,0,0,1-3,.46A7.81,7.81,0,0,1,193,1283.44Z"/><path class="cls-3" d="M207.86,1284.2a2.19,2.19,0,0,1-.8-.79,2.1,2.1,0,0,1-.29-1.08,2.05,2.05,0,0,1,.3-1.08,2.32,2.32,0,0,1,.8-.8,2,2,0,0,1,1.07-.3,2.07,2.07,0,0,1,1.08.3,2.33,2.33,0,0,1,.8.8,2.1,2.1,0,0,1,0,2.17,2.26,2.26,0,0,1-.8.79,2.14,2.14,0,0,1-2.16,0Z"/><path class="cls-3" d="M229.21,1283.17a9.55,9.55,0,0,1-3.79-3.77,12.45,12.45,0,0,1,0-11.38,9.5,9.5,0,0,1,3.79-3.76,11.23,11.23,0,0,1,5.46-1.32,11.57,11.57,0,0,1,4.16.73,9.81,9.81,0,0,1,3.35,2.11,9.33,9.33,0,0,1,2.19,3.27l-3.53,1.33a6.09,6.09,0,0,0-2.42-2.89,6.88,6.88,0,0,0-3.75-1,7.05,7.05,0,0,0-3.49.87,6.27,6.27,0,0,0-2.46,2.51,8.77,8.77,0,0,0,0,7.74,6.24,6.24,0,0,0,2.46,2.52,7,7,0,0,0,3.49.87,6.9,6.9,0,0,0,3.75-1,6.1,6.1,0,0,0,2.42-2.89l3.53,1.33a9.3,9.3,0,0,1-2.19,3.28,9.81,9.81,0,0,1-3.35,2.11,11.57,11.57,0,0,1-4.16.73A11.17,11.17,0,0,1,229.21,1283.17Z"/><path class="cls-3" d="M247.68,1261.7h3.69v22.5h-3.69Z"/><path class="cls-3" d="M256.78,1266.44a2.22,2.22,0,0,1-.8-.8,2.14,2.14,0,0,1,0-2.19,2.23,2.23,0,0,1,.8-.79,2.14,2.14,0,0,1,1.09-.29,2.1,2.1,0,0,1,1.08.29,2.26,2.26,0,0,1,.8.79,2.16,2.16,0,0,1,0,2.19,2.22,2.22,0,0,1-.81.8,2.11,2.11,0,0,1-1.08.29A2.14,2.14,0,0,1,256.78,1266.44Zm-.78,2.93h3.68v14.84H256Z"/><path class="cls-3" d="M266.83,1283.52a7,7,0,0,1-2.77-2.72,8.64,8.64,0,0,1,0-8.06,6.91,6.91,0,0,1,2.77-2.71,8.29,8.29,0,0,1,4-1,8.41,8.41,0,0,1,3.27.62,6.35,6.35,0,0,1,2.47,1.81,6.72,6.72,0,0,1,1.38,2.85l-3.38.41a3.71,3.71,0,0,0-1.38-2.07,4,4,0,0,0-2.39-.7,3.88,3.88,0,0,0-2.12.59,4,4,0,0,0-1.46,1.68,6.3,6.3,0,0,0,0,5,4,4,0,0,0,1.46,1.68,3.88,3.88,0,0,0,2.12.59,4,4,0,0,0,2.38-.7,3.7,3.7,0,0,0,1.38-2.07l3.38.41a6.64,6.64,0,0,1-1.39,2.86,6.54,6.54,0,0,1-2.48,1.82,8.8,8.8,0,0,1-7.26-.34Z"/><path class="cls-3" d="M285.77,1277.61h-.87v6.59h-3.69v-22.5h3.69V1275h1l4.7-5.65h4.18l-5.89,6.86,6.52,8h-4.5Z"/><path class="cls-3" d="M309.22,1283.57a6.8,6.8,0,0,1-2.82-2.68,8.8,8.8,0,0,1,0-8.21,6.78,6.78,0,0,1,2.81-2.67,9.52,9.52,0,0,1,8.21,0,6.79,6.79,0,0,1,2.8,2.67,8.82,8.82,0,0,1,0,8.21,6.83,6.83,0,0,1-2.81,2.68,9.47,9.47,0,0,1-8.18,0Zm6.29-2.61a4,4,0,0,0,1.54-1.69,5.5,5.5,0,0,0,.55-2.51,5.41,5.41,0,0,0-.56-2.5,4.09,4.09,0,0,0-1.54-1.68,4.24,4.24,0,0,0-2.24-.59,4,4,0,0,0-3.7,2.28,5.47,5.47,0,0,0-.55,2.5,5.57,5.57,0,0,0,.54,2.51,4,4,0,0,0,1.51,1.69,4.12,4.12,0,0,0,2.2.59A4.3,4.3,0,0,0,315.51,1281Z"/><path class="cls-3" d="M336.8,1270.41a5,5,0,0,1,1.42,3.8v10h-3.66V1275a2.87,2.87,0,0,0-.8-2.24,2.94,2.94,0,0,0-2-.72,3.42,3.42,0,0,0-2.45.91,3.79,3.79,0,0,0-1,2.84v8.41h-3.66v-14.84h3.66v1.71a5,5,0,0,1,1.93-1.49,6.35,6.35,0,0,1,2.62-.52A5.56,5.56,0,0,1,336.8,1270.41Z"/><path class="cls-3" d="M353.43,1283a4.48,4.48,0,0,1-1.14-3.27v-7.57h-2.94v-2.83h1a2.35,2.35,0,0,0,1.77-.59,3,3,0,0,0,.56-2.07v-2.18H356v4.83h3.16v2.83H356v7.18a2.11,2.11,0,0,0,.48,1.52,1.77,1.77,0,0,0,1.35.51h1.33v2.81h-2.52A4.3,4.3,0,0,1,353.43,1283Z"/><path class="cls-3" d="M374.76,1270.47a5.56,5.56,0,0,1,1.38,4.08v9.65h-3.66v-9a3.15,3.15,0,0,0-.79-2.39,2.91,2.91,0,0,0-2.08-.75,3.43,3.43,0,0,0-2.41.89,3.74,3.74,0,0,0-1,2.86v8.41h-3.66v-22.5h3.66v9.49a5.21,5.21,0,0,1,2-1.57,6.42,6.42,0,0,1,2.72-.56A5.17,5.17,0,0,1,374.76,1270.47Z"/><path class="cls-3" d="M394.08,1277.45H382.89a4.8,4.8,0,0,0,.64,2.26,3.62,3.62,0,0,0,1.47,1.39,4.41,4.41,0,0,0,2,.46,3.92,3.92,0,0,0,2.12-.57,3.65,3.65,0,0,0,1.4-1.64l3.34.54a6.65,6.65,0,0,1-1.49,2.47,6.75,6.75,0,0,1-2.37,1.58,7.92,7.92,0,0,1-3,.55,8.67,8.67,0,0,1-4.08-.92,6.42,6.42,0,0,1-2.71-2.66,9.32,9.32,0,0,1,0-8.27A6.6,6.6,0,0,1,383,1270a8.27,8.27,0,0,1,4-.92,8.14,8.14,0,0,1,3.73.82,5.92,5.92,0,0,1,2.54,2.5,8.66,8.66,0,0,1,.94,4.17Zm-9.74-4.93A4,4,0,0,0,383,1275h7.5a3.34,3.34,0,0,0-3.56-3.31A4,4,0,0,0,384.34,1272.52Z"/><path class="cls-3" d="M418.47,1283.81v.4H415l-.35-1.67a4.92,4.92,0,0,1-2.09,1.47,7.44,7.44,0,0,1-2.67.49,6,6,0,0,1-2.29-.42,3.61,3.61,0,0,1-1.65-1.34,4.1,4.1,0,0,1-.63-2.36,4,4,0,0,1,.67-2.4,4.43,4.43,0,0,1,1.83-1.46,14.25,14.25,0,0,1,2.91-.89l2.47-.51a2.34,2.34,0,0,0,1.07-.45,1,1,0,0,0,.32-.79,1.86,1.86,0,0,0-.79-1.68,4,4,0,0,0-4,.06,2.6,2.6,0,0,0-1,1.82l-3.25-.62a4.87,4.87,0,0,1,2.07-3.29,8,8,0,0,1,4.45-1.08,7.51,7.51,0,0,1,4.34,1.17q1.71,1.17,1.71,4.12V1280A13.71,13.71,0,0,0,418.47,1283.81Zm-3.71-6.65-3.4.78a5,5,0,0,0-1.93.74,1.81,1.81,0,0,0,0,2.7,2.62,2.62,0,0,0,1.58.44,4.38,4.38,0,0,0,1.76-.37,3.31,3.31,0,0,0,2-3.2Z"/><path class="cls-3" d="M422.47,1261.7h3.69v22.5h-3.69Z"/><path class="cls-3" d="M444.38,1277.45H433.19a4.8,4.8,0,0,0,.64,2.26,3.62,3.62,0,0,0,1.47,1.39,4.41,4.41,0,0,0,2,.46,3.92,3.92,0,0,0,2.12-.57,3.65,3.65,0,0,0,1.4-1.64l3.34.54a6.65,6.65,0,0,1-1.49,2.47,6.75,6.75,0,0,1-2.37,1.58,7.92,7.92,0,0,1-3,.55,8.67,8.67,0,0,1-4.08-.92,6.42,6.42,0,0,1-2.71-2.66,9.32,9.32,0,0,1,0-8.27,6.6,6.6,0,0,1,2.7-2.67,8.27,8.27,0,0,1,4-.92,8.14,8.14,0,0,1,3.73.82,5.92,5.92,0,0,1,2.54,2.5,8.66,8.66,0,0,1,.94,4.17Zm-9.74-4.93a4,4,0,0,0-1.33,2.48h7.5a3.34,3.34,0,0,0-3.56-3.31A4,4,0,0,0,434.64,1272.52Z"/><path class="cls-3" d="M452.51,1270.5a6,6,0,0,1,1.7-1,5.75,5.75,0,0,1,2-.36v3.31a7.14,7.14,0,0,0-2.6.4,2.91,2.91,0,0,0-1.53,1.33,5.22,5.22,0,0,0-.51,2.51v7.46H447.9v-14.84h3.52v2.43A4.14,4.14,0,0,1,452.51,1270.5Z"/><path class="cls-3" d="M461.78,1283a4.48,4.48,0,0,1-1.14-3.27v-7.57h-2.95v-2.83h1a2.35,2.35,0,0,0,1.77-.59,3,3,0,0,0,.56-2.07v-2.18h3.32v4.83h3.16v2.83h-3.16v7.18a2.11,2.11,0,0,0,.48,1.52,1.77,1.77,0,0,0,1.35.51h1.33v2.81H465A4.29,4.29,0,0,1,461.78,1283Z"/><path class="cls-3" d="M471.74,1283.44a4.44,4.44,0,0,1-2.07-3.08l3.09-.88a3,3,0,0,0,1.13,1.81,3.47,3.47,0,0,0,2.07.59,3.32,3.32,0,0,0,1.7-.4,1.4,1.4,0,0,0,.69-1.31,1.38,1.38,0,0,0-.39-1,2.74,2.74,0,0,0-1-.63q-.62-.23-1.73-.56-.94-.26-1.49-.45a10,10,0,0,1-1.89-.83,3.51,3.51,0,0,1-1.79-3.24,4,4,0,0,1,.73-2.43,4.32,4.32,0,0,1,2-1.46,8.2,8.2,0,0,1,2.88-.48,7.08,7.08,0,0,1,3.81,1,4.23,4.23,0,0,1,1.92,3l-2.86.66a2.63,2.63,0,0,0-1-1.58,3.2,3.2,0,0,0-1.82-.5,3.11,3.11,0,0,0-1.63.4,1.28,1.28,0,0,0-.66,1.17,1.19,1.19,0,0,0,.39.92,2.74,2.74,0,0,0,1,.56c.39.14.95.29,1.65.47l.6.16a13.86,13.86,0,0,1,2.45.87,4.49,4.49,0,0,1,1.7,1.42,4,4,0,0,1,.68,2.4,4.11,4.11,0,0,1-.8,2.61,4.49,4.49,0,0,1-2.13,1.49,9.07,9.07,0,0,1-3,.46A7.81,7.81,0,0,1,471.74,1283.44Z"/><path class="cls-3" d="M496.07,1283a4.48,4.48,0,0,1-1.14-3.27v-7.57H492v-2.83h1a2.35,2.35,0,0,0,1.77-.59,3,3,0,0,0,.56-2.07v-2.18h3.33v4.83h3.16v2.83h-3.16v7.18a2.11,2.11,0,0,0,.48,1.52,1.77,1.77,0,0,0,1.35.51h1.33v2.81h-2.52A4.3,4.3,0,0,1,496.07,1283Z"/><path class="cls-3" d="M507.73,1283.57a6.8,6.8,0,0,1-2.82-2.68,8.8,8.8,0,0,1,0-8.21,6.78,6.78,0,0,1,2.81-2.67,9.52,9.52,0,0,1,8.21,0,6.79,6.79,0,0,1,2.8,2.67,8.82,8.82,0,0,1,0,8.21,6.83,6.83,0,0,1-2.81,2.68,9.47,9.47,0,0,1-8.18,0ZM514,1281a4,4,0,0,0,1.54-1.69,5.5,5.5,0,0,0,.55-2.51,5.41,5.41,0,0,0-.56-2.5,4.09,4.09,0,0,0-1.54-1.68,4.24,4.24,0,0,0-2.24-.59,4,4,0,0,0-3.7,2.28,5.47,5.47,0,0,0-.55,2.5,5.57,5.57,0,0,0,.54,2.51,4,4,0,0,0,1.51,1.69,4.12,4.12,0,0,0,2.2.59A4.3,4.3,0,0,0,514,1281Z"/><path class="cls-3" d="M531.93,1261.7h3.69v22.5h-3.69Z"/><path class="cls-3" d="M553.85,1277.45H542.66a4.82,4.82,0,0,0,.64,2.26,3.64,3.64,0,0,0,1.47,1.39,4.41,4.41,0,0,0,2,.46,3.92,3.92,0,0,0,2.12-.57,3.65,3.65,0,0,0,1.4-1.64l3.34.54a6.65,6.65,0,0,1-1.49,2.47,6.75,6.75,0,0,1-2.37,1.58,7.92,7.92,0,0,1-3,.55,8.67,8.67,0,0,1-4.08-.92,6.43,6.43,0,0,1-2.71-2.66,9.33,9.33,0,0,1,0-8.27,6.61,6.61,0,0,1,2.7-2.67,8.27,8.27,0,0,1,4-.92,8.14,8.14,0,0,1,3.73.82,5.92,5.92,0,0,1,2.54,2.5,8.66,8.66,0,0,1,.94,4.17Zm-9.74-4.93a4,4,0,0,0-1.33,2.48h7.5a3.34,3.34,0,0,0-3.56-3.31A4,4,0,0,0,544.11,1272.52Z"/><path class="cls-3" d="M569.45,1283.81v.4H566l-.35-1.67a4.91,4.91,0,0,1-2.09,1.47,7.42,7.42,0,0,1-2.67.49,6,6,0,0,1-2.29-.42,3.61,3.61,0,0,1-1.66-1.34,4.1,4.1,0,0,1-.63-2.36,4,4,0,0,1,.67-2.4,4.43,4.43,0,0,1,1.83-1.46,14.25,14.25,0,0,1,2.91-.89l2.48-.51a2.33,2.33,0,0,0,1.07-.45,1,1,0,0,0,.32-.79,1.86,1.86,0,0,0-.79-1.68,4,4,0,0,0-4,.06,2.6,2.6,0,0,0-1,1.82l-3.25-.62a4.87,4.87,0,0,1,2.07-3.29,8,8,0,0,1,4.45-1.08,7.51,7.51,0,0,1,4.34,1.17q1.71,1.17,1.71,4.12V1280A13.71,13.71,0,0,0,569.45,1283.81Zm-3.71-6.65-3.4.78a5,5,0,0,0-1.93.74,1.8,1.8,0,0,0,0,2.7,2.62,2.62,0,0,0,1.58.44,4.38,4.38,0,0,0,1.76-.37,3.3,3.3,0,0,0,2-3.2Z"/><path class="cls-3" d="M578.06,1270.5a6,6,0,0,1,1.7-1,5.74,5.74,0,0,1,2-.36v3.31a7.14,7.14,0,0,0-2.6.4,2.91,2.91,0,0,0-1.53,1.33,5.22,5.22,0,0,0-.51,2.51v7.46h-3.68v-14.84H577v2.43A4.15,4.15,0,0,1,578.06,1270.5Z"/><path class="cls-3" d="M596.58,1270.41a5,5,0,0,1,1.42,3.8v10h-3.66V1275a2.87,2.87,0,0,0-.8-2.24,2.94,2.94,0,0,0-2-.72,3.42,3.42,0,0,0-2.45.91,3.79,3.79,0,0,0-1,2.84v8.41H584.4v-14.84h3.66v1.71a5,5,0,0,1,1.93-1.49,6.35,6.35,0,0,1,2.62-.52A5.56,5.56,0,0,1,596.58,1270.41Z"/><path class="cls-3" d="M630.62,1269.61a4,4,0,0,1,1.77,1.6,5,5,0,0,1,.63,2.57v10.42h-3.66v-9.4a2.76,2.76,0,0,0-.71-2.06,2.47,2.47,0,0,0-1.79-.7,2.76,2.76,0,0,0-2.1.86,3.78,3.78,0,0,0-.81,2.67v8.63h-3.71v-9.33a2.88,2.88,0,0,0-.71-2.12,2.49,2.49,0,0,0-1.84-.71,2.7,2.7,0,0,0-2.09.89,4.06,4.06,0,0,0-.81,2.8v8.47h-3.65v-14.84h3.65v1.79a4.81,4.81,0,0,1,1.79-1.55,5.39,5.39,0,0,1,2.42-.53,5.87,5.87,0,0,1,2.71.59,3.84,3.84,0,0,1,1.71,1.7,4.88,4.88,0,0,1,1.9-1.71,5.73,5.73,0,0,1,2.61-.58A6.2,6.2,0,0,1,630.62,1269.61Z"/><path class="cls-3" d="M640,1283.57a6.8,6.8,0,0,1-2.82-2.68,8.8,8.8,0,0,1,0-8.21A6.78,6.78,0,0,1,640,1270a9.52,9.52,0,0,1,8.21,0,6.79,6.79,0,0,1,2.8,2.67,8.82,8.82,0,0,1,0,8.21,6.83,6.83,0,0,1-2.81,2.68,9.47,9.47,0,0,1-8.18,0Zm6.29-2.61a4,4,0,0,0,1.54-1.69,5.5,5.5,0,0,0,.55-2.51,5.41,5.41,0,0,0-.56-2.5,4.09,4.09,0,0,0-1.54-1.68,4.24,4.24,0,0,0-2.24-.59,4,4,0,0,0-3.7,2.28,5.47,5.47,0,0,0-.55,2.5,5.57,5.57,0,0,0,.54,2.51,4,4,0,0,0,1.51,1.69,4.12,4.12,0,0,0,2.2.59A4.3,4.3,0,0,0,646.3,1281Z"/><path class="cls-3" d="M660,1270.5a6,6,0,0,1,1.7-1,5.74,5.74,0,0,1,2-.36v3.31a7.14,7.14,0,0,0-2.6.4,2.91,2.91,0,0,0-1.53,1.33,5.22,5.22,0,0,0-.51,2.51v7.46h-3.68v-14.84h3.52v2.43A4.15,4.15,0,0,1,660,1270.5Z"/><path class="cls-3" d="M679.85,1277.45H668.66a4.82,4.82,0,0,0,.64,2.26,3.64,3.64,0,0,0,1.47,1.39,4.41,4.41,0,0,0,2,.46,3.92,3.92,0,0,0,2.12-.57,3.65,3.65,0,0,0,1.4-1.64l3.34.54a6.65,6.65,0,0,1-1.49,2.47,6.75,6.75,0,0,1-2.37,1.58,7.92,7.92,0,0,1-3,.55,8.67,8.67,0,0,1-4.08-.92,6.43,6.43,0,0,1-2.71-2.66,9.33,9.33,0,0,1,0-8.27,6.61,6.61,0,0,1,2.7-2.67,8.27,8.27,0,0,1,4-.92,8.14,8.14,0,0,1,3.73.82,5.92,5.92,0,0,1,2.54,2.5,8.66,8.66,0,0,1,.94,4.17Zm-9.74-4.93a4,4,0,0,0-1.33,2.48h7.5a3.34,3.34,0,0,0-3.56-3.31A4,4,0,0,0,670.11,1272.52Z"/><path class="cls-3" d="M684.4,1284.2a2.19,2.19,0,0,1-.8-.79,2.1,2.1,0,0,1-.29-1.08,2.05,2.05,0,0,1,.3-1.08,2.32,2.32,0,0,1,.8-.8,2,2,0,0,1,1.07-.3,2.07,2.07,0,0,1,1.08.3,2.33,2.33,0,0,1,.8.8,2.1,2.1,0,0,1,0,2.17,2.26,2.26,0,0,1-.8.79,2.14,2.14,0,0,1-2.16,0Z"/><path class="cls-6" d="M336.77,509.34l.8-2a5.57,5.57,0,0,0,2.95.77,5.23,5.23,0,0,0,4.16-1.59,6.4,6.4,0,0,0,1.46-4.16,3.78,3.78,0,0,1-1.56,1.48,5.4,5.4,0,0,1-2.64.6A5.78,5.78,0,0,1,338,503a5.05,5.05,0,0,1-1.67-4,5.16,5.16,0,0,1,1.76-4,6.11,6.11,0,0,1,4.21-1.58,6,6,0,0,1,4.45,1.9,7.64,7.64,0,0,1,1.85,5.55q0,4.55-2,7a7.4,7.4,0,0,1-6.06,2.47,8.46,8.46,0,0,1-2-.28A5.51,5.51,0,0,1,336.77,509.34Zm9.05-10.45a3.15,3.15,0,0,0-1.05-2.45,3.67,3.67,0,0,0-4.91,0,3.16,3.16,0,0,0-1,2.46,3.2,3.2,0,0,0,1,2.5,3.74,3.74,0,0,0,4.94,0A3.19,3.19,0,0,0,345.82,498.89Z"/><path class="cls-6" d="M352.25,500.74a1.66,1.66,0,0,1-.5-1.22,1.71,1.71,0,0,1,.5-1.24,1.65,1.65,0,0,1,1.22-.51,1.75,1.75,0,0,1,1.75,1.75,1.64,1.64,0,0,1-.51,1.22,1.71,1.71,0,0,1-1.24.5A1.66,1.66,0,0,1,352.25,500.74Zm0,8.8a1.66,1.66,0,0,1-.5-1.22,1.71,1.71,0,0,1,.5-1.24,1.65,1.65,0,0,1,1.22-.51,1.75,1.75,0,0,1,1.75,1.75,1.65,1.65,0,0,1-.51,1.22,1.71,1.71,0,0,1-1.24.5A1.66,1.66,0,0,1,352.27,509.54Z"/><path class="cls-6" d="M364.07,509.92h-2.4V498.49h-3.93v-1.72a4.63,4.63,0,0,0,2.78-.86,3.52,3.52,0,0,0,1.4-2.19h2.15Z"/><path class="cls-6" d="M367.32,501.82a10.38,10.38,0,0,1,1.45-5.87,6.06,6.06,0,0,1,10,0,12.63,12.63,0,0,1,0,11.75,6.06,6.06,0,0,1-10,0A10.39,10.39,0,0,1,367.32,501.82Zm2.42,0q0,3.75,1.43,5.25a3.69,3.69,0,0,0,5.15,0q1.42-1.5,1.42-5.25t-1.42-5.25a3.68,3.68,0,0,0-5.15,0Q369.75,498.07,369.75,501.82Z"/><path class="cls-6" d="M382.67,506.69a3.25,3.25,0,0,1,1-2.49,4.68,4.68,0,0,1,2.65-1.16l3.25-.47q.92-.13.92-.9a2,2,0,0,0-.65-1.55,2.78,2.78,0,0,0-1.95-.6,2.65,2.65,0,0,0-1.9.66,2.76,2.76,0,0,0-.82,1.76l-2.25-.53a3.93,3.93,0,0,1,1.57-2.81,5.3,5.3,0,0,1,3.35-1.09,5.1,5.1,0,0,1,3.78,1.24,4.3,4.3,0,0,1,1.22,3.16v6a12.08,12.08,0,0,0,.15,2h-2.3a9.82,9.82,0,0,1-.12-1.62,4.39,4.39,0,0,1-3.87,2,4.06,4.06,0,0,1-2.9-1.06A3.37,3.37,0,0,1,382.67,506.69Zm4.35,1.63a3.64,3.64,0,0,0,2.53-.85,3.45,3.45,0,0,0,.95-2.7v-.55l-3.67.55a2.33,2.33,0,0,0-1.28.57,1.61,1.61,0,0,0-.47,1.23,1.65,1.65,0,0,0,.54,1.22A1.93,1.93,0,0,0,387,508.32Z"/><path class="cls-6" d="M398.82,509.92H396.5v-12h2.25v1.6A3.62,3.62,0,0,1,400.3,498a4.62,4.62,0,0,1,2.1-.5,4.16,4.16,0,0,1,2.15.57,3.48,3.48,0,0,1,1.45,1.7,4.25,4.25,0,0,1,4-2.28,4.07,4.07,0,0,1,2.94,1.17,4.52,4.52,0,0,1,1.21,3.4v7.8h-2.33v-7.55a3,3,0,0,0-.64-2,2.37,2.37,0,0,0-1.91-.75,2.56,2.56,0,0,0-2,.86,3.11,3.11,0,0,0-.78,2.16v7.28h-2.35v-7.55a3,3,0,0,0-.64-2,2.37,2.37,0,0,0-1.91-.75,2.61,2.61,0,0,0-2,.85,3.15,3.15,0,0,0-.77,2.2Z"/><path class="cls-6" d="M333.64,373.63l.8-2a5.57,5.57,0,0,0,3,.77,5.23,5.23,0,0,0,4.16-1.59,6.4,6.4,0,0,0,1.46-4.16,3.78,3.78,0,0,1-1.56,1.48,5.39,5.39,0,0,1-2.64.6,5.78,5.78,0,0,1-3.92-1.46,5,5,0,0,1-1.67-4,5.16,5.16,0,0,1,1.76-4,6.11,6.11,0,0,1,4.21-1.58,6,6,0,0,1,4.45,1.9,7.64,7.64,0,0,1,1.85,5.55q0,4.55-2,7a7.4,7.4,0,0,1-6.06,2.47,8.47,8.47,0,0,1-2-.28A5.52,5.52,0,0,1,333.64,373.63Zm9-10.45a3.15,3.15,0,0,0-1-2.45,3.67,3.67,0,0,0-4.91,0,3.16,3.16,0,0,0-1,2.46,3.2,3.2,0,0,0,1,2.5,3.74,3.74,0,0,0,4.94,0A3.19,3.19,0,0,0,342.69,363.18Z"/><path class="cls-6" d="M349.11,365a1.66,1.66,0,0,1-.5-1.23,1.71,1.71,0,0,1,.5-1.24,1.65,1.65,0,0,1,1.22-.51,1.75,1.75,0,0,1,1.75,1.75,1.65,1.65,0,0,1-.51,1.23,1.71,1.71,0,0,1-1.24.5A1.67,1.67,0,0,1,349.11,365Zm0,8.8a1.66,1.66,0,0,1-.5-1.22,1.71,1.71,0,0,1,.5-1.24,1.65,1.65,0,0,1,1.22-.51,1.75,1.75,0,0,1,1.75,1.75,1.64,1.64,0,0,1-.51,1.22,1.7,1.7,0,0,1-1.24.5A1.66,1.66,0,0,1,349.14,373.83Z"/><path class="cls-6" d="M355.23,366.11a10.39,10.39,0,0,1,1.45-5.87,6.06,6.06,0,0,1,10,0,12.63,12.63,0,0,1,0,11.75,6.06,6.06,0,0,1-10,0A10.39,10.39,0,0,1,355.23,366.11Zm2.42,0q0,3.75,1.42,5.25a3.68,3.68,0,0,0,5.15,0q1.43-1.5,1.42-5.25t-1.42-5.25a3.68,3.68,0,0,0-5.15,0Q357.66,362.36,357.66,366.11Z"/><path class="cls-6" d="M370.46,366.11a10.39,10.39,0,0,1,1.45-5.87,6.06,6.06,0,0,1,10,0,12.63,12.63,0,0,1,0,11.75,6.06,6.06,0,0,1-10,0A10.39,10.39,0,0,1,370.46,366.11Zm2.42,0q0,3.75,1.42,5.25a3.68,3.68,0,0,0,5.15,0q1.43-1.5,1.42-5.25t-1.42-5.25a3.68,3.68,0,0,0-5.15,0Q372.89,362.36,372.88,366.11Z"/><path class="cls-6" d="M385.81,371a3.25,3.25,0,0,1,1-2.49,4.68,4.68,0,0,1,2.65-1.16l3.25-.47q.92-.13.92-.9a2,2,0,0,0-.65-1.55,2.79,2.79,0,0,0-2-.6,2.65,2.65,0,0,0-1.9.66,2.76,2.76,0,0,0-.83,1.76l-2.25-.53a3.93,3.93,0,0,1,1.58-2.81,5.3,5.3,0,0,1,3.35-1.09,5.11,5.11,0,0,1,3.78,1.24,4.3,4.3,0,0,1,1.22,3.16v6a12,12,0,0,0,.15,2h-2.3a9.82,9.82,0,0,1-.12-1.62,4.39,4.39,0,0,1-3.87,2,4.05,4.05,0,0,1-2.9-1.06A3.37,3.37,0,0,1,385.81,371Zm4.35,1.63a3.64,3.64,0,0,0,2.53-.85,3.45,3.45,0,0,0,1-2.7v-.55l-3.67.55a2.33,2.33,0,0,0-1.28.58,1.61,1.61,0,0,0-.47,1.23,1.66,1.66,0,0,0,.54,1.22A1.94,1.94,0,0,0,390.16,372.61Z"/><path class="cls-6" d="M402,374.21h-2.33v-12h2.25v1.6a3.62,3.62,0,0,1,1.55-1.45,4.64,4.64,0,0,1,2.1-.5,4.15,4.15,0,0,1,2.15.58,3.48,3.48,0,0,1,1.45,1.7,4.25,4.25,0,0,1,4-2.28A4.07,4.07,0,0,1,416.1,363a4.52,4.52,0,0,1,1.21,3.4v7.8H415v-7.55a3,3,0,0,0-.64-2,2.37,2.37,0,0,0-1.91-.75,2.56,2.56,0,0,0-2,.86,3.11,3.11,0,0,0-.77,2.16v7.28h-2.35v-7.55a3,3,0,0,0-.64-2,2.37,2.37,0,0,0-1.91-.75,2.61,2.61,0,0,0-2,.85A3.14,3.14,0,0,0,402,367Z"/><path class="cls-6" d="M335.77,887.83l.8-2a5.57,5.57,0,0,0,2.95.77,5.23,5.23,0,0,0,4.16-1.59,6.4,6.4,0,0,0,1.46-4.16,3.78,3.78,0,0,1-1.56,1.48,5.4,5.4,0,0,1-2.64.6,5.78,5.78,0,0,1-3.93-1.46,5.05,5.05,0,0,1-1.67-4,5.16,5.16,0,0,1,1.76-4,6.11,6.11,0,0,1,4.21-1.58,6,6,0,0,1,4.45,1.9,7.64,7.64,0,0,1,1.85,5.55q0,4.55-2,7a7.4,7.4,0,0,1-6.06,2.47,8.46,8.46,0,0,1-2-.28A5.51,5.51,0,0,1,335.77,887.83Zm9.05-10.45a3.15,3.15,0,0,0-1.05-2.45,3.67,3.67,0,0,0-4.91,0,3.16,3.16,0,0,0-1,2.46,3.2,3.2,0,0,0,1,2.5,3.74,3.74,0,0,0,4.94,0A3.19,3.19,0,0,0,344.82,877.38Z"/><path class="cls-6" d="M351.25,879.23a1.66,1.66,0,0,1-.5-1.22,1.71,1.71,0,0,1,.5-1.24,1.65,1.65,0,0,1,1.22-.51,1.75,1.75,0,0,1,1.75,1.75,1.64,1.64,0,0,1-.51,1.22,1.71,1.71,0,0,1-1.24.5A1.66,1.66,0,0,1,351.25,879.23Zm0,8.8a1.66,1.66,0,0,1-.5-1.22,1.71,1.71,0,0,1,.5-1.24,1.65,1.65,0,0,1,1.22-.51,1.75,1.75,0,0,1,1.75,1.75,1.65,1.65,0,0,1-.51,1.22,1.71,1.71,0,0,1-1.24.5A1.66,1.66,0,0,1,351.27,888Z"/><path class="cls-6" d="M357,884.75v-2.82l7-9.73h3.38v10.28h2.77v2.28h-2.77v3.65h-2.37v-3.65Zm8-2.28v-7.92l-5.7,7.92Z"/><path class="cls-6" d="M382.3,872.2v2.35c-.42.33-.83.69-1.23,1.07a20.63,20.63,0,0,0-3.32,4.55,20.81,20.81,0,0,0-1.41,3.61,23.36,23.36,0,0,0-.89,4.61h-2.52a22.75,22.75,0,0,1,.6-3.74,19.33,19.33,0,0,1,1-3.16,26.53,26.53,0,0,1,1.29-2.54,15.25,15.25,0,0,1,1.35-2q.66-.81,1.2-1.39a11.4,11.4,0,0,1,.86-.85l.32-.28h-9.12V872.2Z"/><path class="cls-6" d="M383.67,885.18a3.25,3.25,0,0,1,1-2.49,4.69,4.69,0,0,1,2.65-1.16l3.25-.47q.93-.13.93-.9a2,2,0,0,0-.65-1.55,2.79,2.79,0,0,0-2-.6,2.65,2.65,0,0,0-1.9.66,2.77,2.77,0,0,0-.83,1.76l-2.25-.53a3.94,3.94,0,0,1,1.58-2.81,5.29,5.29,0,0,1,3.35-1.09,5.11,5.11,0,0,1,3.78,1.24,4.3,4.3,0,0,1,1.22,3.16v6a11.87,11.87,0,0,0,.15,2h-2.3a9.82,9.82,0,0,1-.12-1.62,4.39,4.39,0,0,1-3.87,2,4.06,4.06,0,0,1-2.9-1.06A3.37,3.37,0,0,1,383.67,885.18Zm4.35,1.63a3.64,3.64,0,0,0,2.53-.85,3.45,3.45,0,0,0,1-2.7v-.55l-3.68.55a2.33,2.33,0,0,0-1.28.57,1.61,1.61,0,0,0-.47,1.23,1.66,1.66,0,0,0,.54,1.22A1.94,1.94,0,0,0,388,886.81Z"/><path class="cls-6" d="M399.82,888.41H397.5v-12h2.25V878a3.62,3.62,0,0,1,1.55-1.45,4.63,4.63,0,0,1,2.1-.5,4.15,4.15,0,0,1,2.15.57,3.48,3.48,0,0,1,1.45,1.7,4.25,4.25,0,0,1,4-2.28A4.07,4.07,0,0,1,414,877.2a4.53,4.53,0,0,1,1.21,3.4v7.8h-2.32v-7.55a3,3,0,0,0-.64-2,2.37,2.37,0,0,0-1.91-.75,2.56,2.56,0,0,0-2,.86,3.12,3.12,0,0,0-.77,2.16v7.28h-2.35v-7.55a3,3,0,0,0-.64-2,2.37,2.37,0,0,0-1.91-.75,2.61,2.61,0,0,0-2,.85,3.14,3.14,0,0,0-.78,2.2Z"/><path class="cls-6" d="M335.22,1067.55l.8-2a5.58,5.58,0,0,0,3,.77,5.23,5.23,0,0,0,4.16-1.59,6.4,6.4,0,0,0,1.46-4.16A3.79,3.79,0,0,1,343,1062a5.41,5.41,0,0,1-2.64.6,5.78,5.78,0,0,1-3.92-1.46,5,5,0,0,1-1.68-4,5.15,5.15,0,0,1,1.76-4,6.1,6.1,0,0,1,4.21-1.58,6,6,0,0,1,4.45,1.9,7.65,7.65,0,0,1,1.85,5.55q0,4.55-2,7a7.4,7.4,0,0,1-6.06,2.47,8.47,8.47,0,0,1-2.05-.28A5.52,5.52,0,0,1,335.22,1067.55Zm9-10.45a3.15,3.15,0,0,0-1-2.45,3.67,3.67,0,0,0-4.91,0,3.16,3.16,0,0,0-1,2.46,3.2,3.2,0,0,0,1,2.5,3.74,3.74,0,0,0,4.94,0A3.19,3.19,0,0,0,344.27,1057.1Z"/><path class="cls-6" d="M350.7,1058.95a1.66,1.66,0,0,1-.5-1.22,1.71,1.71,0,0,1,.5-1.24,1.65,1.65,0,0,1,1.22-.51,1.75,1.75,0,0,1,1.75,1.75,1.65,1.65,0,0,1-.51,1.22,1.71,1.71,0,0,1-1.24.5A1.66,1.66,0,0,1,350.7,1058.95Zm0,8.8a1.66,1.66,0,0,1-.5-1.22,1.71,1.71,0,0,1,.5-1.24,1.64,1.64,0,0,1,1.22-.51,1.75,1.75,0,0,1,1.75,1.75,1.65,1.65,0,0,1-.51,1.22,1.7,1.7,0,0,1-1.24.5A1.66,1.66,0,0,1,350.72,1067.75Z"/><path class="cls-6" d="M356.45,1063.72l2.35-.7a3.45,3.45,0,0,0,1.11,2.42,3.61,3.61,0,0,0,2.54.93,3.57,3.57,0,0,0,2.47-.9,3,3,0,0,0,1-2.37,3.12,3.12,0,0,0-1-2.47,3.66,3.66,0,0,0-2.5-.87,3.9,3.9,0,0,0-2.95,1.17l-1.15-.45-1.25-.5,2.1-8.05h8.55v2.25H360.8l-1.2,4.65a4.21,4.21,0,0,1,3.3-1.2,5.54,5.54,0,0,1,4,1.45,5.14,5.14,0,0,1,1.54,3.93,5.24,5.24,0,0,1-1.65,3.94,5.94,5.94,0,0,1-4.3,1.59,6.23,6.23,0,0,1-4.16-1.4A4.87,4.87,0,0,1,356.45,1063.72Z"/><path class="cls-6" d="M370.15,1063.72l2.35-.7a3.45,3.45,0,0,0,1.11,2.42,3.62,3.62,0,0,0,2.54.93,3.56,3.56,0,0,0,2.47-.9,3,3,0,0,0,1-2.37,3.11,3.11,0,0,0-1-2.47,3.66,3.66,0,0,0-2.5-.87,3.9,3.9,0,0,0-2.95,1.17l-1.15-.45-1.25-.5,2.1-8.05h8.55v2.25H374.5l-1.2,4.65a4.21,4.21,0,0,1,3.3-1.2,5.54,5.54,0,0,1,4,1.45,5.14,5.14,0,0,1,1.54,3.93,5.25,5.25,0,0,1-1.65,3.94,5.94,5.94,0,0,1-4.3,1.59,6.24,6.24,0,0,1-4.16-1.4A4.88,4.88,0,0,1,370.15,1063.72Z"/><path class="cls-6" d="M384.22,1064.9a3.25,3.25,0,0,1,1-2.49,4.68,4.68,0,0,1,2.65-1.16l3.25-.47q.92-.13.92-.9a2,2,0,0,0-.65-1.55,2.78,2.78,0,0,0-1.95-.6,2.65,2.65,0,0,0-1.9.66,2.76,2.76,0,0,0-.82,1.76l-2.25-.53a3.93,3.93,0,0,1,1.57-2.81,5.3,5.3,0,0,1,3.35-1.09,5.1,5.1,0,0,1,3.78,1.24,4.3,4.3,0,0,1,1.22,3.16v6a12.08,12.08,0,0,0,.15,2h-2.3a9.82,9.82,0,0,1-.12-1.62,4.39,4.39,0,0,1-3.87,2,4.06,4.06,0,0,1-2.9-1.06A3.37,3.37,0,0,1,384.22,1064.9Zm4.35,1.63a3.64,3.64,0,0,0,2.53-.85,3.45,3.45,0,0,0,.95-2.7v-.55l-3.67.55a2.33,2.33,0,0,0-1.28.57,1.61,1.61,0,0,0-.47,1.23,1.65,1.65,0,0,0,.54,1.22A1.93,1.93,0,0,0,388.57,1066.52Z"/><path class="cls-6" d="M400.37,1068.12H398v-12h2.25v1.6a3.62,3.62,0,0,1,1.55-1.45,4.62,4.62,0,0,1,2.1-.5,4.16,4.16,0,0,1,2.15.57,3.48,3.48,0,0,1,1.45,1.7,4.25,4.25,0,0,1,4-2.28,4.07,4.07,0,0,1,2.94,1.17,4.52,4.52,0,0,1,1.21,3.4v7.8H413.4v-7.55a3,3,0,0,0-.64-2,2.37,2.37,0,0,0-1.91-.75,2.56,2.56,0,0,0-2,.86,3.11,3.11,0,0,0-.78,2.16v7.28h-2.35v-7.55a3,3,0,0,0-.64-2,2.37,2.37,0,0,0-1.91-.75,2.61,2.61,0,0,0-2,.85,3.15,3.15,0,0,0-.77,2.2Z"/><rect class="cls-7" x="2" width="750" height="1334"/><path class="cls-6" d="M375.64,729A41.35,41.35,0,1,1,417,687.61,41.4,41.4,0,0,1,375.64,729Zm0-79.71A38.35,38.35,0,1,0,414,687.61,38.4,38.4,0,0,0,375.64,649.26Z"/><polygon class="cls-6" points="404.52 665.94 346.68 665.94 346.68 679.6 368.22 679.6 368.22 715.27 382.93 715.27 382.93 679.6 404.52 679.6 404.52 665.94"/><path class="cls-6" d="M381.79,445.06l-5.85-9.75-4.12,11.52-8.15,12.42h0c-1.33,2.26-2.88,3.68-5.08,3.07a3.9,3.9,0,0,1-2.7-5.22l8.33-13.81,3.63-13.24a7.77,7.77,0,0,0-.54-3.18,8.73,8.73,0,0,1-.23-4.34l2.16-12.39-5.36,4.66-2.2,9.4c-.34,2-1.41,3.43-3.24,3.45a3.15,3.15,0,0,1-3.16-3.31h0l2.83-11.68a4.22,4.22,0,0,1,1.65-3l11.73-8.41a10.51,10.51,0,0,1,11.27,2.11l5.7,11.39,6.44,4.91c1.38,1.49,1.56,3.57.2,4.84-1.16,1.09-3.39.35-4.5-.79L385,419.41c-1.1-.66-3.64-5.94-3.64-5.94l-1.71,11.16a2.85,2.85,0,0,0,.41,2.25L388.85,441l2.45,16.16h0c.58,2.65-.6,4.55-2.64,5.08a3.8,3.8,0,0,1-4.69-2.85Z"/><ellipse class="cls-6" cx="380.9" cy="393.47" rx="6.15" ry="6.38" transform="translate(-64.64 75.04) rotate(-10.38)"/><path class="cls-6" d="M381.79,1012.22l-5.85-9.75L371.82,1014l-8.15,12.42h0c-1.33,2.26-2.88,3.68-5.08,3.07a3.9,3.9,0,0,1-2.7-5.22l8.33-13.81,3.63-13.24a7.77,7.77,0,0,0-.54-3.18,8.73,8.73,0,0,1-.23-4.34l2.16-12.39L363.86,982l-2.2,9.4c-.34,2-1.41,3.43-3.24,3.45a3.15,3.15,0,0,1-3.16-3.31h0l2.83-11.68a4.22,4.22,0,0,1,1.65-3l11.73-8.41a10.51,10.51,0,0,1,11.27,2.11l5.7,11.39,6.44,4.91c1.38,1.49,1.56,3.57.2,4.84-1.16,1.09-3.39.35-4.5-.79L385,986.56c-1.1-.66-3.64-5.94-3.64-5.94l-1.71,11.16a2.85,2.85,0,0,0,.41,2.25l8.79,14.09,2.45,16.16h0c.58,2.65-.6,4.55-2.64,5.08a3.8,3.8,0,0,1-4.69-2.85Z"/><ellipse class="cls-6" cx="380.9" cy="960.62" rx="6.15" ry="6.38" transform="translate(-166.79 84.31) rotate(-10.38)"/><g class="cls-4"><line class="cls-3" x1="751.6" y1="345.3" x2="1.6" y2="345.3"/><rect class="cls-5" x="1.6" y="343.8" width="750" height="3"/></g><g class="cls-4"><line class="cls-3" x1="751.6" y1="546.8" x2="1.6" y2="546.8"/><rect class="cls-5" x="1.6" y="545.3" width="750" height="3"/></g><g class="cls-4"><line class="cls-3" x1="751.6" y1="748.3" x2="1.6" y2="748.3"/><rect class="cls-5" x="1.6" y="746.8" width="750" height="3"/></g><path class="cls-8" d="M38.35,341.55h-2L28.65,330v11.56h-2V327.37h2.62l7.08,10.88V327.37h2Z"/><path class="cls-8" d="M42.34,333.08a5,5,0,0,1,7.06,0,5.53,5.53,0,0,1,0,7.32,5,5,0,0,1-7.08,0,5.53,5.53,0,0,1,0-7.32Zm1.4,6.18a2.95,2.95,0,0,0,4.26,0,4.08,4.08,0,0,0,0-5,2.95,2.95,0,0,0-4.26,0,4.08,4.08,0,0,0,0,5Z"/><path class="cls-8" d="M58.41,331.93h1.94l2.5,7.24L65,331.93h2l-3.12,9.62H61.89l-2.56-7.32-2.5,7.32h-2l-3.16-9.62h2.06l2.16,7.24Z"/><path class="cls-8" d="M10.53,744.15l.64-1.62a4.44,4.44,0,0,0,2.36.62,4.18,4.18,0,0,0,3.33-1.27A5.11,5.11,0,0,0,18,738.55a3,3,0,0,1-1.25,1.18,4.31,4.31,0,0,1-2.11.48A4.62,4.62,0,0,1,11.53,739a4,4,0,0,1-1.34-3.21,4.13,4.13,0,0,1,1.41-3.22A4.89,4.89,0,0,1,15,731.35a4.79,4.79,0,0,1,3.56,1.52A6.12,6.12,0,0,1,20,737.31a8.62,8.62,0,0,1-1.63,5.62,5.92,5.92,0,0,1-4.85,2,6.8,6.8,0,0,1-1.64-.22A4.43,4.43,0,0,1,10.53,744.15Zm7.24-8.36a2.52,2.52,0,0,0-.84-2,2.93,2.93,0,0,0-3.93,0,2.53,2.53,0,0,0-.83,2,2.56,2.56,0,0,0,.82,2,3,3,0,0,0,4,0A2.55,2.55,0,0,0,17.77,735.79Z"/><path class="cls-8" d="M22.91,737.27a1.33,1.33,0,0,1-.4-1,1.36,1.36,0,0,1,.4-1,1.31,1.31,0,0,1,1-.41,1.4,1.4,0,0,1,1.4,1.4,1.32,1.32,0,0,1-.41,1,1.36,1.36,0,0,1-1,.4A1.33,1.33,0,0,1,22.91,737.27Zm0,7a1.34,1.34,0,0,1-.4-1,1.37,1.37,0,0,1,.4-1,1.32,1.32,0,0,1,1-.41,1.4,1.4,0,0,1,1.4,1.4,1.32,1.32,0,0,1-.41,1,1.37,1.37,0,0,1-1,.4A1.33,1.33,0,0,1,22.93,744.31Z"/><path class="cls-8" d="M31.31,738.59l-1-1.62,3.82-3.52H28v-1.8h8.8v1.76l-3.7,3.42a4.15,4.15,0,0,1,2.79,1,3.62,3.62,0,0,1,1.21,2.9,3.94,3.94,0,0,1-1.26,2.94,4.73,4.73,0,0,1-3.44,1.22,4.86,4.86,0,0,1-3.43-1.19,4.14,4.14,0,0,1-1.39-2.89l1.92-.44a2.87,2.87,0,0,0,.87,2,3.13,3.13,0,0,0,4,.08,2.26,2.26,0,0,0,.73-1.71,2.17,2.17,0,0,0-.78-1.8,2.9,2.9,0,0,0-1.86-.62A3.37,3.37,0,0,0,31.31,738.59Z"/><path class="cls-8" d="M38.87,738.13a8.31,8.31,0,0,1,1.16-4.7,4.85,4.85,0,0,1,8,0,10.1,10.1,0,0,1,0,9.4,4.85,4.85,0,0,1-8,0A8.31,8.31,0,0,1,38.87,738.13Zm1.94,0q0,3,1.14,4.2a2.95,2.95,0,0,0,4.12,0q1.14-1.2,1.14-4.2t-1.14-4.2a2.95,2.95,0,0,0-4.12,0Q40.81,735.13,40.81,738.13Z"/><path class="cls-8" d="M56.15,742a2.6,2.6,0,0,1,.8-2,3.76,3.76,0,0,1,2.12-.93l2.6-.38q.74-.1.74-.72a1.61,1.61,0,0,0-.52-1.24,2.23,2.23,0,0,0-1.56-.48,2.12,2.12,0,0,0-1.52.53,2.21,2.21,0,0,0-.66,1.41l-1.8-.42a3.15,3.15,0,0,1,1.26-2.25,4.24,4.24,0,0,1,2.68-.87,4.09,4.09,0,0,1,3,1,3.45,3.45,0,0,1,1,2.53V743a9.63,9.63,0,0,0,.12,1.58H62.57a7.94,7.94,0,0,1-.1-1.3,3.52,3.52,0,0,1-3.1,1.6,3.24,3.24,0,0,1-2.32-.85A2.7,2.7,0,0,1,56.15,742Zm3.48,1.3a2.92,2.92,0,0,0,2-.68,2.76,2.76,0,0,0,.76-2.16v-.44l-2.94.44a1.85,1.85,0,0,0-1,.46,1.29,1.29,0,0,0-.38,1,1.33,1.33,0,0,0,.43,1A1.55,1.55,0,0,0,59.63,743.33Z"/><path class="cls-8" d="M69.07,744.61H67.21V735H69v1.28a2.9,2.9,0,0,1,1.24-1.16,3.72,3.72,0,0,1,1.68-.4,3.33,3.33,0,0,1,1.72.46,2.79,2.79,0,0,1,1.16,1.36A3.4,3.4,0,0,1,78,734.71a3.25,3.25,0,0,1,2.35.94,3.61,3.61,0,0,1,1,2.72v6.24H79.49v-6A2.38,2.38,0,0,0,79,737a1.9,1.9,0,0,0-1.53-.6,2,2,0,0,0-1.6.69,2.49,2.49,0,0,0-.62,1.73v5.82H73.35v-6a2.38,2.38,0,0,0-.51-1.6,1.9,1.9,0,0,0-1.53-.6,2.09,2.09,0,0,0-1.62.68,2.51,2.51,0,0,0-.62,1.76Z"/><path class="cls-8" d="M13.19,542.62l.64-1.62a4.44,4.44,0,0,0,2.36.62,4.18,4.18,0,0,0,3.33-1.27A5.11,5.11,0,0,0,20.69,537a3,3,0,0,1-1.25,1.18,4.31,4.31,0,0,1-2.11.48,4.62,4.62,0,0,1-3.14-1.17,4,4,0,0,1-1.34-3.21,4.13,4.13,0,0,1,1.41-3.22,4.89,4.89,0,0,1,3.37-1.26,4.79,4.79,0,0,1,3.56,1.52,6.12,6.12,0,0,1,1.48,4.44A8.62,8.62,0,0,1,21,541.4a5.92,5.92,0,0,1-4.85,2,6.8,6.8,0,0,1-1.64-.22A4.43,4.43,0,0,1,13.19,542.62Zm7.24-8.36a2.52,2.52,0,0,0-.84-2,2.93,2.93,0,0,0-3.93,0,2.53,2.53,0,0,0-.83,2,2.56,2.56,0,0,0,.82,2,3,3,0,0,0,4,0A2.55,2.55,0,0,0,20.43,534.26Z"/><path class="cls-8" d="M25.57,535.74a1.33,1.33,0,0,1-.4-1,1.36,1.36,0,0,1,.4-1,1.31,1.31,0,0,1,1-.41,1.4,1.4,0,0,1,1.4,1.4,1.32,1.32,0,0,1-.41,1,1.36,1.36,0,0,1-1,.4A1.33,1.33,0,0,1,25.57,535.74Zm0,7a1.34,1.34,0,0,1-.4-1,1.37,1.37,0,0,1,.4-1,1.32,1.32,0,0,1,1-.41,1.4,1.4,0,0,1,1.4,1.4,1.32,1.32,0,0,1-.41,1,1.37,1.37,0,0,1-1,.4A1.33,1.33,0,0,1,25.59,542.78Z"/><path class="cls-8" d="M35,543.08H33.11v-9.14H30v-1.38a3.71,3.71,0,0,0,2.22-.69,2.82,2.82,0,0,0,1.12-1.75H35Z"/><path class="cls-8" d="M37.23,539.56l1.88-.56a2.77,2.77,0,0,0,.89,1.94,2.9,2.9,0,0,0,2,.74,2.85,2.85,0,0,0,2-.72,2.44,2.44,0,0,0,.8-1.9,2.5,2.5,0,0,0-.8-2,2.93,2.93,0,0,0-2-.7,3.12,3.12,0,0,0-2.36.94l-.92-.36-1-.4,1.68-6.44h6.84v1.8H40.71l-1,3.72a3.37,3.37,0,0,1,2.64-1,4.44,4.44,0,0,1,3.17,1.16A4.11,4.11,0,0,1,46.79,539a4.2,4.2,0,0,1-1.32,3.15A4.76,4.76,0,0,1,42,543.4a5,5,0,0,1-3.33-1.12A3.91,3.91,0,0,1,37.23,539.56Z"/><path class="cls-8" d="M53.49,540.5a2.6,2.6,0,0,1,.8-2,3.76,3.76,0,0,1,2.12-.93l2.6-.38q.74-.1.74-.72a1.61,1.61,0,0,0-.52-1.24,2.23,2.23,0,0,0-1.56-.48,2.12,2.12,0,0,0-1.52.53,2.21,2.21,0,0,0-.66,1.41l-1.8-.42A3.15,3.15,0,0,1,55,534a4.24,4.24,0,0,1,2.68-.87,4.09,4.09,0,0,1,3,1,3.45,3.45,0,0,1,1,2.53v4.82a9.63,9.63,0,0,0,.12,1.58H59.91a7.94,7.94,0,0,1-.1-1.3,3.52,3.52,0,0,1-3.1,1.6,3.24,3.24,0,0,1-2.32-.85A2.7,2.7,0,0,1,53.49,540.5ZM57,541.8a2.92,2.92,0,0,0,2-.68,2.76,2.76,0,0,0,.76-2.16v-.44l-2.94.44a1.85,1.85,0,0,0-1,.46,1.29,1.29,0,0,0-.38,1,1.33,1.33,0,0,0,.43,1A1.55,1.55,0,0,0,57,541.8Z"/><path class="cls-8" d="M66.41,543.08H64.55v-9.62h1.8v1.28a2.9,2.9,0,0,1,1.24-1.16,3.72,3.72,0,0,1,1.68-.4,3.33,3.33,0,0,1,1.72.46A2.79,2.79,0,0,1,72.15,535a3.4,3.4,0,0,1,3.22-1.82,3.25,3.25,0,0,1,2.35.94,3.61,3.61,0,0,1,1,2.72v6.24H76.83v-6a2.38,2.38,0,0,0-.51-1.6,1.9,1.9,0,0,0-1.53-.6,2,2,0,0,0-1.6.69,2.49,2.49,0,0,0-.62,1.73v5.82H70.69v-6a2.38,2.38,0,0,0-.51-1.6,1.9,1.9,0,0,0-1.53-.6,2.09,2.09,0,0,0-1.62.68,2.51,2.51,0,0,0-.62,1.76Z"/><path class="cls-6" d="M319.82,533.35l-4.8-6.44-2,2.16v4.28h-2V519.17h2v7.3l6.64-7.3h2.58l-5.9,6.32,6,7.86Z"/><path class="cls-6" d="M330.26,530l1.62.56a4.26,4.26,0,0,1-1.56,2.19,4.49,4.49,0,0,1-2.76.85,4.7,4.7,0,0,1-3.43-1.39,5,5,0,0,1-1.41-3.75,5.09,5.09,0,0,1,1.36-3.64,4.62,4.62,0,0,1,6.64-.07,5.32,5.32,0,0,1,1.22,3.67,3.65,3.65,0,0,1,0,.6h-7.24a2.89,2.89,0,0,0,.85,2.1,2.8,2.8,0,0,0,2,.82A2.6,2.6,0,0,0,330.26,530Zm-5.54-2.5H330a2.42,2.42,0,0,0-2.64-2.46,2.48,2.48,0,0,0-1.84.73A2.63,2.63,0,0,0,324.72,527.55Z"/><path class="cls-6" d="M336.22,527.79v5.56h-1.88v-9.62h1.84v1.38a3.18,3.18,0,0,1,3-1.66,3.14,3.14,0,0,1,2.55,1.06,4.13,4.13,0,0,1,.89,2.74v6.1H340.7v-5.78q0-2.42-2.24-2.42a2,2,0,0,0-1.65.75A3,3,0,0,0,336.22,527.79Z"/><path class="cls-6" d="M352.32,532v-.16a3.16,3.16,0,0,1-1.15,1.23,3.34,3.34,0,0,1-1.83.49,4.15,4.15,0,0,1-3.31-1.45,5.38,5.38,0,0,1-1.25-3.65,5.25,5.25,0,0,1,1.28-3.57,4.16,4.16,0,0,1,3.28-1.47,3.54,3.54,0,0,1,1.92.47,2.51,2.51,0,0,1,1,1.15v-6.22h1.86v12.7a14.49,14.49,0,0,0,.1,1.78h-1.82A7.29,7.29,0,0,1,352.32,532Zm-5.62-3.54a3.91,3.91,0,0,0,.75,2.48,2.48,2.48,0,0,0,2.07,1,2.43,2.43,0,0,0,2-1,4,4,0,0,0,.76-2.5,3.74,3.74,0,0,0-.74-2.42,2.45,2.45,0,0,0-2-.92,2.55,2.55,0,0,0-2.06.94A3.7,3.7,0,0,0,346.7,528.51Z"/><path class="cls-6" d="M356.74,530.77a2.6,2.6,0,0,1,.8-2,3.75,3.75,0,0,1,2.12-.93l2.6-.38q.74-.1.74-.72a1.61,1.61,0,0,0-.52-1.24,2.23,2.23,0,0,0-1.56-.48,2.12,2.12,0,0,0-1.52.53,2.21,2.21,0,0,0-.66,1.41l-1.8-.42a3.14,3.14,0,0,1,1.26-2.25,4.23,4.23,0,0,1,2.68-.87,4.09,4.09,0,0,1,3,1,3.44,3.44,0,0,1,1,2.53v4.82a9.64,9.64,0,0,0,.12,1.58h-1.84a8,8,0,0,1-.1-1.3,3.51,3.51,0,0,1-3.1,1.6,3.24,3.24,0,0,1-2.32-.85A2.7,2.7,0,0,1,356.74,530.77Zm3.48,1.3a2.91,2.91,0,0,0,2-.68,2.76,2.76,0,0,0,.76-2.16v-.44l-2.94.44a1.86,1.86,0,0,0-1,.46,1.29,1.29,0,0,0-.38,1,1.33,1.33,0,0,0,.43,1A1.55,1.55,0,0,0,360.22,532.07Z"/><path class="cls-6" d="M369.68,533.35H367.8V518.87h1.88Z"/><path class="cls-6" d="M374.76,533.35h-1.88V518.87h1.88Z"/><path class="cls-6" d="M392.2,522.39l-1.76.62a3,3,0,0,0-.9-1.67,3.24,3.24,0,0,0-4.06-.07,2.14,2.14,0,0,0-.78,1.68,1.94,1.94,0,0,0,.47,1.32,2.44,2.44,0,0,0,1.35.74l2.12.46a5,5,0,0,1,2.72,1.43,3.65,3.65,0,0,1,1,2.55,3.87,3.87,0,0,1-1.36,3,5.05,5.05,0,0,1-3.54,1.24,5.27,5.27,0,0,1-3.73-1.25,4.78,4.78,0,0,1-1.57-3l1.88-.6a3.41,3.41,0,0,0,1,2.16,3.83,3.83,0,0,0,4.56.24,2,2,0,0,0,.76-1.62,2,2,0,0,0-.54-1.39,2.89,2.89,0,0,0-1.58-.81l-2-.44a4.71,4.71,0,0,1-2.52-1.34,3.56,3.56,0,0,1-.94-2.54,3.91,3.91,0,0,1,1.37-3,4.69,4.69,0,0,1,3.31-1.27,4.78,4.78,0,0,1,3.34,1.06A4.6,4.6,0,0,1,392.2,522.39Z"/><path class="cls-6" d="M403.24,537.15h-1.86V532a2.8,2.8,0,0,1-1.17,1.18,3.7,3.7,0,0,1-1.83.44,4.14,4.14,0,0,1-3.29-1.47,5.81,5.81,0,0,1,0-7.2,4.1,4.1,0,0,1,3.29-1.45,3.58,3.58,0,0,1,1.95.5,3,3,0,0,1,1.13,1.22v-1.48h1.82Zm-6.74-11.07a3.71,3.71,0,0,0-.76,2.43,3.85,3.85,0,0,0,.77,2.47,2.48,2.48,0,0,0,2,1,2.52,2.52,0,0,0,2.05-1,3.79,3.79,0,0,0,.79-2.47,3.65,3.65,0,0,0-.78-2.43,2.56,2.56,0,0,0-2.06-.93A2.52,2.52,0,0,0,396.5,526.08Z"/><path class="cls-6" d="M412.58,532.19a2.46,2.46,0,0,1-1.16,1.09,3.87,3.87,0,0,1-1.68.37,3.35,3.35,0,0,1-2.62-1.09,4,4,0,0,1-1-2.77v-6.06H408v5.78a2.87,2.87,0,0,0,.53,1.78,1.94,1.94,0,0,0,1.65.7,2.12,2.12,0,0,0,1.7-.67,2.64,2.64,0,0,0,.58-1.79v-5.8h1.88v7.84a15.13,15.13,0,0,0,.1,1.78h-1.8A6.83,6.83,0,0,1,412.58,532.19Z"/><path class="cls-6" d="M417,530.77a2.6,2.6,0,0,1,.8-2,3.75,3.75,0,0,1,2.12-.93l2.6-.38q.74-.1.74-.72a1.61,1.61,0,0,0-.52-1.24,2.23,2.23,0,0,0-1.56-.48,2.12,2.12,0,0,0-1.52.53A2.21,2.21,0,0,0,419,527l-1.8-.42a3.14,3.14,0,0,1,1.26-2.25,4.23,4.23,0,0,1,2.68-.87,4.09,4.09,0,0,1,3,1,3.44,3.44,0,0,1,1,2.53v4.82a9.64,9.64,0,0,0,.12,1.58h-1.84a8,8,0,0,1-.1-1.3,3.51,3.51,0,0,1-3.1,1.6,3.24,3.24,0,0,1-2.32-.85A2.7,2.7,0,0,1,417,530.77Zm3.48,1.3a2.91,2.91,0,0,0,2-.68,2.76,2.76,0,0,0,.76-2.16v-.44l-2.94.44a1.86,1.86,0,0,0-1,.46,1.29,1.29,0,0,0-.38,1,1.33,1.33,0,0,0,.43,1A1.55,1.55,0,0,0,420.44,532.07Z"/><path class="cls-6" d="M433.36,523.63v2a5.78,5.78,0,0,0-.82-.06q-2.64,0-2.64,3v4.82H428v-9.62h1.84v1.68a3,3,0,0,1,2.88-1.84A3.14,3.14,0,0,1,433.36,523.63Z"/><path class="cls-6" d="M442,530l1.62.56a4.27,4.27,0,0,1-1.56,2.19,4.49,4.49,0,0,1-2.76.85,4.7,4.7,0,0,1-3.43-1.39,5,5,0,0,1-1.41-3.75,5.09,5.09,0,0,1,1.36-3.64,4.62,4.62,0,0,1,6.64-.07,5.32,5.32,0,0,1,1.22,3.67,3.91,3.91,0,0,1,0,.6h-7.24a2.9,2.9,0,0,0,.85,2.1,2.8,2.8,0,0,0,2.05.82A2.6,2.6,0,0,0,442,530Zm-5.54-2.5h5.26a2.42,2.42,0,0,0-2.64-2.46,2.48,2.48,0,0,0-1.84.73A2.61,2.61,0,0,0,436.48,527.55Z"/><path class="cls-6" d="M354.52,861.33l-1.54-4H346.7l-1.5,4h-2.1l5.64-14.18H351l5.64,14.18Zm-4.7-12.14-2.42,6.36h4.88Z"/><path class="cls-6" d="M360.32,861.33h-1.88V846.84h1.88Z"/><path class="cls-6" d="M370.28,858l1.62.56a4.26,4.26,0,0,1-1.56,2.19,4.49,4.49,0,0,1-2.76.85,4.7,4.7,0,0,1-3.43-1.39,5,5,0,0,1-1.41-3.75,5.09,5.09,0,0,1,1.36-3.64,4.62,4.62,0,0,1,6.64-.07,5.32,5.32,0,0,1,1.22,3.67,3.65,3.65,0,0,1,0,.6h-7.24a2.89,2.89,0,0,0,.85,2.1,2.8,2.8,0,0,0,2,.82A2.6,2.6,0,0,0,370.28,858Zm-5.54-2.5H370a2.42,2.42,0,0,0-2.64-2.46,2.48,2.48,0,0,0-1.84.73A2.62,2.62,0,0,0,364.74,855.53Z"/><path class="cls-6" d="M379.68,851.71h1.94l2.5,7.24,2.12-7.24h2l-3.12,9.62h-1.94L380.6,854l-2.5,7.32h-2L373,851.71H375l2.16,7.24Z"/><path class="cls-6" d="M390.1,849a1.29,1.29,0,0,1-.39-1,1.32,1.32,0,0,1,.39-1,1.27,1.27,0,0,1,.95-.4,1.33,1.33,0,0,1,1,.39,1.31,1.31,0,0,1,.4,1,1.28,1.28,0,0,1-.4,1,1.33,1.33,0,0,1-1,.39A1.29,1.29,0,0,1,390.1,849ZM392,861.33h-1.86v-9.62H392Z"/><path class="cls-6" d="M400,853.41H397.7v7.92h-1.94v-7.92H394v-1.7h1.78v-1.62a3.23,3.23,0,0,1,.9-2.42,3.1,3.1,0,0,1,2.26-.88,2.07,2.07,0,0,1,1.12.2v1.68a2.28,2.28,0,0,0-.82-.12,1.64,1.64,0,0,0-1.07.37,1.56,1.56,0,0,0-.45,1.27v1.52H400Z"/><path class="cls-6" d="M408.4,858l1.62.56a4.26,4.26,0,0,1-1.56,2.19,4.49,4.49,0,0,1-2.76.85,4.7,4.7,0,0,1-3.43-1.39,5,5,0,0,1-1.41-3.75,5.09,5.09,0,0,1,1.36-3.64,4.62,4.62,0,0,1,6.64-.07,5.32,5.32,0,0,1,1.22,3.67,3.65,3.65,0,0,1,0,.6H402.8a2.89,2.89,0,0,0,.85,2.1,2.8,2.8,0,0,0,2,.82A2.6,2.6,0,0,0,408.4,858Zm-5.54-2.5h5.26a2.42,2.42,0,0,0-2.64-2.46,2.48,2.48,0,0,0-1.84.73A2.62,2.62,0,0,0,402.86,855.53Z"/><path class="cls-8" d="M11,945.37l.64-1.62a4.46,4.46,0,0,0,2.36.62,4.18,4.18,0,0,0,3.33-1.27,5.11,5.11,0,0,0,1.17-3.33,3,3,0,0,1-1.25,1.18,4.31,4.31,0,0,1-2.11.48A4.63,4.63,0,0,1,12,940.26,4,4,0,0,1,10.64,937a4.12,4.12,0,0,1,1.41-3.22,4.89,4.89,0,0,1,3.37-1.26A4.79,4.79,0,0,1,19,934.09a6.11,6.11,0,0,1,1.48,4.44,8.63,8.63,0,0,1-1.63,5.62,5.92,5.92,0,0,1-4.85,2,6.79,6.79,0,0,1-1.64-.22A4.38,4.38,0,0,1,11,945.37ZM18.22,937a2.53,2.53,0,0,0-.84-2,2.93,2.93,0,0,0-3.93,0,2.53,2.53,0,0,0-.83,2,2.56,2.56,0,0,0,.82,2,3,3,0,0,0,4,0A2.55,2.55,0,0,0,18.22,937Z"/><path class="cls-8" d="M23.36,938.49a1.33,1.33,0,0,1-.4-1,1.36,1.36,0,0,1,.4-1,1.31,1.31,0,0,1,1-.41,1.4,1.4,0,0,1,1.4,1.4,1.32,1.32,0,0,1-.41,1,1.37,1.37,0,0,1-1,.4A1.33,1.33,0,0,1,23.36,938.49Zm0,7a1.33,1.33,0,0,1-.4-1,1.36,1.36,0,0,1,.4-1,1.32,1.32,0,0,1,1-.41,1.4,1.4,0,0,1,1.4,1.4,1.32,1.32,0,0,1-.41,1,1.36,1.36,0,0,1-1,.4A1.33,1.33,0,0,1,23.38,945.53Z"/><path class="cls-8" d="M28,942.91v-2.26l5.56-7.78h2.7v8.22h2.22v1.82H36.22v2.92h-1.9v-2.92Zm6.36-1.82v-6.34l-4.56,6.34Z"/><path class="cls-8" d="M39.44,942.31l1.88-.56a2.76,2.76,0,0,0,.89,1.94,2.89,2.89,0,0,0,2,.74,2.85,2.85,0,0,0,2-.72,2.43,2.43,0,0,0,.8-1.9,2.5,2.5,0,0,0-.8-2,2.93,2.93,0,0,0-2-.7,3.12,3.12,0,0,0-2.36.94l-.92-.36-1-.4,1.68-6.44h6.84v1.8H42.92l-1,3.72a3.37,3.37,0,0,1,2.64-1,4.43,4.43,0,0,1,3.17,1.16A4.11,4.11,0,0,1,49,941.73a4.19,4.19,0,0,1-1.32,3.15,4.75,4.75,0,0,1-3.44,1.27A5,5,0,0,1,40.91,945,3.9,3.9,0,0,1,39.44,942.31Z"/><path class="cls-8" d="M55.7,943.25a2.6,2.6,0,0,1,.8-2,3.74,3.74,0,0,1,2.12-.93l2.6-.38q.74-.1.74-.72a1.61,1.61,0,0,0-.52-1.24,2.23,2.23,0,0,0-1.56-.48,2.12,2.12,0,0,0-1.52.53,2.21,2.21,0,0,0-.66,1.41L55.9,939a3.15,3.15,0,0,1,1.26-2.25,4.24,4.24,0,0,1,2.68-.87,4.09,4.09,0,0,1,3,1,3.44,3.44,0,0,1,1,2.53v4.82a9.64,9.64,0,0,0,.12,1.58H62.12a8,8,0,0,1-.1-1.3,3.5,3.5,0,0,1-3.1,1.6,3.24,3.24,0,0,1-2.32-.85A2.69,2.69,0,0,1,55.7,943.25Zm3.48,1.3a2.92,2.92,0,0,0,2-.68,2.76,2.76,0,0,0,.76-2.16v-.44l-2.94.44a1.87,1.87,0,0,0-1,.46,1.29,1.29,0,0,0-.38,1,1.33,1.33,0,0,0,.43,1A1.54,1.54,0,0,0,59.18,944.55Z"/><path class="cls-8" d="M68.62,945.83H66.76v-9.62h1.8v1.28a2.88,2.88,0,0,1,1.24-1.16,3.7,3.7,0,0,1,1.68-.4,3.34,3.34,0,0,1,1.72.46,2.8,2.8,0,0,1,1.16,1.36,3.4,3.4,0,0,1,3.22-1.82,3.25,3.25,0,0,1,2.35.94,3.61,3.61,0,0,1,1,2.72v6.24H79v-6a2.39,2.39,0,0,0-.51-1.6,1.9,1.9,0,0,0-1.53-.6,2.05,2.05,0,0,0-1.6.69,2.49,2.49,0,0,0-.62,1.73v5.82H72.9v-6a2.39,2.39,0,0,0-.51-1.6,1.9,1.9,0,0,0-1.53-.6,2.09,2.09,0,0,0-1.62.68,2.51,2.51,0,0,0-.62,1.76Z"/><path class="cls-8" d="M303.13,1110.91h-2v-14.18h8.62v1.82h-6.66v4.56h6V1105h-6Z"/><path class="cls-8" d="M311.86,1098.6a1.3,1.3,0,0,1-.39-1,1.32,1.32,0,0,1,.39-1,1.27,1.27,0,0,1,.95-.4,1.33,1.33,0,0,1,1,.39,1.31,1.31,0,0,1,.4,1,1.29,1.29,0,0,1-.4,1,1.33,1.33,0,0,1-1,.39A1.29,1.29,0,0,1,311.86,1098.6Zm1.89,12.31h-1.86v-9.62h1.86Z"/><path class="cls-8" d="M318.83,1105.35v5.56h-1.88v-9.62h1.84v1.38a3.19,3.19,0,0,1,3-1.66,3.14,3.14,0,0,1,2.55,1.06,4.12,4.12,0,0,1,.89,2.74v6.1h-1.88v-5.78q0-2.42-2.24-2.42a2,2,0,0,0-1.65.75A3,3,0,0,0,318.83,1105.35Z"/><path class="cls-8" d="M327.59,1108.33a2.6,2.6,0,0,1,.8-2,3.76,3.76,0,0,1,2.12-.93l2.6-.38q.74-.1.74-.72a1.61,1.61,0,0,0-.52-1.24,2.23,2.23,0,0,0-1.56-.48,2.12,2.12,0,0,0-1.52.53,2.21,2.21,0,0,0-.66,1.41l-1.8-.42a3.15,3.15,0,0,1,1.26-2.25,4.24,4.24,0,0,1,2.68-.87,4.09,4.09,0,0,1,3,1,3.45,3.45,0,0,1,1,2.53v4.82a9.63,9.63,0,0,0,.12,1.58H334a7.94,7.94,0,0,1-.1-1.3,3.52,3.52,0,0,1-3.1,1.6,3.24,3.24,0,0,1-2.32-.85A2.7,2.7,0,0,1,327.59,1108.33Zm3.48,1.3a2.92,2.92,0,0,0,2-.68,2.76,2.76,0,0,0,.76-2.16v-.44l-2.94.44a1.85,1.85,0,0,0-1,.46,1.29,1.29,0,0,0-.38,1,1.33,1.33,0,0,0,.43,1A1.55,1.55,0,0,0,331.07,1109.63Z"/><path class="cls-8" d="M340.53,1110.91h-1.88v-14.48h1.88Z"/><path class="cls-8" d="M353.85,1110.91h-4.92v-14.18h5a6.61,6.61,0,0,1,4.8,1.89,7,7,0,0,1,1.94,5.23,6.83,6.83,0,0,1-2,5.19A6.72,6.72,0,0,1,353.85,1110.91Zm-3-1.74h2.9a4.66,4.66,0,0,0,3.45-1.38,5.36,5.36,0,0,0,1.37-3.94,5.5,5.5,0,0,0-1.35-4,4.56,4.56,0,0,0-3.43-1.4h-2.94Z"/><path class="cls-8" d="M369.89,1107.61l1.62.56a4.26,4.26,0,0,1-1.56,2.19,4.49,4.49,0,0,1-2.76.85,4.7,4.7,0,0,1-3.43-1.39,5,5,0,0,1-1.41-3.75,5.09,5.09,0,0,1,1.36-3.64,4.62,4.62,0,0,1,6.64-.07,5.32,5.32,0,0,1,1.22,3.67,3.77,3.77,0,0,1,0,.6h-7.24a2.89,2.89,0,0,0,.85,2.1,2.8,2.8,0,0,0,2,.82A2.6,2.6,0,0,0,369.89,1107.61Zm-5.54-2.5h5.26a2.42,2.42,0,0,0-2.64-2.46,2.48,2.48,0,0,0-1.84.73A2.62,2.62,0,0,0,364.35,1105.11Z"/><path class="cls-8" d="M373.07,1108.41l1.7-.6a2,2,0,0,0,.68,1.29,2.28,2.28,0,0,0,1.56.51,1.8,1.8,0,0,0,1.2-.37,1.14,1.14,0,0,0,.44-.91q0-1-1.24-1.24l-1.64-.36a3.17,3.17,0,0,1-1.76-1,2.53,2.53,0,0,1-.64-1.74,2.78,2.78,0,0,1,1-2.14,3.5,3.5,0,0,1,2.41-.9,4.65,4.65,0,0,1,1.64.27,2.84,2.84,0,0,1,1.12.71,4.09,4.09,0,0,1,.6.82,3.57,3.57,0,0,1,.3.78l-1.66.62a2,2,0,0,0-.14-.47,2.67,2.67,0,0,0-.31-.51,1.45,1.45,0,0,0-.61-.45,2.43,2.43,0,0,0-.94-.17,1.72,1.72,0,0,0-1.15.38,1.15,1.15,0,0,0-.45.9q0,.92,1.1,1.16l1.56.34a3.65,3.65,0,0,1,2,1,2.6,2.6,0,0,1,.69,1.83,2.84,2.84,0,0,1-.93,2.06,3.52,3.52,0,0,1-2.59.92,4,4,0,0,1-2.78-.89A3.16,3.16,0,0,1,373.07,1108.41Z"/><path class="cls-8" d="M385.53,1098.25v3h2.08v1.7h-2.08v5a1.14,1.14,0,0,0,1.34,1.32,3.1,3.1,0,0,0,.74-.08v1.6a3.71,3.71,0,0,1-1.28.18,2.65,2.65,0,0,1-2-.72,2.73,2.73,0,0,1-.72-2V1103h-1.84v-1.7h.52a1.42,1.42,0,0,0,1.11-.41,1.54,1.54,0,0,0,.37-1.07v-1.56Z"/><path class="cls-8" d="M390.08,1098.6a1.3,1.3,0,0,1-.39-1,1.32,1.32,0,0,1,.39-1,1.27,1.27,0,0,1,.95-.4,1.33,1.33,0,0,1,1,.39,1.31,1.31,0,0,1,.4,1,1.29,1.29,0,0,1-.4,1,1.33,1.33,0,0,1-1,.39A1.29,1.29,0,0,1,390.08,1098.6Zm1.89,12.31h-1.86v-9.62H392Z"/><path class="cls-8" d="M397,1105.35v5.56h-1.88v-9.62H397v1.38a3.19,3.19,0,0,1,3-1.66,3.14,3.14,0,0,1,2.55,1.06,4.12,4.12,0,0,1,.89,2.74v6.1h-1.88v-5.78q0-2.42-2.24-2.42a2,2,0,0,0-1.65.75A3,3,0,0,0,397,1105.35Z"/><path class="cls-8" d="M405.81,1108.33a2.6,2.6,0,0,1,.8-2,3.76,3.76,0,0,1,2.12-.93l2.6-.38q.74-.1.74-.72a1.61,1.61,0,0,0-.52-1.24,2.23,2.23,0,0,0-1.56-.48,2.12,2.12,0,0,0-1.52.53,2.21,2.21,0,0,0-.66,1.41l-1.8-.42a3.15,3.15,0,0,1,1.26-2.25,4.24,4.24,0,0,1,2.68-.87,4.09,4.09,0,0,1,3,1,3.45,3.45,0,0,1,1,2.53v4.82a9.63,9.63,0,0,0,.12,1.58h-1.84a7.94,7.94,0,0,1-.1-1.3,3.52,3.52,0,0,1-3.1,1.6,3.24,3.24,0,0,1-2.32-.85A2.7,2.7,0,0,1,405.81,1108.33Zm3.48,1.3a2.92,2.92,0,0,0,2-.68,2.76,2.76,0,0,0,.76-2.16v-.44l-2.94.44a1.85,1.85,0,0,0-1,.46,1.29,1.29,0,0,0-.38,1,1.33,1.33,0,0,0,.43,1A1.55,1.55,0,0,0,409.29,1109.63Z"/><path class="cls-8" d="M419.39,1098.25v3h2.08v1.7h-2.08v5a1.14,1.14,0,0,0,1.34,1.32,3.1,3.1,0,0,0,.74-.08v1.6a3.71,3.71,0,0,1-1.28.18,2.65,2.65,0,0,1-2-.72,2.73,2.73,0,0,1-.72-2V1103h-1.84v-1.7h.52a1.42,1.42,0,0,0,1.11-.41,1.54,1.54,0,0,0,.37-1.07v-1.56Z"/><path class="cls-8" d="M423.94,1098.6a1.3,1.3,0,0,1-.39-1,1.32,1.32,0,0,1,.39-1,1.27,1.27,0,0,1,.95-.4,1.33,1.33,0,0,1,1,.39,1.31,1.31,0,0,1,.4,1,1.29,1.29,0,0,1-.4,1,1.33,1.33,0,0,1-1,.39A1.29,1.29,0,0,1,423.94,1098.6Zm1.89,12.31H424v-9.62h1.86Z"/><path class="cls-8" d="M429.62,1102.44a5,5,0,0,1,7.06,0,5.53,5.53,0,0,1,0,7.32,5,5,0,0,1-7.08,0,5.53,5.53,0,0,1,0-7.32Zm1.4,6.18a2.95,2.95,0,0,0,4.26,0,4.09,4.09,0,0,0,0-5,2.95,2.95,0,0,0-4.26,0,4.09,4.09,0,0,0,0,5Z"/><path class="cls-8" d="M442.35,1105.35v5.56h-1.88v-9.62h1.84v1.38a3.19,3.19,0,0,1,3-1.66,3.14,3.14,0,0,1,2.55,1.06,4.12,4.12,0,0,1,.89,2.74v6.1h-1.88v-5.78q0-2.42-2.24-2.42a2,2,0,0,0-1.65.75A3,3,0,0,0,442.35,1105.35Z"/><g class="cls-9"><rect class="cls-10" x="0.87" y="0.84" width="750" height="128"/></g><g class="cls-11"><rect class="cls-12" x="0.87" y="128.84" width="750" height="1"/></g><path class="cls-13" d="M357.12,113.53a4.29,4.29,0,0,1-4.29-4.29v-34a15.17,15.17,0,1,0-30.35,0V104.8h5.27a6.19,6.19,0,0,0,6.18-6.18v-18a4.29,4.29,0,0,1,8.58,0v18a14.77,14.77,0,0,1-14.76,14.75h-9.55a4.29,4.29,0,0,1-4.29-4.29V75.29a23.75,23.75,0,0,1,47.5,0v34A4.29,4.29,0,0,1,357.12,113.53Z"/><path class="cls-14" d="M395.32,113.53a23.78,23.78,0,0,1-23.75-23.75v-34a4.29,4.29,0,0,1,8.58,0v34a15.17,15.17,0,1,0,30.35,0V56a4.29,4.29,0,0,1,8.58,0v33.8A23.78,23.78,0,0,1,395.32,113.53Z"/><path class="cls-15" d="M433.54,113.76a4.29,4.29,0,0,1-4.29-4.29V55.59a4.29,4.29,0,0,1,8.58,0v53.88A4.29,4.29,0,0,1,433.54,113.76Z"/><g id="Page_Controls_-_Standard_Dark" data-name="Page Controls - Standard Dark"><g id="Page_Controls_Frame" data-name="Page Controls Frame" class="cls-16"><rect class="cls-3" x="1.34" y="1143.98" width="750" height="30"/></g><g id="Page_Controls_Group" data-name="Page Controls Group"><g id="Page_Controls_Frame-2" data-name="Page Controls Frame"><rect class="cls-7" x="1.34" y="1143.98" width="750" height="30"/></g><g id="Page_Control_-_Inactive" data-name="Page Control - Inactive" class="cls-17"><circle class="cls-12" cx="388.65" cy="1158.98" r="7"/></g><g id="Page_Control_-_Active" data-name="Page Control - Active"><circle class="cls-18" cx="356.65" cy="1158.98" r="7"/></g></g></g><path class="cls-18" d="M708.33,71.7H670.92a2.5,2.5,0,0,1,0-5h37.42a2.5,2.5,0,0,1,0,5Z"/><path class="cls-18" d="M708.33,85H670.92a2.5,2.5,0,0,1,0-5h37.42a2.5,2.5,0,0,1,0,5Z"/><path class="cls-18" d="M708.33,98.37H670.92a2.5,2.5,0,0,1,0-5h37.42a2.5,2.5,0,0,1,0,5Z"/><rect class="cls-6" x="286.39" y="545.3" width="178.48" height="3"/><rect class="cls-6" x="286.39" y="898.65" width="178.48" height="3"/><g class="cls-11"><rect class="cls-12" y="1174.12" width="750" height="1"/></g></g></g></g></svg>