<svg xmlns="http://www.w3.org/2000/svg" viewBox="0 0 752 1334"><defs><style>.cls-1{isolation:isolate;}.cls-13,.cls-14,.cls-2,.cls-3,.cls-39,.cls-5{fill:#fff;}.cls-2{mix-blend-mode:screen;}.cls-3{stroke:#01b8af;opacity:0.2;}.cls-25,.cls-3,.cls-42{stroke-miterlimit:10;}.cls-25,.cls-3{stroke-width:3px;}.cls-4{fill:#01b8af;}.cls-5{font-size:37.38px;font-family:CerebriSans-Medium, Cerebri Sans;}.cls-6{letter-spacing:-0.08em;}.cls-7{letter-spacing:-0.01em;}.cls-8{letter-spacing:-0.07em;}.cls-9{letter-spacing:0em;}.cls-10{letter-spacing:-0.02em;}.cls-11{letter-spacing:0.01em;}.cls-12{letter-spacing:-0.02em;}.cls-13,.cls-14{font-size:30px;}.cls-13{font-family:GothamBold, Gotham Bold;letter-spacing:0.13em;}.cls-14{font-family:CerebriSans-SemiBold, Cerebri Sans;font-weight:700;}.cls-15{letter-spacing:-0.12em;}.cls-16{letter-spacing:0em;}.cls-17{letter-spacing:0em;}.cls-18{letter-spacing:-0.01em;}.cls-19{letter-spacing:0.03em;}.cls-20{letter-spacing:-0.01em;}.cls-21{font-size:25px;}.cls-21,.cls-26,.cls-30{fill:#e4eaec;}.cls-21,.cls-27,.cls-30{font-family:CircularStd-Book, Circular Std;}.cls-22{letter-spacing:0.01em;}.cls-23{letter-spacing:-0.01em;}.cls-24,.cls-25,.cls-42{fill:none;}.cls-25{stroke:#e4eaec;}.cls-27,.cls-30{font-size:20px;}.cls-27{fill:#828183;}.cls-28{letter-spacing:-0.01em;}.cls-29{letter-spacing:0em;}.cls-31{letter-spacing:-0.04em;}.cls-32{letter-spacing:0em;}.cls-33{letter-spacing:-0.02em;}.cls-34{fill:#f6f6f6;opacity:0.9;}.cls-35,.cls-40{fill:#010101;}.cls-35{opacity:0.3;}.cls-36{fill:#fbb729;}.cls-37{fill:#eb3591;}.cls-38{fill:#05b5ae;}.cls-39{opacity:0;}.cls-40{opacity:0.1;}.cls-41{fill:#595a5c;}.cls-42{stroke:#595a5c;stroke-linecap:round;stroke-width:5px;}</style></defs><title>None</title><g class="cls-1"><g id="Layer_2" data-name="Layer 2"><g id="Layer_1-2" data-name="Layer 1"><rect class="cls-2" x="0.64" width="750" height="1334"/><line class="cls-3" x1="751.6" y1="948.8" x2="1.6" y2="948.8"/><rect class="cls-4" x="295.74" y="337.14" width="159.79" height="178.48" rx="30.49" ry="30.49" transform="matrix(0, 1, -1, 0, 802.01, 50.74)"/><path class="cls-4" d="M154.31,614.32H566.47A30.49,30.49,0,0,1,597,644.81v117.5a30.49,30.49,0,0,1-30.49,30.49H154.31a0,0,0,0,1,0,0V614.32a0,0,0,0,1,0,0Z" transform="translate(1079.2 327.93) rotate(90)"/><path class="cls-4" d="M283.84,902.7H436.94a30.49,30.49,0,0,1,30.49,30.49v117.5a30.49,30.49,0,0,1-30.49,30.49H283.84a0,0,0,0,1,0,0V902.7a0,0,0,0,1,0,0Z" transform="translate(1367.58 616.31) rotate(90)"/><rect class="cls-4" x="0.64" y="1174.62" width="750" height="159.38"/><rect class="cls-4" x="0.64" y="126.75" width="750" height="122.54"/><text class="cls-5" transform="translate(142.81 201.9)"><tspan class="cls-6">T</tspan><tspan x="15.97" y="0">od</tspan><tspan class="cls-7" x="61.63" y="0">a</tspan><tspan x="81.56" y="0">y</tspan><tspan class="cls-8" x="100.88" y="0">’</tspan><tspan x="109.13" y="0">s commu</tspan><tspan class="cls-9" x="267.07" y="0">t</tspan><tspan x="280.59" y="0">e </tspan><tspan class="cls-10" x="312.74" y="0">ov</tspan><tspan x="352.91" y="0">e</tspan><tspan class="cls-11" x="374.04" y="0">r</tspan><tspan x="387.86" y="0">vi</tspan><tspan class="cls-12" x="417.44" y="0">e</tspan><tspan x="437.83" y="0">w</tspan></text><text class="cls-13" transform="translate(234.31 74.83)">GUI OVERVIEW</text><text class="cls-14" transform="translate(117.51 1239.35)"><tspan class="cls-15">Y</tspan><tspan x="14.81" y="0">our cur</tspan><tspan class="cls-16" x="116.31" y="0">r</tspan><tspan x="127.15" y="0">ent commu</tspan><tspan class="cls-17" x="287.55" y="0">t</tspan><tspan x="298.65" y="0">e has mode</tspan><tspan class="cls-16" x="462.01" y="0">r</tspan><tspan class="cls-18" x="472.85" y="0">a</tspan><tspan class="cls-17" x="488.76" y="0">t</tspan><tspan x="499.86" y="0">e </tspan><tspan x="-55.84" y="44.85">anomalies. Click on the ale</tspan><tspan class="cls-19" x="328.07" y="44.85">r</tspan><tspan x="339.89" y="44.85">ts </tspan><tspan class="cls-17" x="374.18" y="44.85">t</tspan><tspan x="385.28" y="44.85">o learn mo</tspan><tspan class="cls-16" x="535.59" y="44.85">r</tspan><tspan class="cls-20" x="546.43" y="44.85">e</tspan><tspan x="563.14" y="44.85">.</tspan></text><text class="cls-21" transform="translate(335.35 509.91)">9:<tspan class="cls-22" x="21.77" y="0">1</tspan><tspan x="30.72" y="0">0am</tspan></text><text class="cls-21" transform="translate(332.21 374.21)">9:<tspan class="cls-23" x="21.77" y="0">0</tspan><tspan x="37" y="0">0am</tspan></text><text class="cls-21" transform="translate(334.35 888.4)">9:<tspan class="cls-23" x="21.77" y="0">4</tspan><tspan x="36" y="0">7am</tspan></text><text class="cls-21" transform="translate(333.8 1068.12)">9:55am</text><rect class="cls-24" x="2" width="750" height="1334"/><circle class="cls-25" cx="375.64" cy="687.61" r="39.85"/><polygon class="cls-26" points="404.52 665.94 346.68 665.94 346.68 679.6 368.22 679.6 368.22 715.27 382.93 715.27 382.93 679.6 404.52 679.6 404.52 665.94"/><path class="cls-26" d="M381.79,445.06l-5.85-9.75-4.12,11.52-8.15,12.42h0c-1.33,2.26-2.88,3.68-5.08,3.07a3.9,3.9,0,0,1-2.7-5.22l8.33-13.81,3.63-13.24a7.77,7.77,0,0,0-.54-3.18,8.73,8.73,0,0,1-.23-4.34l2.16-12.39-5.36,4.66-2.2,9.4c-.34,2-1.41,3.43-3.24,3.45a3.15,3.15,0,0,1-3.16-3.31h0l2.83-11.68a4.22,4.22,0,0,1,1.65-3l11.73-8.41a10.51,10.51,0,0,1,11.27,2.11l5.7,11.39,6.44,4.91c1.38,1.49,1.56,3.57.2,4.84-1.16,1.09-3.39.35-4.5-.79L385,419.41c-1.1-.66-3.64-5.94-3.64-5.94l-1.71,11.16a2.85,2.85,0,0,0,.41,2.25L388.85,441l2.45,16.16h0c.58,2.65-.6,4.55-2.64,5.08a3.8,3.8,0,0,1-4.69-2.85Z"/><ellipse class="cls-26" cx="380.9" cy="393.47" rx="6.15" ry="6.38" transform="translate(-64.64 75.04) rotate(-10.38)"/><path class="cls-26" d="M381.79,1012.22l-5.85-9.75L371.82,1014l-8.15,12.42h0c-1.33,2.26-2.88,3.68-5.08,3.07a3.9,3.9,0,0,1-2.7-5.22l8.33-13.81,3.63-13.24a7.77,7.77,0,0,0-.54-3.18,8.73,8.73,0,0,1-.23-4.34l2.16-12.39L363.86,982l-2.2,9.4c-.34,2-1.41,3.43-3.24,3.45a3.15,3.15,0,0,1-3.16-3.31h0l2.83-11.68a4.22,4.22,0,0,1,1.65-3l11.73-8.41a10.51,10.51,0,0,1,11.27,2.11l5.7,11.39,6.44,4.91c1.38,1.49,1.56,3.57.2,4.84-1.16,1.09-3.39.35-4.5-.79L385,986.56c-1.1-.66-3.64-5.94-3.64-5.94l-1.71,11.16a2.85,2.85,0,0,0,.41,2.25l8.79,14.09,2.45,16.16h0c.58,2.65-.6,4.55-2.64,5.08a3.8,3.8,0,0,1-4.69-2.85Z"/><ellipse class="cls-26" cx="380.9" cy="960.62" rx="6.15" ry="6.38" transform="translate(-166.79 84.31) rotate(-10.38)"/><line class="cls-3" x1="751.6" y1="345.3" x2="1.6" y2="345.3"/><line class="cls-3" x1="751.6" y1="546.8" x2="1.6" y2="546.8"/><line class="cls-3" x1="751.6" y1="748.3" x2="1.6" y2="748.3"/><text class="cls-27" transform="translate(24.89 341.55)">N<tspan class="cls-28" x="15.26" y="0">o</tspan><tspan class="cls-29" x="26.5" y="0">w</tspan></text><text class="cls-27" transform="translate(9.39 744.61)">9:30 am</text><text class="cls-27" transform="translate(12.05 543.08)">9:15 am</text><text class="cls-30" transform="translate(309.24 533.35)"><tspan class="cls-31">K</tspan><tspan x="12.66" y="0">endall </tspan><tspan class="cls-28" x="72.12" y="0">S</tspan><tspan x="83.78" y="0">qua</tspan><tspan class="cls-32" x="117.18" y="0">r</tspan><tspan x="124.42" y="0">e </tspan></text><text class="cls-30" transform="translate(342.9 861.33)">Al<tspan class="cls-32" x="19.02" y="0">e</tspan><tspan x="29.76" y="0">wi</tspan><tspan class="cls-33" x="50.68" y="0">f</tspan><tspan x="57.14" y="0">e</tspan></text><text class="cls-27" transform="translate(9.84 945.83)">9:45 am</text><text class="cls-27" transform="translate(299.37 1110.91)"><tspan class="cls-32">F</tspan><tspan x="10.92" y="0">inal Destination</tspan></text><rect class="cls-34" x="0.87" y="0.84" width="750" height="128"/><rect class="cls-35" x="0.87" y="128.84" width="750" height="1"/><path class="cls-36" d="M357.12,113.53a4.29,4.29,0,0,1-4.29-4.29v-34a15.17,15.17,0,1,0-30.35,0V104.8h5.27a6.19,6.19,0,0,0,6.18-6.18v-18a4.29,4.29,0,0,1,8.58,0v18a14.77,14.77,0,0,1-14.76,14.75h-9.55a4.29,4.29,0,0,1-4.29-4.29V75.29a23.75,23.75,0,0,1,47.5,0v34A4.29,4.29,0,0,1,357.12,113.53Z"/><path class="cls-37" d="M395.32,113.53a23.78,23.78,0,0,1-23.75-23.75v-34a4.29,4.29,0,0,1,8.58,0v34a15.17,15.17,0,1,0,30.35,0V56a4.29,4.29,0,0,1,8.58,0v33.8A23.78,23.78,0,0,1,395.32,113.53Z"/><path class="cls-38" d="M433.54,113.76a4.29,4.29,0,0,1-4.29-4.29V55.59a4.29,4.29,0,0,1,8.58,0v53.88A4.29,4.29,0,0,1,433.54,113.76Z"/><g id="Page_Controls_-_Standard_Dark" data-name="Page Controls - Standard Dark"><rect id="Page_Controls_Frame" data-name="Page Controls Frame" class="cls-39" x="1.34" y="1143.98" width="750" height="30"/><g id="Page_Controls_Group" data-name="Page Controls Group"><rect id="Page_Controls_Frame-2" data-name="Page Controls Frame" class="cls-24" x="1.34" y="1143.98" width="750" height="30"/><circle id="Page_Control_-_Inactive" data-name="Page Control - Inactive" class="cls-40" cx="388.65" cy="1158.98" r="7"/><circle id="Page_Control_-_Active" data-name="Page Control - Active" class="cls-41" cx="356.65" cy="1158.98" r="7"/></g></g><line class="cls-42" x1="708.33" y1="69.2" x2="670.92" y2="69.2"/><line class="cls-42" x1="708.33" y1="82.53" x2="670.92" y2="82.53"/><line class="cls-42" x1="708.33" y1="95.87" x2="670.92" y2="95.87"/><line class="cls-25" x1="286.39" y1="546.8" x2="464.88" y2="546.8"/><line class="cls-25" x1="286.39" y1="900.15" x2="464.88" y2="900.15"/><rect class="cls-35" y="1174.12" width="750" height="1"/></g></g></g></svg>