<svg xmlns="http://www.w3.org/2000/svg" viewBox="0 0 751.37 1334"><defs><style>.cls-1{isolation:isolate;}.cls-2{mix-blend-mode:screen;}.cls-3{fill:#fff;}.cls-4{opacity:0.2;}.cls-5{fill:#01b8af;}.cls-6{fill:#e4eaec;}.cls-7{fill:none;}.cls-8{fill:#828183;}.cls-9{opacity:0.9;}.cls-10{fill:#f6f6f6;}.cls-11{opacity:0.3;}.cls-12{fill:#010101;}.cls-13{fill:#fbb729;}.cls-14{fill:#eb3591;}.cls-15{fill:#05b5ae;}.cls-16{fill:#595a5c;}.cls-17{fill:#ed3393;}.cls-18{fill:#fdb82c;}.cls-19{opacity:0;}.cls-20{opacity:0.1;}</style></defs><title>transit</title><g class="cls-1"><g id="Layer_2" data-name="Layer 2"><g id="Layer_1-2" data-name="Layer 1"><g class="cls-2"><rect class="cls-3" width="750" height="1334"/></g><g class="cls-4"><line class="cls-3" x1="750.96" y1="948.8" x2="0.96" y2="948.8"/><rect class="cls-5" x="0.96" y="947.29" width="750" height="3"/></g><path class="cls-5" d="M335.23,325.12H442.75a.12.12,0,0,1,.12.12V503.6a0,0,0,0,1,0,0H335.23a28.1,28.1,0,0,1-28.1-28.1V353.22A28.1,28.1,0,0,1,335.23,325.12Z" transform="translate(789.36 39.36) rotate(90)"/><rect class="cls-5" y="129.34" width="750" height="119.95"/><path class="cls-3" d="M160.26,179.77h-6.42V201.9h-4.34V179.77h-6.44v-3.89h17.21Z"/><path class="cls-3" d="M164.29,201.09a8.43,8.43,0,0,1-3.44-3.31,10.91,10.91,0,0,1,0-10.11,8.44,8.44,0,0,1,3.43-3.31,11.32,11.32,0,0,1,10,0,8.44,8.44,0,0,1,3.43,3.31,9.91,9.91,0,0,1,1.24,5,10,10,0,0,1-1.24,5.08,8.37,8.37,0,0,1-3.44,3.31,10.62,10.62,0,0,1-5,1.15A10.5,10.5,0,0,1,164.29,201.09Zm7.78-3a5.28,5.28,0,0,0,2-2.16,7.62,7.62,0,0,0,0-6.43,5.3,5.3,0,0,0-2-2.15,5.38,5.38,0,0,0-2.85-.77,5.2,5.2,0,0,0-2.8.77,5.29,5.29,0,0,0-1.93,2.15,7.71,7.71,0,0,0,0,6.43,5.27,5.27,0,0,0,1.93,2.16,5.18,5.18,0,0,0,2.8.77A5.36,5.36,0,0,0,172.07,198.09Z"/><path class="cls-3" d="M200.83,173.87v28h-4l-.11-2.92a5.91,5.91,0,0,1-2.46,2.45,7.5,7.5,0,0,1-3.66.89,8.38,8.38,0,0,1-7.54-4.53,11.46,11.46,0,0,1,0-10.08,8.39,8.39,0,0,1,7.54-4.52,7.59,7.59,0,0,1,3.59.85,5.89,5.89,0,0,1,2.45,2.33l0-12.5ZM194.28,198a5.32,5.32,0,0,0,2-2.14,6.67,6.67,0,0,0,.71-3.11,6.55,6.55,0,0,0-.72-3.1,5.42,5.42,0,0,0-2-2.14,5.12,5.12,0,0,0-2.74-.77,5.28,5.28,0,0,0-2.75.74,5.22,5.22,0,0,0-2,2.11,7.31,7.31,0,0,0,0,6.33,5.21,5.21,0,0,0,2,2.11,5.29,5.29,0,0,0,2.75.74A5.13,5.13,0,0,0,194.28,198Z"/><path class="cls-3" d="M208.26,201.73a4.46,4.46,0,0,1-2-1.64,4.92,4.92,0,0,1-.77-2.84,4.78,4.78,0,0,1,.91-3,5.79,5.79,0,0,1,2.43-1.79,19,19,0,0,1,3.69-1l2.77-.51a2.51,2.51,0,0,0,1.3-.58,1.45,1.45,0,0,0,.4-1.08,2.61,2.61,0,0,0-1-2.29,4.36,4.36,0,0,0-2.57-.72,4.3,4.3,0,0,0-2.65.78,3.39,3.39,0,0,0-1.24,2.45l-3.78-.69q.93-5.55,7.92-5.55a9,9,0,0,1,5.29,1.46q2.08,1.46,2.08,5v7.12a4.32,4.32,0,0,0,.16,1.35,1.15,1.15,0,0,0,.54.68,2.19,2.19,0,0,0,1,.2H223v2.87h-2a4.62,4.62,0,0,1-2.49-.58,2.89,2.89,0,0,1-1.23-1.84h-.2a6,6,0,0,1-2.6,2.1,8.62,8.62,0,0,1-3.39.67A7.46,7.46,0,0,1,208.26,201.73Zm6.4-3.29a4.43,4.43,0,0,0,1.83-1.6,4.76,4.76,0,0,0,.73-2.71v-.89l-4.31.88a6.11,6.11,0,0,0-2.51.89,1.94,1.94,0,0,0-.83,1.66,2,2,0,0,0,.79,1.71,3.45,3.45,0,0,0,2.05.57A5.26,5.26,0,0,0,214.65,198.43Z"/><path class="cls-3" d="M242.73,183.54l-11,27h-4.29l3.94-9.23L224,183.54h4.62l4.76,13.14,4.95-13.14Z"/><path class="cls-3" d="M245.47,185.5l2.26-11.62h4.34L248.5,185.5Z"/><path class="cls-3" d="M255.27,200.94a5.44,5.44,0,0,1-2.52-3.79l3.56-1a3.8,3.8,0,0,0,1.44,2.31,4.44,4.44,0,0,0,2.66.78,4.27,4.27,0,0,0,2.21-.54,2.06,2.06,0,0,0,.42-3,3.52,3.52,0,0,0-1.27-.83q-.77-.31-2.18-.71-.93-.25-1.7-.51a12.5,12.5,0,0,1-2.41-1,4.73,4.73,0,0,1-1.62-1.54,4.43,4.43,0,0,1-.64-2.47,4.84,4.84,0,0,1,.89-3,5.29,5.29,0,0,1,2.45-1.78,9.86,9.86,0,0,1,3.5-.58,8.57,8.57,0,0,1,4.64,1.19,5.18,5.18,0,0,1,2.34,3.63l-3.32.79a3.3,3.3,0,0,0-1.32-2,4.51,4.51,0,0,0-4.45-.14,1.72,1.72,0,0,0-.87,1.58,1.59,1.59,0,0,0,.49,1.21,3.45,3.45,0,0,0,1.23.73q.74.26,2.09.61l.67.18a19,19,0,0,1,3,1.06,5.47,5.47,0,0,1,2.11,1.72,4.81,4.81,0,0,1,.85,2.95,5.05,5.05,0,0,1-1,3.19,5.46,5.46,0,0,1-2.58,1.82,10.92,10.92,0,0,1-3.62.56A9.44,9.44,0,0,1,255.27,200.94Z"/><path class="cls-3" d="M286,201a8.51,8.51,0,0,1-3.38-3.36,10.74,10.74,0,0,1,0-10,8.53,8.53,0,0,1,3.38-3.35,10,10,0,0,1,4.9-1.19,10.23,10.23,0,0,1,4,.75,7.89,7.89,0,0,1,3,2.19,8.3,8.3,0,0,1,1.72,3.47l-3.91.51a4.9,4.9,0,0,0-1.8-2.63,5.07,5.07,0,0,0-3-.91,5,5,0,0,0-2.73.77,5.2,5.2,0,0,0-1.87,2.15,8,8,0,0,0,0,6.42,5.2,5.2,0,0,0,1.87,2.15,5,5,0,0,0,2.73.77,5.09,5.09,0,0,0,3-.9,4.85,4.85,0,0,0,1.8-2.62l3.91.49a8.27,8.27,0,0,1-1.73,3.46,8.07,8.07,0,0,1-3,2.21A10.68,10.68,0,0,1,286,201Z"/><path class="cls-3" d="M307,201.09a8.43,8.43,0,0,1-3.44-3.31,10.91,10.91,0,0,1,0-10.11,8.44,8.44,0,0,1,3.43-3.31,11.32,11.32,0,0,1,10,0,8.44,8.44,0,0,1,3.43,3.31,9.91,9.91,0,0,1,1.24,5,10,10,0,0,1-1.24,5.08A8.37,8.37,0,0,1,317,201.1a10.62,10.62,0,0,1-5,1.15A10.5,10.5,0,0,1,307,201.09Zm7.78-3a5.28,5.28,0,0,0,2-2.16,7.62,7.62,0,0,0,0-6.43,5.3,5.3,0,0,0-2-2.15,5.38,5.38,0,0,0-2.85-.77,5.2,5.2,0,0,0-2.8.77,5.29,5.29,0,0,0-1.93,2.15,7.71,7.71,0,0,0,0,6.43,5.27,5.27,0,0,0,1.93,2.16,5.18,5.18,0,0,0,2.8.77A5.36,5.36,0,0,0,314.82,198.09Z"/><path class="cls-3" d="M349.65,183.87a4.93,4.93,0,0,1,2.16,2,6.19,6.19,0,0,1,.77,3.17V201.9h-4.22V190.2a3.61,3.61,0,0,0-.91-2.67,3.14,3.14,0,0,0-2.3-.9,3.44,3.44,0,0,0-2.64,1.09,4.78,4.78,0,0,0-1,3.35V201.9h-4.27V190.29a3.74,3.74,0,0,0-.92-2.74,3.16,3.16,0,0,0-2.34-.93,3.42,3.42,0,0,0-2.65,1.12,5.07,5.07,0,0,0-1,3.49V201.9h-4.18V183.54h4.18v2.26a6,6,0,0,1,2.2-1.93,6.49,6.49,0,0,1,3-.68,7,7,0,0,1,3.29.74,4.86,4.86,0,0,1,2.12,2.13,5.94,5.94,0,0,1,2.31-2.13,6.89,6.89,0,0,1,3.2-.73A7.41,7.41,0,0,1,349.65,183.87Z"/><path class="cls-3" d="M381.73,183.87a4.93,4.93,0,0,1,2.16,2,6.19,6.19,0,0,1,.77,3.17V201.9h-4.22V190.2a3.61,3.61,0,0,0-.91-2.67,3.14,3.14,0,0,0-2.3-.9,3.44,3.44,0,0,0-2.64,1.09,4.78,4.78,0,0,0-1,3.35V201.9h-4.27V190.29a3.74,3.74,0,0,0-.92-2.74,3.16,3.16,0,0,0-2.34-.93,3.42,3.42,0,0,0-2.65,1.12,5.07,5.07,0,0,0-1,3.49V201.9H358.2V183.54h4.18v2.26a6,6,0,0,1,2.2-1.93,6.49,6.49,0,0,1,3-.68,7,7,0,0,1,3.29.74,4.86,4.86,0,0,1,2.12,2.13,5.94,5.94,0,0,1,2.31-2.13,6.89,6.89,0,0,1,3.2-.73A7.41,7.41,0,0,1,381.73,183.87Z"/><path class="cls-3" d="M406.27,183.54V201.9h-4l-.11-2.3a6.14,6.14,0,0,1-2.38,2,7.6,7.6,0,0,1-3.28.68,6.79,6.79,0,0,1-4.85-1.65,6.15,6.15,0,0,1-1.75-4.7V183.54h4.23V195a3.76,3.76,0,0,0,1,2.89,3.7,3.7,0,0,0,2.62.94,4.26,4.26,0,0,0,3.09-1.16,4.82,4.82,0,0,0,1.21-3.57V183.54Z"/><path class="cls-3" d="M414.7,200.5a5.39,5.39,0,0,1-1.39-4v-9.71h-3.67v-3.29h1.26a2.87,2.87,0,0,0,2.16-.7,3.55,3.55,0,0,0,.67-2.46v-2.85h3.83v6h4v3.29h-4v9.27a2.63,2.63,0,0,0,.63,1.91,2.27,2.27,0,0,0,1.71.65h1.66v3.25h-3A5.19,5.19,0,0,1,414.7,200.5Z"/><path class="cls-3" d="M442.35,193.47h-14a6.21,6.21,0,0,0,.8,3,4.71,4.71,0,0,0,1.9,1.81,5.6,5.6,0,0,0,2.61.6,5,5,0,0,0,2.73-.75,4.72,4.72,0,0,0,1.82-2.14l3.83.66a8.06,8.06,0,0,1-3.18,4.12,9.11,9.11,0,0,1-5.17,1.48,10.45,10.45,0,0,1-5-1.13,8,8,0,0,1-3.32-3.29,11.56,11.56,0,0,1,0-10.22,8.15,8.15,0,0,1,3.31-3.29,10,10,0,0,1,4.84-1.14,9.77,9.77,0,0,1,4.56,1,7.35,7.35,0,0,1,3.1,3.09,10.56,10.56,0,0,1,1.13,5.12Zm-12-6.18a4.84,4.84,0,0,0-1.74,3h9.62a4.43,4.43,0,0,0-1.46-3,4.67,4.67,0,0,0-3.1-1A5.36,5.36,0,0,0,430.31,187.29Z"/><path class="cls-3" d="M461.06,201.09a8.43,8.43,0,0,1-3.44-3.31,10.91,10.91,0,0,1,0-10.11,8.44,8.44,0,0,1,3.43-3.31,11.32,11.32,0,0,1,10,0,8.44,8.44,0,0,1,3.43,3.31,9.91,9.91,0,0,1,1.24,5,10,10,0,0,1-1.24,5.08A8.37,8.37,0,0,1,471,201.1a10.62,10.62,0,0,1-5,1.15A10.5,10.5,0,0,1,461.06,201.09Zm7.78-3a5.28,5.28,0,0,0,2-2.16,7.62,7.62,0,0,0,0-6.43,5.3,5.3,0,0,0-2-2.15,5.38,5.38,0,0,0-2.85-.77,5.2,5.2,0,0,0-2.8.77,5.29,5.29,0,0,0-1.93,2.15,7.71,7.71,0,0,0,0,6.43,5.27,5.27,0,0,0,1.93,2.16,5.18,5.18,0,0,0,2.8.77A5.36,5.36,0,0,0,468.84,198.09Z"/><path class="cls-3" d="M495.56,183.54l-7.65,18.36h-3.63l-7.59-18.36h4.45l4.95,13.54,5-13.54Z"/><path class="cls-3" d="M514.67,193.47h-14a6.21,6.21,0,0,0,.8,3,4.71,4.71,0,0,0,1.9,1.81,5.6,5.6,0,0,0,2.61.6,5,5,0,0,0,2.73-.75,4.72,4.72,0,0,0,1.82-2.14l3.83.66a8.06,8.06,0,0,1-3.18,4.12,9.11,9.11,0,0,1-5.17,1.48,10.45,10.45,0,0,1-5-1.13,8,8,0,0,1-3.32-3.29,11.56,11.56,0,0,1,0-10.22,8.15,8.15,0,0,1,3.31-3.29,10,10,0,0,1,4.84-1.14,9.77,9.77,0,0,1,4.56,1,7.35,7.35,0,0,1,3.1,3.09,10.56,10.56,0,0,1,1.13,5.12Zm-12-6.18a4.84,4.84,0,0,0-1.74,3h9.62a4.43,4.43,0,0,0-1.46-3,4.67,4.67,0,0,0-3.1-1A5.36,5.36,0,0,0,502.63,187.29Z"/><path class="cls-3" d="M524.59,185a6.82,6.82,0,0,1,2.08-1.19,7.21,7.21,0,0,1,2.49-.44v3.83a6.47,6.47,0,0,0-4.33,1.23q-1.41,1.23-1.41,4.13v9.36h-4.22V183.54h4.05v3.08A5.26,5.26,0,0,1,524.59,185Z"/><path class="cls-3" d="M549.18,183.54l-7.65,18.36H537.9l-7.59-18.36h4.45l4.95,13.54,5-13.54Z"/><path class="cls-3" d="M553.28,179.69a2.54,2.54,0,0,1-.95-.94,2.56,2.56,0,0,1,0-2.57,2.6,2.6,0,0,1,2.24-1.29,2.48,2.48,0,0,1,1.27.35,2.66,2.66,0,0,1,.95.94,2.5,2.5,0,0,1,0,2.57,2.64,2.64,0,0,1-.95.94,2.46,2.46,0,0,1-1.27.35A2.55,2.55,0,0,1,553.28,179.69Zm-.86,3.85h4.22V201.9h-4.22Z"/><path class="cls-3" d="M579.2,193.47h-14a6.21,6.21,0,0,0,.8,3,4.71,4.71,0,0,0,1.9,1.81,5.6,5.6,0,0,0,2.61.6,5,5,0,0,0,2.73-.75,4.72,4.72,0,0,0,1.82-2.14l3.83.66a8.06,8.06,0,0,1-3.18,4.12,9.11,9.11,0,0,1-5.17,1.48,10.45,10.45,0,0,1-5-1.13,8,8,0,0,1-3.32-3.29,11.56,11.56,0,0,1,0-10.22,8.15,8.15,0,0,1,3.31-3.29,10,10,0,0,1,4.84-1.14,9.77,9.77,0,0,1,4.56,1,7.35,7.35,0,0,1,3.1,3.09,10.56,10.56,0,0,1,1.13,5.12Zm-12-6.18a4.84,4.84,0,0,0-1.74,3H575a4.43,4.43,0,0,0-1.46-3,4.67,4.67,0,0,0-3.1-1A5.36,5.36,0,0,0,567.16,187.29Z"/><path class="cls-3" d="M610.11,183.54l-6.39,18.38h-3.85l-4.62-13.12-4.62,13.12h-3.91l-6.26-18.38h4.34l4.16,13,4.64-13h3.25l4.64,13,4.23-13Z"/><path class="cls-3" d="M246.3,75.2a12,12,0,0,1-4.49-.81,10.34,10.34,0,0,1-3.48-2.25,10.15,10.15,0,0,1-2.26-3.42,11.3,11.3,0,0,1-.81-4.32v-.06a10.73,10.73,0,0,1,6.6-10,11.14,11.14,0,0,1,4.41-.86,15.49,15.49,0,0,1,2.57.2,12.27,12.27,0,0,1,2.14.55,10,10,0,0,1,1.86.9,14,14,0,0,1,1.68,1.23l-2.91,3.51a12,12,0,0,0-1.2-.9,7.93,7.93,0,0,0-1.25-.66,7.41,7.41,0,0,0-1.4-.42,8.46,8.46,0,0,0-1.65-.15,5.37,5.37,0,0,0-2.36.53,6.34,6.34,0,0,0-1.92,1.41,6.51,6.51,0,0,0-1.29,2.07,6.9,6.9,0,0,0-.46,2.54v.06a7.39,7.39,0,0,0,.46,2.66,6.31,6.31,0,0,0,1.32,2.12,6,6,0,0,0,2,1.4,6.43,6.43,0,0,0,2.57.5,7.27,7.27,0,0,0,4.35-1.27v-3h-4.65v-4h9.12v9.12a15.38,15.38,0,0,1-3.85,2.35A12.68,12.68,0,0,1,246.3,75.2Z"/><path class="cls-3" d="M272.22,75.17a9.2,9.2,0,0,1-6.66-2.34q-2.43-2.34-2.43-7v-12h4.62V65.71a5.56,5.56,0,0,0,1.2,3.88,4.3,4.3,0,0,0,3.33,1.31,4.38,4.38,0,0,0,3.33-1.26,5.29,5.29,0,0,0,1.2-3.78v-12h4.62V65.68a12.18,12.18,0,0,1-.65,4.17,7.85,7.85,0,0,1-1.84,3A7.53,7.53,0,0,1,276,74.58,11.73,11.73,0,0,1,272.22,75.17Z"/><path class="cls-3" d="M290.1,53.84h4.62v21H290.1Z"/><path class="cls-3" d="M326.67,75.2a11.44,11.44,0,0,1-4.47-.86A11.13,11.13,0,0,1,318.67,72a10.34,10.34,0,0,1-2.31-3.42,10.77,10.77,0,0,1-.83-4.22v-.06a10.61,10.61,0,0,1,.84-4.21,10.74,10.74,0,0,1,5.87-5.79,12.15,12.15,0,0,1,9,0,11.14,11.14,0,0,1,3.53,2.31A10.35,10.35,0,0,1,337,60.06a10.79,10.79,0,0,1,.83,4.22v.06a10.61,10.61,0,0,1-.84,4.21,10.74,10.74,0,0,1-5.87,5.79A11.56,11.56,0,0,1,326.67,75.2Zm.06-4.26a6.3,6.3,0,0,0,2.55-.51,5.82,5.82,0,0,0,2-1.41,6.64,6.64,0,0,0,1.29-2.08,6.89,6.89,0,0,0,.46-2.54v-.06a7,7,0,0,0-.46-2.55,6.29,6.29,0,0,0-3.35-3.53,6.16,6.16,0,0,0-2.55-.52,6.28,6.28,0,0,0-2.56.51,5.85,5.85,0,0,0-2,1.41,6.65,6.65,0,0,0-1.29,2.08,6.87,6.87,0,0,0-.46,2.54v.06a7,7,0,0,0,.46,2.55,6.33,6.33,0,0,0,3.33,3.53A6.13,6.13,0,0,0,326.73,70.93Z"/><path class="cls-3" d="M343.92,53.84H349l5.49,14.79L360,53.84h5L356.49,75h-4.08Z"/><path class="cls-3" d="M372,53.84h15.81v4.11H376.53v4.26h9.9v4.11h-9.9v4.41h11.4v4.11H372Z"/><path class="cls-3" d="M395.82,53.84h9.6A8.29,8.29,0,0,1,411.54,56a6.49,6.49,0,0,1,1.8,4.8v.06A6.58,6.58,0,0,1,412.09,65a7.21,7.21,0,0,1-3.25,2.36l5.13,7.5h-5.4l-4.5-6.72h-3.63v6.72h-4.62Zm9.3,10.2a3.84,3.84,0,0,0,2.63-.81,2.74,2.74,0,0,0,.92-2.16V61a2.68,2.68,0,0,0-1-2.25A4.24,4.24,0,0,0,405,58h-4.59v6Z"/><path class="cls-3" d="M419.46,53.84h5.1L430,68.63l5.49-14.79h5L432,75h-4.08Z"/><path class="cls-3" d="M447.72,53.84h4.62v21h-4.62Z"/><path class="cls-3" d="M461.34,53.84h15.81v4.11H465.9v4.26h9.9v4.11h-9.9v4.41h11.4v4.11h-16Z"/><path class="cls-3" d="M483.57,53.84h4.95l4.35,14.22,4.71-14.28h4l4.71,14.28,4.35-14.22h4.83L508.26,75h-4L499.5,61.25,494.76,75h-4Z"/><path class="cls-6" d="M333,373.63l.8-2a5.57,5.57,0,0,0,3,.77,5.23,5.23,0,0,0,4.16-1.59,6.4,6.4,0,0,0,1.46-4.16,3.78,3.78,0,0,1-1.56,1.48,5.39,5.39,0,0,1-2.64.6,5.78,5.78,0,0,1-3.92-1.46,5,5,0,0,1-1.67-4,5.16,5.16,0,0,1,1.76-4,6.11,6.11,0,0,1,4.21-1.58,6,6,0,0,1,4.45,1.9,7.64,7.64,0,0,1,1.85,5.55q0,4.55-2,7a7.4,7.4,0,0,1-6.06,2.47,8.47,8.47,0,0,1-2-.28A5.52,5.52,0,0,1,333,373.63Zm9-10.45a3.15,3.15,0,0,0-1-2.45,3.67,3.67,0,0,0-4.91,0,3.16,3.16,0,0,0-1,2.46,3.2,3.2,0,0,0,1,2.5,3.74,3.74,0,0,0,4.94,0A3.19,3.19,0,0,0,342,363.18Z"/><path class="cls-6" d="M348.47,365a1.66,1.66,0,0,1-.5-1.23,1.71,1.71,0,0,1,.5-1.24,1.65,1.65,0,0,1,1.22-.51,1.75,1.75,0,0,1,1.75,1.75,1.65,1.65,0,0,1-.51,1.23,1.71,1.71,0,0,1-1.24.5A1.67,1.67,0,0,1,348.47,365Zm0,8.8a1.66,1.66,0,0,1-.5-1.22,1.71,1.71,0,0,1,.5-1.24,1.65,1.65,0,0,1,1.22-.51,1.75,1.75,0,0,1,1.75,1.75,1.64,1.64,0,0,1-.51,1.22,1.7,1.7,0,0,1-1.24.5A1.66,1.66,0,0,1,348.5,373.83Z"/><path class="cls-6" d="M354.6,366.11a10.39,10.39,0,0,1,1.45-5.87,6.06,6.06,0,0,1,10,0A12.63,12.63,0,0,1,366,372a6.06,6.06,0,0,1-10,0A10.39,10.39,0,0,1,354.6,366.11Zm2.42,0q0,3.75,1.42,5.25a3.68,3.68,0,0,0,5.15,0q1.43-1.5,1.42-5.25t-1.42-5.25a3.68,3.68,0,0,0-5.15,0Q357,362.36,357,366.11Z"/><path class="cls-6" d="M369.82,366.11a10.39,10.39,0,0,1,1.45-5.87,6.06,6.06,0,0,1,10,0,12.63,12.63,0,0,1,0,11.75,6.06,6.06,0,0,1-10,0A10.39,10.39,0,0,1,369.82,366.11Zm2.42,0q0,3.75,1.42,5.25a3.68,3.68,0,0,0,5.15,0q1.43-1.5,1.42-5.25t-1.42-5.25a3.68,3.68,0,0,0-5.15,0Q372.25,362.36,372.25,366.11Z"/><path class="cls-6" d="M385.17,371a3.25,3.25,0,0,1,1-2.49,4.68,4.68,0,0,1,2.65-1.16l3.25-.47q.92-.13.92-.9a2,2,0,0,0-.65-1.55,2.79,2.79,0,0,0-2-.6,2.65,2.65,0,0,0-1.9.66,2.76,2.76,0,0,0-.83,1.76l-2.25-.53A3.93,3.93,0,0,1,387,362.9a5.3,5.3,0,0,1,3.35-1.09,5.11,5.11,0,0,1,3.78,1.24,4.3,4.3,0,0,1,1.22,3.16v6a12,12,0,0,0,.15,2h-2.3a9.82,9.82,0,0,1-.12-1.62,4.39,4.39,0,0,1-3.87,2,4.05,4.05,0,0,1-2.9-1.06A3.37,3.37,0,0,1,385.17,371Zm4.35,1.63a3.64,3.64,0,0,0,2.53-.85,3.45,3.45,0,0,0,1-2.7v-.55l-3.67.55a2.33,2.33,0,0,0-1.28.58,1.61,1.61,0,0,0-.47,1.23,1.66,1.66,0,0,0,.54,1.22A1.94,1.94,0,0,0,389.52,372.61Z"/><path class="cls-6" d="M401.32,374.21H399v-12h2.25v1.6a3.62,3.62,0,0,1,1.55-1.45,4.64,4.64,0,0,1,2.1-.5,4.15,4.15,0,0,1,2.15.58,3.48,3.48,0,0,1,1.45,1.7,4.25,4.25,0,0,1,4-2.28,4.07,4.07,0,0,1,2.94,1.17,4.52,4.52,0,0,1,1.21,3.4v7.8h-2.33v-7.55a3,3,0,0,0-.64-2,2.37,2.37,0,0,0-1.91-.75,2.56,2.56,0,0,0-2,.86,3.11,3.11,0,0,0-.77,2.16v7.28h-2.35v-7.55a3,3,0,0,0-.64-2,2.37,2.37,0,0,0-1.91-.75,2.61,2.61,0,0,0-2,.85,3.14,3.14,0,0,0-.77,2.2Z"/><rect class="cls-7" x="1.37" width="750" height="1334"/><path class="cls-6" d="M381.15,445.06l-5.85-9.75-4.12,11.52L363,459.26h0c-1.33,2.26-2.88,3.68-5.08,3.07a3.9,3.9,0,0,1-2.7-5.22l8.33-13.81,3.63-13.24a7.77,7.77,0,0,0-.54-3.18,8.73,8.73,0,0,1-.23-4.34l2.16-12.39-5.36,4.66-2.2,9.4c-.34,2-1.41,3.43-3.24,3.45a3.15,3.15,0,0,1-3.16-3.31h0l2.83-11.68a4.22,4.22,0,0,1,1.65-3l11.73-8.41a10.51,10.51,0,0,1,11.27,2.11l5.7,11.39,6.44,4.91c1.38,1.49,1.56,3.57.2,4.84-1.16,1.09-3.39.35-4.5-.79l-5.59-4.26c-1.1-.66-3.64-5.94-3.64-5.94L379,424.63a2.85,2.85,0,0,0,.41,2.25L388.21,441l2.45,16.16h0c.58,2.65-.6,4.55-2.64,5.08a3.8,3.8,0,0,1-4.69-2.85Z"/><ellipse class="cls-6" cx="380.26" cy="393.47" rx="6.15" ry="6.38" transform="translate(-64.65 74.92) rotate(-10.38)"/><g class="cls-4"><line class="cls-3" x1="750.96" y1="345.3" x2="0.96" y2="345.3"/><rect class="cls-5" x="0.96" y="343.8" width="750" height="3"/></g><g class="cls-4"><line class="cls-3" x1="750.96" y1="546.8" x2="0.96" y2="546.8"/><rect class="cls-5" x="0.96" y="545.3" width="750" height="3"/></g><g class="cls-4"><line class="cls-3" x1="750.96" y1="748.3" x2="0.96" y2="748.3"/><rect class="cls-5" x="0.96" y="746.8" width="750" height="3"/></g><path class="cls-8" d="M37.72,341.55h-2L28,330v11.56h-2V327.37h2.62l7.08,10.88V327.37h2Z"/><path class="cls-8" d="M41.71,333.08a5,5,0,0,1,7.06,0,5.53,5.53,0,0,1,0,7.32,5,5,0,0,1-7.08,0,5.53,5.53,0,0,1,0-7.32Zm1.4,6.18a2.95,2.95,0,0,0,4.26,0,4.08,4.08,0,0,0,0-5,2.95,2.95,0,0,0-4.26,0,4.08,4.08,0,0,0,0,5Z"/><path class="cls-8" d="M57.78,331.93h1.94l2.5,7.24,2.12-7.24h2l-3.12,9.62H61.26l-2.56-7.32-2.5,7.32h-2l-3.16-9.62h2.06l2.16,7.24Z"/><path class="cls-8" d="M9.9,744.15l.64-1.62a4.46,4.46,0,0,0,2.36.62,4.18,4.18,0,0,0,3.33-1.27,5.11,5.11,0,0,0,1.17-3.33,3,3,0,0,1-1.25,1.18,4.31,4.31,0,0,1-2.11.48A4.63,4.63,0,0,1,10.9,739a4,4,0,0,1-1.34-3.21A4.12,4.12,0,0,1,11,732.61a4.89,4.89,0,0,1,3.37-1.26,4.79,4.79,0,0,1,3.56,1.52,6.11,6.11,0,0,1,1.48,4.44,8.63,8.63,0,0,1-1.63,5.62,5.92,5.92,0,0,1-4.85,2,6.79,6.79,0,0,1-1.64-.22A4.38,4.38,0,0,1,9.9,744.15Zm7.24-8.36a2.53,2.53,0,0,0-.84-2,2.93,2.93,0,0,0-3.93,0,2.53,2.53,0,0,0-.83,2,2.56,2.56,0,0,0,.82,2,3,3,0,0,0,4,0A2.55,2.55,0,0,0,17.14,735.79Z"/><path class="cls-8" d="M22.28,737.27a1.33,1.33,0,0,1-.4-1,1.36,1.36,0,0,1,.4-1,1.31,1.31,0,0,1,1-.41,1.4,1.4,0,0,1,1.4,1.4,1.32,1.32,0,0,1-.41,1,1.37,1.37,0,0,1-1,.4A1.33,1.33,0,0,1,22.28,737.27Zm0,7a1.33,1.33,0,0,1-.4-1,1.36,1.36,0,0,1,.4-1,1.32,1.32,0,0,1,1-.41,1.4,1.4,0,0,1,1.4,1.4,1.32,1.32,0,0,1-.41,1,1.36,1.36,0,0,1-1,.4A1.33,1.33,0,0,1,22.3,744.31Z"/><path class="cls-8" d="M30.68,738.59l-1-1.62,3.82-3.52h-6.2v-1.8h8.8v1.76l-3.7,3.42a4.15,4.15,0,0,1,2.79,1,3.62,3.62,0,0,1,1.21,2.9,3.94,3.94,0,0,1-1.26,2.94,4.74,4.74,0,0,1-3.44,1.22,4.85,4.85,0,0,1-3.43-1.19,4.13,4.13,0,0,1-1.39-2.89l1.92-.44a2.88,2.88,0,0,0,.87,2,3.13,3.13,0,0,0,4,.08,2.26,2.26,0,0,0,.73-1.71,2.16,2.16,0,0,0-.78-1.8,2.89,2.89,0,0,0-1.86-.62A3.33,3.33,0,0,0,30.68,738.59Z"/><path class="cls-8" d="M38.24,738.13a8.31,8.31,0,0,1,1.16-4.7,4.85,4.85,0,0,1,8,0,10.1,10.1,0,0,1,0,9.4,4.85,4.85,0,0,1-8,0A8.31,8.31,0,0,1,38.24,738.13Zm1.94,0q0,3,1.14,4.2a2.95,2.95,0,0,0,4.12,0q1.14-1.2,1.14-4.2t-1.14-4.2a2.95,2.95,0,0,0-4.12,0Q40.18,735.13,40.18,738.13Z"/><path class="cls-8" d="M55.52,742a2.6,2.6,0,0,1,.8-2,3.74,3.74,0,0,1,2.12-.93l2.6-.38q.74-.1.74-.72a1.61,1.61,0,0,0-.52-1.24,2.23,2.23,0,0,0-1.56-.48,2.12,2.12,0,0,0-1.52.53,2.21,2.21,0,0,0-.66,1.41l-1.8-.42A3.15,3.15,0,0,1,57,735.56a4.24,4.24,0,0,1,2.68-.87,4.09,4.09,0,0,1,3,1,3.44,3.44,0,0,1,1,2.53V743a9.64,9.64,0,0,0,.12,1.58H61.94a8,8,0,0,1-.1-1.3,3.5,3.5,0,0,1-3.1,1.6,3.24,3.24,0,0,1-2.32-.85A2.69,2.69,0,0,1,55.52,742Zm3.48,1.3a2.92,2.92,0,0,0,2-.68,2.76,2.76,0,0,0,.76-2.16v-.44l-2.94.44a1.87,1.87,0,0,0-1,.46,1.29,1.29,0,0,0-.38,1,1.33,1.33,0,0,0,.43,1A1.54,1.54,0,0,0,59,743.33Z"/><path class="cls-8" d="M68.44,744.61H66.58V735h1.8v1.28a2.88,2.88,0,0,1,1.24-1.16,3.7,3.7,0,0,1,1.68-.4,3.34,3.34,0,0,1,1.72.46,2.8,2.8,0,0,1,1.16,1.36,3.4,3.4,0,0,1,3.22-1.82,3.25,3.25,0,0,1,2.35.94,3.61,3.61,0,0,1,1,2.72v6.24H78.86v-6a2.39,2.39,0,0,0-.51-1.6,1.9,1.9,0,0,0-1.53-.6,2.05,2.05,0,0,0-1.6.69,2.49,2.49,0,0,0-.62,1.73v5.82H72.72v-6a2.39,2.39,0,0,0-.51-1.6,1.9,1.9,0,0,0-1.53-.6,2.09,2.09,0,0,0-1.62.68,2.51,2.51,0,0,0-.62,1.76Z"/><path class="cls-8" d="M12.56,542.62,13.2,541a4.46,4.46,0,0,0,2.36.62,4.18,4.18,0,0,0,3.33-1.27A5.11,5.11,0,0,0,20.06,537a3,3,0,0,1-1.25,1.18,4.31,4.31,0,0,1-2.11.48,4.63,4.63,0,0,1-3.14-1.17,4,4,0,0,1-1.34-3.21,4.12,4.12,0,0,1,1.41-3.22A4.89,4.89,0,0,1,17,529.82a4.79,4.79,0,0,1,3.56,1.52A6.11,6.11,0,0,1,22,535.78a8.63,8.63,0,0,1-1.63,5.62,5.92,5.92,0,0,1-4.85,2,6.79,6.79,0,0,1-1.64-.22A4.38,4.38,0,0,1,12.56,542.62Zm7.24-8.36a2.53,2.53,0,0,0-.84-2,2.93,2.93,0,0,0-3.93,0,2.53,2.53,0,0,0-.83,2,2.56,2.56,0,0,0,.82,2,3,3,0,0,0,4,0A2.55,2.55,0,0,0,19.8,534.26Z"/><path class="cls-8" d="M24.94,535.74a1.33,1.33,0,0,1-.4-1,1.36,1.36,0,0,1,.4-1,1.31,1.31,0,0,1,1-.41,1.4,1.4,0,0,1,1.4,1.4,1.32,1.32,0,0,1-.41,1,1.37,1.37,0,0,1-1,.4A1.33,1.33,0,0,1,24.94,535.74Zm0,7a1.33,1.33,0,0,1-.4-1,1.36,1.36,0,0,1,.4-1,1.32,1.32,0,0,1,1-.41,1.4,1.4,0,0,1,1.4,1.4,1.32,1.32,0,0,1-.41,1,1.36,1.36,0,0,1-1,.4A1.33,1.33,0,0,1,25,542.78Z"/><path class="cls-8" d="M34.4,543.08H32.48v-9.14H29.34v-1.38a3.71,3.71,0,0,0,2.22-.69,2.81,2.81,0,0,0,1.12-1.75H34.4Z"/><path class="cls-8" d="M36.6,539.56l1.88-.56a2.76,2.76,0,0,0,.89,1.94,2.89,2.89,0,0,0,2,.74,2.85,2.85,0,0,0,2-.72,2.43,2.43,0,0,0,.8-1.9,2.5,2.5,0,0,0-.8-2,2.93,2.93,0,0,0-2-.7,3.12,3.12,0,0,0-2.36.94L38.1,537l-1-.4,1.68-6.44h6.84v1.8H40.08l-1,3.72a3.37,3.37,0,0,1,2.64-1,4.43,4.43,0,0,1,3.17,1.16A4.11,4.11,0,0,1,46.16,539a4.19,4.19,0,0,1-1.32,3.15,4.75,4.75,0,0,1-3.44,1.27,5,5,0,0,1-3.33-1.12A3.9,3.9,0,0,1,36.6,539.56Z"/><path class="cls-8" d="M52.86,540.5a2.6,2.6,0,0,1,.8-2,3.74,3.74,0,0,1,2.12-.93l2.6-.38q.74-.1.74-.72a1.61,1.61,0,0,0-.52-1.24,2.23,2.23,0,0,0-1.56-.48,2.12,2.12,0,0,0-1.52.53,2.21,2.21,0,0,0-.66,1.41l-1.8-.42A3.15,3.15,0,0,1,54.32,534a4.24,4.24,0,0,1,2.68-.87,4.09,4.09,0,0,1,3,1,3.44,3.44,0,0,1,1,2.53v4.82a9.64,9.64,0,0,0,.12,1.58H59.28a8,8,0,0,1-.1-1.3,3.5,3.5,0,0,1-3.1,1.6,3.24,3.24,0,0,1-2.32-.85A2.69,2.69,0,0,1,52.86,540.5Zm3.48,1.3a2.92,2.92,0,0,0,2-.68,2.76,2.76,0,0,0,.76-2.16v-.44l-2.94.44a1.87,1.87,0,0,0-1,.46,1.29,1.29,0,0,0-.38,1,1.33,1.33,0,0,0,.43,1A1.54,1.54,0,0,0,56.34,541.8Z"/><path class="cls-8" d="M65.78,543.08H63.92v-9.62h1.8v1.28A2.88,2.88,0,0,1,67,533.58a3.7,3.7,0,0,1,1.68-.4,3.34,3.34,0,0,1,1.72.46A2.8,2.8,0,0,1,71.52,535a3.4,3.4,0,0,1,3.22-1.82,3.25,3.25,0,0,1,2.35.94,3.61,3.61,0,0,1,1,2.72v6.24H76.2v-6a2.39,2.39,0,0,0-.51-1.6,1.9,1.9,0,0,0-1.53-.6,2.05,2.05,0,0,0-1.6.69,2.49,2.49,0,0,0-.62,1.73v5.82H70.06v-6a2.39,2.39,0,0,0-.51-1.6,1.9,1.9,0,0,0-1.53-.6,2.09,2.09,0,0,0-1.62.68,2.51,2.51,0,0,0-.62,1.76Z"/><path class="cls-8" d="M10.35,945.37l.64-1.62a4.44,4.44,0,0,0,2.36.62,4.18,4.18,0,0,0,3.33-1.27,5.11,5.11,0,0,0,1.17-3.33,3,3,0,0,1-1.25,1.18,4.31,4.31,0,0,1-2.11.48,4.62,4.62,0,0,1-3.14-1.17A4,4,0,0,1,10,937a4.13,4.13,0,0,1,1.41-3.22,4.89,4.89,0,0,1,3.37-1.26,4.79,4.79,0,0,1,3.56,1.52,6.12,6.12,0,0,1,1.48,4.44,8.62,8.62,0,0,1-1.63,5.62,5.92,5.92,0,0,1-4.85,2,6.8,6.8,0,0,1-1.64-.22A4.43,4.43,0,0,1,10.35,945.37ZM17.59,937a2.52,2.52,0,0,0-.84-2,2.93,2.93,0,0,0-3.93,0,2.53,2.53,0,0,0-.83,2,2.56,2.56,0,0,0,.82,2,3,3,0,0,0,4,0A2.55,2.55,0,0,0,17.59,937Z"/><path class="cls-8" d="M22.73,938.49a1.33,1.33,0,0,1-.4-1,1.36,1.36,0,0,1,.4-1,1.31,1.31,0,0,1,1-.41,1.4,1.4,0,0,1,1.4,1.4,1.32,1.32,0,0,1-.41,1,1.36,1.36,0,0,1-1,.4A1.33,1.33,0,0,1,22.73,938.49Zm0,7a1.34,1.34,0,0,1-.4-1,1.37,1.37,0,0,1,.4-1,1.32,1.32,0,0,1,1-.41,1.4,1.4,0,0,1,1.4,1.4,1.32,1.32,0,0,1-.41,1,1.37,1.37,0,0,1-1,.4A1.33,1.33,0,0,1,22.75,945.53Z"/><path class="cls-8" d="M27.33,942.91v-2.26l5.56-7.78h2.7v8.22h2.22v1.82H35.59v2.92h-1.9v-2.92Zm6.36-1.82v-6.34l-4.56,6.34Z"/><path class="cls-8" d="M38.81,942.31l1.88-.56a2.77,2.77,0,0,0,.89,1.94,2.9,2.9,0,0,0,2,.74,2.85,2.85,0,0,0,2-.72,2.44,2.44,0,0,0,.8-1.9,2.5,2.5,0,0,0-.8-2,2.93,2.93,0,0,0-2-.7,3.12,3.12,0,0,0-2.36.94l-.92-.36-1-.4L41,932.87h6.84v1.8H42.29l-1,3.72a3.37,3.37,0,0,1,2.64-1,4.44,4.44,0,0,1,3.17,1.16,4.11,4.11,0,0,1,1.23,3.14A4.2,4.2,0,0,1,47,944.88a4.76,4.76,0,0,1-3.44,1.27A5,5,0,0,1,40.28,945,3.91,3.91,0,0,1,38.81,942.31Z"/><path class="cls-8" d="M55.07,943.25a2.6,2.6,0,0,1,.8-2,3.76,3.76,0,0,1,2.12-.93l2.6-.38q.74-.1.74-.72a1.61,1.61,0,0,0-.52-1.24,2.23,2.23,0,0,0-1.56-.48,2.12,2.12,0,0,0-1.52.53,2.21,2.21,0,0,0-.66,1.41l-1.8-.42a3.15,3.15,0,0,1,1.26-2.25,4.24,4.24,0,0,1,2.68-.87,4.09,4.09,0,0,1,3,1,3.45,3.45,0,0,1,1,2.53v4.82a9.63,9.63,0,0,0,.12,1.58H61.49a7.94,7.94,0,0,1-.1-1.3,3.52,3.52,0,0,1-3.1,1.6,3.24,3.24,0,0,1-2.32-.85A2.7,2.7,0,0,1,55.07,943.25Zm3.48,1.3a2.92,2.92,0,0,0,2-.68,2.76,2.76,0,0,0,.76-2.16v-.44l-2.94.44a1.85,1.85,0,0,0-1,.46,1.29,1.29,0,0,0-.38,1,1.33,1.33,0,0,0,.43,1A1.55,1.55,0,0,0,58.55,944.55Z"/><path class="cls-8" d="M68,945.83H66.13v-9.62h1.8v1.28a2.9,2.9,0,0,1,1.24-1.16,3.72,3.72,0,0,1,1.68-.4,3.33,3.33,0,0,1,1.72.46,2.79,2.79,0,0,1,1.16,1.36,3.4,3.4,0,0,1,3.22-1.82,3.25,3.25,0,0,1,2.35.94,3.61,3.61,0,0,1,1,2.72v6.24H78.41v-6a2.38,2.38,0,0,0-.51-1.6,1.9,1.9,0,0,0-1.53-.6,2,2,0,0,0-1.6.69,2.49,2.49,0,0,0-.62,1.73v5.82H72.27v-6a2.38,2.38,0,0,0-.51-1.6,1.9,1.9,0,0,0-1.53-.6,2.09,2.09,0,0,0-1.62.68A2.51,2.51,0,0,0,68,940Z"/><path class="cls-8" d="M302.49,1271h-2v-14.18h8.62v1.82h-6.66v4.56h6v1.84h-6Z"/><path class="cls-8" d="M311.22,1258.73a1.29,1.29,0,0,1-.39-.95,1.33,1.33,0,0,1,.39-1,1.28,1.28,0,0,1,.95-.4,1.33,1.33,0,0,1,1,.39,1.3,1.3,0,0,1,.4,1,1.28,1.28,0,0,1-.4.95,1.33,1.33,0,0,1-1,.39A1.29,1.29,0,0,1,311.22,1258.73Zm1.89,12.31h-1.86v-9.62h1.86Z"/><path class="cls-8" d="M318.19,1265.48V1271h-1.88v-9.62h1.84v1.38a3.18,3.18,0,0,1,3-1.66,3.14,3.14,0,0,1,2.55,1.06,4.12,4.12,0,0,1,.89,2.74v6.1h-1.88v-5.78q0-2.42-2.24-2.42a2,2,0,0,0-1.65.75A3,3,0,0,0,318.19,1265.48Z"/><path class="cls-8" d="M327,1268.46a2.6,2.6,0,0,1,.8-2,3.74,3.74,0,0,1,2.12-.93l2.6-.38q.74-.1.74-.72a1.61,1.61,0,0,0-.52-1.24,2.23,2.23,0,0,0-1.56-.48,2.12,2.12,0,0,0-1.52.53,2.21,2.21,0,0,0-.66,1.41l-1.8-.42a3.15,3.15,0,0,1,1.26-2.25,4.24,4.24,0,0,1,2.68-.87,4.09,4.09,0,0,1,3,1,3.44,3.44,0,0,1,1,2.53v4.82a9.64,9.64,0,0,0,.12,1.58h-1.84a8,8,0,0,1-.1-1.3,3.5,3.5,0,0,1-3.1,1.6,3.24,3.24,0,0,1-2.32-.85A2.69,2.69,0,0,1,327,1268.46Zm3.48,1.3a2.92,2.92,0,0,0,2-.68,2.76,2.76,0,0,0,.76-2.16v-.44l-2.94.44a1.87,1.87,0,0,0-1,.46,1.29,1.29,0,0,0-.38,1,1.33,1.33,0,0,0,.43,1A1.54,1.54,0,0,0,330.43,1269.76Z"/><path class="cls-8" d="M339.89,1271H338v-14.48h1.88Z"/><path class="cls-8" d="M353.21,1271h-4.92v-14.18h5a6.61,6.61,0,0,1,4.8,1.89A7,7,0,0,1,360,1264a6.83,6.83,0,0,1-2,5.19A6.71,6.71,0,0,1,353.21,1271Zm-3-1.74h2.9a4.66,4.66,0,0,0,3.45-1.38A5.35,5.35,0,0,0,358,1264a5.5,5.5,0,0,0-1.35-4,4.57,4.57,0,0,0-3.43-1.4h-2.94Z"/><path class="cls-8" d="M369.25,1267.74l1.62.56a4.26,4.26,0,0,1-1.56,2.19,4.49,4.49,0,0,1-2.76.85,4.7,4.7,0,0,1-3.43-1.39,5,5,0,0,1-1.41-3.75,5.09,5.09,0,0,1,1.36-3.64,4.63,4.63,0,0,1,6.64-.07,5.32,5.32,0,0,1,1.22,3.67,3.77,3.77,0,0,1,0,.6h-7.24a2.9,2.9,0,0,0,.85,2.1,2.8,2.8,0,0,0,2,.82A2.6,2.6,0,0,0,369.25,1267.74Zm-5.54-2.5H369a2.42,2.42,0,0,0-2.64-2.46,2.48,2.48,0,0,0-1.84.73A2.62,2.62,0,0,0,363.71,1265.24Z"/><path class="cls-8" d="M372.43,1268.54l1.7-.6a2,2,0,0,0,.68,1.29,2.28,2.28,0,0,0,1.56.51,1.81,1.81,0,0,0,1.2-.37,1.15,1.15,0,0,0,.44-.91q0-1-1.24-1.24l-1.64-.36a3.16,3.16,0,0,1-1.76-1,2.53,2.53,0,0,1-.64-1.74,2.77,2.77,0,0,1,1-2.14,3.49,3.49,0,0,1,2.41-.9,4.65,4.65,0,0,1,1.64.27,2.81,2.81,0,0,1,1.12.71,4.2,4.2,0,0,1,.6.82,3.55,3.55,0,0,1,.3.78l-1.66.62a2,2,0,0,0-.14-.47,2.67,2.67,0,0,0-.31-.51,1.45,1.45,0,0,0-.61-.45,2.4,2.4,0,0,0-.94-.17,1.73,1.73,0,0,0-1.15.38,1.15,1.15,0,0,0-.45.9q0,.92,1.1,1.16l1.56.34a3.66,3.66,0,0,1,2,1,2.6,2.6,0,0,1,.69,1.83,2.83,2.83,0,0,1-.93,2.06,3.52,3.52,0,0,1-2.59.92,4,4,0,0,1-2.78-.89A3.16,3.16,0,0,1,372.43,1268.54Z"/><path class="cls-8" d="M384.89,1258.38v3H387v1.7h-2.08v5a1.14,1.14,0,0,0,1.34,1.32,3.1,3.1,0,0,0,.74-.08v1.6a3.76,3.76,0,0,1-1.28.18,2.65,2.65,0,0,1-2-.72,2.73,2.73,0,0,1-.72-2v-5.28h-1.84v-1.7h.52a1.42,1.42,0,0,0,1.11-.41,1.53,1.53,0,0,0,.37-1.07v-1.56Z"/><path class="cls-8" d="M389.44,1258.73a1.29,1.29,0,0,1-.39-.95,1.33,1.33,0,0,1,.39-1,1.28,1.28,0,0,1,.95-.4,1.33,1.33,0,0,1,1,.39,1.3,1.3,0,0,1,.4,1,1.28,1.28,0,0,1-.4.95,1.33,1.33,0,0,1-1,.39A1.29,1.29,0,0,1,389.44,1258.73Zm1.89,12.31h-1.86v-9.62h1.86Z"/><path class="cls-8" d="M396.41,1265.48V1271h-1.88v-9.62h1.84v1.38a3.18,3.18,0,0,1,3-1.66,3.14,3.14,0,0,1,2.55,1.06,4.12,4.12,0,0,1,.89,2.74v6.1h-1.88v-5.78q0-2.42-2.24-2.42a2,2,0,0,0-1.65.75A3,3,0,0,0,396.41,1265.48Z"/><path class="cls-8" d="M405.17,1268.46a2.6,2.6,0,0,1,.8-2,3.74,3.74,0,0,1,2.12-.93l2.6-.38q.74-.1.74-.72a1.61,1.61,0,0,0-.52-1.24,2.23,2.23,0,0,0-1.56-.48,2.12,2.12,0,0,0-1.52.53,2.21,2.21,0,0,0-.66,1.41l-1.8-.42a3.15,3.15,0,0,1,1.26-2.25,4.24,4.24,0,0,1,2.68-.87,4.09,4.09,0,0,1,3,1,3.44,3.44,0,0,1,1,2.53v4.82a9.64,9.64,0,0,0,.12,1.58h-1.84a8,8,0,0,1-.1-1.3,3.5,3.5,0,0,1-3.1,1.6,3.24,3.24,0,0,1-2.32-.85A2.69,2.69,0,0,1,405.17,1268.46Zm3.48,1.3a2.92,2.92,0,0,0,2-.68,2.76,2.76,0,0,0,.76-2.16v-.44l-2.94.44a1.87,1.87,0,0,0-1,.46,1.29,1.29,0,0,0-.38,1,1.33,1.33,0,0,0,.43,1A1.54,1.54,0,0,0,408.65,1269.76Z"/><path class="cls-8" d="M418.75,1258.38v3h2.08v1.7h-2.08v5a1.14,1.14,0,0,0,1.34,1.32,3.1,3.1,0,0,0,.74-.08v1.6a3.76,3.76,0,0,1-1.28.18,2.65,2.65,0,0,1-2-.72,2.73,2.73,0,0,1-.72-2v-5.28H415v-1.7h.52a1.42,1.42,0,0,0,1.11-.41,1.53,1.53,0,0,0,.37-1.07v-1.56Z"/><path class="cls-8" d="M423.3,1258.73a1.29,1.29,0,0,1-.39-.95,1.33,1.33,0,0,1,.39-1,1.28,1.28,0,0,1,.95-.4,1.33,1.33,0,0,1,1,.39,1.3,1.3,0,0,1,.4,1,1.28,1.28,0,0,1-.4.95,1.33,1.33,0,0,1-1,.39A1.29,1.29,0,0,1,423.3,1258.73Zm1.89,12.31h-1.86v-9.62h1.86Z"/><path class="cls-8" d="M429,1262.57a5,5,0,0,1,7.06,0,5.53,5.53,0,0,1,0,7.32,5,5,0,0,1-7.08,0,5.53,5.53,0,0,1,0-7.32Zm1.4,6.18a2.95,2.95,0,0,0,4.26,0,4.08,4.08,0,0,0,0-5,2.95,2.95,0,0,0-4.26,0,4.08,4.08,0,0,0,0,5Z"/><path class="cls-8" d="M441.71,1265.48V1271h-1.88v-9.62h1.84v1.38a3.18,3.18,0,0,1,3-1.66,3.14,3.14,0,0,1,2.55,1.06,4.12,4.12,0,0,1,.89,2.74v6.1h-1.88v-5.78q0-2.42-2.24-2.42a2,2,0,0,0-1.65.75A3,3,0,0,0,441.71,1265.48Z"/><g class="cls-9"><rect class="cls-10" x="0.23" y="0.84" width="750" height="128"/></g><g class="cls-11"><rect class="cls-12" x="0.23" y="128.84" width="750" height="1"/></g><path class="cls-13" d="M356.48,113.53a4.29,4.29,0,0,1-4.29-4.29v-34a15.17,15.17,0,1,0-30.35,0V104.8h5.27a6.19,6.19,0,0,0,6.18-6.18v-18a4.29,4.29,0,0,1,8.58,0v18a14.77,14.77,0,0,1-14.76,14.75h-9.55a4.29,4.29,0,0,1-4.29-4.29V75.29a23.75,23.75,0,0,1,47.5,0v34A4.29,4.29,0,0,1,356.48,113.53Z"/><path class="cls-14" d="M394.68,113.53a23.78,23.78,0,0,1-23.75-23.75v-34a4.29,4.29,0,0,1,8.58,0v34a15.17,15.17,0,1,0,30.35,0V56a4.29,4.29,0,0,1,8.58,0v33.8A23.78,23.78,0,0,1,394.68,113.53Z"/><path class="cls-15" d="M432.9,113.76a4.29,4.29,0,0,1-4.29-4.29V55.59a4.29,4.29,0,0,1,8.58,0v53.88A4.29,4.29,0,0,1,432.9,113.76Z"/><path class="cls-16" d="M707.7,71.7H670.28a2.5,2.5,0,0,1,0-5H707.7a2.5,2.5,0,0,1,0,5Z"/><path class="cls-16" d="M707.7,85H670.28a2.5,2.5,0,0,1,0-5H707.7a2.5,2.5,0,0,1,0,5Z"/><path class="cls-16" d="M707.7,98.37H670.28a2.5,2.5,0,0,1,0-5H707.7a2.5,2.5,0,0,1,0,5Z"/><path class="cls-17" d="M153.67,774.45H565.84a30.49,30.49,0,0,1,30.49,30.49v117.5a30.49,30.49,0,0,1-30.49,30.49H153.67a0,0,0,0,1,0,0V774.45a0,0,0,0,1,0,0Z" transform="translate(1238.69 488.69) rotate(90)"/><path class="cls-5" d="M283.2,1062.83H436.31a30.49,30.49,0,0,1,30.49,30.49v117.5a30.49,30.49,0,0,1-30.49,30.49H283.2a0,0,0,0,1,0,0V1062.83A0,0,0,0,1,283.2,1062.83Z" transform="translate(1527.07 777.07) rotate(90)"/><path class="cls-6" d="M336.14,669.47l.8-2a5.56,5.56,0,0,0,3,.78,5.23,5.23,0,0,0,4.16-1.59,6.39,6.39,0,0,0,1.46-4.16,3.78,3.78,0,0,1-1.56,1.47,5.39,5.39,0,0,1-2.64.6,5.77,5.77,0,0,1-3.92-1.46,5,5,0,0,1-1.68-4,5.16,5.16,0,0,1,1.76-4,6.11,6.11,0,0,1,4.21-1.57,6,6,0,0,1,4.45,1.9,7.64,7.64,0,0,1,1.85,5.55q0,4.55-2,7a7.4,7.4,0,0,1-6.06,2.47,8.47,8.47,0,0,1-2.05-.28A5.52,5.52,0,0,1,336.14,669.47Zm9-10.45a3.15,3.15,0,0,0-1-2.45,3.67,3.67,0,0,0-4.91,0,3.15,3.15,0,0,0-1,2.46,3.2,3.2,0,0,0,1,2.5,3.74,3.74,0,0,0,4.94,0A3.19,3.19,0,0,0,345.19,659Z"/><path class="cls-6" d="M351.61,660.87a1.67,1.67,0,0,1-.5-1.23,1.7,1.7,0,0,1,.5-1.24,1.64,1.64,0,0,1,1.22-.51,1.75,1.75,0,0,1,1.75,1.75,1.65,1.65,0,0,1-.51,1.23,1.72,1.72,0,0,1-1.24.5A1.67,1.67,0,0,1,351.61,660.87Zm0,8.8a1.66,1.66,0,0,1-.5-1.22,1.71,1.71,0,0,1,.5-1.24,1.65,1.65,0,0,1,1.22-.51,1.75,1.75,0,0,1,1.75,1.75,1.64,1.64,0,0,1-.51,1.22,1.7,1.7,0,0,1-1.24.5A1.66,1.66,0,0,1,351.64,669.67Z"/><path class="cls-6" d="M363.44,670H361V658.62h-3.92v-1.73a4.63,4.63,0,0,0,2.78-.86,3.52,3.52,0,0,0,1.4-2.19h2.15Z"/><path class="cls-6" d="M366.69,661.94a10.39,10.39,0,0,1,1.45-5.87,6.06,6.06,0,0,1,9.95,0,12.63,12.63,0,0,1,0,11.75,6.06,6.06,0,0,1-9.95,0A10.38,10.38,0,0,1,366.69,661.94Zm2.43,0q0,3.75,1.42,5.25a3.68,3.68,0,0,0,5.15,0q1.43-1.5,1.43-5.25t-1.43-5.25a3.68,3.68,0,0,0-5.15,0Q369.11,658.19,369.11,661.94Z"/><path class="cls-6" d="M382,666.82a3.25,3.25,0,0,1,1-2.49,4.69,4.69,0,0,1,2.65-1.16l3.25-.47c.62-.08.93-.38.93-.9a2,2,0,0,0-.65-1.55,2.79,2.79,0,0,0-2-.6,2.65,2.65,0,0,0-1.9.66,2.77,2.77,0,0,0-.83,1.76l-2.25-.53a3.94,3.94,0,0,1,1.58-2.81,5.29,5.29,0,0,1,3.35-1.09,5.12,5.12,0,0,1,3.78,1.24,4.3,4.3,0,0,1,1.22,3.16v6a11.87,11.87,0,0,0,.15,2h-2.3a9.82,9.82,0,0,1-.12-1.62,4.39,4.39,0,0,1-3.87,2,4.05,4.05,0,0,1-2.9-1.06A3.37,3.37,0,0,1,382,666.82Zm4.35,1.63a3.64,3.64,0,0,0,2.53-.85,3.46,3.46,0,0,0,1-2.7v-.55l-3.68.55a2.32,2.32,0,0,0-1.28.58,1.61,1.61,0,0,0-.47,1.22,1.66,1.66,0,0,0,.54,1.22A1.94,1.94,0,0,0,386.39,668.44Z"/><path class="cls-6" d="M398.19,670h-2.32V658h2.25v1.6a3.61,3.61,0,0,1,1.55-1.45,4.66,4.66,0,0,1,2.1-.5,4.13,4.13,0,0,1,2.15.58,3.47,3.47,0,0,1,1.45,1.7,4.25,4.25,0,0,1,4-2.28,4.07,4.07,0,0,1,2.94,1.18,4.52,4.52,0,0,1,1.21,3.4V670h-2.32v-7.55a3,3,0,0,0-.64-2,2.37,2.37,0,0,0-1.91-.75,2.57,2.57,0,0,0-2,.86,3.12,3.12,0,0,0-.77,2.16V670h-2.35v-7.55a3,3,0,0,0-.64-2,2.37,2.37,0,0,0-1.91-.75,2.61,2.61,0,0,0-2,.85,3.13,3.13,0,0,0-.78,2.2Z"/><path class="cls-6" d="M335.14,1048l.8-2a5.56,5.56,0,0,0,3,.78,5.23,5.23,0,0,0,4.16-1.59,6.39,6.39,0,0,0,1.46-4.16,3.78,3.78,0,0,1-1.56,1.47,5.39,5.39,0,0,1-2.64.6,5.77,5.77,0,0,1-3.92-1.46,5,5,0,0,1-1.68-4,5.16,5.16,0,0,1,1.76-4,6.11,6.11,0,0,1,4.21-1.57,6,6,0,0,1,4.45,1.9,7.64,7.64,0,0,1,1.85,5.55q0,4.55-2,7a7.4,7.4,0,0,1-6.06,2.47,8.47,8.47,0,0,1-2.05-.28A5.52,5.52,0,0,1,335.14,1048Zm9-10.45a3.15,3.15,0,0,0-1-2.45,3.67,3.67,0,0,0-4.91,0,3.15,3.15,0,0,0-1,2.46,3.2,3.2,0,0,0,1,2.5,3.74,3.74,0,0,0,4.94,0A3.19,3.19,0,0,0,344.19,1037.51Z"/><path class="cls-6" d="M350.61,1039.36a1.67,1.67,0,0,1-.5-1.23,1.7,1.7,0,0,1,.5-1.24,1.64,1.64,0,0,1,1.22-.51,1.75,1.75,0,0,1,1.75,1.75,1.65,1.65,0,0,1-.51,1.23,1.72,1.72,0,0,1-1.24.5A1.67,1.67,0,0,1,350.61,1039.36Zm0,8.8a1.66,1.66,0,0,1-.5-1.22,1.71,1.71,0,0,1,.5-1.24,1.65,1.65,0,0,1,1.22-.51,1.75,1.75,0,0,1,1.75,1.75,1.64,1.64,0,0,1-.51,1.22,1.7,1.7,0,0,1-1.24.5A1.66,1.66,0,0,1,350.64,1048.16Z"/><path class="cls-6" d="M356.36,1044.88v-2.82l6.95-9.72h3.38v10.28h2.78v2.27h-2.78v3.65h-2.37v-3.65Zm7.95-2.27v-7.93l-5.7,7.93Z"/><path class="cls-6" d="M381.66,1032.33v2.35q-.62.5-1.22,1.07a17.88,17.88,0,0,0-1.59,1.85,18.4,18.4,0,0,0-1.74,2.7,20.77,20.77,0,0,0-1.41,3.61,23.34,23.34,0,0,0-.89,4.61h-2.53a22.9,22.9,0,0,1,.6-3.74,19.29,19.29,0,0,1,1.05-3.16,27,27,0,0,1,1.29-2.54,15.58,15.58,0,0,1,1.35-2q.66-.81,1.2-1.39a11.08,11.08,0,0,1,.86-.85l.33-.28h-9.12v-2.25Z"/><path class="cls-6" d="M383,1045.31a3.25,3.25,0,0,1,1-2.49,4.68,4.68,0,0,1,2.65-1.16l3.25-.47c.62-.08.92-.38.92-.9a2,2,0,0,0-.65-1.55,2.78,2.78,0,0,0-1.95-.6,2.65,2.65,0,0,0-1.9.66,2.76,2.76,0,0,0-.82,1.76l-2.25-.53a3.93,3.93,0,0,1,1.57-2.81,5.3,5.3,0,0,1,3.35-1.09,5.11,5.11,0,0,1,3.78,1.24,4.3,4.3,0,0,1,1.22,3.16v6a12.08,12.08,0,0,0,.15,2h-2.3a9.82,9.82,0,0,1-.12-1.62,4.39,4.39,0,0,1-3.87,2,4.05,4.05,0,0,1-2.9-1.06A3.37,3.37,0,0,1,383,1045.31Zm4.35,1.63a3.65,3.65,0,0,0,2.53-.85,3.46,3.46,0,0,0,.95-2.7v-.55l-3.67.55a2.32,2.32,0,0,0-1.28.58,1.61,1.61,0,0,0-.47,1.22,1.65,1.65,0,0,0,.54,1.22A1.93,1.93,0,0,0,387.39,1046.93Z"/><path class="cls-6" d="M399.19,1048.53h-2.33v-12h2.25v1.6a3.62,3.62,0,0,1,1.55-1.45,4.65,4.65,0,0,1,2.1-.5,4.14,4.14,0,0,1,2.15.58,3.47,3.47,0,0,1,1.45,1.7,4.26,4.26,0,0,1,4-2.28,4.07,4.07,0,0,1,2.94,1.18,4.52,4.52,0,0,1,1.21,3.4v7.8h-2.33V1041a3,3,0,0,0-.64-2,2.37,2.37,0,0,0-1.91-.75,2.57,2.57,0,0,0-2,.86,3.11,3.11,0,0,0-.78,2.16v7.28h-2.35V1041a3,3,0,0,0-.64-2,2.37,2.37,0,0,0-1.91-.75,2.61,2.61,0,0,0-2,.85,3.14,3.14,0,0,0-.77,2.2Z"/><path class="cls-6" d="M334.59,1227.68l.8-2a5.56,5.56,0,0,0,2.95.78,5.24,5.24,0,0,0,4.16-1.59,6.39,6.39,0,0,0,1.46-4.16,3.77,3.77,0,0,1-1.56,1.47,5.38,5.38,0,0,1-2.64.6,5.78,5.78,0,0,1-3.93-1.46,5.05,5.05,0,0,1-1.67-4,5.16,5.16,0,0,1,1.76-4,6.12,6.12,0,0,1,4.21-1.57,6,6,0,0,1,4.45,1.9,7.63,7.63,0,0,1,1.85,5.55q0,4.55-2,7a7.39,7.39,0,0,1-6.06,2.47,8.46,8.46,0,0,1-2-.28A5.52,5.52,0,0,1,334.59,1227.68Zm9.05-10.45a3.15,3.15,0,0,0-1.05-2.45,3.67,3.67,0,0,0-4.91,0,3.16,3.16,0,0,0-1,2.46,3.2,3.2,0,0,0,1,2.5,3.74,3.74,0,0,0,4.94,0A3.19,3.19,0,0,0,343.64,1217.22Z"/><path class="cls-6" d="M350.06,1219.08a1.67,1.67,0,0,1-.5-1.23,1.7,1.7,0,0,1,.5-1.24,1.65,1.65,0,0,1,1.22-.51,1.75,1.75,0,0,1,1.75,1.75,1.65,1.65,0,0,1-.51,1.23,1.71,1.71,0,0,1-1.24.5A1.67,1.67,0,0,1,350.06,1219.08Zm0,8.8a1.66,1.66,0,0,1-.5-1.22,1.71,1.71,0,0,1,.5-1.24,1.65,1.65,0,0,1,1.22-.51,1.75,1.75,0,0,1,1.75,1.75,1.64,1.64,0,0,1-.51,1.22,1.71,1.71,0,0,1-1.24.5A1.66,1.66,0,0,1,350.09,1227.88Z"/><path class="cls-6" d="M355.81,1223.85l2.35-.7a3.46,3.46,0,0,0,1.11,2.43,3.63,3.63,0,0,0,2.54.92,3.55,3.55,0,0,0,2.47-.9,3,3,0,0,0,1-2.37,3.11,3.11,0,0,0-1-2.47,3.66,3.66,0,0,0-2.5-.87,3.9,3.9,0,0,0-2.95,1.18l-1.15-.45-1.25-.5,2.1-8h8.55v2.25h-6.93L359,1219a4.21,4.21,0,0,1,3.3-1.2,5.54,5.54,0,0,1,4,1.45,5.13,5.13,0,0,1,1.54,3.92,5.25,5.25,0,0,1-1.65,3.94,5.94,5.94,0,0,1-4.3,1.59,6.24,6.24,0,0,1-4.16-1.4A4.88,4.88,0,0,1,355.81,1223.85Z"/><path class="cls-6" d="M369.51,1223.85l2.35-.7a3.46,3.46,0,0,0,1.11,2.43,3.62,3.62,0,0,0,2.54.92,3.56,3.56,0,0,0,2.47-.9,3,3,0,0,0,1-2.37,3.12,3.12,0,0,0-1-2.47,3.66,3.66,0,0,0-2.5-.87,3.9,3.9,0,0,0-2.95,1.18l-1.15-.45-1.25-.5,2.1-8h8.55v2.25h-6.93l-1.2,4.65a4.2,4.2,0,0,1,3.3-1.2,5.54,5.54,0,0,1,4,1.45,5.13,5.13,0,0,1,1.54,3.92,5.24,5.24,0,0,1-1.65,3.94,5.94,5.94,0,0,1-4.3,1.59,6.23,6.23,0,0,1-4.16-1.4A4.87,4.87,0,0,1,369.51,1223.85Z"/><path class="cls-6" d="M383.59,1225a3.25,3.25,0,0,1,1-2.49,4.69,4.69,0,0,1,2.65-1.16l3.25-.47c.62-.08.93-.38.93-.9a2,2,0,0,0-.65-1.55,2.79,2.79,0,0,0-2-.6,2.65,2.65,0,0,0-1.9.66,2.77,2.77,0,0,0-.83,1.76l-2.25-.53a3.94,3.94,0,0,1,1.58-2.81,5.29,5.29,0,0,1,3.35-1.09,5.12,5.12,0,0,1,3.78,1.24,4.3,4.3,0,0,1,1.22,3.16v6a11.87,11.87,0,0,0,.15,2h-2.3a9.82,9.82,0,0,1-.12-1.62,4.39,4.39,0,0,1-3.87,2,4.05,4.05,0,0,1-2.9-1.06A3.37,3.37,0,0,1,383.59,1225Zm4.35,1.63a3.64,3.64,0,0,0,2.53-.85,3.46,3.46,0,0,0,1-2.7v-.55l-3.68.55a2.32,2.32,0,0,0-1.28.58,1.61,1.61,0,0,0-.47,1.22,1.66,1.66,0,0,0,.54,1.22A1.94,1.94,0,0,0,387.94,1226.65Z"/><path class="cls-6" d="M399.74,1228.25h-2.32v-12h2.25v1.6a3.61,3.61,0,0,1,1.55-1.45,4.66,4.66,0,0,1,2.1-.5,4.13,4.13,0,0,1,2.15.58,3.47,3.47,0,0,1,1.45,1.7,4.25,4.25,0,0,1,4-2.28,4.07,4.07,0,0,1,2.94,1.18,4.52,4.52,0,0,1,1.21,3.4v7.8h-2.32v-7.55a3,3,0,0,0-.64-2,2.37,2.37,0,0,0-1.91-.75,2.57,2.57,0,0,0-2,.86,3.12,3.12,0,0,0-.77,2.16v7.28h-2.35v-7.55a3,3,0,0,0-.64-2,2.37,2.37,0,0,0-1.91-.75,2.61,2.61,0,0,0-2,.85,3.13,3.13,0,0,0-.78,2.2Z"/><path class="cls-6" d="M375,889.1a41.35,41.35,0,1,1,41.35-41.35A41.4,41.4,0,0,1,375,889.1Zm0-79.71a38.35,38.35,0,1,0,38.35,38.35A38.4,38.4,0,0,0,375,809.39Z"/><polygon class="cls-6" points="403.88 826.07 346.04 826.07 346.04 839.73 367.58 839.73 367.58 875.39 382.3 875.39 382.3 839.73 403.88 839.73 403.88 826.07"/><path class="cls-6" d="M381.15,1172.35l-5.85-9.75-4.12,11.52L363,1186.54h0c-1.33,2.26-2.88,3.68-5.08,3.07a3.9,3.9,0,0,1-2.7-5.22l8.33-13.81,3.63-13.24a7.77,7.77,0,0,0-.54-3.18,8.73,8.73,0,0,1-.23-4.34l2.16-12.39-5.36,4.66-2.2,9.4c-.34,2-1.41,3.43-3.24,3.45a3.15,3.15,0,0,1-3.16-3.31h0l2.83-11.68a4.22,4.22,0,0,1,1.65-3l11.73-8.41a10.51,10.51,0,0,1,11.27,2.11l5.7,11.39,6.44,4.91c1.38,1.49,1.56,3.57.2,4.84-1.16,1.09-3.39.35-4.5-.79l-5.59-4.26c-1.1-.66-3.64-5.94-3.64-5.94L379,1151.91a2.85,2.85,0,0,0,.41,2.25l8.79,14.09,2.45,16.16h0c.58,2.65-.6,4.55-2.64,5.08a3.8,3.8,0,0,1-4.69-2.85Z"/><ellipse class="cls-6" cx="380.26" cy="1120.75" rx="6.15" ry="6.38" transform="translate(-195.64 86.82) rotate(-10.38)"/><path class="cls-6" d="M319.18,693.48l-4.8-6.44-2,2.16v4.28h-2V679.3h2v7.3l6.64-7.3h2.58l-5.9,6.32,6,7.86Z"/><path class="cls-6" d="M329.62,690.18l1.62.56a4.27,4.27,0,0,1-1.56,2.19,4.49,4.49,0,0,1-2.76.85,4.7,4.7,0,0,1-3.43-1.39,5,5,0,0,1-1.41-3.75,5.09,5.09,0,0,1,1.36-3.64,4.62,4.62,0,0,1,6.64-.07,5.32,5.32,0,0,1,1.22,3.67,3.91,3.91,0,0,1,0,.6H324a2.9,2.9,0,0,0,.85,2.1,2.8,2.8,0,0,0,2.05.82A2.6,2.6,0,0,0,329.62,690.18Zm-5.54-2.5h5.26a2.42,2.42,0,0,0-2.64-2.46,2.48,2.48,0,0,0-1.84.73A2.61,2.61,0,0,0,324.08,687.68Z"/><path class="cls-6" d="M335.58,687.92v5.56H333.7v-9.62h1.84v1.38a3.19,3.19,0,0,1,3-1.66,3.14,3.14,0,0,1,2.55,1.06,4.12,4.12,0,0,1,.89,2.74v6.1h-1.88V687.7q0-2.42-2.24-2.42a2,2,0,0,0-1.65.75A3,3,0,0,0,335.58,687.92Z"/><path class="cls-6" d="M351.68,692.18V692a3.17,3.17,0,0,1-1.15,1.23,3.33,3.33,0,0,1-1.83.49,4.15,4.15,0,0,1-3.31-1.45,5.39,5.39,0,0,1-1.25-3.65,5.25,5.25,0,0,1,1.28-3.57,4.15,4.15,0,0,1,3.28-1.47,3.54,3.54,0,0,1,1.92.47,2.49,2.49,0,0,1,1,1.15V679h1.86v12.7a14.49,14.49,0,0,0,.1,1.78h-1.82A7.5,7.5,0,0,1,351.68,692.18Zm-5.62-3.54a3.91,3.91,0,0,0,.75,2.48,2.48,2.48,0,0,0,2.07,1,2.43,2.43,0,0,0,2-1,4,4,0,0,0,.76-2.5,3.75,3.75,0,0,0-.74-2.42,2.46,2.46,0,0,0-2-.92,2.55,2.55,0,0,0-2.06.94A3.7,3.7,0,0,0,346.06,688.64Z"/><path class="cls-6" d="M356.1,690.9a2.6,2.6,0,0,1,.8-2A3.75,3.75,0,0,1,359,688l2.6-.38c.49-.07.74-.31.74-.72a1.61,1.61,0,0,0-.52-1.24,2.23,2.23,0,0,0-1.56-.48,2.12,2.12,0,0,0-1.52.53,2.2,2.2,0,0,0-.66,1.41l-1.8-.42a3.15,3.15,0,0,1,1.26-2.25,4.24,4.24,0,0,1,2.68-.87,4.09,4.09,0,0,1,3,1,3.45,3.45,0,0,1,1,2.53v4.82a9.63,9.63,0,0,0,.12,1.58h-1.84a8,8,0,0,1-.1-1.3,3.51,3.51,0,0,1-3.1,1.6,3.24,3.24,0,0,1-2.32-.85A2.69,2.69,0,0,1,356.1,690.9Zm3.48,1.3a2.92,2.92,0,0,0,2-.68,2.76,2.76,0,0,0,.76-2.16v-.44l-2.94.44a1.86,1.86,0,0,0-1,.46,1.29,1.29,0,0,0-.38,1,1.33,1.33,0,0,0,.43,1A1.55,1.55,0,0,0,359.58,692.2Z"/><path class="cls-6" d="M369,693.48h-1.88V679H369Z"/><path class="cls-6" d="M374.12,693.48h-1.88V679h1.88Z"/><path class="cls-6" d="M391.56,682.52l-1.76.62a2.94,2.94,0,0,0-.9-1.67,3.24,3.24,0,0,0-4.06-.07,2.14,2.14,0,0,0-.78,1.68,1.94,1.94,0,0,0,.47,1.32,2.44,2.44,0,0,0,1.35.74l2.12.46a5,5,0,0,1,2.72,1.43,3.64,3.64,0,0,1,1,2.55,3.87,3.87,0,0,1-1.36,3,5,5,0,0,1-3.54,1.24,5.28,5.28,0,0,1-3.73-1.25,4.78,4.78,0,0,1-1.57-3l1.88-.6a3.4,3.4,0,0,0,1,2.16,3.83,3.83,0,0,0,4.56.24,2,2,0,0,0,.76-1.62,2,2,0,0,0-.54-1.39,2.88,2.88,0,0,0-1.58-.81l-2-.44a4.71,4.71,0,0,1-2.52-1.34,3.56,3.56,0,0,1-.94-2.54,3.91,3.91,0,0,1,1.37-3,4.7,4.7,0,0,1,3.31-1.27,4.78,4.78,0,0,1,3.34,1.06A4.59,4.59,0,0,1,391.56,682.52Z"/><path class="cls-6" d="M402.6,697.28h-1.86v-5.16a2.81,2.81,0,0,1-1.17,1.18,3.71,3.71,0,0,1-1.83.44,4.15,4.15,0,0,1-3.29-1.47,5.81,5.81,0,0,1,0-7.2,4.09,4.09,0,0,1,3.29-1.45,3.57,3.57,0,0,1,1.95.5,2.94,2.94,0,0,1,1.13,1.22v-1.48h1.82Zm-6.74-11.07a3.71,3.71,0,0,0-.76,2.43,3.85,3.85,0,0,0,.77,2.47,2.48,2.48,0,0,0,2.05,1,2.51,2.51,0,0,0,2-1,3.78,3.78,0,0,0,.79-2.47,3.64,3.64,0,0,0-.78-2.43,2.55,2.55,0,0,0-2.06-.93A2.52,2.52,0,0,0,395.86,686.21Z"/><path class="cls-6" d="M411.94,692.32a2.46,2.46,0,0,1-1.16,1.09,3.86,3.86,0,0,1-1.68.37,3.35,3.35,0,0,1-2.62-1.09,4,4,0,0,1-1-2.77v-6.06h1.88v5.78a2.87,2.87,0,0,0,.53,1.78,1.93,1.93,0,0,0,1.65.7,2.12,2.12,0,0,0,1.7-.67,2.64,2.64,0,0,0,.58-1.79v-5.8h1.88v7.84a14.71,14.71,0,0,0,.1,1.78H412A6.8,6.8,0,0,1,411.94,692.32Z"/><path class="cls-6" d="M416.32,690.9a2.6,2.6,0,0,1,.8-2,3.75,3.75,0,0,1,2.12-.93l2.6-.38c.49-.07.74-.31.74-.72a1.61,1.61,0,0,0-.52-1.24,2.23,2.23,0,0,0-1.56-.48,2.12,2.12,0,0,0-1.52.53,2.2,2.2,0,0,0-.66,1.41l-1.8-.42a3.15,3.15,0,0,1,1.26-2.25,4.24,4.24,0,0,1,2.68-.87,4.09,4.09,0,0,1,3,1,3.45,3.45,0,0,1,1,2.53v4.82a9.63,9.63,0,0,0,.12,1.58h-1.84a8,8,0,0,1-.1-1.3,3.51,3.51,0,0,1-3.1,1.6,3.24,3.24,0,0,1-2.32-.85A2.69,2.69,0,0,1,416.32,690.9Zm3.48,1.3a2.92,2.92,0,0,0,2-.68,2.76,2.76,0,0,0,.76-2.16v-.44l-2.94.44a1.86,1.86,0,0,0-1,.46,1.29,1.29,0,0,0-.38,1,1.33,1.33,0,0,0,.43,1A1.55,1.55,0,0,0,419.8,692.2Z"/><path class="cls-6" d="M432.72,683.76v2a5.82,5.82,0,0,0-.82-.06q-2.64,0-2.64,3v4.82h-1.88v-9.62h1.84v1.68a3,3,0,0,1,2.88-1.84A3.17,3.17,0,0,1,432.72,683.76Z"/><path class="cls-6" d="M441.38,690.18l1.62.56a4.26,4.26,0,0,1-1.56,2.19,4.49,4.49,0,0,1-2.76.85,4.7,4.7,0,0,1-3.43-1.39,5,5,0,0,1-1.41-3.75A5.09,5.09,0,0,1,435.2,685a4.62,4.62,0,0,1,6.64-.07,5.32,5.32,0,0,1,1.22,3.67,3.65,3.65,0,0,1,0,.6h-7.24a2.89,2.89,0,0,0,.85,2.1,2.8,2.8,0,0,0,2,.82A2.6,2.6,0,0,0,441.38,690.18Zm-5.54-2.5h5.26a2.42,2.42,0,0,0-2.64-2.46,2.48,2.48,0,0,0-1.84.73A2.63,2.63,0,0,0,435.84,687.68Z"/><path class="cls-6" d="M353.89,1021.46l-1.54-4h-6.28l-1.5,4h-2.1l5.64-14.18h2.26l5.64,14.18Zm-4.7-12.14-2.42,6.36h4.88Z"/><path class="cls-6" d="M359.69,1021.46h-1.88V1007h1.88Z"/><path class="cls-6" d="M369.65,1018.15l1.62.56a4.27,4.27,0,0,1-1.56,2.19,4.49,4.49,0,0,1-2.76.85,4.7,4.7,0,0,1-3.43-1.39,5,5,0,0,1-1.41-3.75,5.09,5.09,0,0,1,1.36-3.64,4.63,4.63,0,0,1,6.64-.07,5.32,5.32,0,0,1,1.22,3.67,3.91,3.91,0,0,1,0,.6H364a2.9,2.9,0,0,0,.85,2.1,2.8,2.8,0,0,0,2.05.82A2.6,2.6,0,0,0,369.65,1018.15Zm-5.54-2.5h5.26a2.42,2.42,0,0,0-2.64-2.46,2.48,2.48,0,0,0-1.84.73A2.61,2.61,0,0,0,364.11,1015.65Z"/><path class="cls-6" d="M379,1011.83H381l2.5,7.24,2.12-7.24h2l-3.12,9.62h-1.94l-2.56-7.32-2.5,7.32h-2l-3.16-9.62h2.06l2.16,7.24Z"/><path class="cls-6" d="M389.46,1009.14a1.29,1.29,0,0,1-.39-.95,1.33,1.33,0,0,1,.39-1,1.28,1.28,0,0,1,.95-.4,1.33,1.33,0,0,1,1,.39,1.31,1.31,0,0,1,.4,1,1.28,1.28,0,0,1-.4.95,1.33,1.33,0,0,1-1,.39A1.29,1.29,0,0,1,389.46,1009.14Zm1.89,12.31h-1.86v-9.62h1.86Z"/><path class="cls-6" d="M399.39,1013.54h-2.32v7.92h-1.94v-7.92h-1.78v-1.7h1.78v-1.62a3.23,3.23,0,0,1,.9-2.42,3.11,3.11,0,0,1,2.26-.88,2.06,2.06,0,0,1,1.12.2v1.68a2.26,2.26,0,0,0-.82-.12,1.63,1.63,0,0,0-1.07.37,1.56,1.56,0,0,0-.45,1.27v1.52h2.32Z"/><path class="cls-6" d="M407.77,1018.15l1.62.56a4.27,4.27,0,0,1-1.56,2.19,4.49,4.49,0,0,1-2.76.85,4.7,4.7,0,0,1-3.43-1.39,5,5,0,0,1-1.41-3.75,5.09,5.09,0,0,1,1.36-3.64,4.63,4.63,0,0,1,6.64-.07,5.32,5.32,0,0,1,1.22,3.67,3.91,3.91,0,0,1,0,.6h-7.24a2.9,2.9,0,0,0,.85,2.1,2.8,2.8,0,0,0,2.05.82A2.6,2.6,0,0,0,407.77,1018.15Zm-5.54-2.5h5.26a2.42,2.42,0,0,0-2.64-2.46,2.48,2.48,0,0,0-1.84.73A2.61,2.61,0,0,0,402.23,1015.65Z"/><rect class="cls-18" y="1174.62" width="750" height="159.38"/><path class="cls-3" d="M128,1229.32v10h-3.82v-10l-6.93-11h4.25l4.59,7.6,4.6-7.6h4.22Z"/><path class="cls-3" d="M136.62,1238.72a6.8,6.8,0,0,1-2.82-2.68,8.8,8.8,0,0,1,0-8.21,6.78,6.78,0,0,1,2.81-2.67,9.52,9.52,0,0,1,8.21,0,6.79,6.79,0,0,1,2.8,2.67,8.82,8.82,0,0,1,0,8.21,6.83,6.83,0,0,1-2.81,2.68,9.47,9.47,0,0,1-8.18,0Zm6.29-2.61a4,4,0,0,0,1.54-1.69,5.5,5.5,0,0,0,.55-2.51,5.41,5.41,0,0,0-.56-2.5,4.09,4.09,0,0,0-1.54-1.68,4.24,4.24,0,0,0-2.24-.59,4,4,0,0,0-3.7,2.28,5.47,5.47,0,0,0-.55,2.5,5.57,5.57,0,0,0,.54,2.51,4,4,0,0,0,1.51,1.69,4.12,4.12,0,0,0,2.2.59A4.3,4.3,0,0,0,142.92,1236.11Z"/><path class="cls-3" d="M165.34,1224.51v14.84h-3.47l-.1-1.83a4.88,4.88,0,0,1-1.94,1.58,6.37,6.37,0,0,1-2.69.55,5.55,5.55,0,0,1-4-1.34,5,5,0,0,1-1.41-3.8v-10h3.66v9.2a2.87,2.87,0,0,0,.8,2.23,2.94,2.94,0,0,0,2.06.73,3.4,3.4,0,0,0,2.45-.91,3.81,3.81,0,0,0,1-2.84v-8.41Z"/><path class="cls-3" d="M174.58,1225.65a6,6,0,0,1,1.7-1,5.74,5.74,0,0,1,2-.36v3.31a7.14,7.14,0,0,0-2.6.4,2.91,2.91,0,0,0-1.53,1.33,5.22,5.22,0,0,0-.51,2.51v7.46H170v-14.84h3.52v2.43A4.15,4.15,0,0,1,174.58,1225.65Z"/><path class="cls-3" d="M192.23,1238.67a7,7,0,0,1-2.77-2.72,8.64,8.64,0,0,1,0-8.06,6.91,6.91,0,0,1,2.77-2.71,8.29,8.29,0,0,1,4-1,8.41,8.41,0,0,1,3.27.62,6.35,6.35,0,0,1,2.47,1.81,6.72,6.72,0,0,1,1.38,2.85l-3.38.41a3.71,3.71,0,0,0-1.38-2.07,4,4,0,0,0-2.39-.7,3.88,3.88,0,0,0-2.12.59,4,4,0,0,0-1.46,1.68,6.3,6.3,0,0,0,0,5,4,4,0,0,0,1.46,1.68,3.88,3.88,0,0,0,2.12.59,4,4,0,0,0,2.38-.7,3.7,3.7,0,0,0,1.38-2.07l3.38.41a6.64,6.64,0,0,1-1.39,2.86,6.54,6.54,0,0,1-2.48,1.82,8.8,8.8,0,0,1-7.26-.34Z"/><path class="cls-3" d="M219.92,1224.51v14.84h-3.47l-.1-1.83a4.88,4.88,0,0,1-1.94,1.58,6.37,6.37,0,0,1-2.69.55,5.55,5.55,0,0,1-4-1.34,5,5,0,0,1-1.41-3.8v-10H210v9.2a2.87,2.87,0,0,0,.8,2.23,2.94,2.94,0,0,0,2.06.73,3.4,3.4,0,0,0,2.45-.91,3.81,3.81,0,0,0,1-2.84v-8.41Z"/><path class="cls-3" d="M229.16,1225.65a6,6,0,0,1,1.7-1,5.74,5.74,0,0,1,2-.36v3.31a7.14,7.14,0,0,0-2.6.4,2.91,2.91,0,0,0-1.53,1.33,5.22,5.22,0,0,0-.51,2.51v7.46h-3.68v-14.84h3.52v2.43A4.15,4.15,0,0,1,229.16,1225.65Z"/><path class="cls-3" d="M240.12,1225.65a6,6,0,0,1,1.7-1,5.74,5.74,0,0,1,2-.36v3.31a7.14,7.14,0,0,0-2.6.4,2.91,2.91,0,0,0-1.53,1.33,5.22,5.22,0,0,0-.51,2.51v7.46H235.5v-14.84H239v2.43A4.15,4.15,0,0,1,240.12,1225.65Z"/><path class="cls-3" d="M259.93,1232.6H248.74a4.82,4.82,0,0,0,.64,2.26,3.64,3.64,0,0,0,1.47,1.39,4.41,4.41,0,0,0,2,.46,3.92,3.92,0,0,0,2.12-.57,3.65,3.65,0,0,0,1.4-1.64l3.34.54a6.65,6.65,0,0,1-1.49,2.47,6.75,6.75,0,0,1-2.37,1.58,7.92,7.92,0,0,1-3,.55,8.67,8.67,0,0,1-4.08-.92,6.43,6.43,0,0,1-2.71-2.66,9.33,9.33,0,0,1,0-8.27,6.61,6.61,0,0,1,2.7-2.67,8.27,8.27,0,0,1,4-.92,8.14,8.14,0,0,1,3.73.82,5.92,5.92,0,0,1,2.54,2.5,8.66,8.66,0,0,1,.94,4.17Zm-9.74-4.93a4,4,0,0,0-1.33,2.48h7.5a3.34,3.34,0,0,0-3.56-3.31A4,4,0,0,0,250.19,1227.67Z"/><path class="cls-3" d="M275.62,1225.56a5,5,0,0,1,1.42,3.8v10h-3.66v-9.2a2.87,2.87,0,0,0-.8-2.24,2.94,2.94,0,0,0-2-.72,3.42,3.42,0,0,0-2.45.91,3.79,3.79,0,0,0-1,2.84v8.41h-3.66v-14.84h3.66v1.71a5,5,0,0,1,1.93-1.49,6.35,6.35,0,0,1,2.62-.52A5.56,5.56,0,0,1,275.62,1225.56Z"/><path class="cls-3" d="M283.46,1238.19a4.48,4.48,0,0,1-1.14-3.27v-7.57h-2.94v-2.83h1a2.35,2.35,0,0,0,1.77-.59,3,3,0,0,0,.56-2.07v-2.18H286v4.83h3.16v2.83H286v7.18a2.11,2.11,0,0,0,.48,1.52,1.77,1.77,0,0,0,1.35.51h1.33v2.81h-2.52A4.3,4.3,0,0,1,283.46,1238.19Z"/><path class="cls-3" d="M303.9,1238.67a7,7,0,0,1-2.77-2.72,8.64,8.64,0,0,1,0-8.06,6.92,6.92,0,0,1,2.77-2.71,8.29,8.29,0,0,1,4-1,8.41,8.41,0,0,1,3.27.62,6.35,6.35,0,0,1,2.47,1.81,6.72,6.72,0,0,1,1.38,2.85l-3.38.41a3.71,3.71,0,0,0-1.38-2.07,4,4,0,0,0-2.39-.7,3.88,3.88,0,0,0-2.12.59,3.94,3.94,0,0,0-1.46,1.68,6.3,6.3,0,0,0,0,5,3.94,3.94,0,0,0,1.46,1.68,3.88,3.88,0,0,0,2.13.59,4,4,0,0,0,2.38-.7,3.7,3.7,0,0,0,1.38-2.07l3.38.41a6.64,6.64,0,0,1-1.39,2.86,6.53,6.53,0,0,1-2.48,1.82,8.8,8.8,0,0,1-7.26-.34Z"/><path class="cls-3" d="M320.9,1238.72a6.8,6.8,0,0,1-2.82-2.68,8.8,8.8,0,0,1,0-8.21,6.78,6.78,0,0,1,2.81-2.67,9.52,9.52,0,0,1,8.21,0,6.79,6.79,0,0,1,2.8,2.67,8.82,8.82,0,0,1,0,8.21,6.83,6.83,0,0,1-2.81,2.68,9.47,9.47,0,0,1-8.18,0Zm6.29-2.61a4,4,0,0,0,1.54-1.69,5.5,5.5,0,0,0,.55-2.51,5.41,5.41,0,0,0-.56-2.5,4.09,4.09,0,0,0-1.54-1.68,4.24,4.24,0,0,0-2.24-.59,4,4,0,0,0-3.7,2.28,5.47,5.47,0,0,0-.55,2.5,5.57,5.57,0,0,0,.54,2.51,4,4,0,0,0,1.51,1.69,4.12,4.12,0,0,0,2.2.59A4.3,4.3,0,0,0,327.19,1236.11Z"/><path class="cls-3" d="M355.79,1224.76a4,4,0,0,1,1.77,1.6,5,5,0,0,1,.63,2.57v10.42h-3.66v-9.4a2.76,2.76,0,0,0-.71-2.06,2.46,2.46,0,0,0-1.79-.7,2.77,2.77,0,0,0-2.1.86,3.78,3.78,0,0,0-.81,2.67v8.63h-3.71V1230a2.88,2.88,0,0,0-.71-2.12,2.49,2.49,0,0,0-1.84-.71,2.71,2.71,0,0,0-2.09.89,4.06,4.06,0,0,0-.81,2.8v8.47h-3.65v-14.84H340v1.79a4.8,4.8,0,0,1,1.79-1.55,5.4,5.4,0,0,1,2.43-.53,5.86,5.86,0,0,1,2.71.59,3.85,3.85,0,0,1,1.71,1.7,4.88,4.88,0,0,1,1.9-1.71,5.74,5.74,0,0,1,2.62-.58A6.19,6.19,0,0,1,355.79,1224.76Z"/><path class="cls-3" d="M382,1224.76a4,4,0,0,1,1.77,1.6,5,5,0,0,1,.63,2.57v10.42h-3.66v-9.4a2.76,2.76,0,0,0-.71-2.06,2.46,2.46,0,0,0-1.79-.7,2.77,2.77,0,0,0-2.1.86,3.78,3.78,0,0,0-.81,2.67v8.63h-3.71V1230a2.88,2.88,0,0,0-.71-2.12,2.49,2.49,0,0,0-1.84-.71,2.71,2.71,0,0,0-2.09.89,4.06,4.06,0,0,0-.81,2.8v8.47h-3.65v-14.84h3.65v1.79a4.8,4.8,0,0,1,1.79-1.55,5.4,5.4,0,0,1,2.43-.53,5.86,5.86,0,0,1,2.71.59,3.85,3.85,0,0,1,1.71,1.7,4.88,4.88,0,0,1,1.9-1.71,5.74,5.74,0,0,1,2.62-.58A6.19,6.19,0,0,1,382,1224.76Z"/><path class="cls-3" d="M402.11,1224.51v14.84h-3.47l-.1-1.83a4.88,4.88,0,0,1-1.94,1.58,6.37,6.37,0,0,1-2.69.55,5.55,5.55,0,0,1-4-1.34,5,5,0,0,1-1.41-3.8v-10h3.66v9.2a2.87,2.87,0,0,0,.8,2.23,2.94,2.94,0,0,0,2.06.73,3.4,3.4,0,0,0,2.45-.91,3.81,3.81,0,0,0,1-2.84v-8.41Z"/><path class="cls-3" d="M408.81,1238.19a4.48,4.48,0,0,1-1.14-3.27v-7.57h-2.95v-2.83h1a2.35,2.35,0,0,0,1.77-.59,3,3,0,0,0,.56-2.07v-2.18h3.32v4.83h3.16v2.83h-3.16v7.18a2.11,2.11,0,0,0,.48,1.52,1.77,1.77,0,0,0,1.35.51h1.33v2.81H412A4.29,4.29,0,0,1,408.81,1238.19Z"/><path class="cls-3" d="M431.44,1232.6H420.25a4.82,4.82,0,0,0,.64,2.26,3.64,3.64,0,0,0,1.47,1.39,4.41,4.41,0,0,0,2,.46,3.92,3.92,0,0,0,2.12-.57,3.65,3.65,0,0,0,1.4-1.64l3.34.54a6.65,6.65,0,0,1-1.49,2.47,6.75,6.75,0,0,1-2.37,1.58,7.92,7.92,0,0,1-3,.55,8.67,8.67,0,0,1-4.08-.92,6.43,6.43,0,0,1-2.71-2.66,9.33,9.33,0,0,1,0-8.27,6.61,6.61,0,0,1,2.7-2.67,8.27,8.27,0,0,1,4-.92,8.14,8.14,0,0,1,3.73.82,5.92,5.92,0,0,1,2.54,2.5,8.66,8.66,0,0,1,.94,4.17Zm-9.74-4.93a4,4,0,0,0-1.33,2.48h7.5a3.34,3.34,0,0,0-3.56-3.31A4,4,0,0,0,421.7,1227.67Z"/><path class="cls-3" d="M456,1225.62a5.56,5.56,0,0,1,1.38,4.08v9.65h-3.66v-9a3.15,3.15,0,0,0-.79-2.39,2.91,2.91,0,0,0-2.08-.75,3.43,3.43,0,0,0-2.41.89,3.75,3.75,0,0,0-1,2.86v8.41h-3.66v-22.5h3.66v9.49a5.21,5.21,0,0,1,2-1.57,6.43,6.43,0,0,1,2.72-.56A5.16,5.16,0,0,1,456,1225.62Z"/><path class="cls-3" d="M473.76,1239v.4h-3.47l-.35-1.67a4.91,4.91,0,0,1-2.09,1.47,7.42,7.42,0,0,1-2.67.49,6,6,0,0,1-2.29-.42,3.61,3.61,0,0,1-1.66-1.34,4.1,4.1,0,0,1-.63-2.36,4,4,0,0,1,.67-2.4,4.43,4.43,0,0,1,1.83-1.46,14.25,14.25,0,0,1,2.91-.89l2.48-.51a2.33,2.33,0,0,0,1.07-.45,1,1,0,0,0,.32-.79,1.86,1.86,0,0,0-.79-1.68,4,4,0,0,0-4,.06,2.6,2.6,0,0,0-1,1.82l-3.25-.62a4.87,4.87,0,0,1,2.07-3.29,8,8,0,0,1,4.45-1.08,7.51,7.51,0,0,1,4.34,1.17q1.71,1.17,1.71,4.12v5.67A13.71,13.71,0,0,0,473.76,1239Zm-3.71-6.65-3.4.78a5,5,0,0,0-1.93.74,1.8,1.8,0,0,0,0,2.7,2.62,2.62,0,0,0,1.58.44,4.38,4.38,0,0,0,1.76-.37,3.3,3.3,0,0,0,2-3.2Z"/><path class="cls-3" d="M478.59,1238.59a4.44,4.44,0,0,1-2.07-3.08l3.09-.88a3,3,0,0,0,1.13,1.81,3.47,3.47,0,0,0,2.07.59,3.32,3.32,0,0,0,1.7-.4,1.4,1.4,0,0,0,.69-1.31,1.38,1.38,0,0,0-.39-1,2.74,2.74,0,0,0-1-.63q-.62-.23-1.73-.56-.94-.26-1.49-.45a10,10,0,0,1-1.89-.83,3.51,3.51,0,0,1-1.79-3.24,4,4,0,0,1,.73-2.43,4.32,4.32,0,0,1,2-1.46,8.2,8.2,0,0,1,2.88-.48,7.08,7.08,0,0,1,3.81,1,4.23,4.23,0,0,1,1.92,3l-2.86.66a2.63,2.63,0,0,0-1-1.58,3.2,3.2,0,0,0-1.82-.5,3.11,3.11,0,0,0-1.63.4,1.28,1.28,0,0,0-.66,1.17,1.19,1.19,0,0,0,.39.92,2.74,2.74,0,0,0,1,.56c.39.14.95.29,1.65.47l.6.16a13.86,13.86,0,0,1,2.45.87,4.49,4.49,0,0,1,1.7,1.42,4,4,0,0,1,.68,2.4,4.11,4.11,0,0,1-.8,2.61,4.49,4.49,0,0,1-2.13,1.49,9.07,9.07,0,0,1-3,.46A7.81,7.81,0,0,1,478.59,1238.59Z"/><path class="cls-3" d="M520.34,1224.76a4,4,0,0,1,1.77,1.6,5,5,0,0,1,.63,2.57v10.42h-3.66v-9.4a2.76,2.76,0,0,0-.71-2.06,2.47,2.47,0,0,0-1.79-.7,2.76,2.76,0,0,0-2.1.86,3.78,3.78,0,0,0-.81,2.67v8.63H510V1230a2.88,2.88,0,0,0-.71-2.12,2.49,2.49,0,0,0-1.84-.71,2.7,2.7,0,0,0-2.09.89,4.06,4.06,0,0,0-.81,2.8v8.47h-3.65v-14.84h3.65v1.79a4.81,4.81,0,0,1,1.79-1.55,5.39,5.39,0,0,1,2.42-.53,5.87,5.87,0,0,1,2.71.59,3.84,3.84,0,0,1,1.71,1.7,4.88,4.88,0,0,1,1.9-1.71,5.73,5.73,0,0,1,2.61-.58A6.2,6.2,0,0,1,520.34,1224.76Z"/><path class="cls-3" d="M529.73,1238.72a6.8,6.8,0,0,1-2.82-2.68,8.8,8.8,0,0,1,0-8.21,6.78,6.78,0,0,1,2.81-2.67,9.52,9.52,0,0,1,8.21,0,6.79,6.79,0,0,1,2.8,2.67,8.82,8.82,0,0,1,0,8.21,6.83,6.83,0,0,1-2.81,2.68,9.47,9.47,0,0,1-8.18,0Zm6.29-2.61a4,4,0,0,0,1.54-1.69,5.5,5.5,0,0,0,.55-2.51,5.41,5.41,0,0,0-.56-2.5,4.09,4.09,0,0,0-1.54-1.68,4.24,4.24,0,0,0-2.24-.59,4,4,0,0,0-3.7,2.28,5.47,5.47,0,0,0-.55,2.5,5.57,5.57,0,0,0,.54,2.51,4,4,0,0,0,1.51,1.69,4.12,4.12,0,0,0,2.2.59A4.3,4.3,0,0,0,536,1236.11Z"/><path class="cls-3" d="M559.45,1216.85v22.5H556l-.1-2.23a4.53,4.53,0,0,1-1.94,1.88,6.17,6.17,0,0,1-2.91.68,7,7,0,0,1-3.57-.94,6.76,6.76,0,0,1-2.56-2.7,9.29,9.29,0,0,1,0-8.17,6.81,6.81,0,0,1,2.57-2.7,6.93,6.93,0,0,1,3.55-.94,6.26,6.26,0,0,1,2.83.64,4.46,4.46,0,0,1,1.94,1.78l0-9.79ZM554,1236a4.15,4.15,0,0,0,1.52-1.65,5.56,5.56,0,0,0,0-4.85,4.16,4.16,0,0,0-1.52-1.65,4,4,0,0,0-2.15-.59,4.15,4.15,0,0,0-2.15.57,4,4,0,0,0-1.52,1.63,5.75,5.75,0,0,0,0,4.94,4,4,0,0,0,1.52,1.63,4.15,4.15,0,0,0,2.15.57A4,4,0,0,0,554,1236Z"/><path class="cls-3" d="M577.69,1232.6H566.5a4.82,4.82,0,0,0,.64,2.26,3.64,3.64,0,0,0,1.47,1.39,4.41,4.41,0,0,0,2,.46,3.92,3.92,0,0,0,2.12-.57,3.65,3.65,0,0,0,1.4-1.64l3.34.54a6.65,6.65,0,0,1-1.49,2.47,6.75,6.75,0,0,1-2.37,1.58,7.92,7.92,0,0,1-3,.55,8.67,8.67,0,0,1-4.08-.92,6.43,6.43,0,0,1-2.71-2.66,9.33,9.33,0,0,1,0-8.27,6.61,6.61,0,0,1,2.7-2.67,8.27,8.27,0,0,1,4-.92,8.14,8.14,0,0,1,3.73.82,5.92,5.92,0,0,1,2.54,2.5,8.66,8.66,0,0,1,.94,4.17Zm-9.74-4.93a4,4,0,0,0-1.33,2.48h7.5a3.34,3.34,0,0,0-3.56-3.31A4,4,0,0,0,567.95,1227.67Z"/><path class="cls-3" d="M585.82,1225.65a6,6,0,0,1,1.7-1,5.74,5.74,0,0,1,2-.36v3.31a7.14,7.14,0,0,0-2.6.4,2.91,2.91,0,0,0-1.53,1.33,5.22,5.22,0,0,0-.51,2.51v7.46H581.2v-14.84h3.52v2.43A4.15,4.15,0,0,1,585.82,1225.65Z"/><path class="cls-3" d="M604.13,1239v.4h-3.47l-.35-1.67a4.91,4.91,0,0,1-2.09,1.47,7.42,7.42,0,0,1-2.67.49,6,6,0,0,1-2.29-.42,3.61,3.61,0,0,1-1.66-1.34,4.1,4.1,0,0,1-.63-2.36,4,4,0,0,1,.67-2.4,4.43,4.43,0,0,1,1.83-1.46,14.25,14.25,0,0,1,2.91-.89l2.48-.51a2.33,2.33,0,0,0,1.07-.45,1,1,0,0,0,.32-.79,1.86,1.86,0,0,0-.79-1.68,4,4,0,0,0-4,.06,2.6,2.6,0,0,0-1,1.82l-3.25-.62a4.87,4.87,0,0,1,2.07-3.29,8,8,0,0,1,4.45-1.08,7.51,7.51,0,0,1,4.34,1.17q1.71,1.17,1.71,4.12v5.67A13.71,13.71,0,0,0,604.13,1239Zm-3.71-6.65-3.4.78a5,5,0,0,0-1.93.74,1.8,1.8,0,0,0,0,2.7,2.62,2.62,0,0,0,1.58.44,4.38,4.38,0,0,0,1.76-.37,3.3,3.3,0,0,0,2-3.2Z"/><path class="cls-3" d="M610,1238.19a4.48,4.48,0,0,1-1.14-3.27v-7.57h-2.95v-2.83h1a2.35,2.35,0,0,0,1.77-.59,3,3,0,0,0,.56-2.07v-2.18h3.32v4.83h3.16v2.83h-3.16v7.18a2.11,2.11,0,0,0,.48,1.52,1.77,1.77,0,0,0,1.35.51h1.33v2.81h-2.52A4.29,4.29,0,0,1,610,1238.19Z"/><path class="cls-3" d="M632.65,1232.6H621.46a4.82,4.82,0,0,0,.64,2.26,3.64,3.64,0,0,0,1.47,1.39,4.41,4.41,0,0,0,2,.46,3.92,3.92,0,0,0,2.12-.57,3.65,3.65,0,0,0,1.4-1.64l3.34.54a6.65,6.65,0,0,1-1.49,2.47,6.75,6.75,0,0,1-2.37,1.58,7.92,7.92,0,0,1-3,.55,8.67,8.67,0,0,1-4.08-.92,6.43,6.43,0,0,1-2.71-2.66,9.33,9.33,0,0,1,0-8.27,6.61,6.61,0,0,1,2.7-2.67,8.27,8.27,0,0,1,4-.92,8.14,8.14,0,0,1,3.73.82,5.92,5.92,0,0,1,2.54,2.5,8.66,8.66,0,0,1,.94,4.17Zm-9.74-4.93a4,4,0,0,0-1.33,2.48h7.5a3.34,3.34,0,0,0-3.56-3.31A4,4,0,0,0,622.91,1227.67Z"/><path class="cls-3" d="M75.44,1283.81v.4H72l-.35-1.67a4.91,4.91,0,0,1-2.09,1.47,7.42,7.42,0,0,1-2.67.49,6,6,0,0,1-2.29-.42,3.61,3.61,0,0,1-1.66-1.34,4.1,4.1,0,0,1-.63-2.36A4,4,0,0,1,63,1278a4.43,4.43,0,0,1,1.83-1.46,14.25,14.25,0,0,1,2.91-.89l2.48-.51a2.33,2.33,0,0,0,1.07-.45,1,1,0,0,0,.32-.79,1.86,1.86,0,0,0-.79-1.68,4,4,0,0,0-4,.06,2.6,2.6,0,0,0-1,1.82l-3.25-.62a4.87,4.87,0,0,1,2.07-3.29,8,8,0,0,1,4.45-1.08,7.51,7.51,0,0,1,4.34,1.17q1.71,1.17,1.71,4.12V1280A13.71,13.71,0,0,0,75.44,1283.81Zm-3.71-6.65-3.4.78a5,5,0,0,0-1.93.74,1.8,1.8,0,0,0,0,2.7,2.62,2.62,0,0,0,1.58.44,4.38,4.38,0,0,0,1.76-.37,3.3,3.3,0,0,0,2-3.2Z"/><path class="cls-3" d="M91.61,1270.41a5,5,0,0,1,1.42,3.8v10H89.37V1275a2.87,2.87,0,0,0-.8-2.24,2.94,2.94,0,0,0-2-.72,3.42,3.42,0,0,0-2.45.91,3.79,3.79,0,0,0-1,2.84v8.41H79.44v-14.84H83.1v1.71a5,5,0,0,1,1.93-1.49,6.35,6.35,0,0,1,2.62-.52A5.56,5.56,0,0,1,91.61,1270.41Z"/><path class="cls-3" d="M100,1283.57a6.8,6.8,0,0,1-2.82-2.68,8.8,8.8,0,0,1,0-8.21A6.78,6.78,0,0,1,100,1270a9.52,9.52,0,0,1,8.21,0,6.79,6.79,0,0,1,2.8,2.67,8.82,8.82,0,0,1,0,8.21,6.83,6.83,0,0,1-2.81,2.68,9.47,9.47,0,0,1-8.18,0Zm6.29-2.61a4,4,0,0,0,1.54-1.69,5.5,5.5,0,0,0,.55-2.51,5.41,5.41,0,0,0-.56-2.5,4.09,4.09,0,0,0-1.54-1.68A4.24,4.24,0,0,0,104,1272a4,4,0,0,0-3.7,2.28,5.47,5.47,0,0,0-.55,2.5,5.57,5.57,0,0,0,.54,2.51,4,4,0,0,0,1.51,1.69,4.12,4.12,0,0,0,2.2.59A4.3,4.3,0,0,0,106.3,1281Z"/><path class="cls-3" d="M134.9,1269.61a4,4,0,0,1,1.77,1.6,5,5,0,0,1,.63,2.57v10.42h-3.66v-9.4a2.76,2.76,0,0,0-.71-2.06,2.46,2.46,0,0,0-1.79-.7,2.77,2.77,0,0,0-2.1.86,3.78,3.78,0,0,0-.81,2.67v8.63h-3.71v-9.33a2.88,2.88,0,0,0-.71-2.12A2.49,2.49,0,0,0,122,1272a2.71,2.71,0,0,0-2.09.89,4.06,4.06,0,0,0-.81,2.8v8.47h-3.65v-14.84h3.65v1.79a4.8,4.8,0,0,1,1.79-1.55,5.4,5.4,0,0,1,2.43-.53,5.86,5.86,0,0,1,2.71.59,3.85,3.85,0,0,1,1.71,1.7,4.88,4.88,0,0,1,1.9-1.71,5.74,5.74,0,0,1,2.62-.58A6.19,6.19,0,0,1,134.9,1269.61Z"/><path class="cls-3" d="M153.75,1283.81v.4h-3.47l-.35-1.67a4.91,4.91,0,0,1-2.09,1.47,7.42,7.42,0,0,1-2.67.49,6,6,0,0,1-2.29-.42,3.61,3.61,0,0,1-1.66-1.34,4.1,4.1,0,0,1-.63-2.36,4,4,0,0,1,.67-2.4,4.43,4.43,0,0,1,1.83-1.46,14.25,14.25,0,0,1,2.91-.89l2.48-.51a2.33,2.33,0,0,0,1.07-.45,1,1,0,0,0,.32-.79,1.86,1.86,0,0,0-.79-1.68,4,4,0,0,0-4,.06,2.6,2.6,0,0,0-1,1.82l-3.25-.62a4.87,4.87,0,0,1,2.07-3.29,8,8,0,0,1,4.45-1.08,7.51,7.51,0,0,1,4.34,1.17q1.71,1.17,1.71,4.12V1280A13.71,13.71,0,0,0,153.75,1283.81Zm-3.71-6.65-3.4.78a5,5,0,0,0-1.93.74,1.8,1.8,0,0,0,0,2.7,2.62,2.62,0,0,0,1.58.44,4.38,4.38,0,0,0,1.76-.37,3.3,3.3,0,0,0,2-3.2Z"/><path class="cls-3" d="M157.75,1261.7h3.69v22.5h-3.69Z"/><path class="cls-3" d="M166.85,1266.44a2.22,2.22,0,0,1-.8-.8,2.14,2.14,0,0,1,0-2.19,2.23,2.23,0,0,1,.8-.79,2.14,2.14,0,0,1,1.09-.29,2.1,2.1,0,0,1,1.08.29,2.26,2.26,0,0,1,.8.79,2.14,2.14,0,0,1,0,2.19,2.22,2.22,0,0,1-.81.8,2.11,2.11,0,0,1-1.08.29A2.14,2.14,0,0,1,166.85,1266.44Zm-.78,2.93h3.68v14.84h-3.68Z"/><path class="cls-3" d="M188,1277.45H176.78a4.8,4.8,0,0,0,.64,2.26,3.62,3.62,0,0,0,1.47,1.39,4.41,4.41,0,0,0,2,.46A3.92,3.92,0,0,0,183,1281a3.65,3.65,0,0,0,1.4-1.64l3.34.54a6.65,6.65,0,0,1-1.49,2.47,6.75,6.75,0,0,1-2.37,1.58,7.92,7.92,0,0,1-3,.55,8.67,8.67,0,0,1-4.08-.92,6.42,6.42,0,0,1-2.71-2.66,9.32,9.32,0,0,1,0-8.27,6.6,6.6,0,0,1,2.7-2.67,8.27,8.27,0,0,1,4-.92,8.14,8.14,0,0,1,3.73.82,5.92,5.92,0,0,1,2.54,2.5,8.66,8.66,0,0,1,.94,4.17Zm-9.74-4.93a4,4,0,0,0-1.33,2.48h7.5a3.34,3.34,0,0,0-3.56-3.31A4,4,0,0,0,178.23,1272.52Z"/><path class="cls-3" d="M192.32,1283.44a4.43,4.43,0,0,1-2.06-3.08l3.09-.88a3,3,0,0,0,1.13,1.81,3.47,3.47,0,0,0,2.06.59,3.32,3.32,0,0,0,1.7-.4,1.4,1.4,0,0,0,.69-1.31,1.39,1.39,0,0,0-.39-1,2.77,2.77,0,0,0-1-.63q-.62-.23-1.73-.56-.94-.26-1.49-.45a10,10,0,0,1-1.89-.83,3.51,3.51,0,0,1-1.79-3.24,4,4,0,0,1,.73-2.43,4.31,4.31,0,0,1,2-1.46,8.21,8.21,0,0,1,2.89-.48,7.08,7.08,0,0,1,3.81,1,4.23,4.23,0,0,1,1.92,3l-2.86.66a2.63,2.63,0,0,0-1-1.58,3.2,3.2,0,0,0-1.82-.5,3.11,3.11,0,0,0-1.62.4,1.28,1.28,0,0,0-.66,1.17,1.19,1.19,0,0,0,.39.92,2.72,2.72,0,0,0,1,.56q.59.21,1.65.47l.6.16a13.92,13.92,0,0,1,2.45.87,4.51,4.51,0,0,1,1.7,1.42,4,4,0,0,1,.68,2.4,4.12,4.12,0,0,1-.8,2.61,4.5,4.5,0,0,1-2.13,1.49,9.08,9.08,0,0,1-3,.46A7.81,7.81,0,0,1,192.32,1283.44Z"/><path class="cls-3" d="M207.22,1284.2a2.18,2.18,0,0,1-.8-.79,2.1,2.1,0,0,1-.29-1.08,2.07,2.07,0,0,1,.3-1.08,2.33,2.33,0,0,1,.8-.8,2,2,0,0,1,1.07-.3,2.07,2.07,0,0,1,1.08.3,2.31,2.31,0,0,1,.8.8,2.1,2.1,0,0,1,0,2.17,2.24,2.24,0,0,1-.8.79,2.14,2.14,0,0,1-2.16,0Z"/><path class="cls-3" d="M228.57,1283.17a9.55,9.55,0,0,1-3.79-3.77,12.45,12.45,0,0,1,0-11.38,9.51,9.51,0,0,1,3.79-3.76,11.22,11.22,0,0,1,5.46-1.32,11.57,11.57,0,0,1,4.16.73,9.81,9.81,0,0,1,3.35,2.11,9.33,9.33,0,0,1,2.19,3.27l-3.53,1.33a6.1,6.1,0,0,0-2.42-2.89,6.88,6.88,0,0,0-3.75-1,7.05,7.05,0,0,0-3.49.87,6.27,6.27,0,0,0-2.46,2.51,8.77,8.77,0,0,0,0,7.74,6.24,6.24,0,0,0,2.46,2.52,7,7,0,0,0,3.49.87,6.9,6.9,0,0,0,3.75-1,6.11,6.11,0,0,0,2.42-2.89l3.53,1.33a9.3,9.3,0,0,1-2.19,3.28,9.81,9.81,0,0,1-3.35,2.11,11.57,11.57,0,0,1-4.16.73A11.16,11.16,0,0,1,228.57,1283.17Z"/><path class="cls-3" d="M247,1261.7h3.69v22.5H247Z"/><path class="cls-3" d="M256.15,1266.44a2.22,2.22,0,0,1-.8-.8,2.14,2.14,0,0,1,0-2.19,2.23,2.23,0,0,1,.8-.79,2.14,2.14,0,0,1,1.09-.29,2.1,2.1,0,0,1,1.08.29,2.26,2.26,0,0,1,.8.79,2.14,2.14,0,0,1,0,2.19,2.22,2.22,0,0,1-.81.8,2.11,2.11,0,0,1-1.08.29A2.14,2.14,0,0,1,256.15,1266.44Zm-.78,2.93H259v14.84h-3.68Z"/><path class="cls-3" d="M266.19,1283.52a7,7,0,0,1-2.77-2.72,8.64,8.64,0,0,1,0-8.06,6.92,6.92,0,0,1,2.77-2.71,8.29,8.29,0,0,1,4-1,8.41,8.41,0,0,1,3.27.62,6.35,6.35,0,0,1,2.47,1.81,6.72,6.72,0,0,1,1.38,2.85l-3.38.41a3.71,3.71,0,0,0-1.38-2.07,4,4,0,0,0-2.39-.7,3.88,3.88,0,0,0-2.12.59,3.94,3.94,0,0,0-1.46,1.68,6.3,6.3,0,0,0,0,5,3.94,3.94,0,0,0,1.46,1.68,3.88,3.88,0,0,0,2.13.59,4,4,0,0,0,2.38-.7,3.7,3.7,0,0,0,1.38-2.07l3.38.41a6.64,6.64,0,0,1-1.39,2.86,6.53,6.53,0,0,1-2.48,1.82,8.8,8.8,0,0,1-7.26-.34Z"/><path class="cls-3" d="M285.13,1277.61h-.86v6.59h-3.69v-22.5h3.69V1275h1l4.7-5.65h4.17l-5.89,6.86,6.52,8h-4.5Z"/><path class="cls-3" d="M308.58,1283.57a6.8,6.8,0,0,1-2.82-2.68,8.82,8.82,0,0,1,0-8.21,6.78,6.78,0,0,1,2.81-2.67,9.52,9.52,0,0,1,8.21,0,6.79,6.79,0,0,1,2.8,2.67,8.8,8.8,0,0,1,0,8.21,6.81,6.81,0,0,1-2.81,2.68,9.46,9.46,0,0,1-8.18,0Zm6.29-2.61a4,4,0,0,0,1.54-1.69,5.5,5.5,0,0,0,.55-2.51,5.41,5.41,0,0,0-.56-2.5,4.09,4.09,0,0,0-1.54-1.68,4.23,4.23,0,0,0-2.24-.59,4,4,0,0,0-3.7,2.28,5.47,5.47,0,0,0-.55,2.5,5.57,5.57,0,0,0,.54,2.51,4,4,0,0,0,1.51,1.69,4.12,4.12,0,0,0,2.2.59A4.29,4.29,0,0,0,314.87,1281Z"/><path class="cls-3" d="M336.17,1270.41a5,5,0,0,1,1.42,3.8v10h-3.66V1275a2.87,2.87,0,0,0-.8-2.24,2.94,2.94,0,0,0-2-.72,3.42,3.42,0,0,0-2.45.91,3.79,3.79,0,0,0-1,2.84v8.41H324v-14.84h3.66v1.71a5,5,0,0,1,1.93-1.49,6.35,6.35,0,0,1,2.62-.52A5.55,5.55,0,0,1,336.17,1270.41Z"/><path class="cls-3" d="M352.79,1283a4.48,4.48,0,0,1-1.14-3.27v-7.57H348.7v-2.83h1a2.35,2.35,0,0,0,1.77-.59,3,3,0,0,0,.56-2.07v-2.18h3.32v4.83h3.16v2.83h-3.16v7.18a2.11,2.11,0,0,0,.48,1.52,1.77,1.77,0,0,0,1.35.51h1.33v2.81H356A4.29,4.29,0,0,1,352.79,1283Z"/><path class="cls-3" d="M374.13,1270.47a5.56,5.56,0,0,1,1.38,4.08v9.65h-3.66v-9a3.15,3.15,0,0,0-.79-2.39A2.91,2.91,0,0,0,369,1272a3.43,3.43,0,0,0-2.41.89,3.75,3.75,0,0,0-1,2.86v8.41h-3.66v-22.5h3.66v9.49a5.21,5.21,0,0,1,2-1.57,6.43,6.43,0,0,1,2.72-.56A5.16,5.16,0,0,1,374.13,1270.47Z"/><path class="cls-3" d="M393.44,1277.45H382.25a4.82,4.82,0,0,0,.64,2.26,3.64,3.64,0,0,0,1.47,1.39,4.41,4.41,0,0,0,2,.46,3.92,3.92,0,0,0,2.12-.57,3.65,3.65,0,0,0,1.4-1.64l3.34.54a6.65,6.65,0,0,1-1.49,2.47,6.75,6.75,0,0,1-2.37,1.58,7.92,7.92,0,0,1-3,.55,8.67,8.67,0,0,1-4.08-.92,6.43,6.43,0,0,1-2.71-2.66,9.33,9.33,0,0,1,0-8.27,6.61,6.61,0,0,1,2.7-2.67,8.27,8.27,0,0,1,4-.92,8.14,8.14,0,0,1,3.73.82,5.92,5.92,0,0,1,2.54,2.5,8.66,8.66,0,0,1,.94,4.17Zm-9.74-4.93a4,4,0,0,0-1.33,2.48h7.5a3.34,3.34,0,0,0-3.56-3.31A4,4,0,0,0,383.7,1272.52Z"/><path class="cls-3" d="M417.83,1283.81v.4h-3.47l-.35-1.67a4.91,4.91,0,0,1-2.09,1.47,7.42,7.42,0,0,1-2.67.49,6,6,0,0,1-2.29-.42,3.61,3.61,0,0,1-1.66-1.34,4.1,4.1,0,0,1-.63-2.36,4,4,0,0,1,.67-2.4,4.43,4.43,0,0,1,1.83-1.46,14.25,14.25,0,0,1,2.91-.89l2.48-.51a2.33,2.33,0,0,0,1.07-.45,1,1,0,0,0,.32-.79,1.86,1.86,0,0,0-.79-1.68,4,4,0,0,0-4,.06,2.6,2.6,0,0,0-1,1.82l-3.25-.62a4.87,4.87,0,0,1,2.07-3.29,8,8,0,0,1,4.45-1.08,7.51,7.51,0,0,1,4.34,1.17q1.71,1.17,1.71,4.12V1280A13.71,13.71,0,0,0,417.83,1283.81Zm-3.71-6.65-3.4.78a5,5,0,0,0-1.93.74,1.8,1.8,0,0,0,0,2.7,2.62,2.62,0,0,0,1.58.44,4.38,4.38,0,0,0,1.76-.37,3.3,3.3,0,0,0,2-3.2Z"/><path class="cls-3" d="M421.83,1261.7h3.69v22.5h-3.69Z"/><path class="cls-3" d="M443.74,1277.45H432.55a4.82,4.82,0,0,0,.64,2.26,3.64,3.64,0,0,0,1.47,1.39,4.41,4.41,0,0,0,2,.46,3.92,3.92,0,0,0,2.12-.57,3.65,3.65,0,0,0,1.4-1.64l3.34.54a6.65,6.65,0,0,1-1.49,2.47,6.75,6.75,0,0,1-2.37,1.58,7.92,7.92,0,0,1-3,.55,8.67,8.67,0,0,1-4.08-.92,6.43,6.43,0,0,1-2.71-2.66,9.33,9.33,0,0,1,0-8.27,6.61,6.61,0,0,1,2.7-2.67,8.27,8.27,0,0,1,4-.92,8.14,8.14,0,0,1,3.73.82,5.92,5.92,0,0,1,2.54,2.5,8.66,8.66,0,0,1,.94,4.17Zm-9.74-4.93a4,4,0,0,0-1.33,2.48h7.5a3.34,3.34,0,0,0-3.56-3.31A4,4,0,0,0,434,1272.52Z"/><path class="cls-3" d="M451.87,1270.5a6,6,0,0,1,1.7-1,5.74,5.74,0,0,1,2-.36v3.31a7.14,7.14,0,0,0-2.6.4,2.91,2.91,0,0,0-1.53,1.33,5.22,5.22,0,0,0-.51,2.51v7.46h-3.68v-14.84h3.52v2.43A4.15,4.15,0,0,1,451.87,1270.5Z"/><path class="cls-3" d="M461.15,1283a4.48,4.48,0,0,1-1.14-3.27v-7.57h-2.94v-2.83h1a2.35,2.35,0,0,0,1.77-.59,3,3,0,0,0,.56-2.07v-2.18h3.33v4.83h3.16v2.83h-3.16v7.18a2.11,2.11,0,0,0,.48,1.52,1.77,1.77,0,0,0,1.35.51h1.33v2.81h-2.52A4.3,4.3,0,0,1,461.15,1283Z"/><path class="cls-3" d="M471.11,1283.44a4.43,4.43,0,0,1-2.06-3.08l3.09-.88a3,3,0,0,0,1.13,1.81,3.47,3.47,0,0,0,2.06.59,3.32,3.32,0,0,0,1.7-.4,1.4,1.4,0,0,0,.69-1.31,1.39,1.39,0,0,0-.39-1,2.77,2.77,0,0,0-1-.63q-.62-.23-1.73-.56-.94-.26-1.49-.45a10,10,0,0,1-1.89-.83,3.51,3.51,0,0,1-1.79-3.24,4,4,0,0,1,.73-2.43,4.31,4.31,0,0,1,2-1.46,8.21,8.21,0,0,1,2.89-.48,7.08,7.08,0,0,1,3.81,1,4.23,4.23,0,0,1,1.92,3l-2.86.66a2.63,2.63,0,0,0-1-1.58,3.2,3.2,0,0,0-1.82-.5,3.11,3.11,0,0,0-1.62.4,1.28,1.28,0,0,0-.66,1.17,1.19,1.19,0,0,0,.39.92,2.72,2.72,0,0,0,1,.56q.59.21,1.65.47l.6.16a13.92,13.92,0,0,1,2.45.87,4.51,4.51,0,0,1,1.7,1.42,4,4,0,0,1,.68,2.4,4.12,4.12,0,0,1-.8,2.61,4.5,4.5,0,0,1-2.13,1.49,9.08,9.08,0,0,1-3,.46A7.81,7.81,0,0,1,471.11,1283.44Z"/><path class="cls-3" d="M495.44,1283a4.48,4.48,0,0,1-1.14-3.27v-7.57h-2.95v-2.83h1a2.35,2.35,0,0,0,1.77-.59,3,3,0,0,0,.56-2.07v-2.18H498v4.83h3.16v2.83H498v7.18a2.11,2.11,0,0,0,.48,1.52,1.77,1.77,0,0,0,1.35.51h1.33v2.81h-2.52A4.29,4.29,0,0,1,495.44,1283Z"/><path class="cls-3" d="M507.1,1283.57a6.8,6.8,0,0,1-2.82-2.68,8.82,8.82,0,0,1,0-8.21,6.78,6.78,0,0,1,2.81-2.67,9.52,9.52,0,0,1,8.21,0,6.79,6.79,0,0,1,2.8,2.67,8.8,8.8,0,0,1,0,8.21,6.81,6.81,0,0,1-2.81,2.68,9.46,9.46,0,0,1-8.18,0Zm6.29-2.61a4,4,0,0,0,1.54-1.69,5.5,5.5,0,0,0,.55-2.51,5.41,5.41,0,0,0-.56-2.5,4.09,4.09,0,0,0-1.54-1.68,4.23,4.23,0,0,0-2.24-.59,4,4,0,0,0-3.7,2.28,5.47,5.47,0,0,0-.55,2.5,5.57,5.57,0,0,0,.54,2.51,4,4,0,0,0,1.51,1.69,4.12,4.12,0,0,0,2.2.59A4.29,4.29,0,0,0,513.39,1281Z"/><path class="cls-3" d="M531.3,1261.7H535v22.5H531.3Z"/><path class="cls-3" d="M553.21,1277.45H542a4.8,4.8,0,0,0,.64,2.26,3.62,3.62,0,0,0,1.47,1.39,4.41,4.41,0,0,0,2,.46,3.92,3.92,0,0,0,2.12-.57,3.65,3.65,0,0,0,1.4-1.64l3.34.54a6.65,6.65,0,0,1-1.49,2.47,6.75,6.75,0,0,1-2.37,1.58,7.92,7.92,0,0,1-3,.55,8.67,8.67,0,0,1-4.08-.92,6.42,6.42,0,0,1-2.71-2.66,9.32,9.32,0,0,1,0-8.27,6.6,6.6,0,0,1,2.7-2.67,8.27,8.27,0,0,1,4-.92,8.14,8.14,0,0,1,3.73.82,5.92,5.92,0,0,1,2.54,2.5,8.66,8.66,0,0,1,.94,4.17Zm-9.74-4.93a4,4,0,0,0-1.33,2.48h7.5a3.34,3.34,0,0,0-3.56-3.31A4,4,0,0,0,543.47,1272.52Z"/><path class="cls-3" d="M568.81,1283.81v.4h-3.47l-.35-1.67a4.92,4.92,0,0,1-2.09,1.47,7.44,7.44,0,0,1-2.67.49,6,6,0,0,1-2.29-.42,3.61,3.61,0,0,1-1.65-1.34,4.1,4.1,0,0,1-.63-2.36,4,4,0,0,1,.67-2.4,4.43,4.43,0,0,1,1.83-1.46,14.25,14.25,0,0,1,2.91-.89l2.47-.51a2.34,2.34,0,0,0,1.07-.45,1,1,0,0,0,.32-.79,1.86,1.86,0,0,0-.79-1.68,4,4,0,0,0-4,.06,2.6,2.6,0,0,0-1,1.82l-3.25-.62a4.87,4.87,0,0,1,2.07-3.29,8,8,0,0,1,4.45-1.08,7.51,7.51,0,0,1,4.34,1.17q1.71,1.17,1.71,4.12V1280A13.71,13.71,0,0,0,568.81,1283.81Zm-3.71-6.65-3.4.78a5,5,0,0,0-1.93.74,1.81,1.81,0,0,0,0,2.7,2.62,2.62,0,0,0,1.58.44,4.38,4.38,0,0,0,1.76-.37,3.31,3.31,0,0,0,2-3.2Z"/><path class="cls-3" d="M577.42,1270.5a6,6,0,0,1,1.7-1,5.75,5.75,0,0,1,2-.36v3.31a7.14,7.14,0,0,0-2.6.4,2.91,2.91,0,0,0-1.53,1.33,5.22,5.22,0,0,0-.51,2.51v7.46h-3.68v-14.84h3.52v2.43A4.14,4.14,0,0,1,577.42,1270.5Z"/><path class="cls-3" d="M595.94,1270.41a5,5,0,0,1,1.42,3.8v10H593.7V1275a2.87,2.87,0,0,0-.8-2.24,2.94,2.94,0,0,0-2-.72,3.42,3.42,0,0,0-2.45.91,3.79,3.79,0,0,0-1,2.84v8.41h-3.66v-14.84h3.66v1.71a5,5,0,0,1,1.93-1.49,6.35,6.35,0,0,1,2.62-.52A5.55,5.55,0,0,1,595.94,1270.41Z"/><path class="cls-3" d="M630,1269.61a4,4,0,0,1,1.77,1.6,5,5,0,0,1,.63,2.57v10.42h-3.66v-9.4a2.76,2.76,0,0,0-.71-2.06,2.46,2.46,0,0,0-1.79-.7,2.77,2.77,0,0,0-2.1.86,3.78,3.78,0,0,0-.81,2.67v8.63H619.6v-9.33a2.88,2.88,0,0,0-.71-2.12A2.49,2.49,0,0,0,617,1272a2.71,2.71,0,0,0-2.09.89,4.06,4.06,0,0,0-.81,2.8v8.47H610.5v-14.84h3.65v1.79a4.8,4.8,0,0,1,1.79-1.55,5.4,5.4,0,0,1,2.43-.53,5.86,5.86,0,0,1,2.71.59,3.85,3.85,0,0,1,1.71,1.7,4.88,4.88,0,0,1,1.9-1.71,5.74,5.74,0,0,1,2.62-.58A6.19,6.19,0,0,1,630,1269.61Z"/><path class="cls-3" d="M639.37,1283.57a6.8,6.8,0,0,1-2.82-2.68,8.82,8.82,0,0,1,0-8.21,6.78,6.78,0,0,1,2.81-2.67,9.52,9.52,0,0,1,8.21,0,6.79,6.79,0,0,1,2.8,2.67,8.8,8.8,0,0,1,0,8.21,6.81,6.81,0,0,1-2.81,2.68,9.46,9.46,0,0,1-8.18,0Zm6.29-2.61a4,4,0,0,0,1.54-1.69,5.5,5.5,0,0,0,.55-2.51,5.41,5.41,0,0,0-.56-2.5,4.09,4.09,0,0,0-1.54-1.68,4.23,4.23,0,0,0-2.24-.59,4,4,0,0,0-3.7,2.28,5.47,5.47,0,0,0-.55,2.5,5.57,5.57,0,0,0,.54,2.51,4,4,0,0,0,1.51,1.69,4.12,4.12,0,0,0,2.2.59A4.29,4.29,0,0,0,645.67,1281Z"/><path class="cls-3" d="M659.4,1270.5a6,6,0,0,1,1.7-1,5.75,5.75,0,0,1,2-.36v3.31a7.14,7.14,0,0,0-2.6.4,2.91,2.91,0,0,0-1.53,1.33,5.22,5.22,0,0,0-.51,2.51v7.46h-3.68v-14.84h3.52v2.43A4.14,4.14,0,0,1,659.4,1270.5Z"/><path class="cls-3" d="M679.22,1277.45H668a4.8,4.8,0,0,0,.64,2.26,3.62,3.62,0,0,0,1.47,1.39,4.41,4.41,0,0,0,2,.46,3.92,3.92,0,0,0,2.12-.57,3.65,3.65,0,0,0,1.4-1.64l3.34.54a6.65,6.65,0,0,1-1.49,2.47,6.75,6.75,0,0,1-2.37,1.58,7.92,7.92,0,0,1-3,.55,8.67,8.67,0,0,1-4.08-.92,6.42,6.42,0,0,1-2.71-2.66,9.32,9.32,0,0,1,0-8.27,6.6,6.6,0,0,1,2.7-2.67,8.27,8.27,0,0,1,4-.92,8.14,8.14,0,0,1,3.73.82,5.92,5.92,0,0,1,2.54,2.5,8.66,8.66,0,0,1,.94,4.17Zm-9.74-4.93a4,4,0,0,0-1.33,2.48h7.5a3.34,3.34,0,0,0-3.56-3.31A4,4,0,0,0,669.48,1272.52Z"/><path class="cls-3" d="M683.76,1284.2a2.18,2.18,0,0,1-.8-.79,2.1,2.1,0,0,1-.29-1.08,2.07,2.07,0,0,1,.3-1.08,2.33,2.33,0,0,1,.8-.8,2,2,0,0,1,1.07-.3,2.07,2.07,0,0,1,1.08.3,2.31,2.31,0,0,1,.8.8,2.1,2.1,0,0,1,0,2.17,2.24,2.24,0,0,1-.8.79,2.14,2.14,0,0,1-2.16,0Z"/><rect class="cls-17" x="372.67" y="487.26" width="7" height="6"/><path class="cls-17" d="M379.67,623.35h-7v-13h7Zm0-26h-7v-13h7Zm0-26h-7v-13h7Zm0-26h-7v-13h7Zm0-26h-7v-13h7Z"/><rect class="cls-17" x="372.67" y="636.36" width="7" height="6"/><path class="cls-18" d="M644.06,608.08H510.73V546.14H621.58a8.68,8.68,0,0,1,7.75,4.77l22.48,44.57A8.68,8.68,0,0,1,644.06,608.08Z"/><path class="cls-17" d="M652,595.89c-.06-.13-.12-.27-.19-.4l-22.48-44.57a8.68,8.68,0,0,0-7.75-4.77H510.73v42.11H628.48Z"/><path class="cls-5" d="M510.14,613H655.81a2.36,2.36,0,0,1,2.36,2.36v.11a2.36,2.36,0,0,1-2.36,2.36H510.14a0,0,0,0,1,0,0V613a0,0,0,0,1,0,0Z"/><path class="cls-18" d="M528.47,577.11H510.73V556h17.74a3.4,3.4,0,0,1,3.39,3.39v14.35A3.4,3.4,0,0,1,528.47,577.11Z"/><path class="cls-18" d="M606.61,556h25.28l10.66,21.12H606.61a3.4,3.4,0,0,1-3.39-3.39V559.37A3.4,3.4,0,0,1,606.61,556Z"/><path class="cls-18" d="M572.32,577.11H542.79a4.78,4.78,0,0,1-4.78-4.78V560.76a4.78,4.78,0,0,1,4.78-4.78h29.53a4.61,4.61,0,0,1,4.6,4.6v11.93A4.61,4.61,0,0,1,572.32,577.11Z"/><path class="cls-5" d="M510.73,591.86H588a1.72,1.72,0,0,1,1.72,1.72V595a1.72,1.72,0,0,1-1.72,1.72H510.73a0,0,0,0,1,0,0v-4.82A0,0,0,0,1,510.73,591.86Z"/><path class="cls-18" d="M491.83,569.16a6.24,6.24,0,0,1-5.4-9.36l26.67-46.19a6.24,6.24,0,0,1,10.81,0l26.67,46.19a6.24,6.24,0,0,1-5.4,9.36Z"/><path class="cls-16" d="M518.5,513.48a3.19,3.19,0,0,1,2.81,1.62L548,561.3a3.25,3.25,0,0,1-2.81,4.87H491.83A3.25,3.25,0,0,1,489,561.3l26.67-46.19a3.19,3.19,0,0,1,2.81-1.62m0-6a9.15,9.15,0,0,0-8,4.62l-26.67,46.19a9.23,9.23,0,0,0,8,13.85h53.34a9.23,9.23,0,0,0,8-13.85l-26.67-46.19a9.15,9.15,0,0,0-8-4.62Z"/><rect class="cls-16" x="505.03" y="538.15" width="26.94" height="3.36" rx="1.59" ry="1.59" transform="translate(1058.32 21.33) rotate(90)"/><circle class="cls-16" cx="518.5" cy="558.37" r="2.46"/><g id="Page_Controls_-_Standard_Dark" data-name="Page Controls - Standard Dark"><g id="Page_Controls_Frame" data-name="Page Controls Frame" class="cls-19"><rect class="cls-3" x="0.7" y="1143.98" width="750" height="30"/></g><g id="Page_Controls_Group" data-name="Page Controls Group"><g id="Page_Controls_Frame-2" data-name="Page Controls Frame"><rect class="cls-7" x="0.7" y="1143.98" width="750" height="30"/></g><g id="Page_Control_-_Inactive" data-name="Page Control - Inactive" class="cls-20"><circle class="cls-12" cx="407" cy="1158.98" r="7"/></g><g id="Page_Control_-_Inactive-2" data-name="Page Control - Inactive" class="cls-20"><circle class="cls-12" cx="375" cy="1158.98" r="7"/></g><g id="Page_Control_-_Active" data-name="Page Control - Active"><circle class="cls-16" cx="343" cy="1158.98" r="7"/></g></g></g><g class="cls-11"><rect class="cls-12" x="1.37" y="1174.12" width="750" height="1"/></g></g></g></g></svg>