<svg xmlns="http://www.w3.org/2000/svg" viewBox="0 0 752.14 1334"><defs><style>.cls-1{isolation:isolate;}.cls-2{mix-blend-mode:screen;}.cls-3{fill:#fff;}.cls-4{opacity:0.2;}.cls-5{fill:#01b8af;}.cls-6{fill:#595a5c;}.cls-7{fill:#fdb82c;}.cls-8{fill:#ed3393;}.cls-9{fill:#e4eaec;}.cls-10{fill:none;}.cls-11{fill:#828183;}.cls-12{opacity:0.9;}.cls-13{fill:#f6f6f6;}.cls-14{opacity:0.3;}.cls-15{fill:#010101;}.cls-16{fill:#fbb729;}.cls-17{fill:#eb3591;}.cls-18{fill:#05b5ae;}.cls-19{opacity:0;}.cls-20{opacity:0.1;}</style></defs><title>weather_crowd</title><g class="cls-1"><g id="Layer_2" data-name="Layer 2"><g id="Layer_1-2" data-name="Layer 1"><g class="cls-2"><rect class="cls-3" x="0.77" width="750" height="1334"/></g><g class="cls-4"><line class="cls-3" x1="751.59" y1="546.28" x2="1.59" y2="547.31"/><rect class="cls-5" x="1.59" y="545.3" width="750" height="3" transform="translate(-0.71 0.49) rotate(-0.07)"/></g><g class="cls-4"><line class="cls-3" x1="751.87" y1="747.78" x2="1.87" y2="748.81"/><rect class="cls-5" x="1.87" y="746.8" width="750" height="3" transform="translate(-0.97 0.49) rotate(-0.07)"/></g><path class="cls-6" d="M625.78,403.14a17.06,17.06,0,0,0-24.06-8.55,26.71,26.71,0,0,0-50.61-5.5,18.86,18.86,0,0,0-20.3,11,13.35,13.35,0,1,0-2.27,26.51H622a12,12,0,0,0,3.79-23.44Z"/><rect class="cls-5" x="531.07" y="434.82" width="13.41" height="1.75" rx="0.87" ry="0.87" transform="translate(675.79 -242.53) rotate(62.49)"/><rect class="cls-5" x="531.07" y="434.82" width="13.41" height="1.75" rx="0.87" ry="0.87" transform="translate(675.79 -242.53) rotate(62.49)"/><rect class="cls-7" x="552.68" y="437.02" width="1.75" height="13.41" rx="0.87" ry="0.87" transform="translate(-142.37 305.88) rotate(-27.51)"/><rect class="cls-5" x="557.28" y="434.82" width="13.41" height="1.75" rx="0.87" ry="0.87" transform="translate(689.89 -265.77) rotate(62.49)"/><rect class="cls-5" x="573.06" y="442.85" width="13.41" height="1.75" rx="0.87" ry="0.87" transform="translate(705.51 -275.45) rotate(62.49)"/><rect class="cls-8" x="583.49" y="434.82" width="13.41" height="1.75" rx="0.87" ry="0.87" transform="translate(704 -289.02) rotate(62.49)"/><rect class="cls-7" x="605.1" y="437.02" width="1.75" height="13.41" rx="0.87" ry="0.87" transform="translate(-136.44 330.09) rotate(-27.51)"/><rect class="cls-5" x="609.69" y="434.82" width="13.41" height="1.75" rx="0.87" ry="0.87" transform="translate(718.1 -312.26) rotate(62.49)"/><rect class="cls-5" x="539.1" y="450.88" width="13.41" height="1.75" rx="0.87" ry="0.87" transform="translate(694.36 -241.01) rotate(62.49)"/><rect class="cls-8" x="539.1" y="450.88" width="13.41" height="1.75" rx="0.87" ry="0.87" transform="translate(694.36 -241.01) rotate(62.49)"/><rect class="cls-5" x="554.88" y="458.91" width="13.41" height="1.75" rx="0.87" ry="0.87" transform="translate(709.97 -250.68) rotate(62.49)"/><rect class="cls-8" x="565.31" y="450.88" width="13.41" height="1.75" rx="0.87" ry="0.87" transform="translate(708.46 -264.25) rotate(62.49)"/><rect class="cls-7" x="586.92" y="453.08" width="1.75" height="13.41" rx="0.87" ry="0.87" transform="translate(-145.92 323.51) rotate(-27.51)"/><rect class="cls-5" x="591.52" y="450.88" width="13.41" height="1.75" rx="0.87" ry="0.87" transform="translate(722.56 -287.5) rotate(62.49)"/><rect class="cls-5" x="607.3" y="458.91" width="13.41" height="1.75" rx="0.87" ry="0.87" transform="translate(738.17 -297.17) rotate(62.49)"/><rect class="cls-8" x="617.72" y="450.88" width="13.41" height="1.75" rx="0.87" ry="0.87" transform="translate(736.66 -310.74) rotate(62.49)"/><path class="cls-7" d="M505.8,408.69a4.39,4.39,0,0,1-3.8-6.59l18.76-32.5a4.39,4.39,0,0,1,7.6,0l18.76,32.5a4.39,4.39,0,0,1-3.8,6.59Z"/><path class="cls-6" d="M524.56,369.52a2.25,2.25,0,0,1,2,1.14l18.76,32.5a2.29,2.29,0,0,1-2,3.43H505.8a2.29,2.29,0,0,1-2-3.43l18.76-32.5a2.25,2.25,0,0,1,2-1.14m0-4.21a6.44,6.44,0,0,0-5.63,3.25l-18.76,32.5a6.5,6.5,0,0,0,5.63,9.74h37.53a6.5,6.5,0,0,0,5.63-9.74l-18.76-32.5a6.44,6.44,0,0,0-5.63-3.25Z"/><rect class="cls-6" x="515.08" y="386.87" width="18.96" height="2.36" rx="1.12" ry="1.12" transform="translate(912.62 -136.51) rotate(90)"/><circle class="cls-6" cx="524.56" cy="401.1" r="1.73"/><path class="cls-6" d="M625.78,983.23a17.06,17.06,0,0,0-24.06-8.55,26.71,26.71,0,0,0-50.61-5.5,18.86,18.86,0,0,0-20.3,11,13.35,13.35,0,1,0-2.27,26.51H622a12,12,0,0,0,3.79-23.44Z"/><rect class="cls-5" x="531.07" y="1014.92" width="13.41" height="1.75" rx="0.87" ry="0.87" transform="translate(1190.29 69.61) rotate(62.49)"/><rect class="cls-5" x="531.07" y="1014.92" width="13.41" height="1.75" rx="0.87" ry="0.87" transform="translate(1190.29 69.61) rotate(62.49)"/><rect class="cls-7" x="552.68" y="1017.11" width="1.75" height="13.41" rx="0.87" ry="0.87" transform="translate(-410.33 371.48) rotate(-27.51)"/><rect class="cls-5" x="557.28" y="1014.92" width="13.41" height="1.75" rx="0.87" ry="0.87" transform="translate(1204.39 46.36) rotate(62.49)"/><rect class="cls-5" x="573.06" y="1022.95" width="13.41" height="1.75" rx="0.87" ry="0.87" transform="translate(1220 36.69) rotate(62.49)"/><rect class="cls-8" x="583.49" y="1014.92" width="13.41" height="1.75" rx="0.87" ry="0.87" transform="translate(1218.49 23.12) rotate(62.49)"/><rect class="cls-7" x="605.1" y="1017.11" width="1.75" height="13.41" rx="0.87" ry="0.87" transform="translate(-404.4 395.69) rotate(-27.51)"/><rect class="cls-5" x="609.69" y="1014.92" width="13.41" height="1.75" rx="0.87" ry="0.87" transform="translate(1232.59 -0.13) rotate(62.49)"/><rect class="cls-5" x="539.1" y="1030.97" width="13.41" height="1.75" rx="0.87" ry="0.87" transform="translate(1208.85 71.13) rotate(62.49)"/><rect class="cls-8" x="539.1" y="1030.97" width="13.41" height="1.75" rx="0.87" ry="0.87" transform="translate(1208.85 71.13) rotate(62.49)"/><rect class="cls-5" x="554.88" y="1039" width="13.41" height="1.75" rx="0.87" ry="0.87" transform="translate(1224.46 61.45) rotate(62.49)"/><rect class="cls-8" x="565.31" y="1030.97" width="13.41" height="1.75" rx="0.87" ry="0.87" transform="translate(1222.95 47.88) rotate(62.49)"/><rect class="cls-7" x="586.92" y="1033.17" width="1.75" height="13.41" rx="0.87" ry="0.87" transform="translate(-413.88 389.11) rotate(-27.51)"/><rect class="cls-5" x="591.52" y="1030.97" width="13.41" height="1.75" rx="0.87" ry="0.87" transform="translate(1237.06 24.64) rotate(62.49)"/><rect class="cls-5" x="607.3" y="1039" width="13.41" height="1.75" rx="0.87" ry="0.87" transform="translate(1252.67 14.96) rotate(62.49)"/><rect class="cls-8" x="617.72" y="1030.97" width="13.41" height="1.75" rx="0.87" ry="0.87" transform="translate(1251.16 1.39) rotate(62.49)"/><path class="cls-7" d="M505.8,988.79a4.39,4.39,0,0,1-3.8-6.59l18.76-32.5a4.39,4.39,0,0,1,7.6,0l18.76,32.5a4.39,4.39,0,0,1-3.8,6.59Z"/><path class="cls-6" d="M524.56,949.61a2.25,2.25,0,0,1,2,1.14l18.76,32.5a2.29,2.29,0,0,1-2,3.43H505.8a2.29,2.29,0,0,1-2-3.43l18.76-32.5a2.25,2.25,0,0,1,2-1.14m0-4.21a6.44,6.44,0,0,0-5.63,3.25l-18.76,32.5a6.5,6.5,0,0,0,5.63,9.74h37.53a6.5,6.5,0,0,0,5.63-9.74l-18.76-32.5a6.44,6.44,0,0,0-5.63-3.25Z"/><rect class="cls-6" x="515.08" y="966.97" width="18.96" height="2.36" rx="1.12" ry="1.12" transform="translate(1492.71 443.58) rotate(90)"/><circle class="cls-6" cx="524.56" cy="981.2" r="1.73"/><g class="cls-4"><line class="cls-3" x1="751.73" y1="948.8" x2="1.73" y2="948.8"/><rect class="cls-5" x="1.73" y="947.29" width="750" height="3"/></g><rect class="cls-8" x="295.88" y="337.14" width="159.79" height="178.48" rx="30.49" ry="30.49" transform="matrix(0, 1, -1, 0, 802.15, 50.61)"/><path class="cls-8" d="M154.44,614.32H566.61a30.49,30.49,0,0,1,30.49,30.49v117.5a30.49,30.49,0,0,1-30.49,30.49H154.44a0,0,0,0,1,0,0V614.32A0,0,0,0,1,154.44,614.32Z" transform="translate(1079.33 327.79) rotate(90)"/><path class="cls-8" d="M284,902.7H437.08a30.49,30.49,0,0,1,30.49,30.49v117.5a30.49,30.49,0,0,1-30.49,30.49H284a0,0,0,0,1,0,0V902.7A0,0,0,0,1,284,902.7Z" transform="translate(1367.72 616.18) rotate(90)"/><rect class="cls-8" x="0.77" y="1174.62" width="750" height="159.38"/><rect class="cls-5" x="0.77" y="129.34" width="750" height="119.95"/><path class="cls-3" d="M161,179.77h-6.42V201.9h-4.34V179.77h-6.44v-3.89H161Z"/><path class="cls-3" d="M165.06,201.09a8.43,8.43,0,0,1-3.44-3.31,10.91,10.91,0,0,1,0-10.11,8.44,8.44,0,0,1,3.43-3.31,11.32,11.32,0,0,1,10,0,8.44,8.44,0,0,1,3.43,3.31,9.91,9.91,0,0,1,1.24,5,10,10,0,0,1-1.24,5.08A8.37,8.37,0,0,1,175,201.1a10.62,10.62,0,0,1-5,1.15A10.5,10.5,0,0,1,165.06,201.09Zm7.78-3a5.28,5.28,0,0,0,2-2.16,7.62,7.62,0,0,0,0-6.43,5.3,5.3,0,0,0-2-2.15,5.38,5.38,0,0,0-2.85-.77,5.2,5.2,0,0,0-2.8.77,5.29,5.29,0,0,0-1.93,2.15,7.71,7.71,0,0,0,0,6.43,5.27,5.27,0,0,0,1.93,2.16,5.18,5.18,0,0,0,2.8.77A5.36,5.36,0,0,0,172.84,198.09Z"/><path class="cls-3" d="M201.6,173.87v28h-4l-.11-2.92a5.91,5.91,0,0,1-2.46,2.45,7.5,7.5,0,0,1-3.66.89,8.38,8.38,0,0,1-7.54-4.53,11.46,11.46,0,0,1,0-10.08,8.39,8.39,0,0,1,7.54-4.52,7.59,7.59,0,0,1,3.59.85,5.89,5.89,0,0,1,2.45,2.33l0-12.5ZM195,198a5.32,5.32,0,0,0,2-2.14,6.67,6.67,0,0,0,.71-3.11,6.55,6.55,0,0,0-.72-3.1,5.42,5.42,0,0,0-2-2.14,5.12,5.12,0,0,0-2.74-.77,5.28,5.28,0,0,0-2.75.74,5.22,5.22,0,0,0-2,2.11,7.31,7.31,0,0,0,0,6.33,5.21,5.21,0,0,0,2,2.11,5.29,5.29,0,0,0,2.75.74A5.13,5.13,0,0,0,195,198Z"/><path class="cls-3" d="M209,201.73a4.46,4.46,0,0,1-2-1.64,4.92,4.92,0,0,1-.77-2.84,4.78,4.78,0,0,1,.91-3,5.79,5.79,0,0,1,2.43-1.79,19,19,0,0,1,3.69-1l2.77-.51a2.51,2.51,0,0,0,1.3-.58,1.45,1.45,0,0,0,.4-1.08,2.61,2.61,0,0,0-1-2.29,4.36,4.36,0,0,0-2.57-.72,4.3,4.3,0,0,0-2.65.78,3.39,3.39,0,0,0-1.24,2.45l-3.78-.69q.93-5.55,7.92-5.55a9,9,0,0,1,5.29,1.46q2.08,1.46,2.08,5v7.12a4.32,4.32,0,0,0,.16,1.35,1.15,1.15,0,0,0,.54.68,2.19,2.19,0,0,0,1,.2h.29v2.87h-2a4.62,4.62,0,0,1-2.49-.58,2.89,2.89,0,0,1-1.23-1.84h-.2a6,6,0,0,1-2.6,2.1,8.62,8.62,0,0,1-3.39.67A7.46,7.46,0,0,1,209,201.73Zm6.4-3.29a4.43,4.43,0,0,0,1.83-1.6,4.76,4.76,0,0,0,.73-2.71v-.89l-4.31.88a6.11,6.11,0,0,0-2.51.89,1.94,1.94,0,0,0-.83,1.66,2,2,0,0,0,.79,1.71,3.45,3.45,0,0,0,2.05.57A5.26,5.26,0,0,0,215.43,198.43Z"/><path class="cls-3" d="M243.5,183.54l-11,27h-4.29l3.94-9.23-7.35-17.76h4.62l4.76,13.14,4.95-13.14Z"/><path class="cls-3" d="M246.24,185.5l2.26-11.62h4.34l-3.58,11.63Z"/><path class="cls-3" d="M256,200.94a5.44,5.44,0,0,1-2.52-3.79l3.56-1a3.8,3.8,0,0,0,1.44,2.31,4.44,4.44,0,0,0,2.66.78,4.27,4.27,0,0,0,2.21-.54,2.06,2.06,0,0,0,.42-3,3.52,3.52,0,0,0-1.27-.83q-.77-.31-2.18-.71-.93-.25-1.7-.51a12.5,12.5,0,0,1-2.41-1,4.73,4.73,0,0,1-1.62-1.54,4.43,4.43,0,0,1-.64-2.47,4.84,4.84,0,0,1,.89-3,5.29,5.29,0,0,1,2.45-1.78,9.86,9.86,0,0,1,3.5-.58,8.57,8.57,0,0,1,4.64,1.19,5.18,5.18,0,0,1,2.34,3.63l-3.32.79a3.3,3.3,0,0,0-1.32-2,4.51,4.51,0,0,0-4.45-.14,1.72,1.72,0,0,0-.87,1.58,1.59,1.59,0,0,0,.49,1.21,3.45,3.45,0,0,0,1.23.73q.74.26,2.09.61l.67.18a19,19,0,0,1,3,1.06,5.47,5.47,0,0,1,2.11,1.72,4.81,4.81,0,0,1,.85,2.95,5.05,5.05,0,0,1-1,3.19,5.46,5.46,0,0,1-2.58,1.82,10.92,10.92,0,0,1-3.62.56A9.44,9.44,0,0,1,256,200.94Z"/><path class="cls-3" d="M286.82,201a8.51,8.51,0,0,1-3.38-3.36,10.74,10.74,0,0,1,0-10,8.53,8.53,0,0,1,3.38-3.35,10,10,0,0,1,4.9-1.19,10.23,10.23,0,0,1,4,.75,7.89,7.89,0,0,1,3,2.19,8.3,8.3,0,0,1,1.72,3.47l-3.91.51a4.9,4.9,0,0,0-1.8-2.63,5.07,5.07,0,0,0-3-.91,5,5,0,0,0-2.73.77,5.2,5.2,0,0,0-1.87,2.15,8,8,0,0,0,0,6.42,5.2,5.2,0,0,0,1.87,2.15,5,5,0,0,0,2.73.77,5.09,5.09,0,0,0,3-.9,4.85,4.85,0,0,0,1.8-2.62l3.91.49a8.27,8.27,0,0,1-1.73,3.46,8.07,8.07,0,0,1-3,2.21,10.68,10.68,0,0,1-8.84-.43Z"/><path class="cls-3" d="M307.8,201.09a8.43,8.43,0,0,1-3.44-3.31,10.91,10.91,0,0,1,0-10.11,8.44,8.44,0,0,1,3.43-3.31,11.32,11.32,0,0,1,10,0,8.44,8.44,0,0,1,3.43,3.31,9.91,9.91,0,0,1,1.24,5,10,10,0,0,1-1.24,5.08,8.37,8.37,0,0,1-3.44,3.31,10.62,10.62,0,0,1-5,1.15A10.5,10.5,0,0,1,307.8,201.09Zm7.78-3a5.28,5.28,0,0,0,2-2.16,7.62,7.62,0,0,0,0-6.43,5.3,5.3,0,0,0-2-2.15,5.38,5.38,0,0,0-2.85-.77,5.2,5.2,0,0,0-2.8.77,5.29,5.29,0,0,0-1.93,2.15,7.71,7.71,0,0,0,0,6.43,5.27,5.27,0,0,0,1.93,2.16,5.18,5.18,0,0,0,2.8.77A5.36,5.36,0,0,0,315.59,198.09Z"/><path class="cls-3" d="M350.42,183.87a4.93,4.93,0,0,1,2.16,2,6.19,6.19,0,0,1,.77,3.17V201.9h-4.22V190.2a3.61,3.61,0,0,0-.91-2.67,3.14,3.14,0,0,0-2.3-.9,3.44,3.44,0,0,0-2.64,1.09,4.78,4.78,0,0,0-1,3.35V201.9H338V190.29a3.74,3.74,0,0,0-.92-2.74,3.16,3.16,0,0,0-2.34-.93,3.42,3.42,0,0,0-2.65,1.12,5.07,5.07,0,0,0-1,3.49V201.9h-4.18V183.54h4.18v2.26a6,6,0,0,1,2.2-1.93,6.49,6.49,0,0,1,3-.68,7,7,0,0,1,3.29.74,4.86,4.86,0,0,1,2.12,2.13,5.94,5.94,0,0,1,2.31-2.13,6.89,6.89,0,0,1,3.2-.73A7.41,7.41,0,0,1,350.42,183.87Z"/><path class="cls-3" d="M382.5,183.87a4.93,4.93,0,0,1,2.16,2,6.19,6.19,0,0,1,.77,3.17V201.9h-4.22V190.2a3.61,3.61,0,0,0-.91-2.67,3.14,3.14,0,0,0-2.3-.9,3.44,3.44,0,0,0-2.64,1.09,4.78,4.78,0,0,0-1,3.35V201.9h-4.27V190.29a3.74,3.74,0,0,0-.92-2.74,3.16,3.16,0,0,0-2.34-.93,3.42,3.42,0,0,0-2.65,1.12,5.07,5.07,0,0,0-1,3.49V201.9H359V183.54h4.18v2.26a6,6,0,0,1,2.2-1.93,6.49,6.49,0,0,1,3-.68,7,7,0,0,1,3.29.74,4.86,4.86,0,0,1,2.12,2.13,5.94,5.94,0,0,1,2.31-2.13,6.89,6.89,0,0,1,3.2-.73A7.41,7.41,0,0,1,382.5,183.87Z"/><path class="cls-3" d="M407,183.54V201.9h-4l-.11-2.3a6.14,6.14,0,0,1-2.38,2,7.6,7.6,0,0,1-3.28.68,6.79,6.79,0,0,1-4.85-1.65,6.15,6.15,0,0,1-1.75-4.7V183.54h4.23V195a3.76,3.76,0,0,0,1,2.89,3.7,3.7,0,0,0,2.62.94,4.26,4.26,0,0,0,3.09-1.16,4.82,4.82,0,0,0,1.21-3.57V183.54Z"/><path class="cls-3" d="M415.47,200.5a5.39,5.39,0,0,1-1.39-4v-9.71h-3.67v-3.29h1.26a2.87,2.87,0,0,0,2.16-.7,3.55,3.55,0,0,0,.67-2.46v-2.85h3.83v6h4v3.29h-4v9.27A2.63,2.63,0,0,0,419,198a2.27,2.27,0,0,0,1.71.65h1.66v3.25h-3A5.19,5.19,0,0,1,415.47,200.5Z"/><path class="cls-3" d="M443.12,193.47h-14a6.21,6.21,0,0,0,.8,3,4.71,4.71,0,0,0,1.9,1.81,5.6,5.6,0,0,0,2.61.6,5,5,0,0,0,2.73-.75A4.72,4.72,0,0,0,439,196l3.83.66a8.06,8.06,0,0,1-3.18,4.12,9.11,9.11,0,0,1-5.17,1.48,10.45,10.45,0,0,1-5-1.13,8,8,0,0,1-3.32-3.29,11.56,11.56,0,0,1,0-10.22,8.15,8.15,0,0,1,3.31-3.29,10,10,0,0,1,4.84-1.14,9.77,9.77,0,0,1,4.56,1,7.35,7.35,0,0,1,3.1,3.09,10.56,10.56,0,0,1,1.13,5.12Zm-12-6.18a4.84,4.84,0,0,0-1.74,3H439a4.43,4.43,0,0,0-1.46-3,4.67,4.67,0,0,0-3.1-1A5.36,5.36,0,0,0,431.08,187.29Z"/><path class="cls-3" d="M461.83,201.09a8.43,8.43,0,0,1-3.44-3.31,10.91,10.91,0,0,1,0-10.11,8.44,8.44,0,0,1,3.43-3.31,11.32,11.32,0,0,1,10,0,8.44,8.44,0,0,1,3.43,3.31,9.91,9.91,0,0,1,1.24,5,10,10,0,0,1-1.24,5.08,8.37,8.37,0,0,1-3.44,3.31,10.62,10.62,0,0,1-5,1.15A10.5,10.5,0,0,1,461.83,201.09Zm7.78-3a5.28,5.28,0,0,0,2-2.16,7.62,7.62,0,0,0,0-6.43,5.3,5.3,0,0,0-2-2.15,5.38,5.38,0,0,0-2.85-.77,5.2,5.2,0,0,0-2.8.77,5.29,5.29,0,0,0-1.93,2.15,7.71,7.71,0,0,0,0,6.43,5.27,5.27,0,0,0,1.93,2.16,5.18,5.18,0,0,0,2.8.77A5.36,5.36,0,0,0,469.62,198.09Z"/><path class="cls-3" d="M496.33,183.54l-7.65,18.36h-3.63l-7.59-18.36h4.45l4.95,13.54,5-13.54Z"/><path class="cls-3" d="M515.44,193.47h-14a6.21,6.21,0,0,0,.8,3,4.71,4.71,0,0,0,1.9,1.81,5.6,5.6,0,0,0,2.61.6,5,5,0,0,0,2.73-.75,4.72,4.72,0,0,0,1.82-2.14l3.83.66a8.06,8.06,0,0,1-3.18,4.12,9.11,9.11,0,0,1-5.17,1.48,10.45,10.45,0,0,1-5-1.13,8,8,0,0,1-3.32-3.29,11.56,11.56,0,0,1,0-10.22,8.15,8.15,0,0,1,3.31-3.29,10,10,0,0,1,4.84-1.14,9.77,9.77,0,0,1,4.56,1,7.35,7.35,0,0,1,3.1,3.09,10.56,10.56,0,0,1,1.13,5.12Zm-12-6.18a4.84,4.84,0,0,0-1.74,3h9.62a4.43,4.43,0,0,0-1.46-3,4.67,4.67,0,0,0-3.1-1A5.36,5.36,0,0,0,503.4,187.29Z"/><path class="cls-3" d="M525.36,185a6.82,6.82,0,0,1,2.08-1.19,7.21,7.21,0,0,1,2.49-.44v3.83a6.47,6.47,0,0,0-4.33,1.23q-1.41,1.23-1.41,4.13v9.36H520V183.54H524v3.08A5.26,5.26,0,0,1,525.36,185Z"/><path class="cls-3" d="M549.95,183.54,542.3,201.9h-3.63l-7.59-18.36h4.45l4.95,13.54,5-13.54Z"/><path class="cls-3" d="M554.06,179.69a2.54,2.54,0,0,1-.95-.94,2.56,2.56,0,0,1,0-2.57,2.6,2.6,0,0,1,2.24-1.29,2.48,2.48,0,0,1,1.27.35,2.66,2.66,0,0,1,.95.94,2.5,2.5,0,0,1,0,2.57,2.64,2.64,0,0,1-.95.94,2.46,2.46,0,0,1-1.27.35A2.55,2.55,0,0,1,554.06,179.69Zm-.86,3.85h4.22V201.9H553.2Z"/><path class="cls-3" d="M580,193.47H566a6.21,6.21,0,0,0,.8,3,4.71,4.71,0,0,0,1.9,1.81,5.6,5.6,0,0,0,2.61.6,5,5,0,0,0,2.73-.75,4.72,4.72,0,0,0,1.82-2.14l3.83.66a8.06,8.06,0,0,1-3.18,4.12,9.11,9.11,0,0,1-5.17,1.48,10.45,10.45,0,0,1-5-1.13,8,8,0,0,1-3.32-3.29,11.56,11.56,0,0,1,0-10.22,8.15,8.15,0,0,1,3.31-3.29,10,10,0,0,1,4.84-1.14,9.77,9.77,0,0,1,4.56,1,7.35,7.35,0,0,1,3.1,3.09,10.56,10.56,0,0,1,1.13,5.12Zm-12-6.18a4.84,4.84,0,0,0-1.74,3h9.62a4.43,4.43,0,0,0-1.46-3,4.67,4.67,0,0,0-3.1-1A5.36,5.36,0,0,0,567.93,187.29Z"/><path class="cls-3" d="M610.89,183.54l-6.39,18.38h-3.85L596,188.8l-4.62,13.12h-3.91l-6.26-18.38h4.34l4.16,13,4.64-13h3.25l4.64,13,4.23-13Z"/><path class="cls-3" d="M247.07,75.2a12,12,0,0,1-4.49-.81,10.34,10.34,0,0,1-3.48-2.25,10.15,10.15,0,0,1-2.26-3.42,11.3,11.3,0,0,1-.81-4.32v-.06a10.73,10.73,0,0,1,6.6-10,11.14,11.14,0,0,1,4.41-.86,15.49,15.49,0,0,1,2.57.2,12.27,12.27,0,0,1,2.14.55,10,10,0,0,1,1.86.9,14,14,0,0,1,1.68,1.23l-2.91,3.51a12,12,0,0,0-1.2-.9,7.93,7.93,0,0,0-1.25-.66,7.41,7.41,0,0,0-1.4-.42,8.46,8.46,0,0,0-1.65-.15,5.37,5.37,0,0,0-2.36.53,6.34,6.34,0,0,0-1.92,1.41,6.51,6.51,0,0,0-1.29,2.07,6.9,6.9,0,0,0-.46,2.54v.06a7.39,7.39,0,0,0,.46,2.66,6.31,6.31,0,0,0,1.32,2.12,6,6,0,0,0,2,1.4,6.43,6.43,0,0,0,2.57.5,7.27,7.27,0,0,0,4.35-1.27v-3h-4.65v-4H256v9.12a15.38,15.38,0,0,1-3.85,2.35A12.68,12.68,0,0,1,247.07,75.2Z"/><path class="cls-3" d="M273,75.16a9.2,9.2,0,0,1-6.66-2.34q-2.43-2.34-2.43-7v-12h4.62V65.71a5.56,5.56,0,0,0,1.2,3.88,4.3,4.3,0,0,0,3.33,1.31,4.38,4.38,0,0,0,3.33-1.26,5.29,5.29,0,0,0,1.2-3.78v-12h4.62V65.68a12.18,12.18,0,0,1-.65,4.17,7.85,7.85,0,0,1-1.84,3,7.53,7.53,0,0,1-2.91,1.77A11.73,11.73,0,0,1,273,75.16Z"/><path class="cls-3" d="M290.87,53.83h4.62v21h-4.62Z"/><path class="cls-3" d="M327.44,75.2a11.44,11.44,0,0,1-4.47-.86A11.13,11.13,0,0,1,319.44,72a10.34,10.34,0,0,1-2.31-3.42,10.77,10.77,0,0,1-.83-4.22v-.06a10.61,10.61,0,0,1,.84-4.21A10.74,10.74,0,0,1,323,54.33a12.15,12.15,0,0,1,9,0,11.14,11.14,0,0,1,3.53,2.31,10.35,10.35,0,0,1,2.31,3.42,10.79,10.79,0,0,1,.83,4.22v.06a10.61,10.61,0,0,1-.84,4.21,10.74,10.74,0,0,1-5.87,5.79A11.56,11.56,0,0,1,327.44,75.2Zm.06-4.26a6.3,6.3,0,0,0,2.55-.51A5.82,5.82,0,0,0,332,69a6.64,6.64,0,0,0,1.29-2.08,6.89,6.89,0,0,0,.46-2.54v-.06a7,7,0,0,0-.46-2.55A6.29,6.29,0,0,0,330,58.26a6.16,6.16,0,0,0-2.55-.52,6.28,6.28,0,0,0-2.56.51,5.85,5.85,0,0,0-2,1.41,6.65,6.65,0,0,0-1.29,2.08,6.87,6.87,0,0,0-.46,2.54v.06a7,7,0,0,0,.46,2.55,6.33,6.33,0,0,0,3.33,3.53A6.13,6.13,0,0,0,327.5,70.93Z"/><path class="cls-3" d="M344.69,53.83h5.1l5.49,14.79,5.49-14.79h5L357.26,75h-4.08Z"/><path class="cls-3" d="M372.74,53.83h15.81v4.11H377.3V62.2h9.9v4.11h-9.9v4.41h11.4v4.11h-16Z"/><path class="cls-3" d="M396.59,53.83h9.6A8.29,8.29,0,0,1,412.31,56a6.49,6.49,0,0,1,1.8,4.8v.06A6.58,6.58,0,0,1,412.86,65a7.21,7.21,0,0,1-3.25,2.36l5.13,7.5h-5.4l-4.5-6.72h-3.63v6.72h-4.62Zm9.3,10.2a3.84,3.84,0,0,0,2.63-.81,2.74,2.74,0,0,0,.92-2.16V61a2.68,2.68,0,0,0-1-2.25A4.24,4.24,0,0,0,405.8,58h-4.59v6Z"/><path class="cls-3" d="M420.23,53.83h5.1l5.49,14.79,5.49-14.79h5L432.8,75h-4.08Z"/><path class="cls-3" d="M448.49,53.83h4.62v21h-4.62Z"/><path class="cls-3" d="M462.11,53.83h15.81v4.11H466.67V62.2h9.9v4.11h-9.9v4.41h11.4v4.11h-16Z"/><path class="cls-3" d="M484.34,53.83h4.95l4.35,14.22,4.71-14.28h4L507,68.05l4.35-14.22h4.83L509,75h-4l-4.74-13.74L495.53,75h-4Z"/><path class="cls-3" d="M70.41,1229.32v10H66.59v-10l-6.93-11H63.9l4.59,7.6,4.6-7.6h4.22Z"/><path class="cls-3" d="M79,1238.72A6.8,6.8,0,0,1,76.2,1236a8.8,8.8,0,0,1,0-8.21,6.78,6.78,0,0,1,2.81-2.67,9.52,9.52,0,0,1,8.21,0,6.79,6.79,0,0,1,2.8,2.67,8.82,8.82,0,0,1,0,8.21,6.83,6.83,0,0,1-2.81,2.68,9.47,9.47,0,0,1-8.18,0Zm6.29-2.61a4,4,0,0,0,1.54-1.69,5.5,5.5,0,0,0,.55-2.51,5.41,5.41,0,0,0-.56-2.5,4.09,4.09,0,0,0-1.54-1.68,4.24,4.24,0,0,0-2.24-.59,4,4,0,0,0-3.7,2.28,5.47,5.47,0,0,0-.55,2.5,5.57,5.57,0,0,0,.54,2.51,4,4,0,0,0,1.51,1.69,4.12,4.12,0,0,0,2.2.59A4.3,4.3,0,0,0,85.31,1236.11Z"/><path class="cls-3" d="M107.73,1224.51v14.84h-3.47l-.1-1.83a4.88,4.88,0,0,1-1.94,1.58,6.37,6.37,0,0,1-2.69.55,5.55,5.55,0,0,1-4-1.34,5,5,0,0,1-1.41-3.8v-10H97.8v9.2a2.87,2.87,0,0,0,.8,2.23,2.94,2.94,0,0,0,2.06.73,3.4,3.4,0,0,0,2.45-.91,3.81,3.81,0,0,0,1-2.84v-8.41Z"/><path class="cls-3" d="M117,1225.65a6,6,0,0,1,1.7-1,5.74,5.74,0,0,1,2-.36v3.31a7.14,7.14,0,0,0-2.6.4,2.91,2.91,0,0,0-1.53,1.33,5.22,5.22,0,0,0-.51,2.51v7.46h-3.68v-14.84h3.52v2.43A4.15,4.15,0,0,1,117,1225.65Z"/><path class="cls-3" d="M134.63,1238.66a7,7,0,0,1-2.77-2.72,8.64,8.64,0,0,1,0-8.06,6.91,6.91,0,0,1,2.77-2.71,8.29,8.29,0,0,1,4-1,8.41,8.41,0,0,1,3.27.62,6.35,6.35,0,0,1,2.47,1.81,6.72,6.72,0,0,1,1.38,2.85l-3.38.41a3.71,3.71,0,0,0-1.38-2.07,4,4,0,0,0-2.39-.7,3.88,3.88,0,0,0-2.12.59,4,4,0,0,0-1.46,1.68,6.3,6.3,0,0,0,0,5,4,4,0,0,0,1.46,1.68,3.88,3.88,0,0,0,2.12.59,4,4,0,0,0,2.38-.7,3.7,3.7,0,0,0,1.38-2.07l3.38.41a6.64,6.64,0,0,1-1.39,2.86,6.54,6.54,0,0,1-2.48,1.82,8.8,8.8,0,0,1-7.26-.34Z"/><path class="cls-3" d="M162.31,1224.51v14.84h-3.47l-.1-1.83a4.88,4.88,0,0,1-1.94,1.58,6.37,6.37,0,0,1-2.69.55,5.55,5.55,0,0,1-4-1.34,5,5,0,0,1-1.41-3.8v-10h3.66v9.2a2.87,2.87,0,0,0,.8,2.23,2.94,2.94,0,0,0,2.06.73,3.4,3.4,0,0,0,2.45-.91,3.81,3.81,0,0,0,1-2.84v-8.41Z"/><path class="cls-3" d="M171.56,1225.65a6,6,0,0,1,1.7-1,5.74,5.74,0,0,1,2-.36v3.31a7.14,7.14,0,0,0-2.6.4,2.91,2.91,0,0,0-1.53,1.33,5.22,5.22,0,0,0-.51,2.51v7.46h-3.68v-14.84h3.52v2.43A4.15,4.15,0,0,1,171.56,1225.65Z"/><path class="cls-3" d="M182.51,1225.65a6,6,0,0,1,1.7-1,5.74,5.74,0,0,1,2-.36v3.31a7.14,7.14,0,0,0-2.6.4,2.91,2.91,0,0,0-1.53,1.33,5.22,5.22,0,0,0-.51,2.51v7.46H177.9v-14.84h3.52v2.43A4.15,4.15,0,0,1,182.51,1225.65Z"/><path class="cls-3" d="M202.33,1232.6H191.14a4.82,4.82,0,0,0,.64,2.26,3.64,3.64,0,0,0,1.47,1.39,4.41,4.41,0,0,0,2,.46,3.92,3.92,0,0,0,2.12-.57,3.65,3.65,0,0,0,1.4-1.64l3.34.54a6.65,6.65,0,0,1-1.49,2.47,6.75,6.75,0,0,1-2.37,1.58,7.92,7.92,0,0,1-3,.55,8.67,8.67,0,0,1-4.08-.92,6.43,6.43,0,0,1-2.71-2.66,9.33,9.33,0,0,1,0-8.27,6.61,6.61,0,0,1,2.7-2.67,8.27,8.27,0,0,1,4-.92,8.14,8.14,0,0,1,3.73.82,5.92,5.92,0,0,1,2.54,2.5,8.66,8.66,0,0,1,.94,4.17Zm-9.74-4.93a4,4,0,0,0-1.33,2.48h7.5a3.34,3.34,0,0,0-3.56-3.31A4,4,0,0,0,192.59,1227.67Z"/><path class="cls-3" d="M218,1225.56a5,5,0,0,1,1.42,3.8v10h-3.66v-9.2a2.87,2.87,0,0,0-.8-2.24,2.94,2.94,0,0,0-2-.72,3.42,3.42,0,0,0-2.45.91,3.79,3.79,0,0,0-1,2.84v8.41h-3.66v-14.84h3.66v1.71a5,5,0,0,1,1.93-1.49,6.35,6.35,0,0,1,2.62-.52A5.56,5.56,0,0,1,218,1225.56Z"/><path class="cls-3" d="M225.86,1238.19a4.48,4.48,0,0,1-1.14-3.27v-7.57h-2.94v-2.83h1a2.35,2.35,0,0,0,1.77-.59,3,3,0,0,0,.56-2.07v-2.18h3.33v4.83h3.16v2.83h-3.16v7.18a2.11,2.11,0,0,0,.48,1.52,1.77,1.77,0,0,0,1.35.51h1.33v2.81h-2.52A4.3,4.3,0,0,1,225.86,1238.19Z"/><path class="cls-3" d="M246.29,1238.66a7,7,0,0,1-2.77-2.72,8.64,8.64,0,0,1,0-8.06,6.92,6.92,0,0,1,2.77-2.71,8.29,8.29,0,0,1,4-1,8.41,8.41,0,0,1,3.27.62,6.35,6.35,0,0,1,2.47,1.81,6.72,6.72,0,0,1,1.38,2.85l-3.38.41a3.71,3.71,0,0,0-1.38-2.07,4,4,0,0,0-2.39-.7,3.88,3.88,0,0,0-2.12.59,3.94,3.94,0,0,0-1.46,1.68,6.3,6.3,0,0,0,0,5,3.94,3.94,0,0,0,1.46,1.68,3.88,3.88,0,0,0,2.13.59,4,4,0,0,0,2.38-.7,3.7,3.7,0,0,0,1.38-2.07l3.38.41a6.64,6.64,0,0,1-1.39,2.86,6.53,6.53,0,0,1-2.48,1.82,8.8,8.8,0,0,1-7.26-.34Z"/><path class="cls-3" d="M263.3,1238.72a6.8,6.8,0,0,1-2.82-2.68,8.8,8.8,0,0,1,0-8.21,6.78,6.78,0,0,1,2.81-2.67,9.52,9.52,0,0,1,8.21,0,6.79,6.79,0,0,1,2.8,2.67,8.82,8.82,0,0,1,0,8.21,6.83,6.83,0,0,1-2.81,2.68,9.47,9.47,0,0,1-8.18,0Zm6.29-2.61a4,4,0,0,0,1.54-1.69,5.5,5.5,0,0,0,.55-2.51,5.41,5.41,0,0,0-.56-2.5,4.09,4.09,0,0,0-1.54-1.68,4.24,4.24,0,0,0-2.24-.59,4,4,0,0,0-3.7,2.28,5.47,5.47,0,0,0-.55,2.5,5.57,5.57,0,0,0,.54,2.51,4,4,0,0,0,1.51,1.69,4.12,4.12,0,0,0,2.2.59A4.3,4.3,0,0,0,269.59,1236.11Z"/><path class="cls-3" d="M298.19,1224.76a4,4,0,0,1,1.77,1.6,5,5,0,0,1,.63,2.57v10.42h-3.66v-9.4a2.76,2.76,0,0,0-.71-2.06,2.46,2.46,0,0,0-1.79-.7,2.77,2.77,0,0,0-2.1.86,3.78,3.78,0,0,0-.81,2.67v8.63h-3.71V1230a2.88,2.88,0,0,0-.71-2.12,2.49,2.49,0,0,0-1.84-.71,2.71,2.71,0,0,0-2.09.89,4.06,4.06,0,0,0-.81,2.8v8.47h-3.65v-14.84h3.65v1.79a4.8,4.8,0,0,1,1.79-1.55,5.4,5.4,0,0,1,2.43-.53,5.86,5.86,0,0,1,2.71.59,3.85,3.85,0,0,1,1.71,1.7,4.88,4.88,0,0,1,1.9-1.71,5.74,5.74,0,0,1,2.62-.58A6.19,6.19,0,0,1,298.19,1224.76Z"/><path class="cls-3" d="M324.44,1224.76a4,4,0,0,1,1.77,1.6,5,5,0,0,1,.63,2.57v10.42h-3.66v-9.4a2.76,2.76,0,0,0-.71-2.06,2.46,2.46,0,0,0-1.79-.7,2.77,2.77,0,0,0-2.1.86,3.78,3.78,0,0,0-.81,2.67v8.63h-3.71V1230a2.88,2.88,0,0,0-.71-2.12,2.49,2.49,0,0,0-1.84-.71,2.71,2.71,0,0,0-2.09.89,4.06,4.06,0,0,0-.81,2.8v8.47H305v-14.84h3.65v1.79a4.8,4.8,0,0,1,1.79-1.55,5.4,5.4,0,0,1,2.43-.53,5.86,5.86,0,0,1,2.71.59,3.85,3.85,0,0,1,1.71,1.7,4.88,4.88,0,0,1,1.9-1.71,5.74,5.74,0,0,1,2.62-.58A6.19,6.19,0,0,1,324.44,1224.76Z"/><path class="cls-3" d="M344.51,1224.51v14.84H341l-.1-1.83a4.88,4.88,0,0,1-1.94,1.58,6.37,6.37,0,0,1-2.69.55,5.55,5.55,0,0,1-4-1.34,5,5,0,0,1-1.41-3.8v-10h3.66v9.2a2.87,2.87,0,0,0,.8,2.23,2.94,2.94,0,0,0,2.06.73,3.4,3.4,0,0,0,2.45-.91,3.81,3.81,0,0,0,1-2.84v-8.41Z"/><path class="cls-3" d="M351.2,1238.19a4.48,4.48,0,0,1-1.14-3.27v-7.57h-2.95v-2.83h1a2.35,2.35,0,0,0,1.77-.59,3,3,0,0,0,.56-2.07v-2.18h3.32v4.83h3.16v2.83h-3.16v7.18a2.11,2.11,0,0,0,.48,1.52,1.77,1.77,0,0,0,1.35.51h1.33v2.81h-2.52A4.29,4.29,0,0,1,351.2,1238.19Z"/><path class="cls-3" d="M373.84,1232.6H362.64a4.82,4.82,0,0,0,.64,2.26,3.64,3.64,0,0,0,1.47,1.39,4.41,4.41,0,0,0,2,.46,3.92,3.92,0,0,0,2.12-.57,3.65,3.65,0,0,0,1.4-1.64l3.34.54a6.65,6.65,0,0,1-1.49,2.47,6.75,6.75,0,0,1-2.37,1.58,7.92,7.92,0,0,1-3,.55,8.67,8.67,0,0,1-4.08-.92,6.43,6.43,0,0,1-2.71-2.66,9.33,9.33,0,0,1,0-8.27,6.61,6.61,0,0,1,2.7-2.67,8.27,8.27,0,0,1,4-.92,8.14,8.14,0,0,1,3.73.82,5.92,5.92,0,0,1,2.54,2.5,8.66,8.66,0,0,1,.94,4.17Zm-9.74-4.93a4,4,0,0,0-1.33,2.48h7.5a3.34,3.34,0,0,0-3.56-3.31A4,4,0,0,0,364.1,1227.67Z"/><path class="cls-3" d="M398.35,1225.62a5.56,5.56,0,0,1,1.38,4.08v9.65h-3.66v-9a3.15,3.15,0,0,0-.79-2.39,2.91,2.91,0,0,0-2.08-.75,3.43,3.43,0,0,0-2.41.89,3.75,3.75,0,0,0-1,2.86v8.41h-3.66v-22.5h3.66v9.49a5.21,5.21,0,0,1,2-1.57,6.43,6.43,0,0,1,2.72-.56A5.16,5.16,0,0,1,398.35,1225.62Z"/><path class="cls-3" d="M416.16,1239v.4h-3.47l-.35-1.67a4.91,4.91,0,0,1-2.09,1.47,7.42,7.42,0,0,1-2.67.49,6,6,0,0,1-2.29-.42,3.61,3.61,0,0,1-1.66-1.34,4.1,4.1,0,0,1-.63-2.36,4,4,0,0,1,.67-2.4,4.43,4.43,0,0,1,1.83-1.46,14.25,14.25,0,0,1,2.91-.89l2.48-.51a2.33,2.33,0,0,0,1.07-.45,1,1,0,0,0,.32-.79,1.86,1.86,0,0,0-.79-1.68,4,4,0,0,0-4,.06,2.6,2.6,0,0,0-1,1.82l-3.25-.62a4.87,4.87,0,0,1,2.07-3.29,8,8,0,0,1,4.45-1.08,7.51,7.51,0,0,1,4.34,1.17q1.71,1.17,1.71,4.12v5.67A13.71,13.71,0,0,0,416.16,1239Zm-3.71-6.65-3.4.78a5,5,0,0,0-1.93.74,1.8,1.8,0,0,0,0,2.7,2.62,2.62,0,0,0,1.58.44,4.38,4.38,0,0,0,1.76-.37,3.3,3.3,0,0,0,2-3.2Z"/><path class="cls-3" d="M421,1238.59a4.44,4.44,0,0,1-2.07-3.08l3.09-.88a3,3,0,0,0,1.13,1.81,3.47,3.47,0,0,0,2.07.59,3.32,3.32,0,0,0,1.7-.4,1.4,1.4,0,0,0,.69-1.31,1.38,1.38,0,0,0-.39-1,2.74,2.74,0,0,0-1-.63q-.62-.23-1.73-.56-.94-.26-1.49-.45a10,10,0,0,1-1.89-.83,3.51,3.51,0,0,1-1.79-3.24,4,4,0,0,1,.73-2.43,4.32,4.32,0,0,1,2-1.46,8.2,8.2,0,0,1,2.88-.48,7.08,7.08,0,0,1,3.81,1,4.23,4.23,0,0,1,1.92,3l-2.86.66a2.63,2.63,0,0,0-1-1.58,3.2,3.2,0,0,0-1.82-.5,3.11,3.11,0,0,0-1.63.4,1.28,1.28,0,0,0-.66,1.17,1.19,1.19,0,0,0,.39.92,2.74,2.74,0,0,0,1,.56c.39.14.95.29,1.65.47l.6.16a13.86,13.86,0,0,1,2.45.87,4.49,4.49,0,0,1,1.7,1.42,4,4,0,0,1,.68,2.4,4.11,4.11,0,0,1-.8,2.61,4.49,4.49,0,0,1-2.13,1.49,9.07,9.07,0,0,1-3,.46A7.81,7.81,0,0,1,421,1238.59Z"/><path class="cls-3" d="M444.09,1238.59a4.43,4.43,0,0,1-2.06-3.08l3.09-.88a3,3,0,0,0,1.13,1.81,3.47,3.47,0,0,0,2.06.59,3.32,3.32,0,0,0,1.7-.4,1.4,1.4,0,0,0,.69-1.31,1.39,1.39,0,0,0-.39-1,2.77,2.77,0,0,0-1-.63q-.62-.23-1.73-.56-.94-.26-1.49-.45a10,10,0,0,1-1.89-.83,3.51,3.51,0,0,1-1.79-3.24,4,4,0,0,1,.73-2.43,4.31,4.31,0,0,1,2-1.46,8.21,8.21,0,0,1,2.89-.48,7.08,7.08,0,0,1,3.81,1,4.23,4.23,0,0,1,1.92,3l-2.86.66a2.63,2.63,0,0,0-1-1.58,3.2,3.2,0,0,0-1.82-.5,3.11,3.11,0,0,0-1.62.4,1.28,1.28,0,0,0-.66,1.17,1.19,1.19,0,0,0,.39.92,2.72,2.72,0,0,0,1,.56q.59.21,1.65.47l.6.16a13.92,13.92,0,0,1,2.45.87,4.51,4.51,0,0,1,1.7,1.42,4,4,0,0,1,.68,2.4,4.12,4.12,0,0,1-.8,2.61,4.5,4.5,0,0,1-2.13,1.49,9.08,9.08,0,0,1-3,.46A7.81,7.81,0,0,1,444.09,1238.59Z"/><path class="cls-3" d="M471.16,1232.6H460a4.82,4.82,0,0,0,.64,2.26,3.64,3.64,0,0,0,1.47,1.39,4.41,4.41,0,0,0,2,.46,3.92,3.92,0,0,0,2.12-.57,3.65,3.65,0,0,0,1.4-1.64l3.34.54a6.65,6.65,0,0,1-1.49,2.47,6.75,6.75,0,0,1-2.37,1.58,7.92,7.92,0,0,1-3,.55,8.67,8.67,0,0,1-4.08-.92,6.43,6.43,0,0,1-2.71-2.66,9.33,9.33,0,0,1,0-8.27,6.61,6.61,0,0,1,2.7-2.67,8.27,8.27,0,0,1,4-.92,8.14,8.14,0,0,1,3.73.82,5.92,5.92,0,0,1,2.54,2.5,8.66,8.66,0,0,1,.94,4.17Zm-9.74-4.93a4,4,0,0,0-1.33,2.48h7.5a3.34,3.34,0,0,0-3.56-3.31A4,4,0,0,0,461.42,1227.67Z"/><path class="cls-3" d="M487.48,1224.51l-6.22,14.84h-3.16l-6.17-14.84h3.85l3.91,10.68,3.93-10.68Z"/><path class="cls-3" d="M502.95,1232.6H491.76a4.82,4.82,0,0,0,.64,2.26,3.64,3.64,0,0,0,1.47,1.39,4.41,4.41,0,0,0,2,.46,3.92,3.92,0,0,0,2.12-.57,3.65,3.65,0,0,0,1.4-1.64l3.34.54a6.65,6.65,0,0,1-1.49,2.47,6.75,6.75,0,0,1-2.37,1.58,7.92,7.92,0,0,1-3,.55,8.67,8.67,0,0,1-4.08-.92,6.43,6.43,0,0,1-2.71-2.66,9.33,9.33,0,0,1,0-8.27,6.61,6.61,0,0,1,2.7-2.67,8.27,8.27,0,0,1,4-.92,8.14,8.14,0,0,1,3.73.82,5.92,5.92,0,0,1,2.54,2.5,8.66,8.66,0,0,1,.94,4.17Zm-9.74-4.93a4,4,0,0,0-1.33,2.48h7.5a3.34,3.34,0,0,0-3.56-3.31A4,4,0,0,0,493.21,1227.67Z"/><path class="cls-3" d="M511.08,1225.65a6,6,0,0,1,1.7-1,5.74,5.74,0,0,1,2-.36v3.31a7.14,7.14,0,0,0-2.6.4,2.91,2.91,0,0,0-1.53,1.33,5.22,5.22,0,0,0-.51,2.51v7.46h-3.68v-14.84H510v2.43A4.15,4.15,0,0,1,511.08,1225.65Z"/><path class="cls-3" d="M530.9,1232.6H519.7a4.82,4.82,0,0,0,.64,2.26,3.64,3.64,0,0,0,1.47,1.39,4.41,4.41,0,0,0,2,.46,3.92,3.92,0,0,0,2.12-.57,3.65,3.65,0,0,0,1.4-1.64l3.34.54a6.65,6.65,0,0,1-1.49,2.47,6.75,6.75,0,0,1-2.37,1.58,7.92,7.92,0,0,1-3,.55,8.67,8.67,0,0,1-4.08-.92,6.43,6.43,0,0,1-2.71-2.66,9.33,9.33,0,0,1,0-8.27,6.61,6.61,0,0,1,2.7-2.67,8.27,8.27,0,0,1,4-.92,8.14,8.14,0,0,1,3.73.82,5.92,5.92,0,0,1,2.54,2.5,8.66,8.66,0,0,1,.94,4.17Zm-9.74-4.93a4,4,0,0,0-1.33,2.48h7.5a3.34,3.34,0,0,0-3.56-3.31A4,4,0,0,0,521.16,1227.67Z"/><path class="cls-3" d="M555.29,1239v.4h-3.47l-.35-1.67a4.91,4.91,0,0,1-2.09,1.47,7.42,7.42,0,0,1-2.67.49,6,6,0,0,1-2.29-.42,3.61,3.61,0,0,1-1.66-1.34,4.1,4.1,0,0,1-.63-2.36,4,4,0,0,1,.67-2.4,4.43,4.43,0,0,1,1.83-1.46,14.25,14.25,0,0,1,2.91-.89l2.48-.51a2.33,2.33,0,0,0,1.07-.45,1,1,0,0,0,.32-.79,1.86,1.86,0,0,0-.79-1.68,4,4,0,0,0-4,.06,2.6,2.6,0,0,0-1,1.82l-3.25-.62a4.87,4.87,0,0,1,2.07-3.29,8,8,0,0,1,4.45-1.08,7.51,7.51,0,0,1,4.34,1.17q1.71,1.17,1.71,4.12v5.67A13.71,13.71,0,0,0,555.29,1239Zm-3.71-6.65-3.4.78a5,5,0,0,0-1.93.74,1.8,1.8,0,0,0,0,2.7,2.62,2.62,0,0,0,1.58.44,4.38,4.38,0,0,0,1.76-.37,3.3,3.3,0,0,0,2-3.2Z"/><path class="cls-3" d="M571.46,1225.56a5,5,0,0,1,1.42,3.8v10h-3.66v-9.2a2.87,2.87,0,0,0-.8-2.24,2.94,2.94,0,0,0-2-.72,3.42,3.42,0,0,0-2.45.91,3.79,3.79,0,0,0-1,2.84v8.41h-3.66v-14.84h3.66v1.71a5,5,0,0,1,1.93-1.49,6.35,6.35,0,0,1,2.62-.52A5.56,5.56,0,0,1,571.46,1225.56Z"/><path class="cls-3" d="M579.85,1238.72A6.8,6.8,0,0,1,577,1236a8.8,8.8,0,0,1,0-8.21,6.78,6.78,0,0,1,2.81-2.67,9.52,9.52,0,0,1,8.21,0,6.79,6.79,0,0,1,2.8,2.67,8.82,8.82,0,0,1,0,8.21,6.83,6.83,0,0,1-2.81,2.68,9.47,9.47,0,0,1-8.18,0Zm6.29-2.61a4,4,0,0,0,1.54-1.69,5.5,5.5,0,0,0,.55-2.51,5.41,5.41,0,0,0-.56-2.5,4.09,4.09,0,0,0-1.54-1.68,4.24,4.24,0,0,0-2.24-.59,4,4,0,0,0-3.7,2.28,5.47,5.47,0,0,0-.55,2.5,5.57,5.57,0,0,0,.54,2.51,4,4,0,0,0,1.51,1.69,4.12,4.12,0,0,0,2.2.59A4.3,4.3,0,0,0,586.14,1236.11Z"/><path class="cls-3" d="M614.74,1224.76a4,4,0,0,1,1.77,1.6,5,5,0,0,1,.63,2.57v10.42h-3.66v-9.4a2.76,2.76,0,0,0-.71-2.06,2.46,2.46,0,0,0-1.79-.7,2.77,2.77,0,0,0-2.1.86,3.78,3.78,0,0,0-.81,2.67v8.63h-3.71V1230a2.88,2.88,0,0,0-.71-2.12,2.49,2.49,0,0,0-1.84-.71,2.71,2.71,0,0,0-2.09.89,4.06,4.06,0,0,0-.81,2.8v8.47h-3.65v-14.84h3.65v1.79a4.8,4.8,0,0,1,1.79-1.55,5.4,5.4,0,0,1,2.43-.53,5.86,5.86,0,0,1,2.71.59,3.85,3.85,0,0,1,1.71,1.7,4.88,4.88,0,0,1,1.9-1.71,5.74,5.74,0,0,1,2.62-.58A6.19,6.19,0,0,1,614.74,1224.76Z"/><path class="cls-3" d="M633.6,1239v.4h-3.47l-.35-1.67a4.91,4.91,0,0,1-2.09,1.47,7.42,7.42,0,0,1-2.67.49,6,6,0,0,1-2.29-.42,3.61,3.61,0,0,1-1.66-1.34,4.1,4.1,0,0,1-.63-2.36,4,4,0,0,1,.67-2.4,4.43,4.43,0,0,1,1.83-1.46,14.25,14.25,0,0,1,2.91-.89l2.48-.51a2.33,2.33,0,0,0,1.07-.45,1,1,0,0,0,.32-.79,1.86,1.86,0,0,0-.79-1.68,4,4,0,0,0-4,.06,2.6,2.6,0,0,0-1,1.82l-3.25-.62a4.87,4.87,0,0,1,2.07-3.29,8,8,0,0,1,4.45-1.08,7.51,7.51,0,0,1,4.34,1.17q1.71,1.17,1.71,4.12v5.67A13.71,13.71,0,0,0,633.6,1239Zm-3.71-6.65-3.4.78a5,5,0,0,0-1.93.74,1.8,1.8,0,0,0,0,2.7,2.62,2.62,0,0,0,1.58.44,4.38,4.38,0,0,0,1.76-.37,3.3,3.3,0,0,0,2-3.2Z"/><path class="cls-3" d="M637.6,1216.85h3.69v22.5H637.6Z"/><path class="cls-3" d="M646.7,1221.58a2.22,2.22,0,0,1-.8-.8,2.14,2.14,0,0,1,0-2.19,2.23,2.23,0,0,1,.8-.79,2.14,2.14,0,0,1,1.09-.29,2.1,2.1,0,0,1,1.08.29,2.26,2.26,0,0,1,.8.79,2.14,2.14,0,0,1,0,2.19,2.22,2.22,0,0,1-.81.8,2.11,2.11,0,0,1-1.08.29A2.14,2.14,0,0,1,646.7,1221.58Zm-.78,2.93h3.68v14.84h-3.68Z"/><path class="cls-3" d="M667.82,1232.6H656.62a4.8,4.8,0,0,0,.64,2.26,3.62,3.62,0,0,0,1.47,1.39,4.41,4.41,0,0,0,2,.46,3.92,3.92,0,0,0,2.12-.57,3.65,3.65,0,0,0,1.4-1.64l3.34.54a6.65,6.65,0,0,1-1.49,2.47,6.75,6.75,0,0,1-2.37,1.58,7.92,7.92,0,0,1-3,.55,8.67,8.67,0,0,1-4.08-.92,6.42,6.42,0,0,1-2.71-2.66,9.32,9.32,0,0,1,0-8.27,6.6,6.6,0,0,1,2.7-2.67,8.27,8.27,0,0,1,4-.92,8.14,8.14,0,0,1,3.73.82,5.92,5.92,0,0,1,2.54,2.5,8.66,8.66,0,0,1,.94,4.17Zm-9.74-4.93a4,4,0,0,0-1.33,2.48h7.5a3.34,3.34,0,0,0-3.56-3.31A4,4,0,0,0,658.07,1227.67Z"/><path class="cls-3" d="M672.17,1238.59a4.43,4.43,0,0,1-2.06-3.08l3.09-.88a3,3,0,0,0,1.13,1.81,3.47,3.47,0,0,0,2.06.59,3.32,3.32,0,0,0,1.7-.4,1.4,1.4,0,0,0,.69-1.31,1.39,1.39,0,0,0-.39-1,2.77,2.77,0,0,0-1-.63q-.62-.23-1.73-.56-.94-.26-1.49-.45a10,10,0,0,1-1.89-.83,3.51,3.51,0,0,1-1.79-3.24,4,4,0,0,1,.73-2.43,4.31,4.31,0,0,1,2-1.46,8.21,8.21,0,0,1,2.89-.48,7.08,7.08,0,0,1,3.81,1,4.23,4.23,0,0,1,1.92,3l-2.86.66a2.63,2.63,0,0,0-1-1.58,3.2,3.2,0,0,0-1.82-.5,3.11,3.11,0,0,0-1.62.4,1.28,1.28,0,0,0-.66,1.17,1.19,1.19,0,0,0,.39.92,2.72,2.72,0,0,0,1,.56q.59.21,1.65.47l.6.16a13.92,13.92,0,0,1,2.45.87,4.51,4.51,0,0,1,1.7,1.42,4,4,0,0,1,.68,2.4,4.12,4.12,0,0,1-.8,2.61,4.5,4.5,0,0,1-2.13,1.49,9.08,9.08,0,0,1-3,.46A7.81,7.81,0,0,1,672.17,1238.59Z"/><path class="cls-3" d="M687.07,1239.35a2.18,2.18,0,0,1-.8-.79,2.1,2.1,0,0,1-.29-1.08,2.07,2.07,0,0,1,.3-1.08,2.33,2.33,0,0,1,.8-.8,2,2,0,0,1,1.07-.3,2.07,2.07,0,0,1,1.08.3,2.31,2.31,0,0,1,.8.8,2.1,2.1,0,0,1,0,2.17,2.24,2.24,0,0,1-.8.79,2.14,2.14,0,0,1-2.16,0Z"/><path class="cls-3" d="M148.89,1283.17a9.55,9.55,0,0,1-3.79-3.77,12.45,12.45,0,0,1,0-11.38,9.5,9.5,0,0,1,3.79-3.76,11.23,11.23,0,0,1,5.46-1.32,11.57,11.57,0,0,1,4.16.73,9.81,9.81,0,0,1,3.35,2.11,9.33,9.33,0,0,1,2.19,3.27l-3.53,1.33a6.09,6.09,0,0,0-2.42-2.89,6.88,6.88,0,0,0-3.75-1,7.05,7.05,0,0,0-3.49.87,6.27,6.27,0,0,0-2.46,2.51,8.77,8.77,0,0,0,0,7.74,6.24,6.24,0,0,0,2.46,2.52,7,7,0,0,0,3.49.87,6.9,6.9,0,0,0,3.75-1,6.1,6.1,0,0,0,2.42-2.89l3.53,1.33a9.3,9.3,0,0,1-2.19,3.28,9.81,9.81,0,0,1-3.35,2.11,11.57,11.57,0,0,1-4.16.73A11.17,11.17,0,0,1,148.89,1283.17Z"/><path class="cls-3" d="M167.37,1261.7h3.69v22.5h-3.69Z"/><path class="cls-3" d="M176.47,1266.44a2.22,2.22,0,0,1-.8-.8,2.14,2.14,0,0,1,0-2.19,2.23,2.23,0,0,1,.8-.79,2.14,2.14,0,0,1,1.09-.29,2.1,2.1,0,0,1,1.08.29,2.26,2.26,0,0,1,.8.79,2.16,2.16,0,0,1,0,2.19,2.22,2.22,0,0,1-.81.8,2.11,2.11,0,0,1-1.08.29A2.14,2.14,0,0,1,176.47,1266.44Zm-.78,2.93h3.68v14.84h-3.68Z"/><path class="cls-3" d="M186.51,1283.52a7,7,0,0,1-2.77-2.72,8.64,8.64,0,0,1,0-8.06,6.91,6.91,0,0,1,2.77-2.71,8.29,8.29,0,0,1,4-1,8.41,8.41,0,0,1,3.27.62,6.35,6.35,0,0,1,2.47,1.81,6.72,6.72,0,0,1,1.38,2.85l-3.38.41a3.71,3.71,0,0,0-1.38-2.07,4,4,0,0,0-2.39-.7,3.88,3.88,0,0,0-2.12.59,4,4,0,0,0-1.46,1.68,6.3,6.3,0,0,0,0,5,4,4,0,0,0,1.46,1.68,3.88,3.88,0,0,0,2.12.59,4,4,0,0,0,2.38-.7,3.7,3.7,0,0,0,1.38-2.07l3.38.41a6.64,6.64,0,0,1-1.39,2.86,6.54,6.54,0,0,1-2.48,1.82,8.8,8.8,0,0,1-7.26-.34Z"/><path class="cls-3" d="M205.45,1277.61h-.87v6.59H200.9v-22.5h3.69V1275h1l4.7-5.65h4.18l-5.89,6.86,6.52,8h-4.5Z"/><path class="cls-3" d="M228.9,1283.57a6.8,6.8,0,0,1-2.82-2.68,8.8,8.8,0,0,1,0-8.21,6.78,6.78,0,0,1,2.81-2.67,9.52,9.52,0,0,1,8.21,0,6.79,6.79,0,0,1,2.8,2.67,8.82,8.82,0,0,1,0,8.21,6.83,6.83,0,0,1-2.81,2.68,9.47,9.47,0,0,1-8.18,0Zm6.29-2.61a4,4,0,0,0,1.54-1.69,5.5,5.5,0,0,0,.55-2.51,5.41,5.41,0,0,0-.56-2.5,4.09,4.09,0,0,0-1.54-1.68,4.24,4.24,0,0,0-2.24-.59,4,4,0,0,0-3.7,2.28,5.47,5.47,0,0,0-.55,2.5,5.57,5.57,0,0,0,.54,2.51,4,4,0,0,0,1.51,1.69,4.12,4.12,0,0,0,2.2.59A4.3,4.3,0,0,0,235.2,1281Z"/><path class="cls-3" d="M256.49,1270.41a5,5,0,0,1,1.42,3.8v10h-3.66V1275a2.87,2.87,0,0,0-.8-2.24,2.94,2.94,0,0,0-2-.72,3.42,3.42,0,0,0-2.45.91,3.79,3.79,0,0,0-1,2.84v8.41h-3.66v-14.84H248v1.71a5,5,0,0,1,1.93-1.49,6.35,6.35,0,0,1,2.62-.52A5.56,5.56,0,0,1,256.49,1270.41Z"/><path class="cls-3" d="M273.11,1283a4.48,4.48,0,0,1-1.14-3.27v-7.57H269v-2.83h1a2.35,2.35,0,0,0,1.77-.59,3,3,0,0,0,.56-2.07v-2.18h3.33v4.83h3.16v2.83h-3.16v7.18a2.11,2.11,0,0,0,.48,1.52,1.77,1.77,0,0,0,1.35.51h1.33v2.81h-2.52A4.3,4.3,0,0,1,273.11,1283Z"/><path class="cls-3" d="M294.45,1270.47a5.56,5.56,0,0,1,1.38,4.08v9.65h-3.66v-9a3.15,3.15,0,0,0-.79-2.39,2.91,2.91,0,0,0-2.08-.75,3.43,3.43,0,0,0-2.41.89,3.74,3.74,0,0,0-1,2.86v8.41h-3.66v-22.5h3.66v9.49a5.21,5.21,0,0,1,2-1.57,6.42,6.42,0,0,1,2.72-.56A5.17,5.17,0,0,1,294.45,1270.47Z"/><path class="cls-3" d="M313.76,1277.45H302.57a4.8,4.8,0,0,0,.64,2.26,3.62,3.62,0,0,0,1.47,1.39,4.41,4.41,0,0,0,2,.46,3.92,3.92,0,0,0,2.12-.57,3.65,3.65,0,0,0,1.4-1.64l3.34.54a6.65,6.65,0,0,1-1.49,2.47,6.75,6.75,0,0,1-2.37,1.58,7.92,7.92,0,0,1-3,.55,8.67,8.67,0,0,1-4.08-.92,6.42,6.42,0,0,1-2.71-2.66,9.32,9.32,0,0,1,0-8.27,6.6,6.6,0,0,1,2.7-2.67,8.27,8.27,0,0,1,4-.92,8.14,8.14,0,0,1,3.73.82,5.92,5.92,0,0,1,2.54,2.5,8.66,8.66,0,0,1,.94,4.17Zm-9.74-4.93a4,4,0,0,0-1.33,2.48h7.5a3.34,3.34,0,0,0-3.56-3.31A4,4,0,0,0,304,1272.52Z"/><path class="cls-3" d="M338.15,1283.81v.4h-3.47l-.35-1.67a4.92,4.92,0,0,1-2.09,1.47,7.44,7.44,0,0,1-2.67.49,6,6,0,0,1-2.29-.42,3.61,3.61,0,0,1-1.65-1.34,4.1,4.1,0,0,1-.63-2.36,4,4,0,0,1,.67-2.4,4.43,4.43,0,0,1,1.83-1.46,14.25,14.25,0,0,1,2.91-.89l2.47-.51a2.34,2.34,0,0,0,1.07-.45,1,1,0,0,0,.32-.79,1.86,1.86,0,0,0-.79-1.68,4,4,0,0,0-4,.06,2.6,2.6,0,0,0-1,1.82l-3.25-.62a4.87,4.87,0,0,1,2.07-3.29,8,8,0,0,1,4.45-1.08,7.51,7.51,0,0,1,4.34,1.17q1.71,1.17,1.71,4.12V1280A13.71,13.71,0,0,0,338.15,1283.81Zm-3.71-6.65-3.4.78a5,5,0,0,0-1.93.74,1.81,1.81,0,0,0,0,2.7,2.62,2.62,0,0,0,1.58.44,4.38,4.38,0,0,0,1.76-.37,3.31,3.31,0,0,0,2-3.2Z"/><path class="cls-3" d="M342.15,1261.7h3.69v22.5h-3.69Z"/><path class="cls-3" d="M364.07,1277.45H352.87a4.8,4.8,0,0,0,.64,2.26,3.62,3.62,0,0,0,1.47,1.39,4.41,4.41,0,0,0,2,.46,3.92,3.92,0,0,0,2.12-.57,3.65,3.65,0,0,0,1.4-1.64l3.34.54a6.65,6.65,0,0,1-1.49,2.47,6.75,6.75,0,0,1-2.37,1.58,7.92,7.92,0,0,1-3,.55,8.67,8.67,0,0,1-4.08-.92,6.42,6.42,0,0,1-2.71-2.66,9.32,9.32,0,0,1,0-8.27A6.6,6.6,0,0,1,353,1270a8.27,8.27,0,0,1,4-.92,8.14,8.14,0,0,1,3.73.82,5.92,5.92,0,0,1,2.54,2.5,8.66,8.66,0,0,1,.94,4.17Zm-9.74-4.93A4,4,0,0,0,353,1275h7.5a3.34,3.34,0,0,0-3.56-3.31A4,4,0,0,0,354.32,1272.52Z"/><path class="cls-3" d="M372.19,1270.5a6,6,0,0,1,1.7-1,5.75,5.75,0,0,1,2-.36v3.31a7.14,7.14,0,0,0-2.6.4,2.91,2.91,0,0,0-1.53,1.33,5.22,5.22,0,0,0-.51,2.51v7.46h-3.68v-14.84h3.52v2.43A4.14,4.14,0,0,1,372.19,1270.5Z"/><path class="cls-3" d="M381.47,1283a4.48,4.48,0,0,1-1.14-3.27v-7.57h-2.95v-2.83h1a2.35,2.35,0,0,0,1.77-.59,3,3,0,0,0,.56-2.07v-2.18H384v4.83h3.16v2.83H384v7.18a2.11,2.11,0,0,0,.48,1.52,1.77,1.77,0,0,0,1.35.51h1.33v2.81h-2.52A4.29,4.29,0,0,1,381.47,1283Z"/><path class="cls-3" d="M391.43,1283.44a4.44,4.44,0,0,1-2.07-3.08l3.09-.88a3,3,0,0,0,1.13,1.81,3.47,3.47,0,0,0,2.07.59,3.32,3.32,0,0,0,1.7-.4,1.4,1.4,0,0,0,.69-1.31,1.38,1.38,0,0,0-.39-1,2.74,2.74,0,0,0-1-.63q-.62-.23-1.73-.56-.94-.26-1.49-.45a10,10,0,0,1-1.89-.83,3.51,3.51,0,0,1-1.79-3.24,4,4,0,0,1,.73-2.43,4.32,4.32,0,0,1,2-1.46,8.2,8.2,0,0,1,2.88-.48,7.08,7.08,0,0,1,3.81,1,4.23,4.23,0,0,1,1.92,3l-2.86.66a2.63,2.63,0,0,0-1-1.58,3.2,3.2,0,0,0-1.82-.5,3.11,3.11,0,0,0-1.63.4,1.28,1.28,0,0,0-.66,1.17,1.19,1.19,0,0,0,.39.92,2.74,2.74,0,0,0,1,.56c.39.14.95.29,1.65.47l.6.16a13.86,13.86,0,0,1,2.45.87,4.49,4.49,0,0,1,1.7,1.42,4,4,0,0,1,.68,2.4,4.11,4.11,0,0,1-.8,2.61,4.49,4.49,0,0,1-2.13,1.49,9.07,9.07,0,0,1-3,.46A7.81,7.81,0,0,1,391.43,1283.44Z"/><path class="cls-3" d="M415.76,1283a4.48,4.48,0,0,1-1.14-3.27v-7.57h-2.94v-2.83h1a2.35,2.35,0,0,0,1.77-.59,3,3,0,0,0,.56-2.07v-2.18h3.33v4.83h3.16v2.83h-3.16v7.18a2.11,2.11,0,0,0,.48,1.52,1.77,1.77,0,0,0,1.35.51h1.33v2.81H419A4.3,4.3,0,0,1,415.76,1283Z"/><path class="cls-3" d="M427.42,1283.57a6.8,6.8,0,0,1-2.82-2.68,8.8,8.8,0,0,1,0-8.21,6.78,6.78,0,0,1,2.81-2.67,9.52,9.52,0,0,1,8.21,0,6.79,6.79,0,0,1,2.8,2.67,8.82,8.82,0,0,1,0,8.21,6.83,6.83,0,0,1-2.81,2.68,9.47,9.47,0,0,1-8.18,0Zm6.29-2.61a4,4,0,0,0,1.54-1.69,5.5,5.5,0,0,0,.55-2.51,5.41,5.41,0,0,0-.56-2.5,4.09,4.09,0,0,0-1.54-1.68,4.24,4.24,0,0,0-2.24-.59,4,4,0,0,0-3.7,2.28,5.47,5.47,0,0,0-.55,2.5,5.57,5.57,0,0,0,.54,2.51,4,4,0,0,0,1.51,1.69,4.12,4.12,0,0,0,2.2.59A4.3,4.3,0,0,0,433.71,1281Z"/><path class="cls-3" d="M451.62,1261.7h3.69v22.5h-3.69Z"/><path class="cls-3" d="M473.53,1277.45H462.34a4.82,4.82,0,0,0,.64,2.26,3.64,3.64,0,0,0,1.47,1.39,4.41,4.41,0,0,0,2,.46,3.92,3.92,0,0,0,2.12-.57,3.65,3.65,0,0,0,1.4-1.64l3.34.54a6.65,6.65,0,0,1-1.49,2.47,6.75,6.75,0,0,1-2.37,1.58,7.92,7.92,0,0,1-3,.55,8.67,8.67,0,0,1-4.08-.92,6.43,6.43,0,0,1-2.71-2.66,9.33,9.33,0,0,1,0-8.27,6.61,6.61,0,0,1,2.7-2.67,8.27,8.27,0,0,1,4-.92,8.14,8.14,0,0,1,3.73.82,5.92,5.92,0,0,1,2.54,2.5,8.66,8.66,0,0,1,.94,4.17Zm-9.74-4.93a4,4,0,0,0-1.33,2.48H470a3.34,3.34,0,0,0-3.56-3.31A4,4,0,0,0,463.79,1272.52Z"/><path class="cls-3" d="M489.13,1283.81v.4h-3.47l-.35-1.67a4.91,4.91,0,0,1-2.09,1.47,7.42,7.42,0,0,1-2.67.49,6,6,0,0,1-2.29-.42,3.61,3.61,0,0,1-1.66-1.34,4.1,4.1,0,0,1-.63-2.36,4,4,0,0,1,.67-2.4,4.43,4.43,0,0,1,1.83-1.46,14.25,14.25,0,0,1,2.91-.89l2.48-.51a2.33,2.33,0,0,0,1.07-.45,1,1,0,0,0,.32-.79,1.86,1.86,0,0,0-.79-1.68,4,4,0,0,0-4,.06,2.6,2.6,0,0,0-1,1.82l-3.25-.62a4.87,4.87,0,0,1,2.07-3.29,8,8,0,0,1,4.45-1.08,7.51,7.51,0,0,1,4.34,1.17q1.71,1.17,1.71,4.12V1280A13.71,13.71,0,0,0,489.13,1283.81Zm-3.71-6.65-3.4.78a5,5,0,0,0-1.93.74,1.8,1.8,0,0,0,0,2.7,2.62,2.62,0,0,0,1.58.44,4.38,4.38,0,0,0,1.76-.37,3.3,3.3,0,0,0,2-3.2Z"/><path class="cls-3" d="M497.75,1270.5a6,6,0,0,1,1.7-1,5.74,5.74,0,0,1,2-.36v3.31a7.14,7.14,0,0,0-2.6.4,2.91,2.91,0,0,0-1.53,1.33,5.22,5.22,0,0,0-.51,2.51v7.46h-3.68v-14.84h3.52v2.43A4.15,4.15,0,0,1,497.75,1270.5Z"/><path class="cls-3" d="M516.26,1270.41a5,5,0,0,1,1.42,3.8v10H514V1275a2.87,2.87,0,0,0-.8-2.24,2.94,2.94,0,0,0-2-.72,3.42,3.42,0,0,0-2.45.91,3.79,3.79,0,0,0-1,2.84v8.41h-3.66v-14.84h3.66v1.71a5,5,0,0,1,1.93-1.49,6.35,6.35,0,0,1,2.62-.52A5.56,5.56,0,0,1,516.26,1270.41Z"/><path class="cls-3" d="M550.31,1269.61a4,4,0,0,1,1.77,1.6,5,5,0,0,1,.63,2.57v10.42H549v-9.4a2.76,2.76,0,0,0-.71-2.06,2.47,2.47,0,0,0-1.79-.7,2.76,2.76,0,0,0-2.1.86,3.78,3.78,0,0,0-.81,2.67v8.63h-3.71v-9.33a2.88,2.88,0,0,0-.71-2.12,2.49,2.49,0,0,0-1.84-.71,2.7,2.7,0,0,0-2.09.89,4.06,4.06,0,0,0-.81,2.8v8.47h-3.65v-14.84h3.65v1.79a4.81,4.81,0,0,1,1.79-1.55,5.39,5.39,0,0,1,2.42-.53,5.87,5.87,0,0,1,2.71.59,3.84,3.84,0,0,1,1.71,1.7,4.88,4.88,0,0,1,1.9-1.71,5.73,5.73,0,0,1,2.61-.58A6.2,6.2,0,0,1,550.31,1269.61Z"/><path class="cls-3" d="M559.69,1283.57a6.8,6.8,0,0,1-2.82-2.68,8.8,8.8,0,0,1,0-8.21,6.78,6.78,0,0,1,2.81-2.67,9.52,9.52,0,0,1,8.21,0,6.79,6.79,0,0,1,2.8,2.67,8.82,8.82,0,0,1,0,8.21,6.83,6.83,0,0,1-2.81,2.68,9.47,9.47,0,0,1-8.18,0ZM566,1281a4,4,0,0,0,1.54-1.69,5.5,5.5,0,0,0,.55-2.51,5.41,5.41,0,0,0-.56-2.5,4.09,4.09,0,0,0-1.54-1.68,4.24,4.24,0,0,0-2.24-.59,4,4,0,0,0-3.7,2.28,5.47,5.47,0,0,0-.55,2.5,5.57,5.57,0,0,0,.54,2.51,4,4,0,0,0,1.51,1.69,4.12,4.12,0,0,0,2.2.59A4.3,4.3,0,0,0,566,1281Z"/><path class="cls-3" d="M579.72,1270.5a6,6,0,0,1,1.7-1,5.74,5.74,0,0,1,2-.36v3.31a7.14,7.14,0,0,0-2.6.4,2.91,2.91,0,0,0-1.53,1.33,5.22,5.22,0,0,0-.51,2.51v7.46h-3.68v-14.84h3.52v2.43A4.15,4.15,0,0,1,579.72,1270.5Z"/><path class="cls-3" d="M599.54,1277.45H588.35a4.82,4.82,0,0,0,.64,2.26,3.64,3.64,0,0,0,1.47,1.39,4.41,4.41,0,0,0,2,.46,3.92,3.92,0,0,0,2.12-.57,3.65,3.65,0,0,0,1.4-1.64l3.34.54a6.65,6.65,0,0,1-1.49,2.47,6.75,6.75,0,0,1-2.37,1.58,7.92,7.92,0,0,1-3,.55,8.67,8.67,0,0,1-4.08-.92,6.43,6.43,0,0,1-2.71-2.66,9.33,9.33,0,0,1,0-8.27,6.61,6.61,0,0,1,2.7-2.67,8.27,8.27,0,0,1,4-.92,8.14,8.14,0,0,1,3.73.82,5.92,5.92,0,0,1,2.54,2.5,8.66,8.66,0,0,1,.94,4.17Zm-9.74-4.93a4,4,0,0,0-1.33,2.48H596a3.34,3.34,0,0,0-3.56-3.31A4,4,0,0,0,589.8,1272.52Z"/><path class="cls-3" d="M604.09,1284.2a2.19,2.19,0,0,1-.8-.79,2.1,2.1,0,0,1-.29-1.08,2.05,2.05,0,0,1,.3-1.08,2.32,2.32,0,0,1,.8-.8,2,2,0,0,1,1.07-.3,2.07,2.07,0,0,1,1.08.3,2.33,2.33,0,0,1,.8.8,2.1,2.1,0,0,1,0,2.17,2.26,2.26,0,0,1-.8.79,2.14,2.14,0,0,1-2.16,0Z"/><path class="cls-9" d="M336.91,509.34l.8-2a5.56,5.56,0,0,0,2.95.78,5.24,5.24,0,0,0,4.16-1.59,6.39,6.39,0,0,0,1.46-4.16,3.77,3.77,0,0,1-1.56,1.47,5.38,5.38,0,0,1-2.64.6,5.78,5.78,0,0,1-3.93-1.46,5.05,5.05,0,0,1-1.67-4,5.16,5.16,0,0,1,1.76-4,6.12,6.12,0,0,1,4.21-1.57,6,6,0,0,1,4.45,1.9,7.63,7.63,0,0,1,1.85,5.55q0,4.55-2,7a7.39,7.39,0,0,1-6.06,2.47,8.46,8.46,0,0,1-2-.28A5.52,5.52,0,0,1,336.91,509.34ZM346,498.89a3.15,3.15,0,0,0-1.05-2.45,3.67,3.67,0,0,0-4.91,0,3.16,3.16,0,0,0-1,2.46,3.2,3.2,0,0,0,1,2.5,3.74,3.74,0,0,0,4.94,0A3.19,3.19,0,0,0,346,498.89Z"/><path class="cls-9" d="M352.38,500.74a1.67,1.67,0,0,1-.5-1.23,1.7,1.7,0,0,1,.5-1.24,1.65,1.65,0,0,1,1.22-.51,1.75,1.75,0,0,1,1.75,1.75,1.65,1.65,0,0,1-.51,1.23,1.71,1.71,0,0,1-1.24.5A1.67,1.67,0,0,1,352.38,500.74Zm0,8.8a1.66,1.66,0,0,1-.5-1.22,1.71,1.71,0,0,1,.5-1.24,1.65,1.65,0,0,1,1.22-.51,1.75,1.75,0,0,1,1.75,1.75,1.64,1.64,0,0,1-.51,1.22,1.71,1.71,0,0,1-1.24.5A1.66,1.66,0,0,1,352.41,509.54Z"/><path class="cls-9" d="M364.21,509.91h-2.4V498.49h-3.93v-1.73a4.63,4.63,0,0,0,2.78-.86,3.52,3.52,0,0,0,1.4-2.19h2.15Z"/><path class="cls-9" d="M367.46,501.81a10.39,10.39,0,0,1,1.45-5.87,6.06,6.06,0,0,1,10,0,12.63,12.63,0,0,1,0,11.75,6.06,6.06,0,0,1-10,0A10.38,10.38,0,0,1,367.46,501.81Zm2.42,0q0,3.75,1.43,5.25a3.68,3.68,0,0,0,5.15,0q1.42-1.5,1.42-5.25t-1.42-5.25a3.68,3.68,0,0,0-5.15,0Q369.88,498.06,369.88,501.81Z"/><path class="cls-9" d="M382.81,506.69a3.25,3.25,0,0,1,1-2.49,4.68,4.68,0,0,1,2.65-1.16l3.25-.47c.62-.08.92-.38.92-.9a2,2,0,0,0-.65-1.55,2.78,2.78,0,0,0-1.95-.6,2.65,2.65,0,0,0-1.9.66,2.76,2.76,0,0,0-.82,1.76l-2.25-.53a3.93,3.93,0,0,1,1.57-2.81,5.3,5.3,0,0,1,3.35-1.09,5.11,5.11,0,0,1,3.78,1.24,4.3,4.3,0,0,1,1.22,3.16v6a12.08,12.08,0,0,0,.15,2h-2.3a9.82,9.82,0,0,1-.12-1.62,4.39,4.39,0,0,1-3.87,2,4.05,4.05,0,0,1-2.9-1.06A3.37,3.37,0,0,1,382.81,506.69Zm4.35,1.63a3.65,3.65,0,0,0,2.53-.85,3.46,3.46,0,0,0,.95-2.7v-.55l-3.67.55a2.32,2.32,0,0,0-1.28.58,1.61,1.61,0,0,0-.47,1.22,1.65,1.65,0,0,0,.54,1.22A1.93,1.93,0,0,0,387.16,508.31Z"/><path class="cls-9" d="M399,509.91h-2.33v-12h2.25v1.6a3.62,3.62,0,0,1,1.55-1.45,4.65,4.65,0,0,1,2.1-.5,4.14,4.14,0,0,1,2.15.58,3.47,3.47,0,0,1,1.45,1.7,4.26,4.26,0,0,1,4-2.28,4.07,4.07,0,0,1,2.94,1.18,4.52,4.52,0,0,1,1.21,3.4v7.8H412v-7.55a3,3,0,0,0-.64-2,2.37,2.37,0,0,0-1.91-.75,2.57,2.57,0,0,0-2,.86,3.11,3.11,0,0,0-.78,2.16v7.28h-2.35v-7.55a3,3,0,0,0-.64-2,2.37,2.37,0,0,0-1.91-.75,2.61,2.61,0,0,0-2,.85,3.14,3.14,0,0,0-.77,2.2Z"/><path class="cls-9" d="M333.77,373.63l.8-2a5.57,5.57,0,0,0,3,.77,5.23,5.23,0,0,0,4.16-1.59,6.4,6.4,0,0,0,1.46-4.16,3.78,3.78,0,0,1-1.56,1.48,5.39,5.39,0,0,1-2.64.6,5.78,5.78,0,0,1-3.92-1.46,5,5,0,0,1-1.67-4,5.16,5.16,0,0,1,1.76-4,6.11,6.11,0,0,1,4.21-1.58,6,6,0,0,1,4.45,1.9,7.64,7.64,0,0,1,1.85,5.55q0,4.55-2,7a7.4,7.4,0,0,1-6.06,2.47,8.47,8.47,0,0,1-2-.28A5.52,5.52,0,0,1,333.77,373.63Zm9-10.45a3.15,3.15,0,0,0-1-2.45,3.67,3.67,0,0,0-4.91,0,3.16,3.16,0,0,0-1,2.46,3.2,3.2,0,0,0,1,2.5,3.74,3.74,0,0,0,4.94,0A3.19,3.19,0,0,0,342.82,363.18Z"/><path class="cls-9" d="M349.24,365a1.66,1.66,0,0,1-.5-1.23,1.71,1.71,0,0,1,.5-1.24,1.65,1.65,0,0,1,1.22-.51,1.75,1.75,0,0,1,1.75,1.75,1.65,1.65,0,0,1-.51,1.23,1.71,1.71,0,0,1-1.24.5A1.67,1.67,0,0,1,349.24,365Zm0,8.8a1.66,1.66,0,0,1-.5-1.22,1.71,1.71,0,0,1,.5-1.24,1.65,1.65,0,0,1,1.22-.51,1.75,1.75,0,0,1,1.75,1.75,1.64,1.64,0,0,1-.51,1.22,1.7,1.7,0,0,1-1.24.5A1.66,1.66,0,0,1,349.27,373.83Z"/><path class="cls-9" d="M355.37,366.11a10.39,10.39,0,0,1,1.45-5.87,6.06,6.06,0,0,1,10,0,12.63,12.63,0,0,1,0,11.75,6.06,6.06,0,0,1-10,0A10.39,10.39,0,0,1,355.37,366.11Zm2.42,0q0,3.75,1.42,5.25a3.68,3.68,0,0,0,5.15,0q1.43-1.5,1.42-5.25t-1.42-5.25a3.68,3.68,0,0,0-5.15,0Q357.8,362.36,357.79,366.11Z"/><path class="cls-9" d="M370.59,366.11a10.39,10.39,0,0,1,1.45-5.87,6.06,6.06,0,0,1,10,0A12.63,12.63,0,0,1,382,372a6.06,6.06,0,0,1-10,0A10.39,10.39,0,0,1,370.59,366.11Zm2.42,0q0,3.75,1.42,5.25a3.68,3.68,0,0,0,5.15,0q1.43-1.5,1.42-5.25t-1.42-5.25a3.68,3.68,0,0,0-5.15,0Q373,362.36,373,366.11Z"/><path class="cls-9" d="M385.94,371a3.25,3.25,0,0,1,1-2.49,4.68,4.68,0,0,1,2.65-1.16l3.25-.47q.92-.13.92-.9a2,2,0,0,0-.65-1.55,2.79,2.79,0,0,0-2-.6,2.65,2.65,0,0,0-1.9.66,2.76,2.76,0,0,0-.83,1.76l-2.25-.53a3.93,3.93,0,0,1,1.58-2.81,5.3,5.3,0,0,1,3.35-1.09,5.11,5.11,0,0,1,3.78,1.24,4.3,4.3,0,0,1,1.22,3.16v6a12,12,0,0,0,.15,2H394a9.82,9.82,0,0,1-.12-1.62,4.39,4.39,0,0,1-3.87,2,4.05,4.05,0,0,1-2.9-1.06A3.37,3.37,0,0,1,385.94,371Zm4.35,1.63a3.64,3.64,0,0,0,2.53-.85,3.45,3.45,0,0,0,1-2.7v-.55l-3.67.55a2.33,2.33,0,0,0-1.28.58,1.61,1.61,0,0,0-.47,1.23,1.66,1.66,0,0,0,.54,1.22A1.94,1.94,0,0,0,390.29,372.61Z"/><path class="cls-9" d="M402.09,374.21h-2.33v-12H402v1.6a3.62,3.62,0,0,1,1.55-1.45,4.64,4.64,0,0,1,2.1-.5,4.15,4.15,0,0,1,2.15.58,3.48,3.48,0,0,1,1.45,1.7,4.25,4.25,0,0,1,4-2.28,4.07,4.07,0,0,1,2.94,1.17,4.52,4.52,0,0,1,1.21,3.4v7.8h-2.33v-7.55a3,3,0,0,0-.64-2,2.37,2.37,0,0,0-1.91-.75,2.56,2.56,0,0,0-2,.86,3.11,3.11,0,0,0-.77,2.16v7.28h-2.35v-7.55a3,3,0,0,0-.64-2,2.37,2.37,0,0,0-1.91-.75,2.61,2.61,0,0,0-2,.85,3.14,3.14,0,0,0-.77,2.2Z"/><path class="cls-9" d="M335.91,887.83l.8-2a5.56,5.56,0,0,0,2.95.78,5.24,5.24,0,0,0,4.16-1.59,6.39,6.39,0,0,0,1.46-4.16,3.77,3.77,0,0,1-1.56,1.47,5.38,5.38,0,0,1-2.64.6,5.78,5.78,0,0,1-3.93-1.46,5.05,5.05,0,0,1-1.67-4,5.16,5.16,0,0,1,1.76-4,6.12,6.12,0,0,1,4.21-1.57,6,6,0,0,1,4.45,1.9,7.63,7.63,0,0,1,1.85,5.55q0,4.55-2,7a7.39,7.39,0,0,1-6.06,2.47,8.46,8.46,0,0,1-2-.28A5.52,5.52,0,0,1,335.91,887.83ZM345,877.38a3.15,3.15,0,0,0-1.05-2.45,3.67,3.67,0,0,0-4.91,0,3.16,3.16,0,0,0-1,2.46,3.2,3.2,0,0,0,1,2.5,3.74,3.74,0,0,0,4.94,0A3.19,3.19,0,0,0,345,877.38Z"/><path class="cls-9" d="M351.38,879.23a1.67,1.67,0,0,1-.5-1.23,1.7,1.7,0,0,1,.5-1.24,1.65,1.65,0,0,1,1.22-.51,1.75,1.75,0,0,1,1.75,1.75,1.65,1.65,0,0,1-.51,1.23,1.71,1.71,0,0,1-1.24.5A1.67,1.67,0,0,1,351.38,879.23Zm0,8.8a1.66,1.66,0,0,1-.5-1.22,1.71,1.71,0,0,1,.5-1.24,1.65,1.65,0,0,1,1.22-.51,1.75,1.75,0,0,1,1.75,1.75,1.64,1.64,0,0,1-.51,1.22,1.71,1.71,0,0,1-1.24.5A1.66,1.66,0,0,1,351.41,888Z"/><path class="cls-9" d="M357.13,884.75v-2.82l7-9.72h3.38v10.28h2.77v2.27h-2.77v3.65h-2.37v-3.65Zm8-2.27v-7.93l-5.7,7.93Z"/><path class="cls-9" d="M382.43,872.2v2.35q-.63.5-1.23,1.07a20.76,20.76,0,0,0-3.32,4.55,20.78,20.78,0,0,0-1.41,3.61,23.34,23.34,0,0,0-.89,4.61h-2.52a22.69,22.69,0,0,1,.6-3.74,19.3,19.3,0,0,1,1-3.16A27,27,0,0,1,376,879a15.38,15.38,0,0,1,1.35-2q.66-.81,1.2-1.39a11.4,11.4,0,0,1,.86-.85l.32-.28h-9.12V872.2Z"/><path class="cls-9" d="M383.81,885.18a3.25,3.25,0,0,1,1-2.49,4.69,4.69,0,0,1,2.65-1.16l3.25-.47c.62-.08.93-.38.93-.9a2,2,0,0,0-.65-1.55,2.79,2.79,0,0,0-2-.6,2.65,2.65,0,0,0-1.9.66,2.77,2.77,0,0,0-.83,1.76l-2.25-.53a3.94,3.94,0,0,1,1.58-2.81A5.29,5.29,0,0,1,389,876a5.12,5.12,0,0,1,3.78,1.24A4.3,4.3,0,0,1,394,880.4v6a11.87,11.87,0,0,0,.15,2h-2.3a9.82,9.82,0,0,1-.12-1.62,4.39,4.39,0,0,1-3.87,2,4.05,4.05,0,0,1-2.9-1.06A3.37,3.37,0,0,1,383.81,885.18Zm4.35,1.63a3.64,3.64,0,0,0,2.53-.85,3.46,3.46,0,0,0,1-2.7v-.55l-3.68.55a2.32,2.32,0,0,0-1.28.58,1.61,1.61,0,0,0-.47,1.22,1.66,1.66,0,0,0,.54,1.22A1.94,1.94,0,0,0,388.16,886.8Z"/><path class="cls-9" d="M400,888.4h-2.32v-12h2.25V878a3.61,3.61,0,0,1,1.55-1.45,4.66,4.66,0,0,1,2.1-.5,4.13,4.13,0,0,1,2.15.58,3.47,3.47,0,0,1,1.45,1.7,4.25,4.25,0,0,1,4-2.28,4.07,4.07,0,0,1,2.94,1.18,4.52,4.52,0,0,1,1.21,3.4v7.8H413v-7.55a3,3,0,0,0-.64-2,2.37,2.37,0,0,0-1.91-.75,2.57,2.57,0,0,0-2,.86,3.12,3.12,0,0,0-.77,2.16v7.28h-2.35v-7.55a3,3,0,0,0-.64-2,2.37,2.37,0,0,0-1.91-.75,2.61,2.61,0,0,0-2,.85,3.13,3.13,0,0,0-.78,2.2Z"/><path class="cls-9" d="M335.36,1067.55l.8-2a5.56,5.56,0,0,0,3,.78,5.23,5.23,0,0,0,4.16-1.59,6.39,6.39,0,0,0,1.46-4.16,3.78,3.78,0,0,1-1.56,1.47,5.39,5.39,0,0,1-2.64.6,5.77,5.77,0,0,1-3.92-1.46,5,5,0,0,1-1.68-4,5.16,5.16,0,0,1,1.76-4,6.11,6.11,0,0,1,4.21-1.57,6,6,0,0,1,4.45,1.9,7.64,7.64,0,0,1,1.85,5.55q0,4.55-2,7a7.4,7.4,0,0,1-6.06,2.47,8.47,8.47,0,0,1-2.05-.28A5.52,5.52,0,0,1,335.36,1067.55Zm9-10.45a3.15,3.15,0,0,0-1-2.45,3.67,3.67,0,0,0-4.91,0,3.15,3.15,0,0,0-1,2.46,3.2,3.2,0,0,0,1,2.5,3.74,3.74,0,0,0,4.94,0A3.19,3.19,0,0,0,344.41,1057.1Z"/><path class="cls-9" d="M350.83,1058.95a1.67,1.67,0,0,1-.5-1.23,1.7,1.7,0,0,1,.5-1.24,1.64,1.64,0,0,1,1.22-.51,1.75,1.75,0,0,1,1.75,1.75,1.65,1.65,0,0,1-.51,1.23,1.72,1.72,0,0,1-1.24.5A1.67,1.67,0,0,1,350.83,1058.95Zm0,8.8a1.66,1.66,0,0,1-.5-1.22,1.71,1.71,0,0,1,.5-1.24,1.65,1.65,0,0,1,1.22-.51,1.75,1.75,0,0,1,1.75,1.75,1.64,1.64,0,0,1-.51,1.22,1.7,1.7,0,0,1-1.24.5A1.66,1.66,0,0,1,350.86,1067.75Z"/><path class="cls-9" d="M356.58,1063.72l2.35-.7a3.46,3.46,0,0,0,1.11,2.43,3.62,3.62,0,0,0,2.54.92,3.56,3.56,0,0,0,2.47-.9,3,3,0,0,0,1-2.37,3.12,3.12,0,0,0-1-2.47,3.66,3.66,0,0,0-2.5-.87,3.9,3.9,0,0,0-2.95,1.18l-1.15-.45-1.25-.5,2.1-8h8.55v2.25h-6.93l-1.2,4.65a4.2,4.2,0,0,1,3.3-1.2,5.54,5.54,0,0,1,4,1.45,5.13,5.13,0,0,1,1.54,3.92,5.24,5.24,0,0,1-1.65,3.94,5.94,5.94,0,0,1-4.3,1.59,6.23,6.23,0,0,1-4.16-1.4A4.87,4.87,0,0,1,356.58,1063.72Z"/><path class="cls-9" d="M370.28,1063.72l2.35-.7a3.46,3.46,0,0,0,1.11,2.43,3.63,3.63,0,0,0,2.54.92,3.55,3.55,0,0,0,2.47-.9,3,3,0,0,0,1-2.37,3.11,3.11,0,0,0-1-2.47,3.66,3.66,0,0,0-2.5-.87,3.9,3.9,0,0,0-2.95,1.18l-1.15-.45-1.25-.5,2.1-8h8.55v2.25h-6.93l-1.2,4.65a4.21,4.21,0,0,1,3.3-1.2,5.54,5.54,0,0,1,4,1.45,5.13,5.13,0,0,1,1.54,3.92,5.25,5.25,0,0,1-1.65,3.94,5.94,5.94,0,0,1-4.3,1.59,6.24,6.24,0,0,1-4.16-1.4A4.88,4.88,0,0,1,370.28,1063.72Z"/><path class="cls-9" d="M384.36,1064.9a3.25,3.25,0,0,1,1-2.49,4.68,4.68,0,0,1,2.65-1.16l3.25-.47c.62-.08.92-.38.92-.9a2,2,0,0,0-.65-1.55,2.78,2.78,0,0,0-1.95-.6,2.65,2.65,0,0,0-1.9.66,2.76,2.76,0,0,0-.82,1.76l-2.25-.53a3.93,3.93,0,0,1,1.57-2.81,5.3,5.3,0,0,1,3.35-1.09,5.11,5.11,0,0,1,3.78,1.24,4.3,4.3,0,0,1,1.22,3.16v6a12.08,12.08,0,0,0,.15,2h-2.3a9.82,9.82,0,0,1-.12-1.62,4.39,4.39,0,0,1-3.87,2,4.05,4.05,0,0,1-2.9-1.06A3.37,3.37,0,0,1,384.36,1064.9Zm4.35,1.63a3.65,3.65,0,0,0,2.53-.85,3.46,3.46,0,0,0,.95-2.7v-.55l-3.67.55a2.32,2.32,0,0,0-1.28.58,1.61,1.61,0,0,0-.47,1.22,1.65,1.65,0,0,0,.54,1.22A1.93,1.93,0,0,0,388.71,1066.52Z"/><path class="cls-9" d="M400.51,1068.12h-2.33v-12h2.25v1.6a3.62,3.62,0,0,1,1.55-1.45,4.65,4.65,0,0,1,2.1-.5,4.14,4.14,0,0,1,2.15.58,3.47,3.47,0,0,1,1.45,1.7,4.26,4.26,0,0,1,4-2.28,4.07,4.07,0,0,1,2.94,1.18,4.52,4.52,0,0,1,1.21,3.4v7.8h-2.33v-7.55a3,3,0,0,0-.64-2,2.37,2.37,0,0,0-1.91-.75,2.57,2.57,0,0,0-2,.86,3.11,3.11,0,0,0-.78,2.16v7.28h-2.35v-7.55a3,3,0,0,0-.64-2,2.37,2.37,0,0,0-1.91-.75,2.61,2.61,0,0,0-2,.85,3.14,3.14,0,0,0-.77,2.2Z"/><rect class="cls-10" x="2.14" width="750" height="1334"/><path class="cls-9" d="M375.77,729a41.35,41.35,0,1,1,41.35-41.35A41.4,41.4,0,0,1,375.77,729Zm0-79.71a38.35,38.35,0,1,0,38.35,38.35A38.4,38.4,0,0,0,375.77,649.26Z"/><polygon class="cls-9" points="404.65 665.94 346.81 665.94 346.81 679.6 368.35 679.6 368.35 715.27 383.07 715.27 383.07 679.6 404.65 679.6 404.65 665.94"/><path class="cls-9" d="M381.92,445.06l-5.85-9.75L372,446.84l-8.15,12.42h0c-1.33,2.26-2.88,3.68-5.08,3.07a3.9,3.9,0,0,1-2.7-5.22l8.33-13.81L368,430.06a7.77,7.77,0,0,0-.54-3.18,8.73,8.73,0,0,1-.23-4.34l2.16-12.39L364,414.81l-2.2,9.4c-.34,2-1.41,3.43-3.24,3.45a3.15,3.15,0,0,1-3.16-3.31h0l2.83-11.68a4.22,4.22,0,0,1,1.65-3l11.73-8.41a10.51,10.51,0,0,1,11.27,2.11l5.7,11.39,6.44,4.91c1.38,1.49,1.56,3.57.2,4.84-1.16,1.09-3.39.35-4.5-.79l-5.59-4.26c-1.1-.66-3.64-5.94-3.64-5.94l-1.71,11.16a2.85,2.85,0,0,0,.41,2.25L389,441l2.45,16.16h0c.58,2.65-.6,4.55-2.64,5.08a3.8,3.8,0,0,1-4.69-2.85Z"/><ellipse class="cls-9" cx="381.03" cy="393.47" rx="6.15" ry="6.38" transform="matrix(0.98, -0.18, 0.18, 0.98, -64.64, 75.06)"/><path class="cls-9" d="M381.92,1012.22l-5.85-9.75L372,1014l-8.15,12.42h0c-1.33,2.26-2.88,3.68-5.08,3.07a3.9,3.9,0,0,1-2.7-5.22l8.33-13.81L368,997.21a7.77,7.77,0,0,0-.54-3.18,8.73,8.73,0,0,1-.23-4.34l2.16-12.39L364,982l-2.2,9.4c-.34,2-1.41,3.43-3.24,3.45a3.15,3.15,0,0,1-3.16-3.31h0l2.83-11.68a4.22,4.22,0,0,1,1.65-3l11.73-8.41a10.51,10.51,0,0,1,11.27,2.11l5.7,11.39,6.44,4.91c1.38,1.49,1.56,3.57.2,4.84-1.16,1.09-3.39.35-4.5-.79l-5.59-4.26c-1.1-.66-3.64-5.94-3.64-5.94l-1.71,11.16a2.85,2.85,0,0,0,.41,2.25l8.79,14.09,2.45,16.16h0c.58,2.65-.6,4.55-2.64,5.08a3.8,3.8,0,0,1-4.69-2.85Z"/><ellipse class="cls-9" cx="381.03" cy="960.62" rx="6.15" ry="6.38" transform="translate(-166.78 84.34) rotate(-10.38)"/><g class="cls-4"><line class="cls-3" x1="751.73" y1="345.3" x2="1.73" y2="345.3"/><rect class="cls-5" x="1.73" y="343.8" width="750" height="3"/></g><path class="cls-11" d="M38.49,341.55h-2L28.79,330v11.56h-2V327.37h2.62l7.08,10.88V327.37h2Z"/><path class="cls-11" d="M42.48,333.08a5,5,0,0,1,7.06,0,5.53,5.53,0,0,1,0,7.32,5,5,0,0,1-7.08,0,5.53,5.53,0,0,1,0-7.32Zm1.4,6.18a2.95,2.95,0,0,0,4.26,0,4.08,4.08,0,0,0,0-5,2.95,2.95,0,0,0-4.26,0,4.08,4.08,0,0,0,0,5Z"/><path class="cls-11" d="M58.55,331.93h1.94l2.5,7.24,2.12-7.24h2L64,341.55H62l-2.56-7.32L57,341.55H55l-3.16-9.62h2.06L56,339.17Z"/><path class="cls-11" d="M10.67,744.15l.64-1.62a4.46,4.46,0,0,0,2.36.62A4.18,4.18,0,0,0,17,741.88a5.11,5.11,0,0,0,1.17-3.33,3,3,0,0,1-1.25,1.18,4.31,4.31,0,0,1-2.11.48A4.63,4.63,0,0,1,11.67,739a4,4,0,0,1-1.34-3.21,4.12,4.12,0,0,1,1.41-3.22,4.89,4.89,0,0,1,3.37-1.26,4.79,4.79,0,0,1,3.56,1.52,6.11,6.11,0,0,1,1.48,4.44,8.63,8.63,0,0,1-1.63,5.62,5.92,5.92,0,0,1-4.85,2,6.79,6.79,0,0,1-1.64-.22A4.38,4.38,0,0,1,10.67,744.15Zm7.24-8.36a2.53,2.53,0,0,0-.84-2,2.93,2.93,0,0,0-3.93,0,2.53,2.53,0,0,0-.83,2,2.56,2.56,0,0,0,.82,2,3,3,0,0,0,4,0A2.55,2.55,0,0,0,17.91,735.79Z"/><path class="cls-11" d="M23,737.27a1.33,1.33,0,0,1-.4-1,1.36,1.36,0,0,1,.4-1,1.31,1.31,0,0,1,1-.41,1.4,1.4,0,0,1,1.4,1.4,1.32,1.32,0,0,1-.41,1,1.37,1.37,0,0,1-1,.4A1.33,1.33,0,0,1,23,737.27Zm0,7a1.33,1.33,0,0,1-.4-1,1.36,1.36,0,0,1,.4-1,1.32,1.32,0,0,1,1-.41,1.4,1.4,0,0,1,1.4,1.4,1.32,1.32,0,0,1-.41,1,1.36,1.36,0,0,1-1,.4A1.33,1.33,0,0,1,23.07,744.31Z"/><path class="cls-11" d="M31.45,738.59l-1-1.62,3.82-3.52h-6.2v-1.8h8.8v1.76l-3.7,3.42a4.15,4.15,0,0,1,2.79,1,3.62,3.62,0,0,1,1.21,2.9,3.94,3.94,0,0,1-1.26,2.94,4.74,4.74,0,0,1-3.44,1.22,4.85,4.85,0,0,1-3.43-1.19,4.13,4.13,0,0,1-1.39-2.89l1.92-.44a2.88,2.88,0,0,0,.87,2,3.13,3.13,0,0,0,4,.08,2.26,2.26,0,0,0,.73-1.71,2.16,2.16,0,0,0-.78-1.8,2.89,2.89,0,0,0-1.86-.62A3.33,3.33,0,0,0,31.45,738.59Z"/><path class="cls-11" d="M39,738.13a8.31,8.31,0,0,1,1.16-4.7,4.85,4.85,0,0,1,8,0,10.1,10.1,0,0,1,0,9.4,4.85,4.85,0,0,1-8,0A8.31,8.31,0,0,1,39,738.13Zm1.94,0q0,3,1.14,4.2a2.95,2.95,0,0,0,4.12,0q1.14-1.2,1.14-4.2t-1.14-4.2a2.95,2.95,0,0,0-4.12,0Q40.95,735.13,40.95,738.13Z"/><path class="cls-11" d="M56.29,742a2.6,2.6,0,0,1,.8-2,3.74,3.74,0,0,1,2.12-.93l2.6-.38q.74-.1.74-.72a1.61,1.61,0,0,0-.52-1.24,2.23,2.23,0,0,0-1.56-.48,2.12,2.12,0,0,0-1.52.53,2.21,2.21,0,0,0-.66,1.41l-1.8-.42a3.15,3.15,0,0,1,1.26-2.25,4.24,4.24,0,0,1,2.68-.87,4.09,4.09,0,0,1,3,1,3.44,3.44,0,0,1,1,2.53V743a9.64,9.64,0,0,0,.12,1.58H62.71a8,8,0,0,1-.1-1.3,3.5,3.5,0,0,1-3.1,1.6,3.24,3.24,0,0,1-2.32-.85A2.69,2.69,0,0,1,56.29,742Zm3.48,1.3a2.92,2.92,0,0,0,2-.68,2.76,2.76,0,0,0,.76-2.16v-.44l-2.94.44a1.87,1.87,0,0,0-1,.46,1.29,1.29,0,0,0-.38,1,1.33,1.33,0,0,0,.43,1A1.54,1.54,0,0,0,59.77,743.33Z"/><path class="cls-11" d="M69.21,744.61H67.35V735h1.8v1.28a2.88,2.88,0,0,1,1.24-1.16,3.7,3.7,0,0,1,1.68-.4,3.34,3.34,0,0,1,1.72.46,2.8,2.8,0,0,1,1.16,1.36,3.4,3.4,0,0,1,3.22-1.82,3.25,3.25,0,0,1,2.35.94,3.61,3.61,0,0,1,1,2.72v6.24H79.63v-6a2.39,2.39,0,0,0-.51-1.6,1.9,1.9,0,0,0-1.53-.6,2.05,2.05,0,0,0-1.6.69,2.49,2.49,0,0,0-.62,1.73v5.82H73.49v-6A2.39,2.39,0,0,0,73,737a1.9,1.9,0,0,0-1.53-.6,2.09,2.09,0,0,0-1.62.68,2.51,2.51,0,0,0-.62,1.76Z"/><path class="cls-11" d="M13.33,542.62,14,541a4.46,4.46,0,0,0,2.36.62,4.18,4.18,0,0,0,3.33-1.27A5.11,5.11,0,0,0,20.83,537a3,3,0,0,1-1.25,1.18,4.31,4.31,0,0,1-2.11.48,4.63,4.63,0,0,1-3.14-1.17A4,4,0,0,1,13,534.3a4.12,4.12,0,0,1,1.41-3.22,4.89,4.89,0,0,1,3.37-1.26,4.79,4.79,0,0,1,3.56,1.52,6.11,6.11,0,0,1,1.48,4.44,8.63,8.63,0,0,1-1.63,5.62,5.92,5.92,0,0,1-4.85,2,6.79,6.79,0,0,1-1.64-.22A4.38,4.38,0,0,1,13.33,542.62Zm7.24-8.36a2.53,2.53,0,0,0-.84-2,2.93,2.93,0,0,0-3.93,0,2.53,2.53,0,0,0-.83,2,2.56,2.56,0,0,0,.82,2,3,3,0,0,0,4,0A2.55,2.55,0,0,0,20.57,534.26Z"/><path class="cls-11" d="M25.71,535.74a1.33,1.33,0,0,1-.4-1,1.36,1.36,0,0,1,.4-1,1.31,1.31,0,0,1,1-.41,1.4,1.4,0,0,1,1.4,1.4,1.32,1.32,0,0,1-.41,1,1.37,1.37,0,0,1-1,.4A1.33,1.33,0,0,1,25.71,535.74Zm0,7a1.33,1.33,0,0,1-.4-1,1.36,1.36,0,0,1,.4-1,1.32,1.32,0,0,1,1-.41,1.4,1.4,0,0,1,1.4,1.4,1.32,1.32,0,0,1-.41,1,1.36,1.36,0,0,1-1,.4A1.33,1.33,0,0,1,25.73,542.78Z"/><path class="cls-11" d="M35.17,543.08H33.25v-9.14H30.11v-1.38a3.71,3.71,0,0,0,2.22-.69,2.81,2.81,0,0,0,1.12-1.75h1.72Z"/><path class="cls-11" d="M37.37,539.56l1.88-.56a2.76,2.76,0,0,0,.89,1.94,2.89,2.89,0,0,0,2,.74,2.85,2.85,0,0,0,2-.72,2.43,2.43,0,0,0,.8-1.9,2.5,2.5,0,0,0-.8-2,2.93,2.93,0,0,0-2-.7,3.12,3.12,0,0,0-2.36.94l-.92-.36-1-.4,1.68-6.44h6.84v1.8H40.85l-1,3.72a3.37,3.37,0,0,1,2.64-1,4.43,4.43,0,0,1,3.17,1.16A4.11,4.11,0,0,1,46.93,539a4.19,4.19,0,0,1-1.32,3.15,4.75,4.75,0,0,1-3.44,1.27,5,5,0,0,1-3.33-1.12A3.9,3.9,0,0,1,37.37,539.56Z"/><path class="cls-11" d="M53.63,540.5a2.6,2.6,0,0,1,.8-2,3.74,3.74,0,0,1,2.12-.93l2.6-.38q.74-.1.74-.72a1.61,1.61,0,0,0-.52-1.24,2.23,2.23,0,0,0-1.56-.48,2.12,2.12,0,0,0-1.52.53,2.21,2.21,0,0,0-.66,1.41l-1.8-.42A3.15,3.15,0,0,1,55.09,534a4.24,4.24,0,0,1,2.68-.87,4.09,4.09,0,0,1,3,1,3.44,3.44,0,0,1,1,2.53v4.82a9.64,9.64,0,0,0,.12,1.58H60a8,8,0,0,1-.1-1.3,3.5,3.5,0,0,1-3.1,1.6,3.24,3.24,0,0,1-2.32-.85A2.69,2.69,0,0,1,53.63,540.5Zm3.48,1.3a2.92,2.92,0,0,0,2-.68,2.76,2.76,0,0,0,.76-2.16v-.44l-2.94.44a1.87,1.87,0,0,0-1,.46,1.29,1.29,0,0,0-.38,1,1.33,1.33,0,0,0,.43,1A1.54,1.54,0,0,0,57.11,541.8Z"/><path class="cls-11" d="M66.55,543.08H64.69v-9.62h1.8v1.28a2.88,2.88,0,0,1,1.24-1.16,3.7,3.7,0,0,1,1.68-.4,3.34,3.34,0,0,1,1.72.46A2.8,2.8,0,0,1,72.29,535a3.4,3.4,0,0,1,3.22-1.82,3.25,3.25,0,0,1,2.35.94,3.61,3.61,0,0,1,1,2.72v6.24H77v-6a2.39,2.39,0,0,0-.51-1.6,1.9,1.9,0,0,0-1.53-.6,2.05,2.05,0,0,0-1.6.69,2.49,2.49,0,0,0-.62,1.73v5.82H70.83v-6a2.39,2.39,0,0,0-.51-1.6,1.9,1.9,0,0,0-1.53-.6,2.09,2.09,0,0,0-1.62.68,2.51,2.51,0,0,0-.62,1.76Z"/><path class="cls-9" d="M320,533.35l-4.8-6.44-2,2.16v4.28h-2V519.17h2v7.3l6.64-7.3h2.58l-5.9,6.32,6,7.86Z"/><path class="cls-9" d="M330.39,530l1.62.56a4.26,4.26,0,0,1-1.56,2.19,4.49,4.49,0,0,1-2.76.85,4.7,4.7,0,0,1-3.43-1.39,5,5,0,0,1-1.41-3.75,5.09,5.09,0,0,1,1.36-3.64,4.62,4.62,0,0,1,6.64-.07,5.32,5.32,0,0,1,1.22,3.67,3.65,3.65,0,0,1,0,.6h-7.24a2.89,2.89,0,0,0,.85,2.1,2.8,2.8,0,0,0,2,.82A2.6,2.6,0,0,0,330.39,530Zm-5.54-2.5h5.26a2.42,2.42,0,0,0-2.64-2.46,2.48,2.48,0,0,0-1.84.73A2.63,2.63,0,0,0,324.85,527.55Z"/><path class="cls-9" d="M336.35,527.79v5.56h-1.88v-9.62h1.84v1.38a3.18,3.18,0,0,1,3-1.66,3.14,3.14,0,0,1,2.55,1.06,4.13,4.13,0,0,1,.89,2.74v6.1h-1.88v-5.78q0-2.42-2.24-2.42a2,2,0,0,0-1.65.75A3,3,0,0,0,336.35,527.79Z"/><path class="cls-9" d="M352.45,532v-.16a3.16,3.16,0,0,1-1.15,1.23,3.34,3.34,0,0,1-1.83.49,4.15,4.15,0,0,1-3.31-1.45,5.38,5.38,0,0,1-1.25-3.65,5.25,5.25,0,0,1,1.28-3.57,4.16,4.16,0,0,1,3.28-1.47,3.54,3.54,0,0,1,1.92.47,2.51,2.51,0,0,1,1,1.15v-6.22h1.86v12.7a14.49,14.49,0,0,0,.1,1.78h-1.82A7.29,7.29,0,0,1,352.45,532Zm-5.62-3.54a3.91,3.91,0,0,0,.75,2.48,2.48,2.48,0,0,0,2.07,1,2.43,2.43,0,0,0,2-1,4,4,0,0,0,.76-2.5,3.74,3.74,0,0,0-.74-2.42,2.45,2.45,0,0,0-2-.92,2.55,2.55,0,0,0-2.06.94A3.7,3.7,0,0,0,346.83,528.51Z"/><path class="cls-9" d="M356.87,530.77a2.6,2.6,0,0,1,.8-2,3.75,3.75,0,0,1,2.12-.93l2.6-.38q.74-.1.74-.72a1.61,1.61,0,0,0-.52-1.24,2.23,2.23,0,0,0-1.56-.48,2.12,2.12,0,0,0-1.52.53,2.21,2.21,0,0,0-.66,1.41l-1.8-.42a3.14,3.14,0,0,1,1.26-2.25,4.23,4.23,0,0,1,2.68-.87,4.09,4.09,0,0,1,3,1,3.44,3.44,0,0,1,1,2.53v4.82a9.64,9.64,0,0,0,.12,1.58h-1.84a8,8,0,0,1-.1-1.3,3.51,3.51,0,0,1-3.1,1.6,3.24,3.24,0,0,1-2.32-.85A2.7,2.7,0,0,1,356.87,530.77Zm3.48,1.3a2.91,2.91,0,0,0,2-.68,2.76,2.76,0,0,0,.76-2.16v-.44l-2.94.44a1.86,1.86,0,0,0-1,.46,1.29,1.29,0,0,0-.38,1,1.33,1.33,0,0,0,.43,1A1.55,1.55,0,0,0,360.35,532.07Z"/><path class="cls-9" d="M369.81,533.35h-1.88V518.87h1.88Z"/><path class="cls-9" d="M374.89,533.35H373V518.87h1.88Z"/><path class="cls-9" d="M392.33,522.39l-1.76.62a3,3,0,0,0-.9-1.67,3.24,3.24,0,0,0-4.06-.07,2.14,2.14,0,0,0-.78,1.68,1.94,1.94,0,0,0,.47,1.32,2.44,2.44,0,0,0,1.35.74l2.12.46a5,5,0,0,1,2.72,1.43,3.65,3.65,0,0,1,1,2.55,3.87,3.87,0,0,1-1.36,3,5.05,5.05,0,0,1-3.54,1.24,5.27,5.27,0,0,1-3.73-1.25,4.78,4.78,0,0,1-1.57-3l1.88-.6a3.41,3.41,0,0,0,1,2.16,3.83,3.83,0,0,0,4.56.24,2,2,0,0,0,.76-1.62,2,2,0,0,0-.54-1.39,2.89,2.89,0,0,0-1.58-.81l-2-.44a4.71,4.71,0,0,1-2.52-1.34,3.56,3.56,0,0,1-.94-2.54,3.91,3.91,0,0,1,1.37-3,4.69,4.69,0,0,1,3.31-1.27,4.78,4.78,0,0,1,3.34,1.06A4.6,4.6,0,0,1,392.33,522.39Z"/><path class="cls-9" d="M403.37,537.15h-1.86V532a2.8,2.8,0,0,1-1.17,1.18,3.7,3.7,0,0,1-1.83.44,4.14,4.14,0,0,1-3.29-1.47,5.81,5.81,0,0,1,0-7.2,4.1,4.1,0,0,1,3.29-1.45,3.58,3.58,0,0,1,1.95.5,3,3,0,0,1,1.13,1.22v-1.48h1.82Zm-6.74-11.07a3.71,3.71,0,0,0-.76,2.43,3.85,3.85,0,0,0,.77,2.47,2.48,2.48,0,0,0,2,1,2.52,2.52,0,0,0,2.05-1,3.79,3.79,0,0,0,.79-2.47,3.65,3.65,0,0,0-.78-2.43,2.56,2.56,0,0,0-2.06-.93A2.52,2.52,0,0,0,396.63,526.08Z"/><path class="cls-9" d="M412.71,532.19a2.46,2.46,0,0,1-1.16,1.09,3.87,3.87,0,0,1-1.68.37,3.35,3.35,0,0,1-2.62-1.09,4,4,0,0,1-1-2.77v-6.06h1.88v5.78a2.87,2.87,0,0,0,.53,1.78,1.94,1.94,0,0,0,1.65.7,2.12,2.12,0,0,0,1.7-.67,2.64,2.64,0,0,0,.58-1.79v-5.8h1.88v7.84a15.13,15.13,0,0,0,.1,1.78h-1.8A6.83,6.83,0,0,1,412.71,532.19Z"/><path class="cls-9" d="M417.09,530.77a2.6,2.6,0,0,1,.8-2,3.75,3.75,0,0,1,2.12-.93l2.6-.38q.74-.1.74-.72a1.61,1.61,0,0,0-.52-1.24,2.23,2.23,0,0,0-1.56-.48,2.12,2.12,0,0,0-1.52.53,2.21,2.21,0,0,0-.66,1.41l-1.8-.42a3.14,3.14,0,0,1,1.26-2.25,4.23,4.23,0,0,1,2.68-.87,4.09,4.09,0,0,1,3,1,3.44,3.44,0,0,1,1,2.53v4.82a9.64,9.64,0,0,0,.12,1.58h-1.84a8,8,0,0,1-.1-1.3,3.51,3.51,0,0,1-3.1,1.6,3.24,3.24,0,0,1-2.32-.85A2.7,2.7,0,0,1,417.09,530.77Zm3.48,1.3a2.91,2.91,0,0,0,2-.68,2.76,2.76,0,0,0,.76-2.16v-.44l-2.94.44a1.86,1.86,0,0,0-1,.46,1.29,1.29,0,0,0-.38,1,1.33,1.33,0,0,0,.43,1A1.55,1.55,0,0,0,420.57,532.07Z"/><path class="cls-9" d="M433.49,523.63v2a5.78,5.78,0,0,0-.82-.06q-2.64,0-2.64,3v4.82h-1.88v-9.62H430v1.68a3,3,0,0,1,2.88-1.84A3.14,3.14,0,0,1,433.49,523.63Z"/><path class="cls-9" d="M442.15,530l1.62.56a4.27,4.27,0,0,1-1.56,2.19,4.49,4.49,0,0,1-2.76.85,4.7,4.7,0,0,1-3.43-1.39,5,5,0,0,1-1.41-3.75,5.09,5.09,0,0,1,1.36-3.64,4.62,4.62,0,0,1,6.64-.07,5.32,5.32,0,0,1,1.22,3.67,3.91,3.91,0,0,1,0,.6h-7.24a2.9,2.9,0,0,0,.85,2.1,2.8,2.8,0,0,0,2.05.82A2.6,2.6,0,0,0,442.15,530Zm-5.54-2.5h5.26a2.42,2.42,0,0,0-2.64-2.46,2.48,2.48,0,0,0-1.84.73A2.61,2.61,0,0,0,436.61,527.55Z"/><path class="cls-9" d="M354.66,861.33l-1.54-4h-6.28l-1.5,4h-2.1l5.64-14.18h2.26l5.64,14.18ZM350,849.19l-2.42,6.36h4.88Z"/><path class="cls-9" d="M360.46,861.33h-1.88V846.85h1.88Z"/><path class="cls-9" d="M370.42,858l1.62.56a4.26,4.26,0,0,1-1.56,2.19,4.49,4.49,0,0,1-2.76.85,4.71,4.71,0,0,1-3.43-1.39,5,5,0,0,1-1.41-3.75,5.09,5.09,0,0,1,1.36-3.64,4.63,4.63,0,0,1,6.64-.07,5.32,5.32,0,0,1,1.22,3.67,3.65,3.65,0,0,1,0,.6h-7.24a2.89,2.89,0,0,0,.85,2.1,2.8,2.8,0,0,0,2,.82A2.6,2.6,0,0,0,370.42,858Zm-5.54-2.5h5.26a2.42,2.42,0,0,0-2.64-2.46,2.48,2.48,0,0,0-1.84.73A2.63,2.63,0,0,0,364.88,855.53Z"/><path class="cls-9" d="M379.82,851.7h1.94l2.5,7.24,2.12-7.24h2l-3.12,9.62H383.3L380.74,854l-2.5,7.32h-2l-3.16-9.62h2.06l2.16,7.24Z"/><path class="cls-9" d="M390.23,849a1.29,1.29,0,0,1-.39-.95,1.32,1.32,0,0,1,.39-1,1.28,1.28,0,0,1,.95-.4,1.33,1.33,0,0,1,1,.39,1.3,1.3,0,0,1,.4,1,1.28,1.28,0,0,1-.4.95,1.33,1.33,0,0,1-1,.39A1.29,1.29,0,0,1,390.23,849Zm1.89,12.31h-1.86V851.7h1.86Z"/><path class="cls-9" d="M400.16,853.41h-2.32v7.92H395.9v-7.92h-1.78v-1.7h1.78v-1.62a3.23,3.23,0,0,1,.9-2.42,3.11,3.11,0,0,1,2.26-.88,2.06,2.06,0,0,1,1.12.2v1.68a2.27,2.27,0,0,0-.82-.12,1.64,1.64,0,0,0-1.07.37,1.56,1.56,0,0,0-.45,1.27v1.52h2.32Z"/><path class="cls-9" d="M408.54,858l1.62.56a4.26,4.26,0,0,1-1.56,2.19,4.49,4.49,0,0,1-2.76.85,4.71,4.71,0,0,1-3.43-1.39,5,5,0,0,1-1.41-3.75,5.09,5.09,0,0,1,1.36-3.64,4.63,4.63,0,0,1,6.64-.07,5.32,5.32,0,0,1,1.22,3.67,3.65,3.65,0,0,1,0,.6h-7.24a2.89,2.89,0,0,0,.85,2.1,2.8,2.8,0,0,0,2,.82A2.6,2.6,0,0,0,408.54,858Zm-5.54-2.5h5.26a2.42,2.42,0,0,0-2.64-2.46,2.48,2.48,0,0,0-1.84.73A2.63,2.63,0,0,0,403,855.53Z"/><path class="cls-11" d="M11.12,945.37l.64-1.62a4.44,4.44,0,0,0,2.36.62,4.18,4.18,0,0,0,3.33-1.27,5.11,5.11,0,0,0,1.17-3.33,3,3,0,0,1-1.25,1.18,4.31,4.31,0,0,1-2.11.48,4.62,4.62,0,0,1-3.14-1.17A4,4,0,0,1,10.78,937a4.13,4.13,0,0,1,1.41-3.22,4.89,4.89,0,0,1,3.37-1.26,4.79,4.79,0,0,1,3.56,1.52,6.12,6.12,0,0,1,1.48,4.44A8.62,8.62,0,0,1,19,944.15a5.92,5.92,0,0,1-4.85,2,6.8,6.8,0,0,1-1.64-.22A4.43,4.43,0,0,1,11.12,945.37ZM18.36,937a2.52,2.52,0,0,0-.84-2,2.93,2.93,0,0,0-3.93,0,2.53,2.53,0,0,0-.83,2,2.56,2.56,0,0,0,.82,2,3,3,0,0,0,4,0A2.55,2.55,0,0,0,18.36,937Z"/><path class="cls-11" d="M23.5,938.49a1.33,1.33,0,0,1-.4-1,1.36,1.36,0,0,1,.4-1,1.31,1.31,0,0,1,1-.41,1.4,1.4,0,0,1,1.4,1.4,1.32,1.32,0,0,1-.41,1,1.36,1.36,0,0,1-1,.4A1.33,1.33,0,0,1,23.5,938.49Zm0,7a1.34,1.34,0,0,1-.4-1,1.37,1.37,0,0,1,.4-1,1.32,1.32,0,0,1,1-.41,1.4,1.4,0,0,1,1.4,1.4,1.32,1.32,0,0,1-.41,1,1.37,1.37,0,0,1-1,.4A1.33,1.33,0,0,1,23.52,945.53Z"/><path class="cls-11" d="M28.1,942.91v-2.26l5.56-7.78h2.7v8.22h2.22v1.82H36.36v2.92h-1.9v-2.92Zm6.36-1.82v-6.34l-4.56,6.34Z"/><path class="cls-11" d="M39.58,942.31l1.88-.56a2.77,2.77,0,0,0,.89,1.94,2.9,2.9,0,0,0,2,.74,2.85,2.85,0,0,0,2-.72,2.44,2.44,0,0,0,.8-1.9,2.5,2.5,0,0,0-.8-2,2.93,2.93,0,0,0-2-.7,3.12,3.12,0,0,0-2.36.94l-.92-.36-1-.4,1.68-6.44H48.6v1.8H43.06l-1,3.72a3.37,3.37,0,0,1,2.64-1,4.44,4.44,0,0,1,3.17,1.16,4.11,4.11,0,0,1,1.23,3.14,4.2,4.2,0,0,1-1.32,3.15,4.76,4.76,0,0,1-3.44,1.27A5,5,0,0,1,41,945,3.91,3.91,0,0,1,39.58,942.31Z"/><path class="cls-11" d="M55.84,943.25a2.6,2.6,0,0,1,.8-2,3.76,3.76,0,0,1,2.12-.93l2.6-.38q.74-.1.74-.72a1.61,1.61,0,0,0-.52-1.24,2.23,2.23,0,0,0-1.56-.48,2.12,2.12,0,0,0-1.52.53,2.21,2.21,0,0,0-.66,1.41L56,939a3.15,3.15,0,0,1,1.26-2.25,4.24,4.24,0,0,1,2.68-.87,4.09,4.09,0,0,1,3,1,3.45,3.45,0,0,1,1,2.53v4.82a9.63,9.63,0,0,0,.12,1.58H62.26a7.94,7.94,0,0,1-.1-1.3,3.52,3.52,0,0,1-3.1,1.6,3.24,3.24,0,0,1-2.32-.85A2.7,2.7,0,0,1,55.84,943.25Zm3.48,1.3a2.92,2.92,0,0,0,2-.68,2.76,2.76,0,0,0,.76-2.16v-.44l-2.94.44a1.85,1.85,0,0,0-1,.46,1.29,1.29,0,0,0-.38,1,1.33,1.33,0,0,0,.43,1A1.55,1.55,0,0,0,59.32,944.55Z"/><path class="cls-11" d="M68.76,945.83H66.9v-9.62h1.8v1.28a2.9,2.9,0,0,1,1.24-1.16,3.72,3.72,0,0,1,1.68-.4,3.33,3.33,0,0,1,1.72.46,2.79,2.79,0,0,1,1.16,1.36,3.4,3.4,0,0,1,3.22-1.82,3.25,3.25,0,0,1,2.35.94,3.61,3.61,0,0,1,1,2.72v6.24H79.18v-6a2.38,2.38,0,0,0-.51-1.6,1.9,1.9,0,0,0-1.53-.6,2,2,0,0,0-1.6.69,2.49,2.49,0,0,0-.62,1.73v5.82H73v-6a2.38,2.38,0,0,0-.51-1.6,1.9,1.9,0,0,0-1.53-.6,2.09,2.09,0,0,0-1.62.68,2.51,2.51,0,0,0-.62,1.76Z"/><path class="cls-11" d="M303.26,1110.91h-2v-14.18h8.62v1.82h-6.66v4.56h6V1105h-6Z"/><path class="cls-11" d="M312,1098.6a1.29,1.29,0,0,1-.39-.95,1.33,1.33,0,0,1,.39-1,1.28,1.28,0,0,1,.95-.4,1.33,1.33,0,0,1,1,.39,1.3,1.3,0,0,1,.4,1,1.28,1.28,0,0,1-.4.95,1.33,1.33,0,0,1-1,.39A1.29,1.29,0,0,1,312,1098.6Zm1.89,12.31H312v-9.62h1.86Z"/><path class="cls-11" d="M319,1105.35v5.56h-1.88v-9.62h1.84v1.38a3.18,3.18,0,0,1,3-1.66,3.14,3.14,0,0,1,2.55,1.06,4.12,4.12,0,0,1,.89,2.74v6.1h-1.88v-5.78q0-2.42-2.24-2.42a2,2,0,0,0-1.65.75A3,3,0,0,0,319,1105.35Z"/><path class="cls-11" d="M327.72,1108.33a2.6,2.6,0,0,1,.8-2,3.74,3.74,0,0,1,2.12-.93l2.6-.38q.74-.1.74-.72a1.61,1.61,0,0,0-.52-1.24,2.23,2.23,0,0,0-1.56-.48,2.12,2.12,0,0,0-1.52.53,2.21,2.21,0,0,0-.66,1.41l-1.8-.42a3.15,3.15,0,0,1,1.26-2.25,4.24,4.24,0,0,1,2.68-.87,4.09,4.09,0,0,1,3,1,3.44,3.44,0,0,1,1,2.53v4.82a9.64,9.64,0,0,0,.12,1.58h-1.84a8,8,0,0,1-.1-1.3,3.5,3.5,0,0,1-3.1,1.6,3.24,3.24,0,0,1-2.32-.85A2.69,2.69,0,0,1,327.72,1108.33Zm3.48,1.3a2.92,2.92,0,0,0,2-.68,2.76,2.76,0,0,0,.76-2.16v-.44l-2.94.44a1.87,1.87,0,0,0-1,.46,1.29,1.29,0,0,0-.38,1,1.33,1.33,0,0,0,.43,1A1.54,1.54,0,0,0,331.2,1109.63Z"/><path class="cls-11" d="M340.66,1110.91h-1.88v-14.48h1.88Z"/><path class="cls-11" d="M354,1110.91h-4.92v-14.18h5a6.61,6.61,0,0,1,4.8,1.89,7,7,0,0,1,1.94,5.23,6.83,6.83,0,0,1-2,5.19A6.71,6.71,0,0,1,354,1110.91Zm-3-1.74h2.9a4.66,4.66,0,0,0,3.45-1.38,5.35,5.35,0,0,0,1.37-3.94,5.5,5.5,0,0,0-1.35-4,4.57,4.57,0,0,0-3.43-1.4H351Z"/><path class="cls-11" d="M370,1107.61l1.62.56a4.26,4.26,0,0,1-1.56,2.19,4.49,4.49,0,0,1-2.76.85,4.7,4.7,0,0,1-3.43-1.39,5,5,0,0,1-1.41-3.75,5.09,5.09,0,0,1,1.36-3.64,4.63,4.63,0,0,1,6.64-.07,5.32,5.32,0,0,1,1.22,3.67,3.77,3.77,0,0,1,0,.6h-7.24a2.9,2.9,0,0,0,.85,2.1,2.8,2.8,0,0,0,2,.82A2.6,2.6,0,0,0,370,1107.61Zm-5.54-2.5h5.26a2.42,2.42,0,0,0-2.64-2.46,2.48,2.48,0,0,0-1.84.73A2.62,2.62,0,0,0,364.48,1105.11Z"/><path class="cls-11" d="M373.2,1108.41l1.7-.6a2,2,0,0,0,.68,1.29,2.28,2.28,0,0,0,1.56.51,1.81,1.81,0,0,0,1.2-.37,1.15,1.15,0,0,0,.44-.91q0-1-1.24-1.24l-1.64-.36a3.16,3.16,0,0,1-1.76-1,2.53,2.53,0,0,1-.64-1.74,2.77,2.77,0,0,1,1-2.14,3.49,3.49,0,0,1,2.41-.9,4.65,4.65,0,0,1,1.64.27,2.81,2.81,0,0,1,1.12.71,4.2,4.2,0,0,1,.6.82,3.55,3.55,0,0,1,.3.78l-1.66.62a2,2,0,0,0-.14-.47,2.67,2.67,0,0,0-.31-.51,1.45,1.45,0,0,0-.61-.45,2.4,2.4,0,0,0-.94-.17,1.73,1.73,0,0,0-1.15.38,1.15,1.15,0,0,0-.45.9q0,.92,1.1,1.16l1.56.34a3.66,3.66,0,0,1,2,1,2.6,2.6,0,0,1,.69,1.83,2.83,2.83,0,0,1-.93,2.06,3.52,3.52,0,0,1-2.59.92,4,4,0,0,1-2.78-.89A3.16,3.16,0,0,1,373.2,1108.41Z"/><path class="cls-11" d="M385.66,1098.25v3h2.08v1.7h-2.08v5a1.14,1.14,0,0,0,1.34,1.32,3.1,3.1,0,0,0,.74-.08v1.6a3.76,3.76,0,0,1-1.28.18,2.65,2.65,0,0,1-2-.72,2.73,2.73,0,0,1-.72-2V1103h-1.84v-1.7h.52a1.42,1.42,0,0,0,1.11-.41,1.53,1.53,0,0,0,.37-1.07v-1.56Z"/><path class="cls-11" d="M390.21,1098.6a1.29,1.29,0,0,1-.39-.95,1.33,1.33,0,0,1,.39-1,1.28,1.28,0,0,1,.95-.4,1.33,1.33,0,0,1,1,.39,1.3,1.3,0,0,1,.4,1,1.28,1.28,0,0,1-.4.95,1.33,1.33,0,0,1-1,.39A1.29,1.29,0,0,1,390.21,1098.6Zm1.89,12.31h-1.86v-9.62h1.86Z"/><path class="cls-11" d="M397.18,1105.35v5.56H395.3v-9.62h1.84v1.38a3.18,3.18,0,0,1,3-1.66,3.14,3.14,0,0,1,2.55,1.06,4.12,4.12,0,0,1,.89,2.74v6.1h-1.88v-5.78q0-2.42-2.24-2.42a2,2,0,0,0-1.65.75A3,3,0,0,0,397.18,1105.35Z"/><path class="cls-11" d="M405.94,1108.33a2.6,2.6,0,0,1,.8-2,3.74,3.74,0,0,1,2.12-.93l2.6-.38q.74-.1.74-.72a1.61,1.61,0,0,0-.52-1.24,2.23,2.23,0,0,0-1.56-.48,2.12,2.12,0,0,0-1.52.53,2.21,2.21,0,0,0-.66,1.41l-1.8-.42a3.15,3.15,0,0,1,1.26-2.25,4.24,4.24,0,0,1,2.68-.87,4.09,4.09,0,0,1,3,1,3.44,3.44,0,0,1,1,2.53v4.82a9.64,9.64,0,0,0,.12,1.58h-1.84a8,8,0,0,1-.1-1.3,3.5,3.5,0,0,1-3.1,1.6,3.24,3.24,0,0,1-2.32-.85A2.69,2.69,0,0,1,405.94,1108.33Zm3.48,1.3a2.92,2.92,0,0,0,2-.68,2.76,2.76,0,0,0,.76-2.16v-.44l-2.94.44a1.87,1.87,0,0,0-1,.46,1.29,1.29,0,0,0-.38,1,1.33,1.33,0,0,0,.43,1A1.54,1.54,0,0,0,409.42,1109.63Z"/><path class="cls-11" d="M419.52,1098.25v3h2.08v1.7h-2.08v5a1.14,1.14,0,0,0,1.34,1.32,3.1,3.1,0,0,0,.74-.08v1.6a3.76,3.76,0,0,1-1.28.18,2.65,2.65,0,0,1-2-.72,2.73,2.73,0,0,1-.72-2V1103H415.8v-1.7h.52a1.42,1.42,0,0,0,1.11-.41,1.53,1.53,0,0,0,.37-1.07v-1.56Z"/><path class="cls-11" d="M424.07,1098.6a1.29,1.29,0,0,1-.39-.95,1.33,1.33,0,0,1,.39-1,1.28,1.28,0,0,1,.95-.4,1.33,1.33,0,0,1,1,.39,1.3,1.3,0,0,1,.4,1,1.28,1.28,0,0,1-.4.95,1.33,1.33,0,0,1-1,.39A1.29,1.29,0,0,1,424.07,1098.6Zm1.89,12.31H424.1v-9.62H426Z"/><path class="cls-11" d="M429.75,1102.44a5,5,0,0,1,7.06,0,5.53,5.53,0,0,1,0,7.32,5,5,0,0,1-7.08,0,5.53,5.53,0,0,1,0-7.32Zm1.4,6.18a2.95,2.95,0,0,0,4.26,0,4.08,4.08,0,0,0,0-5,2.95,2.95,0,0,0-4.26,0,4.08,4.08,0,0,0,0,5Z"/><path class="cls-11" d="M442.48,1105.35v5.56H440.6v-9.62h1.84v1.38a3.18,3.18,0,0,1,3-1.66,3.14,3.14,0,0,1,2.55,1.06,4.12,4.12,0,0,1,.89,2.74v6.1H447v-5.78q0-2.42-2.24-2.42a2,2,0,0,0-1.65.75A3,3,0,0,0,442.48,1105.35Z"/><g class="cls-12"><rect class="cls-13" x="1" y="0.84" width="750" height="128"/></g><g class="cls-14"><rect class="cls-15" x="1" y="128.84" width="750" height="1"/></g><path class="cls-16" d="M357.25,113.53a4.29,4.29,0,0,1-4.29-4.29v-34a15.17,15.17,0,1,0-30.35,0V104.8h5.27a6.19,6.19,0,0,0,6.18-6.18v-18a4.29,4.29,0,0,1,8.58,0v18a14.77,14.77,0,0,1-14.76,14.75h-9.55a4.29,4.29,0,0,1-4.29-4.29V75.29a23.75,23.75,0,0,1,47.5,0v34A4.29,4.29,0,0,1,357.25,113.53Z"/><path class="cls-17" d="M395.46,113.53a23.78,23.78,0,0,1-23.75-23.75v-34a4.29,4.29,0,0,1,8.58,0v34a15.17,15.17,0,1,0,30.35,0V56a4.29,4.29,0,0,1,8.58,0v33.8A23.78,23.78,0,0,1,395.46,113.53Z"/><path class="cls-18" d="M433.67,113.76a4.29,4.29,0,0,1-4.29-4.29V55.59a4.29,4.29,0,0,1,8.58,0v53.88A4.29,4.29,0,0,1,433.67,113.76Z"/><g id="Page_Controls_-_Standard_Dark" data-name="Page Controls - Standard Dark"><g id="Page_Controls_Frame" data-name="Page Controls Frame" class="cls-19"><rect class="cls-3" x="1.47" y="1143.98" width="750" height="30"/></g><g id="Page_Controls_Group" data-name="Page Controls Group"><g id="Page_Controls_Frame-2" data-name="Page Controls Frame"><rect class="cls-10" x="1.47" y="1143.98" width="750" height="30"/></g><g id="Page_Control_-_Inactive" data-name="Page Control - Inactive" class="cls-20"><circle class="cls-15" cx="407.77" cy="1158.98" r="7"/></g><g id="Page_Control_-_Inactive-2" data-name="Page Control - Inactive" class="cls-20"><circle class="cls-15" cx="375.77" cy="1158.98" r="7"/></g><g id="Page_Control_-_Active" data-name="Page Control - Active"><circle class="cls-6" cx="343.77" cy="1158.98" r="7"/></g></g></g><path class="cls-6" d="M708.47,71.7H671.05a2.5,2.5,0,0,1,0-5h37.42a2.5,2.5,0,0,1,0,5Z"/><path class="cls-6" d="M708.47,85H671.05a2.5,2.5,0,0,1,0-5h37.42a2.5,2.5,0,0,1,0,5Z"/><path class="cls-6" d="M708.47,98.37H671.05a2.5,2.5,0,0,1,0-5h37.42a2.5,2.5,0,0,1,0,5Z"/><g class="cls-14"><rect class="cls-15" y="1174.12" width="750" height="1"/></g><rect class="cls-9" x="285.4" y="481.11" width="178.48" height="3"/><rect class="cls-9" x="285.4" y="899.46" width="178.48" height="3"/><path class="cls-7" d="M528.66,664.76s7.17-2.93,8.68,32.16H510.09s-3.82-34.29,6.11-32.22Z"/><path class="cls-5" d="M576.49,664.76s7.17-2.93,8.68,32.16H557.93s-3.82-34.29,6.11-32.22Z"/><path class="cls-7" d="M625.34,664.76s7.17-2.93,8.68,32.16H606.78s-3.82-34.29,6.11-32.22Z"/><circle class="cls-5" cx="520.8" cy="657.49" r="10.71"/><circle class="cls-7" cx="570.04" cy="657.49" r="10.71"/><circle class="cls-5" cx="616.76" cy="657.49" r="10.71"/><path class="cls-8" d="M598.42,684.89s7.17-2.93,8.68,32.16H579.86S576,682.76,586,684.83Z"/><path class="cls-8" d="M557.4,684.89s7.17-2.93,8.68,32.16H538.84s-3.82-34.29,6.11-32.22Z"/><path class="cls-7" d="M533.69,707s7.17-2.93,8.68,32.16H515.13s-3.82-34.29,6.11-32.22Z"/><path class="cls-5" d="M576.49,712.06s7.17-2.93,8.68,32.16H557.93S554.11,709.93,564,712Z"/><path class="cls-7" d="M622.82,707s7.17-2.93,8.68,32.16H604.26s-3.82-34.29,6.11-32.22Z"/><circle class="cls-5" cx="525.84" cy="699.74" r="10.71"/><circle class="cls-7" cx="570.04" cy="704.78" r="10.71"/><circle class="cls-5" cx="614.24" cy="699.74" r="10.71"/><circle class="cls-7" cx="549.77" cy="676.23" r="10.71"/><circle class="cls-7" cx="590.62" cy="676.23" r="10.71"/><path class="cls-7" d="M506.78,681a5.06,5.06,0,0,1-4.38-7.58L524,636a5.06,5.06,0,0,1,8.76,0l21.61,37.42A5.06,5.06,0,0,1,550,681Z"/><path class="cls-6" d="M528.39,635.86a2.59,2.59,0,0,1,2.28,1.32l21.61,37.42a2.63,2.63,0,0,1-2.28,3.95H506.78a2.63,2.63,0,0,1-2.28-3.95l21.61-37.42a2.59,2.59,0,0,1,2.28-1.32m0-4.85a7.41,7.41,0,0,0-6.48,3.74L500.3,672.17a7.48,7.48,0,0,0,6.48,11.22H550a7.48,7.48,0,0,0,6.48-11.22l-21.61-37.42a7.41,7.41,0,0,0-6.48-3.74Z"/><rect class="cls-6" x="517.47" y="655.84" width="21.83" height="2.72" rx="1.29" ry="1.29" transform="translate(1185.59 128.81) rotate(90)"/><circle class="cls-6" cx="528.39" cy="672.23" r="1.99"/></g></g></g></svg>