<svg xmlns="http://www.w3.org/2000/svg" viewBox="0 0 751.37 1334"><defs><style>.cls-1{isolation:isolate;}.cls-16,.cls-2,.cls-36,.cls-44,.cls-7,.cls-8{fill:#fff;}.cls-2{mix-blend-mode:screen;}.cls-3{fill:#595a5c;}.cls-4{fill:#01b8af;}.cls-5{fill:#fdb82c;}.cls-6{fill:#ed3393;}.cls-7{stroke:#01b8af;opacity:0.2;}.cls-30,.cls-32,.cls-42,.cls-43,.cls-7{stroke-miterlimit:10;}.cls-32,.cls-7{stroke-width:3px;}.cls-8{font-size:37.38px;font-family:CerebriSans-Medium, Cerebri Sans;}.cls-9{letter-spacing:-0.08em;}.cls-10{letter-spacing:-0.01em;}.cls-11{letter-spacing:-0.07em;}.cls-12{letter-spacing:0em;}.cls-13{letter-spacing:-0.02em;}.cls-14{letter-spacing:0.01em;}.cls-15{letter-spacing:-0.02em;}.cls-16,.cls-36{font-size:30px;}.cls-16{font-family:GothamBold, Gotham Bold;letter-spacing:0.13em;}.cls-17{font-size:25px;}.cls-17,.cls-20,.cls-33{fill:#e4eaec;}.cls-17,.cls-21,.cls-33{font-family:CircularStd-Book, Circular Std;}.cls-18{letter-spacing:-0.01em;}.cls-19,.cls-30,.cls-32,.cls-42,.cls-43{fill:none;}.cls-21,.cls-33{font-size:20px;}.cls-21{fill:#828183;}.cls-22{letter-spacing:-0.01em;}.cls-23{letter-spacing:0em;}.cls-24{letter-spacing:0em;}.cls-25{fill:#f6f6f6;opacity:0.9;}.cls-26,.cls-45{fill:#010101;}.cls-26{opacity:0.3;}.cls-27{fill:#fbb729;}.cls-28{fill:#eb3591;}.cls-29{fill:#05b5ae;}.cls-30{stroke:#595a5c;stroke-linecap:round;stroke-width:5px;}.cls-31{letter-spacing:0.01em;}.cls-32{stroke:#e4eaec;}.cls-34{letter-spacing:-0.04em;}.cls-35{letter-spacing:-0.02em;}.cls-36{font-family:CerebriSans-SemiBold, Cerebri Sans;font-weight:700;}.cls-37{letter-spacing:-0.12em;}.cls-38{letter-spacing:0em;}.cls-39{letter-spacing:0em;}.cls-40{letter-spacing:0.03em;}.cls-41{letter-spacing:-0.01em;}.cls-42,.cls-43{stroke:#ed3393;stroke-width:7px;}.cls-43{stroke-dasharray:13.01 13.01;}.cls-44{opacity:0;}.cls-45{opacity:0.1;}</style></defs><title>weather_transit</title><g class="cls-1"><g id="Layer_2" data-name="Layer 2"><g id="Layer_1-2" data-name="Layer 1"><rect class="cls-2" width="750" height="1334"/><path class="cls-3" d="M619.45,1136.49a17.06,17.06,0,0,0-24.06-8.55,26.71,26.71,0,0,0-50.61-5.5,18.86,18.86,0,0,0-20.3,11,13.35,13.35,0,1,0-2.27,26.51h93.45a12,12,0,0,0,3.79-23.44Z"/><rect class="cls-4" x="524.74" y="1168.17" width="13.41" height="1.75" rx="0.87" ry="0.87" transform="translate(1322.81 157.68) rotate(62.49)"/><rect class="cls-4" x="524.74" y="1168.17" width="13.41" height="1.75" rx="0.87" ry="0.87" transform="translate(1322.81 157.68) rotate(62.49)"/><rect class="cls-5" x="546.36" y="1170.37" width="1.75" height="13.41" rx="0.87" ry="0.87" transform="translate(-481.84 385.88) rotate(-27.51)"/><rect class="cls-4" x="550.95" y="1168.17" width="13.41" height="1.75" rx="0.87" ry="0.87" transform="translate(1336.92 134.44) rotate(62.49)"/><rect class="cls-4" x="566.73" y="1176.2" width="13.41" height="1.75" rx="0.87" ry="0.87" transform="translate(1352.53 124.76) rotate(62.49)"/><rect class="cls-6" x="577.16" y="1168.17" width="13.41" height="1.75" rx="0.87" ry="0.87" transform="translate(1351.02 111.19) rotate(62.49)"/><rect class="cls-5" x="598.77" y="1170.37" width="1.75" height="13.41" rx="0.87" ry="0.87" transform="translate(-475.91 410.1) rotate(-27.51)"/><rect class="cls-4" x="603.37" y="1168.17" width="13.41" height="1.75" rx="0.87" ry="0.87" transform="translate(1365.12 87.95) rotate(62.49)"/><rect class="cls-4" x="532.77" y="1184.23" width="13.41" height="1.75" rx="0.87" ry="0.87" transform="translate(1341.38 159.2) rotate(62.49)"/><rect class="cls-6" x="532.77" y="1184.23" width="13.41" height="1.75" rx="0.87" ry="0.87" transform="translate(1341.38 159.2) rotate(62.49)"/><rect class="cls-4" x="548.55" y="1192.26" width="13.41" height="1.75" rx="0.87" ry="0.87" transform="translate(1356.99 149.53) rotate(62.49)"/><rect class="cls-6" x="558.98" y="1184.23" width="13.41" height="1.75" rx="0.87" ry="0.87" transform="matrix(0.46, 0.89, -0.89, 0.46, 1355.48, 135.96)"/><rect class="cls-5" x="580.59" y="1186.43" width="1.75" height="13.41" rx="0.87" ry="0.87" transform="translate(-485.39 403.52) rotate(-27.51)"/><rect class="cls-4" x="585.19" y="1184.23" width="13.41" height="1.75" rx="0.87" ry="0.87" transform="translate(1369.58 112.71) rotate(62.49)"/><rect class="cls-4" x="600.97" y="1192.26" width="13.41" height="1.75" rx="0.87" ry="0.87" transform="translate(1385.19 103.04) rotate(62.49)"/><rect class="cls-6" x="611.4" y="1184.23" width="13.41" height="1.75" rx="0.87" ry="0.87" transform="translate(1383.68 89.47) rotate(62.49)"/><path class="cls-5" d="M499.47,1142a4.39,4.39,0,0,1-3.8-6.59l18.76-32.5a4.39,4.39,0,0,1,7.6,0l18.77,32.5A4.39,4.39,0,0,1,537,1142Z"/><path class="cls-3" d="M518.24,1102.87a2.25,2.25,0,0,1,2,1.14l18.76,32.5a2.29,2.29,0,0,1-2,3.43H499.47a2.29,2.29,0,0,1-2-3.43l18.76-32.5a2.25,2.25,0,0,1,2-1.14m0-4.21a6.44,6.44,0,0,0-5.63,3.25l-18.76,32.5a6.5,6.5,0,0,0,5.63,9.74H537a6.5,6.5,0,0,0,5.63-9.74l-18.76-32.5a6.44,6.44,0,0,0-5.63-3.25Z"/><rect class="cls-3" x="508.76" y="1120.23" width="18.96" height="2.36" rx="1.12" ry="1.12" transform="translate(1639.64 603.17) rotate(90)"/><circle class="cls-3" cx="518.24" cy="1134.45" r="1.73"/><line class="cls-7" x1="750.96" y1="948.8" x2="0.96" y2="948.8"/><path class="cls-6" d="M335.23,325.12H442.75a.12.12,0,0,1,.12.12V503.6a0,0,0,0,1,0,0H335.23a28.1,28.1,0,0,1-28.1-28.1V353.22a28.1,28.1,0,0,1,28.1-28.1Z" transform="translate(789.36 39.36) rotate(90)"/><rect class="cls-4" y="129.34" width="750" height="119.95"/><text class="cls-8" transform="translate(142.18 201.9)"><tspan class="cls-9">T</tspan><tspan x="15.97" y="0">od</tspan><tspan class="cls-10" x="61.63" y="0">a</tspan><tspan x="81.56" y="0">y</tspan><tspan class="cls-11" x="100.88" y="0">’</tspan><tspan x="109.13" y="0">s commu</tspan><tspan class="cls-12" x="267.07" y="0">t</tspan><tspan x="280.59" y="0">e </tspan><tspan class="cls-13" x="312.74" y="0">ov</tspan><tspan x="352.91" y="0">e</tspan><tspan class="cls-14" x="374.04" y="0">r</tspan><tspan x="387.86" y="0">vi</tspan><tspan class="cls-15" x="417.44" y="0">e</tspan><tspan x="437.83" y="0">w</tspan></text><text class="cls-16" transform="translate(233.67 74.83)">GUI OVERVIEW</text><text class="cls-17" transform="translate(331.57 374.21)">9:<tspan class="cls-18" x="21.77" y="0">0</tspan><tspan x="37" y="0">0am</tspan></text><rect class="cls-19" x="1.37" width="750" height="1334"/><path class="cls-20" d="M381.15,445.06l-5.85-9.75-4.12,11.52L363,459.26h0c-1.33,2.26-2.88,3.68-5.08,3.07a3.9,3.9,0,0,1-2.7-5.22l8.33-13.81,3.63-13.24a7.77,7.77,0,0,0-.54-3.18,8.73,8.73,0,0,1-.23-4.34l2.16-12.39-5.36,4.66-2.2,9.4c-.34,2-1.41,3.43-3.24,3.45a3.15,3.15,0,0,1-3.16-3.31h0l2.83-11.68a4.22,4.22,0,0,1,1.65-3l11.73-8.41a10.51,10.51,0,0,1,11.27,2.11l5.7,11.39,6.44,4.91c1.38,1.49,1.56,3.57.2,4.84-1.16,1.09-3.39.35-4.5-.79l-5.59-4.26c-1.1-.66-3.64-5.94-3.64-5.94L379,424.63a2.85,2.85,0,0,0,.41,2.25L388.21,441l2.45,16.16h0c.58,2.65-.6,4.55-2.64,5.08a3.8,3.8,0,0,1-4.69-2.85Z"/><ellipse class="cls-20" cx="380.26" cy="393.47" rx="6.15" ry="6.38" transform="translate(-64.65 74.92) rotate(-10.38)"/><line class="cls-7" x1="750.96" y1="345.3" x2="0.96" y2="345.3"/><line class="cls-7" x1="750.96" y1="546.8" x2="0.96" y2="546.8"/><line class="cls-7" x1="750.96" y1="748.3" x2="0.96" y2="748.3"/><text class="cls-21" transform="translate(24.26 341.55)">N<tspan class="cls-22" x="15.26" y="0">o</tspan><tspan class="cls-23" x="26.5" y="0">w</tspan></text><text class="cls-21" transform="translate(8.76 744.61)">9:30 am</text><text class="cls-21" transform="translate(11.42 543.08)">9:15 am</text><text class="cls-21" transform="translate(9.21 945.83)">9:45 am</text><text class="cls-21" transform="translate(298.73 1271.04)"><tspan class="cls-24">F</tspan><tspan x="10.92" y="0">inal Destination</tspan></text><rect class="cls-25" x="0.23" y="0.84" width="750" height="128"/><rect class="cls-26" x="0.23" y="128.84" width="750" height="1"/><path class="cls-27" d="M356.48,113.53a4.29,4.29,0,0,1-4.29-4.29v-34a15.17,15.17,0,1,0-30.35,0V104.8h5.27a6.19,6.19,0,0,0,6.18-6.18v-18a4.29,4.29,0,0,1,8.58,0v18a14.77,14.77,0,0,1-14.76,14.75h-9.55a4.29,4.29,0,0,1-4.29-4.29V75.29a23.75,23.75,0,0,1,47.5,0v34A4.29,4.29,0,0,1,356.48,113.53Z"/><path class="cls-28" d="M394.68,113.53a23.78,23.78,0,0,1-23.75-23.75v-34a4.29,4.29,0,0,1,8.58,0v34a15.17,15.17,0,1,0,30.35,0V56a4.29,4.29,0,0,1,8.58,0v33.8A23.78,23.78,0,0,1,394.68,113.53Z"/><path class="cls-29" d="M432.9,113.76a4.29,4.29,0,0,1-4.29-4.29V55.59a4.29,4.29,0,0,1,8.58,0v53.88A4.29,4.29,0,0,1,432.9,113.76Z"/><line class="cls-30" x1="707.7" y1="69.2" x2="670.28" y2="69.2"/><line class="cls-30" x1="707.7" y1="82.53" x2="670.28" y2="82.53"/><line class="cls-30" x1="707.7" y1="95.87" x2="670.28" y2="95.87"/><path class="cls-6" d="M153.67,774.45H565.84a30.49,30.49,0,0,1,30.49,30.49v117.5a30.49,30.49,0,0,1-30.49,30.49H153.67a0,0,0,0,1,0,0V774.45a0,0,0,0,1,0,0Z" transform="translate(1238.69 488.69) rotate(90)"/><path class="cls-6" d="M283.2,1062.83H436.31a30.49,30.49,0,0,1,30.49,30.49v117.5a30.49,30.49,0,0,1-30.49,30.49H283.2a0,0,0,0,1,0,0V1062.83A0,0,0,0,1,283.2,1062.83Z" transform="translate(1527.07 777.07) rotate(90)"/><text class="cls-17" transform="translate(334.71 670.04)">9:<tspan class="cls-31" x="21.77" y="0">1</tspan><tspan x="30.72" y="0">0am</tspan></text><text class="cls-17" transform="translate(333.71 1048.53)">9:<tspan class="cls-18" x="21.77" y="0">4</tspan><tspan x="36" y="0">7am</tspan></text><text class="cls-17" transform="translate(333.16 1228.25)">9:55am</text><circle class="cls-32" cx="375" cy="847.74" r="39.85"/><polygon class="cls-20" points="403.88 826.07 346.04 826.07 346.04 839.73 367.58 839.73 367.58 875.39 382.3 875.39 382.3 839.73 403.88 839.73 403.88 826.07"/><path class="cls-20" d="M381.15,1172.35l-5.85-9.75-4.12,11.52L363,1186.54h0c-1.33,2.26-2.88,3.68-5.08,3.07a3.9,3.9,0,0,1-2.7-5.22l8.33-13.81,3.63-13.24a7.77,7.77,0,0,0-.54-3.18,8.73,8.73,0,0,1-.23-4.34l2.16-12.39-5.36,4.66-2.2,9.4c-.34,2-1.41,3.43-3.24,3.45a3.15,3.15,0,0,1-3.16-3.31h0l2.83-11.68a4.22,4.22,0,0,1,1.65-3l11.73-8.41a10.51,10.51,0,0,1,11.27,2.11l5.7,11.39,6.44,4.91c1.38,1.49,1.56,3.57.2,4.84-1.16,1.09-3.39.35-4.5-.79l-5.59-4.26c-1.1-.66-3.64-5.94-3.64-5.94L379,1151.91a2.85,2.85,0,0,0,.41,2.25l8.79,14.09,2.45,16.16h0c.58,2.65-.6,4.55-2.64,5.08a3.8,3.8,0,0,1-4.69-2.85Z"/><ellipse class="cls-20" cx="380.26" cy="1120.75" rx="6.15" ry="6.38" transform="translate(-195.64 86.82) rotate(-10.38)"/><text class="cls-33" transform="translate(308.6 693.48)"><tspan class="cls-34">K</tspan><tspan x="12.66" y="0">endall </tspan><tspan class="cls-22" x="72.12" y="0">S</tspan><tspan x="83.78" y="0">qua</tspan><tspan class="cls-24" x="117.18" y="0">r</tspan><tspan x="124.42" y="0">e </tspan></text><text class="cls-33" transform="translate(342.27 1021.45)">Al<tspan class="cls-24" x="19.02" y="0">e</tspan><tspan x="29.76" y="0">wi</tspan><tspan class="cls-35" x="50.68" y="0">f</tspan><tspan x="57.14" y="0">e</tspan></text><rect class="cls-6" y="1174.62" width="750" height="159.38"/><text class="cls-36" transform="translate(58.5 1239.35)"><tspan class="cls-37">Y</tspan><tspan x="14.81" y="0">our cur</tspan><tspan class="cls-38" x="116.31" y="0">r</tspan><tspan x="127.15" y="0">ent commu</tspan><tspan class="cls-39" x="287.55" y="0">t</tspan><tspan x="298.65" y="0">e has s</tspan><tspan class="cls-35" x="395.98" y="0">ev</tspan><tspan x="427.76" y="0">e</tspan><tspan class="cls-38" x="444.87" y="0">r</tspan><tspan x="455.71" y="0">e anomalies. </tspan><tspan x="82.98" y="44.85">Click on the ale</tspan><tspan class="cls-40" x="305.99" y="44.85">r</tspan><tspan x="317.81" y="44.85">ts </tspan><tspan class="cls-39" x="352.1" y="44.85">t</tspan><tspan x="363.21" y="44.85">o learn mo</tspan><tspan class="cls-38" x="513.52" y="44.85">r</tspan><tspan class="cls-41" x="524.36" y="44.85">e</tspan><tspan x="541.07" y="44.85">.</tspan></text><line class="cls-42" x1="376.17" y1="487.26" x2="376.17" y2="493.26"/><line class="cls-43" x1="376.17" y1="506.27" x2="376.17" y2="629.86"/><line class="cls-42" x1="376.17" y1="636.36" x2="376.17" y2="642.36"/><path class="cls-5" d="M644.06,608.08H510.73V546.14H621.58a8.68,8.68,0,0,1,7.75,4.77l22.48,44.57A8.68,8.68,0,0,1,644.06,608.08Z"/><path class="cls-6" d="M652,595.89c-.06-.13-.12-.27-.19-.4l-22.48-44.57a8.68,8.68,0,0,0-7.75-4.77H510.73v42.11H628.48Z"/><path class="cls-4" d="M510.14,613H655.81a2.36,2.36,0,0,1,2.36,2.36v.11a2.36,2.36,0,0,1-2.36,2.36H510.14a0,0,0,0,1,0,0V613a0,0,0,0,1,0,0Z"/><path class="cls-5" d="M528.47,577.11H510.73V556h17.74a3.4,3.4,0,0,1,3.39,3.39v14.35A3.4,3.4,0,0,1,528.47,577.11Z"/><path class="cls-5" d="M606.61,556h25.28l10.66,21.12H606.61a3.4,3.4,0,0,1-3.39-3.39V559.37A3.4,3.4,0,0,1,606.61,556Z"/><path class="cls-5" d="M572.32,577.11H542.79a4.78,4.78,0,0,1-4.78-4.78V560.76a4.78,4.78,0,0,1,4.78-4.78h29.53a4.61,4.61,0,0,1,4.6,4.6v11.93A4.61,4.61,0,0,1,572.32,577.11Z"/><path class="cls-4" d="M510.73,591.86H588a1.72,1.72,0,0,1,1.72,1.72V595a1.72,1.72,0,0,1-1.72,1.72H510.73a0,0,0,0,1,0,0v-4.82A0,0,0,0,1,510.73,591.86Z"/><path class="cls-5" d="M491.83,569.16a6.24,6.24,0,0,1-5.4-9.36l26.67-46.19a6.24,6.24,0,0,1,10.81,0l26.67,46.19a6.24,6.24,0,0,1-5.4,9.36Z"/><path class="cls-3" d="M518.5,513.48a3.19,3.19,0,0,1,2.81,1.62L548,561.3a3.25,3.25,0,0,1-2.81,4.87H491.83A3.25,3.25,0,0,1,489,561.3l26.67-46.19a3.19,3.19,0,0,1,2.81-1.62m0-6a9.15,9.15,0,0,0-8,4.62l-26.67,46.19a9.23,9.23,0,0,0,8,13.85h53.34a9.23,9.23,0,0,0,8-13.85l-26.67-46.19a9.15,9.15,0,0,0-8-4.62Z"/><rect class="cls-3" x="505.03" y="538.15" width="26.94" height="3.36" rx="1.59" ry="1.59" transform="translate(1058.32 21.33) rotate(90)"/><circle class="cls-3" cx="518.5" cy="558.37" r="2.46"/><g id="Page_Controls_-_Standard_Dark" data-name="Page Controls - Standard Dark"><rect id="Page_Controls_Frame" data-name="Page Controls Frame" class="cls-44" x="0.7" y="1143.98" width="750" height="30"/><g id="Page_Controls_Group" data-name="Page Controls Group"><rect id="Page_Controls_Frame-2" data-name="Page Controls Frame" class="cls-19" x="0.7" y="1143.98" width="750" height="30"/><circle id="Page_Control_-_Inactive" data-name="Page Control - Inactive" class="cls-45" cx="407" cy="1158.98" r="7"/><circle id="Page_Control_-_Inactive-2" data-name="Page Control - Inactive" class="cls-45" cx="375" cy="1158.98" r="7"/><circle id="Page_Control_-_Active" data-name="Page Control - Active" class="cls-3" cx="343" cy="1158.98" r="7"/></g></g><rect class="cls-26" x="1.37" y="1174.12" width="750" height="1"/><path class="cls-3" d="M619.45,406.4a17.06,17.06,0,0,0-24.06-8.55,26.71,26.71,0,0,0-50.61-5.5,18.86,18.86,0,0,0-20.3,11,13.35,13.35,0,1,0-2.27,26.51h93.45a12,12,0,0,0,3.79-23.44Z"/><rect class="cls-4" x="524.74" y="438.08" width="13.41" height="1.75" rx="0.87" ry="0.87" transform="translate(675.28 -235.16) rotate(62.49)"/><rect class="cls-4" x="524.74" y="438.08" width="13.41" height="1.75" rx="0.87" ry="0.87" transform="translate(675.28 -235.16) rotate(62.49)"/><rect class="cls-5" x="546.36" y="440.28" width="1.75" height="13.41" rx="0.87" ry="0.87" transform="translate(-144.59 303.33) rotate(-27.51)"/><rect class="cls-4" x="550.95" y="438.08" width="13.41" height="1.75" rx="0.87" ry="0.87" transform="translate(689.38 -258.41) rotate(62.49)"/><rect class="cls-4" x="566.73" y="446.11" width="13.41" height="1.75" rx="0.87" ry="0.87" transform="translate(704.99 -268.08) rotate(62.49)"/><rect class="cls-6" x="577.16" y="438.08" width="13.41" height="1.75" rx="0.87" ry="0.87" transform="translate(703.48 -281.65) rotate(62.49)"/><rect class="cls-5" x="598.77" y="440.28" width="1.75" height="13.41" rx="0.87" ry="0.87" transform="translate(-138.66 327.54) rotate(-27.51)"/><rect class="cls-4" x="603.37" y="438.08" width="13.41" height="1.75" rx="0.87" ry="0.87" transform="translate(717.58 -304.9) rotate(62.49)"/><rect class="cls-4" x="532.77" y="454.14" width="13.41" height="1.75" rx="0.87" ry="0.87" transform="translate(693.84 -233.64) rotate(62.49)"/><rect class="cls-6" x="532.77" y="454.14" width="13.41" height="1.75" rx="0.87" ry="0.87" transform="translate(693.84 -233.64) rotate(62.49)"/><rect class="cls-4" x="548.55" y="462.17" width="13.41" height="1.75" rx="0.87" ry="0.87" transform="translate(709.45 -243.32) rotate(62.49)"/><rect class="cls-6" x="558.98" y="454.14" width="13.41" height="1.75" rx="0.87" ry="0.87" transform="translate(707.94 -256.89) rotate(62.49)"/><rect class="cls-5" x="580.59" y="456.34" width="1.75" height="13.41" rx="0.87" ry="0.87" transform="translate(-148.14 320.96) rotate(-27.51)"/><rect class="cls-4" x="585.19" y="454.14" width="13.41" height="1.75" rx="0.87" ry="0.87" transform="translate(722.05 -280.13) rotate(62.49)"/><rect class="cls-4" x="600.97" y="462.17" width="13.41" height="1.75" rx="0.87" ry="0.87" transform="translate(737.66 -289.81) rotate(62.49)"/><rect class="cls-6" x="611.4" y="454.14" width="13.41" height="1.75" rx="0.87" ry="0.87" transform="translate(736.15 -303.38) rotate(62.49)"/><path class="cls-5" d="M499.47,412a4.39,4.39,0,0,1-3.8-6.59l18.76-32.5a4.39,4.39,0,0,1,7.6,0l18.77,32.5A4.39,4.39,0,0,1,537,412Z"/><path class="cls-3" d="M518.24,372.78a2.25,2.25,0,0,1,2,1.14L539,406.42a2.29,2.29,0,0,1-2,3.43H499.47a2.29,2.29,0,0,1-2-3.43l18.76-32.5a2.25,2.25,0,0,1,2-1.14m0-4.21a6.44,6.44,0,0,0-5.63,3.25l-18.76,32.5a6.5,6.5,0,0,0,5.63,9.74H537a6.5,6.5,0,0,0,5.63-9.74l-18.76-32.5a6.44,6.44,0,0,0-5.63-3.25Z"/><rect class="cls-3" x="508.76" y="390.13" width="18.96" height="2.36" rx="1.12" ry="1.12" transform="translate(909.55 -126.92) rotate(90)"/><circle class="cls-3" cx="518.24" cy="404.36" r="1.73"/><line class="cls-32" x1="287.62" y1="1062.39" x2="466.1" y2="1062.39"/></g></g></g></svg>