<svg xmlns="http://www.w3.org/2000/svg" viewBox="0 0 752.14 1334"><defs><style>.cls-1{isolation:isolate;}.cls-16,.cls-17,.cls-2,.cls-3,.cls-41,.cls-8{fill:#fff;}.cls-2{mix-blend-mode:screen;}.cls-3{stroke:#01b8af;opacity:0.2;}.cls-28,.cls-3,.cls-43{stroke-miterlimit:10;}.cls-28,.cls-3{stroke-width:3px;}.cls-4{fill:#595a5c;}.cls-5{fill:#01b8af;}.cls-6{fill:#fdb82c;}.cls-7{fill:#ed3393;}.cls-8{font-size:37.38px;font-family:CerebriSans-Medium, Cerebri Sans;}.cls-9{letter-spacing:-0.08em;}.cls-10{letter-spacing:-0.01em;}.cls-11{letter-spacing:-0.07em;}.cls-12{letter-spacing:0em;}.cls-13{letter-spacing:-0.02em;}.cls-14{letter-spacing:0.01em;}.cls-15{letter-spacing:-0.02em;}.cls-16,.cls-17{font-size:30px;}.cls-16{font-family:GothamBold, Gotham Bold;letter-spacing:0.13em;}.cls-17{font-family:CerebriSans-SemiBold, Cerebri Sans;font-weight:700;}.cls-18{letter-spacing:-0.12em;}.cls-19{letter-spacing:0em;}.cls-20{letter-spacing:0em;}.cls-21{letter-spacing:-0.02em;}.cls-22{letter-spacing:0.03em;}.cls-23{letter-spacing:-0.01em;}.cls-24{font-size:25px;}.cls-24,.cls-29,.cls-33{fill:#e4eaec;}.cls-24,.cls-30,.cls-33{font-family:CircularStd-Book, Circular Std;}.cls-25{letter-spacing:0.01em;}.cls-26{letter-spacing:-0.01em;}.cls-27,.cls-28,.cls-43{fill:none;}.cls-28{stroke:#e4eaec;}.cls-30,.cls-33{font-size:20px;}.cls-30{fill:#828183;}.cls-31{letter-spacing:-0.01em;}.cls-32{letter-spacing:0em;}.cls-34{letter-spacing:-0.04em;}.cls-35{letter-spacing:0em;}.cls-36{fill:#f6f6f6;opacity:0.9;}.cls-37,.cls-42{fill:#010101;}.cls-37{opacity:0.3;}.cls-38{fill:#fbb729;}.cls-39{fill:#eb3591;}.cls-40{fill:#05b5ae;}.cls-41{opacity:0;}.cls-42{opacity:0.1;}.cls-43{stroke:#595a5c;stroke-linecap:round;stroke-width:5px;}</style></defs><title>weather_crowd</title><g class="cls-1"><g id="Layer_2" data-name="Layer 2"><g id="Layer_1-2" data-name="Layer 1"><rect class="cls-2" x="0.77" width="750" height="1334"/><line class="cls-3" x1="751.59" y1="546.28" x2="1.59" y2="547.31"/><line class="cls-3" x1="751.87" y1="747.78" x2="1.87" y2="748.81"/><path class="cls-4" d="M625.78,403.14a17.06,17.06,0,0,0-24.06-8.55,26.71,26.71,0,0,0-50.61-5.5,18.86,18.86,0,0,0-20.3,11,13.35,13.35,0,1,0-2.27,26.51H622a12,12,0,0,0,3.79-23.44Z"/><rect class="cls-5" x="531.07" y="434.82" width="13.41" height="1.75" rx="0.87" ry="0.87" transform="translate(675.79 -242.53) rotate(62.49)"/><rect class="cls-5" x="531.07" y="434.82" width="13.41" height="1.75" rx="0.87" ry="0.87" transform="translate(675.79 -242.53) rotate(62.49)"/><rect class="cls-6" x="552.68" y="437.02" width="1.75" height="13.41" rx="0.87" ry="0.87" transform="translate(-142.37 305.88) rotate(-27.51)"/><rect class="cls-5" x="557.28" y="434.82" width="13.41" height="1.75" rx="0.87" ry="0.87" transform="translate(689.89 -265.77) rotate(62.49)"/><rect class="cls-5" x="573.06" y="442.85" width="13.41" height="1.75" rx="0.87" ry="0.87" transform="translate(705.51 -275.45) rotate(62.49)"/><rect class="cls-7" x="583.49" y="434.82" width="13.41" height="1.75" rx="0.87" ry="0.87" transform="translate(704 -289.02) rotate(62.49)"/><rect class="cls-6" x="605.1" y="437.02" width="1.75" height="13.41" rx="0.87" ry="0.87" transform="translate(-136.44 330.09) rotate(-27.51)"/><rect class="cls-5" x="609.69" y="434.82" width="13.41" height="1.75" rx="0.87" ry="0.87" transform="translate(718.1 -312.26) rotate(62.49)"/><rect class="cls-5" x="539.1" y="450.88" width="13.41" height="1.75" rx="0.87" ry="0.87" transform="translate(694.36 -241.01) rotate(62.49)"/><rect class="cls-7" x="539.1" y="450.88" width="13.41" height="1.75" rx="0.87" ry="0.87" transform="translate(694.36 -241.01) rotate(62.49)"/><rect class="cls-5" x="554.88" y="458.91" width="13.41" height="1.75" rx="0.87" ry="0.87" transform="translate(709.97 -250.68) rotate(62.49)"/><rect class="cls-7" x="565.31" y="450.88" width="13.41" height="1.75" rx="0.87" ry="0.87" transform="translate(708.46 -264.25) rotate(62.49)"/><rect class="cls-6" x="586.92" y="453.08" width="1.75" height="13.41" rx="0.87" ry="0.87" transform="translate(-145.92 323.51) rotate(-27.51)"/><rect class="cls-5" x="591.52" y="450.88" width="13.41" height="1.75" rx="0.87" ry="0.87" transform="translate(722.56 -287.5) rotate(62.49)"/><rect class="cls-5" x="607.3" y="458.91" width="13.41" height="1.75" rx="0.87" ry="0.87" transform="translate(738.17 -297.17) rotate(62.49)"/><rect class="cls-7" x="617.72" y="450.88" width="13.41" height="1.75" rx="0.87" ry="0.87" transform="translate(736.66 -310.74) rotate(62.49)"/><path class="cls-6" d="M505.8,408.69a4.39,4.39,0,0,1-3.8-6.59l18.76-32.5a4.39,4.39,0,0,1,7.6,0l18.76,32.5a4.39,4.39,0,0,1-3.8,6.59Z"/><path class="cls-4" d="M524.56,369.52a2.25,2.25,0,0,1,2,1.14l18.76,32.5a2.29,2.29,0,0,1-2,3.43H505.8a2.29,2.29,0,0,1-2-3.43l18.76-32.5a2.25,2.25,0,0,1,2-1.14m0-4.21a6.44,6.44,0,0,0-5.63,3.25l-18.76,32.5a6.5,6.5,0,0,0,5.63,9.74h37.53a6.5,6.5,0,0,0,5.63-9.74l-18.76-32.5a6.44,6.44,0,0,0-5.63-3.25Z"/><rect class="cls-4" x="515.08" y="386.87" width="18.96" height="2.36" rx="1.12" ry="1.12" transform="translate(912.62 -136.51) rotate(90)"/><circle class="cls-4" cx="524.56" cy="401.1" r="1.73"/><path class="cls-4" d="M625.78,983.23a17.06,17.06,0,0,0-24.06-8.55,26.71,26.71,0,0,0-50.61-5.5,18.86,18.86,0,0,0-20.3,11,13.35,13.35,0,1,0-2.27,26.51H622a12,12,0,0,0,3.79-23.44Z"/><rect class="cls-5" x="531.07" y="1014.92" width="13.41" height="1.75" rx="0.87" ry="0.87" transform="translate(1190.29 69.61) rotate(62.49)"/><rect class="cls-5" x="531.07" y="1014.92" width="13.41" height="1.75" rx="0.87" ry="0.87" transform="translate(1190.29 69.61) rotate(62.49)"/><rect class="cls-6" x="552.68" y="1017.11" width="1.75" height="13.41" rx="0.87" ry="0.87" transform="translate(-410.33 371.48) rotate(-27.51)"/><rect class="cls-5" x="557.28" y="1014.92" width="13.41" height="1.75" rx="0.87" ry="0.87" transform="translate(1204.39 46.36) rotate(62.49)"/><rect class="cls-5" x="573.06" y="1022.95" width="13.41" height="1.75" rx="0.87" ry="0.87" transform="translate(1220 36.69) rotate(62.49)"/><rect class="cls-7" x="583.49" y="1014.92" width="13.41" height="1.75" rx="0.87" ry="0.87" transform="translate(1218.49 23.12) rotate(62.49)"/><rect class="cls-6" x="605.1" y="1017.11" width="1.75" height="13.41" rx="0.87" ry="0.87" transform="translate(-404.4 395.69) rotate(-27.51)"/><rect class="cls-5" x="609.69" y="1014.92" width="13.41" height="1.75" rx="0.87" ry="0.87" transform="translate(1232.59 -0.13) rotate(62.49)"/><rect class="cls-5" x="539.1" y="1030.97" width="13.41" height="1.75" rx="0.87" ry="0.87" transform="translate(1208.85 71.13) rotate(62.49)"/><rect class="cls-7" x="539.1" y="1030.97" width="13.41" height="1.75" rx="0.87" ry="0.87" transform="translate(1208.85 71.13) rotate(62.49)"/><rect class="cls-5" x="554.88" y="1039" width="13.41" height="1.75" rx="0.87" ry="0.87" transform="translate(1224.46 61.45) rotate(62.49)"/><rect class="cls-7" x="565.31" y="1030.97" width="13.41" height="1.75" rx="0.87" ry="0.87" transform="translate(1222.95 47.88) rotate(62.49)"/><rect class="cls-6" x="586.92" y="1033.17" width="1.75" height="13.41" rx="0.87" ry="0.87" transform="translate(-413.88 389.11) rotate(-27.51)"/><rect class="cls-5" x="591.52" y="1030.97" width="13.41" height="1.75" rx="0.87" ry="0.87" transform="translate(1237.06 24.64) rotate(62.49)"/><rect class="cls-5" x="607.3" y="1039" width="13.41" height="1.75" rx="0.87" ry="0.87" transform="translate(1252.67 14.96) rotate(62.49)"/><rect class="cls-7" x="617.72" y="1030.97" width="13.41" height="1.75" rx="0.87" ry="0.87" transform="translate(1251.16 1.39) rotate(62.49)"/><path class="cls-6" d="M505.8,988.79a4.39,4.39,0,0,1-3.8-6.59l18.76-32.5a4.39,4.39,0,0,1,7.6,0l18.76,32.5a4.39,4.39,0,0,1-3.8,6.59Z"/><path class="cls-4" d="M524.56,949.61a2.25,2.25,0,0,1,2,1.14l18.76,32.5a2.29,2.29,0,0,1-2,3.43H505.8a2.29,2.29,0,0,1-2-3.43l18.76-32.5a2.25,2.25,0,0,1,2-1.14m0-4.21a6.44,6.44,0,0,0-5.63,3.25l-18.76,32.5a6.5,6.5,0,0,0,5.63,9.74h37.53a6.5,6.5,0,0,0,5.63-9.74l-18.76-32.5a6.44,6.44,0,0,0-5.63-3.25Z"/><rect class="cls-4" x="515.08" y="966.97" width="18.96" height="2.36" rx="1.12" ry="1.12" transform="translate(1492.71 443.58) rotate(90)"/><circle class="cls-4" cx="524.56" cy="981.2" r="1.73"/><line class="cls-3" x1="751.73" y1="948.8" x2="1.73" y2="948.8"/><rect class="cls-7" x="295.88" y="337.14" width="159.79" height="178.48" rx="30.49" ry="30.49" transform="matrix(0, 1, -1, 0, 802.15, 50.61)"/><path class="cls-7" d="M154.44,614.32H566.61a30.49,30.49,0,0,1,30.49,30.49v117.5a30.49,30.49,0,0,1-30.49,30.49H154.44a0,0,0,0,1,0,0V614.32A0,0,0,0,1,154.44,614.32Z" transform="translate(1079.33 327.79) rotate(90)"/><path class="cls-7" d="M284,902.7H437.08a30.49,30.49,0,0,1,30.49,30.49v117.5a30.49,30.49,0,0,1-30.49,30.49H284a0,0,0,0,1,0,0V902.7a0,0,0,0,1,0,0Z" transform="translate(1367.72 616.18) rotate(90)"/><rect class="cls-7" x="0.77" y="1174.62" width="750" height="159.38"/><rect class="cls-5" x="0.77" y="129.34" width="750" height="119.95"/><text class="cls-8" transform="translate(142.95 201.9)"><tspan class="cls-9">T</tspan><tspan x="15.97" y="0">od</tspan><tspan class="cls-10" x="61.63" y="0">a</tspan><tspan x="81.56" y="0">y</tspan><tspan class="cls-11" x="100.88" y="0">’</tspan><tspan x="109.13" y="0">s commu</tspan><tspan class="cls-12" x="267.07" y="0">t</tspan><tspan x="280.59" y="0">e </tspan><tspan class="cls-13" x="312.74" y="0">ov</tspan><tspan x="352.91" y="0">e</tspan><tspan class="cls-14" x="374.04" y="0">r</tspan><tspan x="387.86" y="0">vi</tspan><tspan class="cls-15" x="417.44" y="0">e</tspan><tspan x="437.83" y="0">w</tspan></text><text class="cls-16" transform="translate(234.44 74.83)">GUI OVERVIEW</text><text class="cls-17" transform="translate(59.28 1239.35)"><tspan class="cls-18">Y</tspan><tspan x="14.81" y="0">our cur</tspan><tspan class="cls-19" x="116.31" y="0">r</tspan><tspan x="127.15" y="0">ent commu</tspan><tspan class="cls-20" x="287.55" y="0">t</tspan><tspan x="298.65" y="0">e has s</tspan><tspan class="cls-21" x="395.98" y="0">ev</tspan><tspan x="427.76" y="0">e</tspan><tspan class="cls-19" x="444.87" y="0">r</tspan><tspan x="455.71" y="0">e anomalies. </tspan><tspan x="82.98" y="44.85">Click on the ale</tspan><tspan class="cls-22" x="305.99" y="44.85">r</tspan><tspan x="317.81" y="44.85">ts </tspan><tspan class="cls-20" x="352.1" y="44.85">t</tspan><tspan x="363.21" y="44.85">o learn mo</tspan><tspan class="cls-19" x="513.52" y="44.85">r</tspan><tspan class="cls-23" x="524.36" y="44.85">e</tspan><tspan x="541.07" y="44.85">.</tspan></text><text class="cls-24" transform="translate(335.48 509.91)">9:<tspan class="cls-25" x="21.77" y="0">1</tspan><tspan x="30.72" y="0">0am</tspan></text><text class="cls-24" transform="translate(332.35 374.21)">9:<tspan class="cls-26" x="21.77" y="0">0</tspan><tspan x="37" y="0">0am</tspan></text><text class="cls-24" transform="translate(334.48 888.4)">9:<tspan class="cls-26" x="21.77" y="0">4</tspan><tspan x="36" y="0">7am</tspan></text><text class="cls-24" transform="translate(333.93 1068.12)">9:55am</text><rect class="cls-27" x="2.14" width="750" height="1334"/><circle class="cls-28" cx="375.77" cy="687.61" r="39.85"/><polygon class="cls-29" points="404.65 665.94 346.81 665.94 346.81 679.6 368.35 679.6 368.35 715.27 383.07 715.27 383.07 679.6 404.65 679.6 404.65 665.94"/><path class="cls-29" d="M381.92,445.06l-5.85-9.75L372,446.84l-8.15,12.42h0c-1.33,2.26-2.88,3.68-5.08,3.07a3.9,3.9,0,0,1-2.7-5.22l8.33-13.81L368,430.06a7.77,7.77,0,0,0-.54-3.18,8.73,8.73,0,0,1-.23-4.34l2.16-12.39L364,414.81l-2.2,9.4c-.34,2-1.41,3.43-3.24,3.45a3.15,3.15,0,0,1-3.16-3.31h0l2.83-11.68a4.22,4.22,0,0,1,1.65-3l11.73-8.41a10.51,10.51,0,0,1,11.27,2.11l5.7,11.39,6.44,4.91c1.38,1.49,1.56,3.57.2,4.84-1.16,1.09-3.39.35-4.5-.79l-5.59-4.26c-1.1-.66-3.64-5.94-3.64-5.94l-1.71,11.16a2.85,2.85,0,0,0,.41,2.25L389,441l2.45,16.16h0c.58,2.65-.6,4.55-2.64,5.08a3.8,3.8,0,0,1-4.69-2.85Z"/><ellipse class="cls-29" cx="381.03" cy="393.47" rx="6.15" ry="6.38" transform="matrix(0.98, -0.18, 0.18, 0.98, -64.64, 75.06)"/><path class="cls-29" d="M381.92,1012.22l-5.85-9.75L372,1014l-8.15,12.42h0c-1.33,2.26-2.88,3.68-5.08,3.07a3.9,3.9,0,0,1-2.7-5.22l8.33-13.81L368,997.21a7.77,7.77,0,0,0-.54-3.18,8.73,8.73,0,0,1-.23-4.34l2.16-12.39L364,982l-2.2,9.4c-.34,2-1.41,3.43-3.24,3.45a3.15,3.15,0,0,1-3.16-3.31h0l2.83-11.68a4.22,4.22,0,0,1,1.65-3l11.73-8.41a10.51,10.51,0,0,1,11.27,2.11l5.7,11.39,6.44,4.91c1.38,1.49,1.56,3.57.2,4.84-1.16,1.09-3.39.35-4.5-.79l-5.59-4.26c-1.1-.66-3.64-5.94-3.64-5.94l-1.71,11.16a2.85,2.85,0,0,0,.41,2.25l8.79,14.09,2.45,16.16h0c.58,2.65-.6,4.55-2.64,5.08a3.8,3.8,0,0,1-4.69-2.85Z"/><ellipse class="cls-29" cx="381.03" cy="960.62" rx="6.15" ry="6.38" transform="translate(-166.78 84.34) rotate(-10.38)"/><line class="cls-3" x1="751.73" y1="345.3" x2="1.73" y2="345.3"/><text class="cls-30" transform="translate(25.03 341.55)">N<tspan class="cls-31" x="15.26" y="0">o</tspan><tspan class="cls-32" x="26.5" y="0">w</tspan></text><text class="cls-30" transform="translate(9.53 744.61)">9:30 am</text><text class="cls-30" transform="translate(12.19 543.08)">9:15 am</text><text class="cls-33" transform="translate(309.37 533.35)"><tspan class="cls-34">K</tspan><tspan x="12.66" y="0">endall </tspan><tspan class="cls-31" x="72.12" y="0">S</tspan><tspan x="83.78" y="0">qua</tspan><tspan class="cls-35" x="117.18" y="0">r</tspan><tspan x="124.42" y="0">e </tspan></text><text class="cls-33" transform="translate(343.04 861.33)">Al<tspan class="cls-35" x="19.02" y="0">e</tspan><tspan x="29.76" y="0">wi</tspan><tspan class="cls-21" x="50.68" y="0">f</tspan><tspan x="57.14" y="0">e</tspan></text><text class="cls-30" transform="translate(9.98 945.83)">9:45 am</text><text class="cls-30" transform="translate(299.5 1110.91)"><tspan class="cls-35">F</tspan><tspan x="10.92" y="0">inal Destination</tspan></text><rect class="cls-36" x="1" y="0.84" width="750" height="128"/><rect class="cls-37" x="1" y="128.84" width="750" height="1"/><path class="cls-38" d="M357.25,113.53a4.29,4.29,0,0,1-4.29-4.29v-34a15.17,15.17,0,1,0-30.35,0V104.8h5.27a6.19,6.19,0,0,0,6.18-6.18v-18a4.29,4.29,0,0,1,8.58,0v18a14.77,14.77,0,0,1-14.76,14.75h-9.55a4.29,4.29,0,0,1-4.29-4.29V75.29a23.75,23.75,0,0,1,47.5,0v34A4.29,4.29,0,0,1,357.25,113.53Z"/><path class="cls-39" d="M395.46,113.53a23.78,23.78,0,0,1-23.75-23.75v-34a4.29,4.29,0,0,1,8.58,0v34a15.17,15.17,0,1,0,30.35,0V56a4.29,4.29,0,0,1,8.58,0v33.8A23.78,23.78,0,0,1,395.46,113.53Z"/><path class="cls-40" d="M433.67,113.76a4.29,4.29,0,0,1-4.29-4.29V55.59a4.29,4.29,0,0,1,8.58,0v53.88A4.29,4.29,0,0,1,433.67,113.76Z"/><g id="Page_Controls_-_Standard_Dark" data-name="Page Controls - Standard Dark"><rect id="Page_Controls_Frame" data-name="Page Controls Frame" class="cls-41" x="1.47" y="1143.98" width="750" height="30"/><g id="Page_Controls_Group" data-name="Page Controls Group"><rect id="Page_Controls_Frame-2" data-name="Page Controls Frame" class="cls-27" x="1.47" y="1143.98" width="750" height="30"/><circle id="Page_Control_-_Inactive" data-name="Page Control - Inactive" class="cls-42" cx="407.77" cy="1158.98" r="7"/><circle id="Page_Control_-_Inactive-2" data-name="Page Control - Inactive" class="cls-42" cx="375.77" cy="1158.98" r="7"/><circle id="Page_Control_-_Active" data-name="Page Control - Active" class="cls-4" cx="343.77" cy="1158.98" r="7"/></g></g><line class="cls-43" x1="708.47" y1="69.2" x2="671.05" y2="69.2"/><line class="cls-43" x1="708.47" y1="82.53" x2="671.05" y2="82.53"/><line class="cls-43" x1="708.47" y1="95.87" x2="671.05" y2="95.87"/><rect class="cls-37" y="1174.12" width="750" height="1"/><line class="cls-28" x1="285.4" y1="482.61" x2="463.88" y2="482.61"/><line class="cls-28" x1="285.4" y1="900.96" x2="463.88" y2="900.96"/><path class="cls-6" d="M528.66,664.76s7.17-2.93,8.68,32.16H510.09s-3.82-34.29,6.11-32.22Z"/><path class="cls-5" d="M576.49,664.76s7.17-2.93,8.68,32.16H557.93s-3.82-34.29,6.11-32.22Z"/><path class="cls-6" d="M625.34,664.76s7.17-2.93,8.68,32.16H606.78s-3.82-34.29,6.11-32.22Z"/><circle class="cls-5" cx="520.8" cy="657.49" r="10.71"/><circle class="cls-6" cx="570.04" cy="657.49" r="10.71"/><circle class="cls-5" cx="616.76" cy="657.49" r="10.71"/><path class="cls-7" d="M598.42,684.89s7.17-2.93,8.68,32.16H579.86S576,682.76,586,684.83Z"/><path class="cls-7" d="M557.4,684.89s7.17-2.93,8.68,32.16H538.84s-3.82-34.29,6.11-32.22Z"/><path class="cls-6" d="M533.69,707s7.17-2.93,8.68,32.16H515.13s-3.82-34.29,6.11-32.22Z"/><path class="cls-5" d="M576.49,712.06s7.17-2.93,8.68,32.16H557.93S554.11,709.93,564,712Z"/><path class="cls-6" d="M622.82,707s7.17-2.93,8.68,32.16H604.26s-3.82-34.29,6.11-32.22Z"/><circle class="cls-5" cx="525.84" cy="699.74" r="10.71"/><circle class="cls-6" cx="570.04" cy="704.78" r="10.71"/><circle class="cls-5" cx="614.24" cy="699.74" r="10.71"/><circle class="cls-6" cx="549.77" cy="676.23" r="10.71"/><circle class="cls-6" cx="590.62" cy="676.23" r="10.71"/><path class="cls-6" d="M506.78,681a5.06,5.06,0,0,1-4.38-7.58L524,636a5.06,5.06,0,0,1,8.76,0l21.61,37.42A5.06,5.06,0,0,1,550,681Z"/><path class="cls-4" d="M528.39,635.86a2.59,2.59,0,0,1,2.28,1.32l21.61,37.42a2.63,2.63,0,0,1-2.28,3.95H506.78a2.63,2.63,0,0,1-2.28-3.95l21.61-37.42a2.59,2.59,0,0,1,2.28-1.32m0-4.85a7.41,7.41,0,0,0-6.48,3.74L500.3,672.17a7.48,7.48,0,0,0,6.48,11.22H550a7.48,7.48,0,0,0,6.48-11.22l-21.61-37.42a7.41,7.41,0,0,0-6.48-3.74Z"/><rect class="cls-4" x="517.47" y="655.84" width="21.83" height="2.72" rx="1.29" ry="1.29" transform="translate(1185.59 128.81) rotate(90)"/><circle class="cls-4" cx="528.39" cy="672.23" r="1.99"/></g></g></g></svg>