<svg xmlns="http://www.w3.org/2000/svg" viewBox="0 0 135.33 135.33"><defs><style>.cls-1{fill:none;}.cls-2{fill:#e4ebed;}</style></defs><title>Walk_icon</title><g id="Layer_2" data-name="Layer 2"><g id="Layer_1-2" data-name="Layer 1"><rect class="cls-1" width="135.33" height="135.33"/><path class="cls-2" d="M74.07,86.18l-5.85-9.75L64.09,88l-8.15,12.42h0c-1.33,2.26-2.88,3.68-5.08,3.07a3.9,3.9,0,0,1-2.7-5.22l8.33-13.81,3.63-13.24A7.77,7.77,0,0,0,59.57,68a8.73,8.73,0,0,1-.23-4.34L61.5,51.26l-5.36,4.66-2.2,9.4c-.34,2-1.41,3.43-3.24,3.45a3.15,3.15,0,0,1-3.16-3.31h0l2.83-11.68a4.22,4.22,0,0,1,1.65-3l11.73-8.41A10.51,10.51,0,0,1,75,44.43l5.7,11.39,6.44,4.91c1.38,1.49,1.56,3.57.2,4.84-1.16,1.09-3.39.35-4.5-.79l-5.59-4.26c-1.1-.66-3.64-5.94-3.64-5.94L71.92,65.74A2.85,2.85,0,0,0,72.33,68l8.79,14.09,2.45,16.16h0c.58,2.65-.6,4.55-2.64,5.08a3.8,3.8,0,0,1-4.69-2.85Z"/><ellipse class="cls-2" cx="73.17" cy="34.58" rx="6.15" ry="6.38" transform="translate(-5.03 13.74) rotate(-10.38)"/></g></g></svg>